<?xml version="1.0" encoding="utf-8"?>
<COLLADA xmlns="http://www.collada.org/2005/11/COLLADASchema" version="1.4.1" xmlns:xsi="http://www.w3.org/2001/XMLSchema-instance">
  <asset>
    <contributor>
      <author>Blender User</author>
      <authoring_tool>Blender 4.4.3 commit date:2025-04-29, commit time:14:09, hash:802179c51ccc</authoring_tool>
    </contributor>
    <created>2025-08-04T15:40:06</created>
    <modified>2025-08-04T15:40:06</modified>
    <unit name="meter" meter="1"/>
    <up_axis>Z_UP</up_axis>
  </asset>
  <library_effects>
    <effect id="bleach_64-effect">
      <profile_COMMON>
        <newparam sid="bleach_64_png_001-surface">
          <surface type="2D">
            <init_from>bleach_64_png_001</init_from>
          </surface>
        </newparam>
        <newparam sid="bleach_64_png_001-sampler">
          <sampler2D>
            <source>bleach_64_png_001-surface</source>
          </sampler2D>
        </newparam>
        <technique sid="common">
          <lambert>
            <emission>
              <color sid="emission">0 0 0 1</color>
            </emission>
            <diffuse>
              <texture texture="bleach_64_png_001-sampler" texcoord="UVMap"/>
            </diffuse>
            <index_of_refraction>
              <float sid="ior">1.5</float>
            </index_of_refraction>
          </lambert>
        </technique>
      </profile_COMMON>
    </effect>
  </library_effects>
  <library_images>
    <image id="bleach_64_png_001" name="bleach_64_png_001">
      <init_from>bleach_64.png.001.png</init_from>
    </image>
  </library_images>
  <library_materials>
    <material id="bleach_64-material" name="bleach_64">
      <instance_effect url="#bleach_64-effect"/>
    </material>
  </library_materials>
  <library_geometries>
    <geometry id="bleach-mesh" name="bleach">
      <mesh>
        <source id="bleach-mesh-positions">
          <float_array id="bleach-mesh-positions-array" count="267">-0.0562309 0 0 -0.03858906 -0.02474874 0 0 -0.03499996 0 0.03858906 -0.02474874 0 0.05001431 0 0 -0.06577938 0 0.0902903 -0.04651302 -0.02474874 0.0902903 0 -0.03499996 0.0902903 0.06122058 0 0.0902903 -0.06169742 0 0.1408925 -0.04362666 -0.02474874 0.1408925 -0.02563136 0 0.2275577 -0.0181241 -0.01825875 0.2275577 0 -0.02582186 0.2275577 0.0181241 -0.01825875 0.2275577 0.02563136 0 0.2275577 0.02563136 0 0.2447834 0.0181241 -0.01825875 0.2447834 0 -0.02582186 0.2447834 -0.0181241 -0.01825875 0.2447834 -0.02563136 0 0.2447834 0.01828008 0 0.2447834 0.01292598 -0.013022 0.2447834 0 -0.01841592 0.2447834 -0.01292598 -0.013022 0.2447834 -0.01828008 0 0.2447834 0.01828008 0 0.2700358 0.01292598 -0.013022 0.2700358 0 -0.01841592 0.2700358 -0.01292598 -0.013022 0.2700358 -0.01828008 0 0.2700358 -0.04830598 0 0.1916666 0.04540497 0 0.1916666 0 -0.03162312 0.1916666 -0.03210616 -0.02236092 0.1916666 0.04588365 -0.02300906 0.0902903 0.01896542 -0.03062695 0.1056545 0 -0.03499996 0.1408925 0.05285781 -0.01038682 0.1264631 0.01259011 -0.02799105 0.1916666 0.03073024 -0.02196353 0.1916667 0.04911309 -0.01305693 0.1544593 0 -0.03278839 0.1745573 0.06082081 0 0.1214933 0.05600756 0 0.1556367 0.01160264 -0.02344512 0.166611 0.02816784 -0.01628369 0.1152087 0.04099845 0 0.1149479 0.012066 -0.02359211 0.1416462 0.01687443 -0.02548581 0.1815131 0.01920557 0 0.176552 0.01627987 0 0.1614961 0.04096275 0 0.1528559 0.01902121 0 0.1429114 0.03110021 0 0.1184701 0.02946788 0 0.1784137 0.04412996 0 0.1325845 -0.03858906 0.02474874 0 0 0.03499996 0 0.03858906 0.02474874 0 -0.04651302 0.02474874 0.0902903 0 0.03499996 0.0902903 -0.04362666 0.02474874 0.1408925 -0.0181241 0.01825875 0.2275577 0 0.02582186 0.2275577 0.0181241 0.01825875 0.2275577 0.0181241 0.01825875 0.2447834 0 0.02582186 0.2447834 -0.0181241 0.01825875 0.2447834 0.01292598 0.013022 0.2447834 0 0.01841592 0.2447834 -0.01292598 0.013022 0.2447834 0.01292598 0.013022 0.2700358 0 0.01841592 0.2700358 -0.01292598 0.013022 0.2700358 0 0.03162312 0.1916666 -0.03210616 0.02236092 0.1916666 0.04588365 0.02300906 0.0902903 0.01896542 0.03062695 0.1056545 0 0.03499996 0.1408925 0.05285781 0.01038682 0.1264631 0.01259011 0.02799105 0.1916666 0.03073024 0.02196353 0.1916667 0.04911309 0.01305693 0.1544593 0 0.03278839 0.1745573 0.01160264 0.02344512 0.166611 0.02816784 0.01628369 0.1152087 0.012066 0.02359211 0.1416462 0.01687443 0.02548581 0.1815131</float_array>
          <technique_common>
            <accessor source="#bleach-mesh-positions-array" count="89" stride="3">
              <param name="X" type="float"/>
              <param name="Y" type="float"/>
              <param name="Z" type="float"/>
            </accessor>
          </technique_common>
        </source>
        <source id="bleach-mesh-normals">
          <float_array id="bleach-mesh-normals-array" count="534">-0.2151916 -0.9763892 -0.01888549 0.256747 -0.9664787 0 -0.7863513 -0.6121569 -0.08315896 0.2246841 -0.9744316 0 -0.7874908 -0.613044 0.06352508 -0.7208613 -0.6811584 0.1279929 -0.2152137 -0.9764898 0.01227593 0.2739003 -0.9494356 0.1534627 -0.7209402 -0.5223013 0.4554629 0.174763 -0.203513 -0.9633485 0.7559435 -0.5050734 0.4164737 -0.2708346 -0.9388083 0.2128089 0.9248753 -0.3802705 0 -0.3851084 -0.9228713 0 0.3851084 -0.9228713 0 -0.9248753 -0.3802705 0 0 0 1 0 0 1 0 0 1 0 0 1 -0.9248753 -0.3802705 0 0.3851084 -0.9228714 0 -0.3851085 -0.9228714 0 0.9248753 -0.3802705 0 0.2765921 -0.9587665 0.0652967 0.8469292 -0.4696768 0.249228 -0.7899013 -0.5767613 0.2083323 -0.2282803 -0.9715013 0.06382256 0.8141275 -0.5692315 0.1147693 0.607234 -0.3846045 -0.6952311 0.6469538 -0.7608891 0.04998648 0.722609 -0.639092 0.2634344 0.8276897 -0.5517038 -0.1027273 0.8316361 -0.5543344 0.03309017 0.4767212 -0.8323792 -0.2826339 -0.8338029 -0.5364715 -0.1302734 0.6397135 -0.4946345 0.5883055 0.9477089 -0.2868901 0.1397925 0.3253124 -0.2416842 0.9141994 0.8529989 -0.2752518 0.4434292 0.9249947 -0.1523669 -0.3480936 -0.8097594 -0.3365636 -0.4806399 -0.256747 0.9664787 0 0.256747 0.9664787 0 -0.8122187 0.5789816 -0.07128143 0.2246841 0.9744316 0 -0.7874908 0.613044 0.06352508 -0.7208613 0.6811584 0.1279929 -0.2152137 0.9764898 0.01227593 0.2739003 0.9494356 0.1534627 -0.7209402 0.5223013 0.4554629 0.174763 0.203513 -0.9633485 0.7559435 0.5050734 0.4164737 -0.2708346 0.9388083 0.2128089 0.9248753 0.3802705 0 -0.3851084 0.9228713 0 0.3851084 0.9228713 0 -0.9248753 0.3802705 0 0 0 1 0 0 1 0 0 1 0 0 1 -0.9248753 0.3802705 0 0.3851084 0.9228714 0 -0.3851085 0.9228714 0 0.9248753 0.3802705 0 0.2765921 0.9587665 0.0652967 0.8469293 0.4696768 0.249228 -0.7899013 0.5767613 0.2083323 -0.256927 0.9608744 0.103484 0.8141275 0.5692316 0.1147693 0.3137233 0.9441722 -0.100582 0.6863486 0.7270736 0.01702123 0.653892 0.7090575 0.2639369 0.9059925 0.4182522 -0.06513702 0.7959239 0.6053108 0.01019626 0.4767212 0.8323791 -0.2826339 -0.8004466 0.577068 -0.162104 0.4993546 0.6789169 0.5382536 0.9477089 0.2868901 0.1397925 0.3253124 0.2416841 0.9141994 0.8529988 0.2752518 0.4434292 0.9249947 0.1523669 -0.3480936 -0.7752329 0.5267292 -0.3486694 0 0 -1 0 0 1 0.3137233 -0.9441722 -0.100582 0.607234 0.3846045 -0.6952311 -0.256747 -0.9664787 0 0.2528416 -0.9675061 -0.001785755 -0.8122187 -0.5789816 -0.07128143 0.2526716 -0.9668557 -0.03670382 -0.8067664 -0.5890757 0.04601854 -0.7833801 -0.5242045 0.3339539 -0.2287467 -0.973486 0 0.3086709 -0.9289677 0.2043066 0.3782796 -0.9065068 0.1874832 -0.8576074 -0.3526127 0.374398 0.8690623 -0.3573225 0.3421276 -0.3808941 -0.912772 0.1475365 0.9248753 -0.3802705 0 -0.3851084 -0.9228713 0 0.3851084 -0.9228713 0 -0.9248753 -0.3802705 0 0 0 1 0 0 1 0 0 1 0 0 1 -0.9248753 -0.3802705 0 0.3851084 -0.9228714 0 -0.3851085 -0.9228714 0 0.9248753 -0.3802705 0 0.8011422 -0.5352725 0.2676839 -0.7923133 -0.5740091 0.2067685 -0.2765923 -0.9587665 0.0652967 -0.256927 -0.9608744 0.103484 0.8792313 -0.4708151 0.07270056 0.6863485 -0.7270736 0.01702123 0.653892 -0.7090575 0.2639369 0.9059925 -0.4182522 -0.06513702 0.7959239 -0.6053108 0.01019626 0.4138419 -0.9089935 -0.0496568 -0.8004466 -0.577068 -0.162104 0.4993546 -0.6789168 0.5382536 0.9812933 -0.1915446 0.01934164 0.8696914 -0.2426999 0.4298066 0.9550825 -0.2310259 -0.1855923 -0.7752329 -0.5267292 -0.3486694 -0.2151916 0.9763892 -0.01888549 0.2528416 0.9675061 -0.001785755 -0.7863513 0.6121569 -0.08315896 0.2526716 0.9668557 -0.03670382 -0.8067664 0.5890757 0.04601854 -0.7833801 0.5242045 0.3339539 -0.2287467 0.973486 0 0.3782796 0.9065068 0.1874832 0.308671 0.9289678 0.2043066 -0.8576074 0.3526127 0.374398 0.8690623 0.3573225 0.3421276 -0.3808941 0.912772 0.1475365 0.9248753 0.3802705 0 -0.3851084 0.9228713 0 0.3851084 0.9228713 0 -0.9248753 0.3802705 0 0 0 1 0 0 1 0 0 1 0 0 1 -0.9248753 0.3802705 0 0.3851084 0.9228714 0 -0.3851085 0.9228714 0 0.9248753 0.3802705 0 0.8011422 0.5352725 0.2676839 -0.7923133 0.5740091 0.2067685 -0.2765923 0.9587665 0.0652967 -0.2282803 0.9715013 0.06382256 0.8792313 0.4708151 0.07270056 0.6469538 0.760889 0.04998648 0.7226089 0.639092 0.2634344 0.8276897 0.5517038 -0.1027273 0.8316361 0.5543344 0.03309011 0.4138419 0.9089935 -0.0496568 -0.8338029 0.5364714 -0.1302735 0.6397135 0.4946345 0.5883055 0.9812933 0.1915446 0.01934164 0.8696914 0.2426999 0.4298066 0.9550825 0.2310259 -0.1855923 -0.8097594 0.3365636 -0.4806399 0 0 -1 0 0 -1 0 0 -1 0 0 -1 0 0 -1 0 0 1 0 0 1 0 0 1 0 0 1 0 0 1</float_array>
          <technique_common>
            <accessor source="#bleach-mesh-normals-array" count="178" stride="3">
              <param name="X" type="float"/>
              <param name="Y" type="float"/>
              <param name="Z" type="float"/>
            </accessor>
          </technique_common>
        </source>
        <source id="bleach-mesh-map-0">
          <float_array id="bleach-mesh-map-0-array" count="1068">0.234375 0.01953125 0.3476563 0.2695313 0.2148437 0.2734375 0.4570313 0.01953125 0.3476563 0.2695313 0.34375 0.01953125 0.1484375 0.01953125 0.2148437 0.2734375 0.1432347 0.2734375 0.3476563 0.2695313 0.3984375 0.3125 0.3476563 0.4101563 0.2148437 0.2734375 0.1484497 0.4140625 0.1432347 0.2734375 0.1523437 0.71875 0.1953125 0.6875 0.1992187 0.7265625 0.3476563 0.2695313 0.2226562 0.4101563 0.2148437 0.2734375 0.34375 0.6512272 0.34375 0.546875 0.3789063 0.5507813 0.2539063 0.546875 0.234375 0.6512272 0.1757812 0.5585938 0.1523437 0.9335938 0.07421875 0.9375 0.140625 0.90625 0.453125 0.6512272 0.4296875 0.5507813 0.5039063 0.5625 0.34375 0.546875 0.2890625 0.6512272 0.2539063 0.546875 0.875 0.6992188 0.8203125 0.7460938 0.8203125 0.6992188 0.7695313 0.6992188 0.7148438 0.7460938 0.7148438 0.6992188 0.8203125 0.6992188 0.7695313 0.7460938 0.7695313 0.6992188 0.7148438 0.6992188 0.6601563 0.7460938 0.6601563 0.6992188 0.2418094 0.96854 0.2887685 0.9649278 0.2887685 0.982989 0.3321153 0.9649278 0.2887685 0.9649278 0.3212786 0.9504789 0.220136 0.921581 0.2526462 0.9540911 0.2418094 0.96854 0.3478512 0.9143565 0.3212786 0.9504789 0.3321153 0.9179688 0.7929688 0.7734375 0.7539063 0.84375 0.7539063 0.7734375 0.8710938 0.7734375 0.8320313 0.84375 0.8320313 0.7734375 0.8320313 0.7734375 0.7929688 0.84375 0.7929688 0.7734375 0.90625 0.7734375 0.8710938 0.84375 0.8710938 0.7734375 0.3789063 0.5507813 0.34375 0.546875 0.34375 0.5 0.5039063 0.5625 0.4921875 0.453125 0.53125 0.4609375 0.2226562 0.4101563 0.1757812 0.5585938 0.1484497 0.4140625 0.2226562 0.4101563 0.3476563 0.4101563 0.34375 0.5 0.53125 0.4609375 0.5078125 0.375 0.546875 0.3632813 0.07421875 0.9375 0.1523437 0.9335938 0.1015625 0.9765625 0.015625 0.8203125 0.06640625 0.890625 0.0234375 0.9101563 0.0625 0.8164063 0.046875 0.7148438 0.09765625 0.7304688 0.4765625 0.2695313 0.5351563 0.01953125 0.5507813 0.2734375 0.5507813 0.2734375 0.5078125 0.375 0.4765625 0.2695313 0.07421875 0.9375 0.0234375 0.9101563 0.06640625 0.890625 0.1992187 0.7265625 0.2695313 0.7109375 0.2539063 0.7460938 0.09765625 0.7304688 0.09765625 0.6445313 0.1523437 0.71875 0.1328125 0.8671875 0.0625 0.8164063 0.1328125 0.8164063 0.09765625 0.7304688 0.1523437 0.71875 0.140625 0.7460938 0.09765625 0.7304688 0.1328125 0.8164063 0.0625 0.8164063 0.06640625 0.890625 0.140625 0.90625 0.07421875 0.9375 0.3164063 0.7851563 0.2695313 0.7109375 0.375 0.7460938 0.8789063 0.01953125 0.7695313 0.2695313 0.7695313 0.01953125 0.7695313 0.2695313 0.65625 0.01953125 0.7695313 0.01953125 0.9648438 0.01953125 0.8984375 0.2734375 0.8789063 0.01953125 0.7148438 0.3125 0.7695313 0.2695313 0.7695313 0.4101563 0.9648315 0.4140625 0.8984375 0.2734375 0.9700465 0.2734375 0.1953125 0.6875 0.1523437 0.71875 0.1992187 0.7265625 0.890625 0.4101563 0.7695313 0.2695313 0.8984375 0.2734375 0.734375 0.5507813 0.7695313 0.546875 0.7695313 0.6512272 0.8828125 0.6512272 0.859375 0.546875 0.9375 0.5585938 0.1523437 0.9335938 0.140625 0.90625 0.07421875 0.9375 0.6835938 0.5507813 0.6601563 0.6512272 0.609375 0.5625 0.828125 0.6512272 0.7695313 0.546875 0.859375 0.546875 0.9296875 0.7460938 0.875 0.6992188 0.9296875 0.6992188 0.6054688 0.7460938 0.5507813 0.6992188 0.6054688 0.6992188 0.984375 0.7460938 0.9296875 0.6992188 0.984375 0.6992188 0.6601563 0.7460938 0.6054688 0.6992188 0.6601563 0.6992188 0.2851563 0.8710097 0.2381972 0.8746219 0.281544 0.8529486 0.3261778 0.8710097 0.2851563 0.8710097 0.281544 0.8529486 0.2526462 0.8854587 0.220136 0.921581 0.2381972 0.8746219 0.3478512 0.9143565 0.3176664 0.8854587 0.3261778 0.8710097 0.7539063 0.84375 0.7148438 0.7734375 0.7539063 0.7734375 0.984375 0.84375 0.9453125 0.7734375 0.984375 0.7734375 0.7148438 0.84375 0.6757813 0.7734375 0.7148438 0.7734375 0.9453125 0.84375 0.90625 0.7734375 0.9453125 0.7734375 0.734375 0.5507813 0.7695313 0.5 0.7695313 0.546875 0.6210938 0.453125 0.609375 0.5625 0.5820313 0.4609375 0.9375 0.5585938 0.890625 0.4101563 0.9648315 0.4140625 0.7695313 0.5 0.890625 0.4101563 0.859375 0.546875 0.6054688 0.375 0.5820313 0.4609375 0.5664063 0.3632813 0.07421875 0.9375 0.05078125 0.9648438 0.1015625 0.9765625 0.015625 0.8203125 0.06640625 0.890625 0.0625 0.8164063 0.0625 0.8164063 0.046875 0.7148438 0.015625 0.8203125 0.6367188 0.2695313 0.578125 0.01953125 0.65625 0.01953125 0.5625 0.2734375 0.6054688 0.375 0.5664063 0.3632813 0.0234375 0.9101563 0.07421875 0.9375 0.06640625 0.890625 0.1992187 0.7265625 0.2695313 0.7109375 0.1953125 0.6875 0.09765625 0.7304688 0.09765625 0.6445313 0.046875 0.7148438 0.0625 0.8164063 0.1328125 0.8671875 0.1328125 0.8164063 0.09765625 0.7304688 0.140625 0.7460938 0.1523437 0.71875 0.1328125 0.8164063 0.09765625 0.7304688 0.0625 0.8164063 0.140625 0.90625 0.06640625 0.890625 0.07421875 0.9375 0.3164063 0.7851563 0.2695313 0.7109375 0.2539063 0.7460938 0.6054688 0.7773438 0.6367188 0.84375 0.6054688 0.9140625 0.2330526 0.8277162 0.2061178 0.8396872 0.1761901 0.8277162 0.05078125 0.9648438 0.07421875 0.9375 0.1015625 0.9765625 0.1523437 0.9335938 0.07421875 0.9375 0.1015625 0.9765625 0.234375 0.01953125 0.34375 0.01953125 0.3476563 0.2695313 0.4570313 0.01953125 0.4765625 0.2695313 0.3476563 0.2695313 0.1484375 0.01953125 0.234375 0.01953125 0.2148437 0.2734375 0.3476563 0.2695313 0.4765625 0.2695313 0.3984375 0.3125 0.2148437 0.2734375 0.2226562 0.4101563 0.1484497 0.4140625 0.1523437 0.71875 0.09765625 0.6445313 0.1953125 0.6875 0.3476563 0.2695313 0.3476563 0.4101563 0.2226562 0.4101563 0.4296875 0.5507813 0.3984375 0.6512272 0.3789063 0.5507813 0.3984375 0.6512272 0.34375 0.6512272 0.3789063 0.5507813 0.2539063 0.546875 0.2890625 0.6512272 0.234375 0.6512272 0.453125 0.6512272 0.3984375 0.6512272 0.4296875 0.5507813 0.34375 0.546875 0.34375 0.6512272 0.2890625 0.6512272 0.875 0.6992188 0.875 0.7460938 0.8203125 0.7460938 0.7695313 0.6992188 0.7695313 0.7460938 0.7148438 0.7460938 0.8203125 0.6992188 0.8203125 0.7460938 0.7695313 0.7460938 0.7148438 0.6992188 0.7148438 0.7460938 0.6601563 0.7460938 0.2418094 0.96854 0.2526462 0.9540911 0.2887685 0.9649278 0.3321153 0.9649278 0.2887685 0.982989 0.2887685 0.9649278 0.220136 0.921581 0.2381972 0.921581 0.2526462 0.9540911 0.3478512 0.9143565 0.3321153 0.9649278 0.3212786 0.9504789 0.7929688 0.7734375 0.7929688 0.84375 0.7539063 0.84375 0.8710938 0.7734375 0.8710938 0.84375 0.8320313 0.84375 0.8320313 0.7734375 0.8320313 0.84375 0.7929688 0.84375 0.90625 0.7734375 0.90625 0.84375 0.8710938 0.84375 0.5039063 0.5625 0.4296875 0.5507813 0.4921875 0.453125 0.2226562 0.4101563 0.2539063 0.546875 0.1757812 0.5585938 0.34375 0.5 0.34375 0.546875 0.2539063 0.546875 0.2539063 0.546875 0.2226562 0.4101563 0.34375 0.5 0.53125 0.4609375 0.4921875 0.453125 0.5078125 0.375 0.015625 0.8203125 0.0625 0.8164063 0.06640625 0.890625 0.0625 0.8164063 0.015625 0.8203125 0.046875 0.7148438 0.4765625 0.2695313 0.4570313 0.01953125 0.5351563 0.01953125 0.5507813 0.2734375 0.546875 0.3632813 0.5078125 0.375 0.07421875 0.9375 0.05078125 0.9648438 0.0234375 0.9101563 0.1992187 0.7265625 0.1953125 0.6875 0.2695313 0.7109375 0.09765625 0.7304688 0.046875 0.7148438 0.09765625 0.6445313 0.1328125 0.8671875 0.06640625 0.890625 0.0625 0.8164063 0.09765625 0.7304688 0.140625 0.7460938 0.1328125 0.8164063 0.06640625 0.890625 0.1328125 0.8671875 0.140625 0.90625 0.3164063 0.7851563 0.2539063 0.7460938 0.2695313 0.7109375 0.8789063 0.01953125 0.8984375 0.2734375 0.7695313 0.2695313 0.7695313 0.2695313 0.6367188 0.2695313 0.65625 0.01953125 0.9648438 0.01953125 0.9700465 0.2734375 0.8984375 0.2734375 0.7148438 0.3125 0.6367188 0.2695313 0.7695313 0.2695313 0.9648315 0.4140625 0.890625 0.4101563 0.8984375 0.2734375 0.1953125 0.6875 0.09765625 0.6445313 0.1523437 0.71875 0.890625 0.4101563 0.7695313 0.4101563 0.7695313 0.2695313 0.7695313 0.6512272 0.7148438 0.6512272 0.734375 0.5507813 0.7148438 0.6512272 0.6835938 0.5507813 0.734375 0.5507813 0.8828125 0.6512272 0.828125 0.6512272 0.859375 0.546875 0.6835938 0.5507813 0.7148438 0.6512272 0.6601563 0.6512272 0.828125 0.6512272 0.7695313 0.6512272 0.7695313 0.546875 0.9296875 0.7460938 0.875 0.7460938 0.875 0.6992188 0.6054688 0.7460938 0.5507813 0.7460938 0.5507813 0.6992188 0.984375 0.7460938 0.9296875 0.7460938 0.9296875 0.6992188 0.6601563 0.7460938 0.6054688 0.7460938 0.6054688 0.6992188 0.2851563 0.8710097 0.2526462 0.8854587 0.2381972 0.8746219 0.3261778 0.8710097 0.3176664 0.8854587 0.2851563 0.8710097 0.2526462 0.8854587 0.2381972 0.921581 0.220136 0.921581 0.3478512 0.9143565 0.3321153 0.9179688 0.3176664 0.8854587 0.7539063 0.84375 0.7148438 0.84375 0.7148438 0.7734375 0.984375 0.84375 0.9453125 0.84375 0.9453125 0.7734375 0.7148438 0.84375 0.6757813 0.84375 0.6757813 0.7734375 0.9453125 0.84375 0.90625 0.84375 0.90625 0.7734375 0.6210938 0.453125 0.6835938 0.5507813 0.609375 0.5625 0.9375 0.5585938 0.859375 0.546875 0.890625 0.4101563 0.859375 0.546875 0.7695313 0.546875 0.7695313 0.5 0.7695313 0.5 0.7695313 0.4101563 0.890625 0.4101563 0.6054688 0.375 0.6210938 0.453125 0.5820313 0.4609375 0.015625 0.8203125 0.0234375 0.9101563 0.06640625 0.890625 0.0625 0.8164063 0.09765625 0.7304688 0.046875 0.7148438 0.6367188 0.2695313 0.5625 0.2734375 0.578125 0.01953125 0.5625 0.2734375 0.6367188 0.2695313 0.6054688 0.375 0.0234375 0.9101563 0.05078125 0.9648438 0.07421875 0.9375 0.1992187 0.7265625 0.2539063 0.7460938 0.2695313 0.7109375 0.09765625 0.7304688 0.1523437 0.71875 0.09765625 0.6445313 0.0625 0.8164063 0.06640625 0.890625 0.1328125 0.8671875 0.1328125 0.8164063 0.140625 0.7460938 0.09765625 0.7304688 0.140625 0.90625 0.1328125 0.8671875 0.06640625 0.890625 0.3164063 0.7851563 0.375 0.7460938 0.2695313 0.7109375 0.6054688 0.9140625 0.4960938 0.9414063 0.4960938 0.7460938 0.4960938 0.9414063 0.390625 0.9140625 0.390625 0.7773438 0.390625 0.9140625 0.3398438 0.84375 0.390625 0.7773438 0.390625 0.7773438 0.4960938 0.7460938 0.4960938 0.9414063 0.4960938 0.7460938 0.6054688 0.7773438 0.6054688 0.9140625 0.1761901 0.8277162 0.164219 0.8007813 0.2420309 0.7977885 0.164219 0.8007813 0.1731973 0.7738463 0.2300599 0.7708536 0.1731973 0.7738463 0.2001322 0.7618753 0.2300599 0.7708536 0.2300599 0.7708536 0.2420309 0.7977885 0.164219 0.8007813 0.2420309 0.7977885 0.2330526 0.8277162 0.1761901 0.8277162</float_array>
          <technique_common>
            <accessor source="#bleach-mesh-map-0-array" count="534" stride="2">
              <param name="S" type="float"/>
              <param name="T" type="float"/>
            </accessor>
          </technique_common>
        </source>
        <vertices id="bleach-mesh-vertices">
          <input semantic="POSITION" source="#bleach-mesh-positions"/>
        </vertices>
        <triangles material="bleach_64-material" count="178">
          <input semantic="VERTEX" source="#bleach-mesh-vertices" offset="0"/>
          <input semantic="NORMAL" source="#bleach-mesh-normals" offset="1"/>
          <input semantic="TEXCOORD" source="#bleach-mesh-map-0" offset="2" set="0"/>
          <p>1 0 0 7 0 1 6 0 2 3 1 3 7 1 4 2 1 5 0 2 6 6 2 7 5 2 8 7 3 9 36 3 10 37 3 11 6 4 12 9 4 13 5 4 14 47 5 15 38 5 16 56 5 17 7 6 18 10 6 19 6 6 20 13 7 21 33 7 22 39 7 23 34 8 24 11 8 25 31 8 26 55 9 27 49 9 28 50 9 29 15 10 30 40 10 31 32 10 32 33 11 33 12 11 34 34 11 35 15 12 36 17 12 37 14 12 38 13 13 39 19 13 40 12 13 41 14 14 42 18 14 43 13 14 44 12 15 45 20 15 46 11 15 47 17 16 48 23 16 49 18 16 50 19 17 51 23 17 52 24 17 53 16 18 54 22 18 55 17 18 56 20 19 57 24 19 58 25 19 59 24 20 60 30 20 61 25 20 62 22 21 63 28 21 64 23 21 65 23 22 66 29 22 67 24 22 68 21 23 69 27 23 70 22 23 71 39 24 72 33 24 73 42 24 74 32 25 75 41 25 76 44 25 77 10 26 78 31 26 79 9 26 80 10 27 81 37 27 82 42 27 83 44 28 84 38 28 85 43 28 86 49 29 87 55 29 88 40 29 89 37 30 90 45 30 91 42 30 92 48 31 93 36 31 94 46 31 95 35 32 96 4 32 97 8 32 98 8 33 99 38 33 100 35 33 101 49 34 102 42 34 103 45 34 104 56 35 105 41 35 106 52 35 107 46 36 108 35 36 109 47 36 110 51 37 111 48 37 112 53 37 113 46 38 114 47 38 115 54 38 116 46 39 117 53 39 118 48 39 119 45 40 120 50 40 121 49 40 122 55 41 123 41 41 124 40 41 125 57 42 126 61 42 127 58 42 128 61 43 129 59 43 130 58 43 131 0 44 132 60 44 133 57 44 134 78 45 135 61 45 136 79 45 137 9 46 138 60 46 139 5 46 140 80 47 141 47 47 142 56 47 143 62 48 144 61 48 145 60 48 146 81 49 147 75 49 148 64 49 149 11 50 150 76 50 151 31 50 152 55 51 153 50 51 154 88 51 155 82 52 156 15 52 157 32 52 158 63 53 159 75 53 160 76 53 161 66 54 162 15 54 163 65 54 164 68 55 165 64 55 166 63 55 167 67 56 168 65 56 169 64 56 170 20 57 171 63 57 172 11 57 173 70 58 174 66 58 175 67 58 176 68 59 177 70 59 178 67 59 179 69 60 180 16 60 181 66 60 182 20 61 183 71 61 184 68 61 185 30 62 186 71 62 187 25 62 188 73 63 189 69 63 190 70 63 191 74 64 192 70 64 193 71 64 194 72 65 195 21 65 196 69 65 197 81 66 198 84 66 199 75 66 200 83 67 201 32 67 202 44 67 203 31 68 204 62 68 205 9 68 206 84 69 207 62 69 208 76 69 209 80 70 210 44 70 211 43 70 212 88 71 213 81 71 214 82 71 215 79 72 216 85 72 217 87 72 218 87 73 219 78 73 220 79 73 221 77 74 222 4 74 223 59 74 224 8 75 225 80 75 226 43 75 227 84 76 228 88 76 229 85 76 230 56 77 231 83 77 232 80 77 233 86 78 234 77 78 235 78 78 236 87 79 237 51 79 238 53 79 239 86 80 240 54 80 241 47 80 242 53 81 243 86 81 244 87 81 245 50 82 246 85 82 247 88 82 248 55 83 249 83 83 250 52 83 251 59 84 252 4 84 253 3 84 254 72 85 255 73 85 256 74 85 257 39 86 258 49 86 259 40 86 260 55 87 261 88 87 262 82 87 263 1 88 264 2 88 265 7 88 266 3 89 267 35 89 268 7 89 269 0 90 270 1 90 271 6 90 272 7 91 273 35 91 274 36 91 275 6 92 276 10 92 277 9 92 278 47 93 279 35 93 280 38 93 281 7 94 282 37 94 283 10 94 284 40 95 285 14 95 286 39 95 287 14 96 288 13 96 289 39 96 290 34 97 291 12 97 292 11 97 293 15 98 294 14 98 295 40 98 296 33 99 297 13 99 298 12 99 299 15 100 300 16 100 301 17 100 302 13 101 303 18 101 304 19 101 305 14 102 306 17 102 307 18 102 308 12 103 309 19 103 310 20 103 311 17 104 312 22 104 313 23 104 314 19 105 315 18 105 316 23 105 317 16 106 318 21 106 319 22 106 320 20 107 321 19 107 322 24 107 323 24 108 324 29 108 325 30 108 326 22 109 327 27 109 328 28 109 329 23 110 330 28 110 331 29 110 332 21 111 333 26 111 334 27 111 335 32 112 336 40 112 337 41 112 338 10 113 339 34 113 340 31 113 341 42 114 342 33 114 343 34 114 344 34 115 345 10 115 346 42 115 347 44 116 348 41 116 349 38 116 350 37 117 351 48 117 352 45 117 353 48 118 354 37 118 355 36 118 356 35 119 357 3 119 358 4 119 359 8 120 360 43 120 361 38 120 362 49 121 363 39 121 364 42 121 365 56 122 366 38 122 367 41 122 368 46 123 369 36 123 370 35 123 371 51 124 372 45 124 373 48 124 374 46 125 375 54 125 376 53 125 377 45 126 378 51 126 379 50 126 380 55 127 381 52 127 382 41 127 383 57 128 384 60 128 385 61 128 386 61 129 387 77 129 388 59 129 389 0 130 390 5 130 391 60 130 392 78 131 393 77 131 394 61 131 395 9 132 396 62 132 397 60 132 398 80 133 399 77 133 400 47 133 401 62 134 402 79 134 403 61 134 404 64 135 405 65 135 406 81 135 407 65 136 408 82 136 409 81 136 410 11 137 411 63 137 412 76 137 413 82 138 414 65 138 415 15 138 416 63 139 417 64 139 418 75 139 419 66 140 420 16 140 421 15 140 422 68 141 423 67 141 424 64 141 425 67 142 426 66 142 427 65 142 428 20 143 429 68 143 430 63 143 431 70 144 432 69 144 433 66 144 434 68 145 435 71 145 436 70 145 437 69 146 438 21 146 439 16 146 440 20 147 441 25 147 442 71 147 443 30 148 444 74 148 445 71 148 446 73 149 447 72 149 448 69 149 449 74 150 450 73 150 451 70 150 452 72 151 453 26 151 454 21 151 455 83 152 456 82 152 457 32 152 458 31 153 459 76 153 460 62 153 461 76 154 462 75 154 463 84 154 464 84 155 465 79 155 466 62 155 467 80 156 468 83 156 469 44 156 470 79 157 471 84 157 472 85 157 473 87 158 474 86 158 475 78 158 476 77 159 477 8 159 478 4 159 479 8 160 480 77 160 481 80 160 482 84 161 483 81 161 484 88 161 485 56 162 486 52 162 487 83 162 488 86 163 489 47 163 490 77 163 491 87 164 492 85 164 493 51 164 494 53 165 495 54 165 496 86 165 497 50 166 498 51 166 499 85 166 500 55 167 501 82 167 502 83 167 503 3 168 504 2 168 505 58 168 506 2 169 507 1 169 508 57 169 509 1 170 510 0 170 511 57 170 512 57 171 513 58 171 514 2 171 515 58 172 516 59 172 517 3 172 518 74 173 519 30 173 520 26 173 521 30 174 522 29 174 523 27 174 524 29 175 525 28 175 526 27 175 527 27 176 528 26 176 529 30 176 530 26 177 531 72 177 532 74 177 533</p>
        </triangles>
      </mesh>
    </geometry>
  </library_geometries>
  <library_visual_scenes>
    <visual_scene id="Scene" name="Scene">
      <node id="bleach-col" name="bleach-col" type="NODE">
        <matrix sid="transform">1 0 0 0 0 1 0 0 0 0 1 0 0 0 0 1</matrix>
        <instance_geometry url="#bleach-mesh" name="bleach-col">
          <bind_material>
            <technique_common>
              <instance_material symbol="bleach_64-material" target="#bleach_64-material">
                <bind_vertex_input semantic="UVMap" input_semantic="TEXCOORD" input_set="0"/>
              </instance_material>
            </technique_common>
          </bind_material>
        </instance_geometry>
      </node>
    </visual_scene>
  </library_visual_scenes>
  <scene>
    <instance_visual_scene url="#Scene"/>
  </scene>
</COLLADA>