<?xml version="1.0" encoding="utf-8"?>
<COLLADA xmlns="http://www.collada.org/2005/11/COLLADASchema" version="1.4.1" xmlns:xsi="http://www.w3.org/2001/XMLSchema-instance">
  <asset>
    <contributor>
      <author>Blender User</author>
      <authoring_tool>Blender 4.4.3 commit date:2025-04-29, commit time:14:09, hash:802179c51ccc</authoring_tool>
    </contributor>
    <created>2025-08-04T15:45:36</created>
    <modified>2025-08-04T15:45:36</modified>
    <unit name="meter" meter="1"/>
    <up_axis>Z_UP</up_axis>
  </asset>
  <library_effects>
    <effect id="coin-changer_128-effect">
      <profile_COMMON>
        <newparam sid="coin-changer_128_png_001-surface">
          <surface type="2D">
            <init_from>coin-changer_128_png_001</init_from>
          </surface>
        </newparam>
        <newparam sid="coin-changer_128_png_001-sampler">
          <sampler2D>
            <source>coin-changer_128_png_001-surface</source>
          </sampler2D>
        </newparam>
        <technique sid="common">
          <lambert>
            <emission>
              <color sid="emission">0 0 0 1</color>
            </emission>
            <diffuse>
              <texture texture="coin-changer_128_png_001-sampler" texcoord="UVMap"/>
            </diffuse>
            <index_of_refraction>
              <float sid="ior">1.5</float>
            </index_of_refraction>
          </lambert>
        </technique>
      </profile_COMMON>
    </effect>
  </library_effects>
  <library_images>
    <image id="coin-changer_128_png_001" name="coin-changer_128_png_001">
      <init_from>coin-changer_128.png.001.png</init_from>
    </image>
  </library_images>
  <library_materials>
    <material id="coin-changer_128-material" name="coin-changer_128">
      <instance_effect url="#coin-changer_128-effect"/>
    </material>
  </library_materials>
  <library_geometries>
    <geometry id="coin-changer-mesh" name="coin-changer">
      <mesh>
        <source id="coin-changer-mesh-positions">
          <float_array id="coin-changer-mesh-positions-array" count="114">0.1111539 -0.2128621 0 0.1111539 -0.2128621 0.5333999 -0.111146 -0.2128621 0 0.0621699 -0.2128621 0.07600408 -0.111146 -0.2128621 0.5333999 0.1111493 2.39446e-6 0 3.90015e-6 -0.2128621 0.03083783 0.1111493 2.39446e-6 0.5333999 0.03108805 -0.2666989 0.07600408 -0.1111506 -2.39446e-6 0 0.01921492 -0.2461351 0.04332149 -0.1111506 -2.39446e-6 0.5333999 -0.03107798 -0.2667002 0.07600408 -0.01920574 -0.2461359 0.04332149 0.0621699 -0.2128621 0.09620308 -0.04400271 -0.2128621 0.4624707 0.03108805 -0.2666989 0.09620308 0.04401051 -0.2128621 0.4624707 -0.03107798 -0.2667002 0.09620308 -0.0621621 -0.2128621 0.07600408 -0.0384168 -0.2128621 0.04332149 0.03842461 -0.2128621 0.04332149 -0.0621621 -0.2128621 0.09620308 -0.0621621 -0.2128621 0.5333999 0.0621699 -0.2128621 0.5333999 -0.04400271 -0.2128621 0.3467267 0.04401051 -0.2128621 0.3467267 0.04401081 -0.2259781 0.3467267 -0.04400241 -0.22598 0.3467267 -0.04400241 -0.22598 0.4624707 0.04401081 -0.2259781 0.4624707 0.0621699 -0.2128621 0.09621644 0.05941522 -0.2128621 0.1553615 0.04764443 -0.2128621 0.1211407 -0.04763662 -0.2128621 0.1211407 -0.05940741 -0.2128621 0.1553615 -0.0621621 -0.2128621 0.09621644 3.90677e-6 -0.2128621 0</float_array>
          <technique_common>
            <accessor source="#coin-changer-mesh-positions-array" count="38" stride="3">
              <param name="X" type="float"/>
              <param name="Y" type="float"/>
              <param name="Z" type="float"/>
            </accessor>
          </technique_common>
        </source>
        <source id="coin-changer-mesh-normals">
          <float_array id="coin-changer-mesh-normals-array" count="198">-1 -2.15264e-5 0 1 2.15259e-5 0 0 0 1 0 0 1 0 0 -1 -2.15426e-5 1 0 0 -1 0 0.3042133 -0.1756333 -0.936273 0.7330029 -0.4231889 -0.5325579 7.62939e-6 -0.351275 -0.9362723 1.84011e-5 -0.8463953 -0.5325552 -0.3042128 -0.1756416 -0.9362716 -0.7329966 -0.4232059 -0.5325529 -0.8660202 -0.5000091 0 2.10935e-5 -1 0 0.8660309 -0.4999907 0 0 -1 0 0 -1 0 0 -1 0 0 -1 0 2.16711e-5 -1 0 0 0 -1 -1 -2.1583e-5 0 1 2.15861e-5 0 0 -1 0 0 -1 0 0 -1 0 0 0 1 0 0 1 0 0 -1 0 0 -1 -1 -2.15264e-5 0 1 2.15259e-5 0 0 0 1 -2.15426e-5 1 0 0 -1 0 0 -1 0 0.7330029 -0.4231888 -0.532558 1.78535e-5 -0.846395 -0.5325557 -0.7329964 -0.423206 -0.5325533 -0.8660202 -0.5000091 0 2.10935e-5 -1 0 0.8660309 -0.4999907 0 0 -1 0 0 -1 0 0 -1 0 0 -1 0 0 -1 0 0 -1 0 0 -1 0 0 -1 0 0 -1 0 0 -1 0 0 -1 0 0 -1 0 2.16711e-5 -1 0 0 0 -1 -1 -2.1583e-5 0 1 2.15861e-5 0 0 -1 0 0 -1 0 0 -1 0 0 -1 0 0 -1 0 0 -1 0 0 0 1</float_array>
          <technique_common>
            <accessor source="#coin-changer-mesh-normals-array" count="66" stride="3">
              <param name="X" type="float"/>
              <param name="Y" type="float"/>
              <param name="Z" type="float"/>
            </accessor>
          </technique_common>
        </source>
        <source id="coin-changer-mesh-map-0">
          <float_array id="coin-changer-mesh-map-0-array" count="396">0.0390625 0.9882813 0.3085938 0.3164063 0.0390625 0.3164063 0.3085938 0.9882813 0.0390625 0.3164063 0.3085938 0.3164063 0.328125 0.5859375 0.3476563 0.4765625 0.3476563 0.5859375 0.2578125 0.01171875 0.3203125 0.01171875 0.3203125 0.28125 0.9648438 0.01171875 0.9648438 0.28125 0.8242188 0.28125 0.6835938 0.9882813 0.9648438 0.3164063 0.9648438 0.9882813 0.6484375 0.3203125 0.5859375 0.4140625 0.5546875 0.3710938 0.5820313 0.1640625 0.6054688 0.2070312 0.5585938 0.2070312 0.6210938 0.2539063 0.5585938 0.2070312 0.6054688 0.2070312 0.5039063 0.1640625 0.5273438 0.2070312 0.4804688 0.2070312 0.5273438 0.2070312 0.4648438 0.2539063 0.4804688 0.2070312 0.4257813 0.1640625 0.4492188 0.2070312 0.4023438 0.2070312 0.4648438 0.2539063 0.4023438 0.2070312 0.4492188 0.2070312 0.4648438 0.2539063 0.3867188 0.28125 0.3867188 0.2539063 0.5429688 0.28125 0.4648438 0.2539063 0.5429688 0.2539063 0.6210938 0.28125 0.5429688 0.2539063 0.6210938 0.2539063 0.4492188 0.46875 0.5703125 0.46875 0.5859375 0.5117188 0.4570313 0.375 0.4296875 0.4140625 0.3710938 0.3203125 0.5664063 0.9023438 0.4296875 0.9882813 0.453125 0.9023438 0.3710938 0.3203125 0.4296875 0.4375 0.4335938 0.5117188 0.4296875 0.1210937 0.578125 0.01171875 0.578125 0.1210937 0.328125 0.734375 0.3476563 0.84375 0.328125 0.84375 0.328125 0.84375 0.3476563 0.9882813 0.328125 0.9882813 0.328125 0.5859375 0.3476563 0.734375 0.328125 0.734375 0.5859375 0.4375 0.5859375 0.5117188 0.5703125 0.46875 0.4492188 0.46875 0.4335938 0.5117188 0.4296875 0.4375 0.5859375 0.4375 0.5859375 0.4375 0.6484375 0.3203125 0.1015625 0.01171875 0.3203125 0.28125 0.0390625 0.28125 0.0390625 0.01171875 0.1015625 0.01171875 0.0390625 0.28125 0.6835938 0.28125 0.6835938 0.01171875 0.8242188 0.28125 0.6835938 0.01171875 0.9648438 0.01171875 0.8242188 0.28125 0.0390625 0.9882813 0.3085938 0.9882813 0.3085938 0.3164063 0.3085938 0.9882813 0.0390625 0.9882813 0.0390625 0.3164063 0.328125 0.5859375 0.328125 0.4765625 0.3476563 0.4765625 0.6835938 0.9882813 0.6835938 0.3164063 0.9648438 0.3164063 0.5039063 0.3554688 0.5039063 0.3203125 0.5546875 0.3710938 0.5039063 0.3203125 0.6484375 0.3203125 0.5546875 0.3710938 0.6210938 0.2539063 0.5429688 0.2539063 0.5585938 0.2070312 0.5273438 0.2070312 0.5429688 0.2539063 0.4648438 0.2539063 0.4648438 0.2539063 0.3867188 0.2539063 0.4023438 0.2070312 0.4648438 0.2539063 0.4648438 0.28125 0.3867188 0.28125 0.5429688 0.28125 0.4648438 0.28125 0.4648438 0.2539063 0.6210938 0.28125 0.5429688 0.28125 0.5429688 0.2539063 0.5859375 0.5117188 0.5664063 0.7539063 0.453125 0.7539063 0.453125 0.7539063 0.4335938 0.5117188 0.5859375 0.5117188 0.4335938 0.5117188 0.4492188 0.46875 0.5859375 0.5117188 0.3710938 0.3203125 0.5039063 0.3203125 0.4570313 0.375 0.5039063 0.3203125 0.5039063 0.3554688 0.4570313 0.375 0.5664063 0.9023438 0.5859375 0.9882813 0.4296875 0.9882813 0.4335938 0.5117188 0.453125 0.7539063 0.3671875 0.9882813 0.453125 0.7539063 0.453125 0.9023438 0.3671875 0.9882813 0.453125 0.9023438 0.4296875 0.9882813 0.3671875 0.9882813 0.3671875 0.9882813 0.3710938 0.3203125 0.4335938 0.5117188 0.3710938 0.3203125 0.4296875 0.4140625 0.4296875 0.4375 0.3710938 0.3203125 0.4296875 0.4375 0.4296875 0.4375 0.4296875 0.1210937 0.4296875 0.01171875 0.578125 0.01171875 0.328125 0.734375 0.3476563 0.734375 0.3476563 0.84375 0.328125 0.84375 0.3476563 0.84375 0.3476563 0.9882813 0.328125 0.5859375 0.3476563 0.5859375 0.3476563 0.734375 0.5859375 0.9882813 0.5664063 0.9023438 0.6484375 0.9882813 0.5664063 0.9023438 0.5664063 0.7539063 0.6484375 0.9882813 0.5664063 0.7539063 0.5859375 0.5117188 0.6484375 0.9882813 0.6484375 0.3203125 0.6484375 0.9882813 0.5859375 0.5117188 0.5859375 0.4375 0.5859375 0.4140625 0.6484375 0.3203125 0.5859375 0.5117188 0.5859375 0.4375 0.6484375 0.3203125 0.1015625 0.01171875 0.2578125 0.01171875 0.3203125 0.28125</float_array>
          <technique_common>
            <accessor source="#coin-changer-mesh-map-0-array" count="198" stride="2">
              <param name="S" type="float"/>
              <param name="T" type="float"/>
            </accessor>
          </technique_common>
        </source>
        <vertices id="coin-changer-mesh-vertices">
          <input semantic="POSITION" source="#coin-changer-mesh-positions"/>
        </vertices>
        <triangles material="coin-changer_128-material" count="66">
          <input semantic="VERTEX" source="#coin-changer-mesh-vertices" offset="0"/>
          <input semantic="NORMAL" source="#coin-changer-mesh-normals" offset="1"/>
          <input semantic="TEXCOORD" source="#coin-changer-mesh-map-0" offset="2" set="0"/>
          <p>4 0 0 9 0 1 2 0 2 7 1 3 0 1 4 5 1 5 17 2 6 29 2 7 30 2 8 24 3 9 1 3 10 7 3 11 5 4 12 0 4 13 37 4 14 7 5 15 9 5 16 11 5 17 0 6 18 3 6 19 21 6 20 6 7 21 21 7 22 10 7 23 3 8 24 10 8 25 21 8 26 6 9 27 10 9 28 13 9 29 10 10 30 12 10 31 13 10 32 6 11 33 13 11 34 20 11 35 12 12 36 20 12 37 13 12 38 12 13 39 22 13 40 19 13 41 16 14 42 12 14 43 8 14 44 14 15 45 8 15 46 3 15 47 34 16 48 33 16 49 32 16 50 20 17 51 19 17 52 2 17 53 17 18 54 23 18 55 15 18 56 2 19 57 36 19 58 35 19 59 28 20 60 30 20 61 29 20 62 26 21 63 28 21 64 25 21 65 25 22 66 29 22 67 15 22 68 17 23 69 27 23 70 26 23 71 31 24 72 32 24 73 33 24 74 34 25 75 35 25 76 36 25 77 31 26 78 14 26 79 0 26 80 23 27 81 7 27 82 11 27 83 4 28 84 23 28 85 11 28 86 2 29 87 9 29 88 37 29 89 9 30 90 5 30 91 37 30 92 4 31 93 11 31 94 9 31 95 7 32 96 1 32 97 0 32 98 17 33 99 15 33 100 29 33 101 7 34 102 5 34 103 9 34 104 6 35 105 37 35 106 21 35 107 37 36 108 0 36 109 21 36 110 3 37 111 8 37 112 10 37 113 10 38 114 8 38 115 12 38 116 12 39 117 19 39 118 20 39 119 12 40 120 18 40 121 22 40 122 16 41 123 18 41 124 12 41 125 14 42 126 16 42 127 8 42 128 32 43 129 26 43 130 25 43 131 25 44 132 35 44 133 32 44 134 35 45 135 34 45 136 32 45 137 2 46 138 37 46 139 20 46 140 37 47 141 6 47 142 20 47 143 17 48 144 24 48 145 23 48 146 35 49 147 25 49 148 4 49 149 25 50 150 15 50 151 4 50 152 15 51 153 23 51 154 4 51 155 4 52 156 2 52 157 35 52 158 2 53 159 19 53 160 22 53 161 2 54 162 22 54 163 36 54 164 28 55 165 27 55 166 30 55 167 26 56 168 27 56 169 28 56 170 25 57 171 28 57 172 29 57 173 17 58 174 30 58 175 27 58 176 24 59 177 17 59 178 1 59 179 17 60 180 26 60 181 1 60 182 26 61 183 32 61 184 1 61 185 0 62 186 1 62 187 32 62 188 14 63 189 3 63 190 0 63 191 32 64 192 31 64 193 0 64 194 23 65 195 24 65 196 7 65 197</p>
        </triangles>
      </mesh>
    </geometry>
  </library_geometries>
  <library_visual_scenes>
    <visual_scene id="Scene" name="Scene">
      <node id="coin-changer-col" name="coin-changer-col" type="NODE">
        <matrix sid="transform">1 0 0 0 0 1 0 0 0 0 1 0 0 0 0 1</matrix>
        <instance_geometry url="#coin-changer-mesh" name="coin-changer-col">
          <bind_material>
            <technique_common>
              <instance_material symbol="coin-changer_128-material" target="#coin-changer_128-material">
                <bind_vertex_input semantic="UVMap" input_semantic="TEXCOORD" input_set="0"/>
              </instance_material>
            </technique_common>
          </bind_material>
        </instance_geometry>
      </node>
    </visual_scene>
  </library_visual_scenes>
  <scene>
    <instance_visual_scene url="#Scene"/>
  </scene>
</COLLADA>