<?xml version="1.0" encoding="utf-8"?>
<COLLADA xmlns="http://www.collada.org/2005/11/COLLADASchema" version="1.4.1" xmlns:xsi="http://www.w3.org/2001/XMLSchema-instance">
  <asset>
    <contributor>
      <author>Blender User</author>
      <authoring_tool>Blender 4.4.3 commit date:2025-04-29, commit time:14:09, hash:802179c51ccc</authoring_tool>
    </contributor>
    <created>2025-08-04T15:46:58</created>
    <modified>2025-08-04T15:46:58</modified>
    <unit name="meter" meter="1"/>
    <up_axis>Z_UP</up_axis>
  </asset>
  <library_effects>
    <effect id="crumpled-shirt_64-effect">
      <profile_COMMON>
        <newparam sid="crumpled-shirt_64_png_001-surface">
          <surface type="2D">
            <init_from>crumpled-shirt_64_png_001</init_from>
          </surface>
        </newparam>
        <newparam sid="crumpled-shirt_64_png_001-sampler">
          <sampler2D>
            <source>crumpled-shirt_64_png_001-surface</source>
          </sampler2D>
        </newparam>
        <technique sid="common">
          <lambert>
            <emission>
              <color sid="emission">0 0 0 1</color>
            </emission>
            <diffuse>
              <texture texture="crumpled-shirt_64_png_001-sampler" texcoord="UVMap"/>
            </diffuse>
            <index_of_refraction>
              <float sid="ior">1.5</float>
            </index_of_refraction>
          </lambert>
        </technique>
      </profile_COMMON>
    </effect>
  </library_effects>
  <library_images>
    <image id="crumpled-shirt_64_png_001" name="crumpled-shirt_64_png_001">
      <init_from>crumpled-shirt_64.png.001.png</init_from>
    </image>
  </library_images>
  <library_materials>
    <material id="crumpled-shirt_64-material" name="crumpled-shirt_64">
      <instance_effect url="#crumpled-shirt_64-effect"/>
    </material>
  </library_materials>
  <library_geometries>
    <geometry id="crumpled-shirt-mesh" name="crumpled-shirt">
      <mesh>
        <source id="crumpled-shirt-mesh-positions">
          <float_array id="crumpled-shirt-mesh-positions-array" count="111">-0.1492274 -0.26 1.83206e-5 0.1406652 -0.2509827 1.83206e-5 0.00225377 -0.2452146 0.005594491 -0.08336848 -0.2271799 1.83206e-5 0.139442 -0.08867049 1.83206e-5 0.1186481 0.04508668 1.83206e-5 0.1687982 0.04508668 0.003690719 0.2116094 -0.01653176 1.83206e-5 0.285 0.06913292 1.83206e-5 0.2030472 0.1668208 0.006124138 0.1235407 0.1953757 1.83206e-5 0.03669524 0.1773411 0.007150769 0.0122317 0.2239306 0.008759021 0.02568668 0.2479768 1.83206e-5 -0.04281115 0.26 1.83206e-5 -0.09051501 0.2524855 1.83206e-5 -0.1895923 0.204393 1.83206e-5 -0.285 0.1457803 1.83206e-5 -0.2531974 0.06462424 1.83206e-5 -0.2275107 0.0195375 1.83206e-5 -0.1431115 0.07213866 1.83206e-5 -0.1712446 0.02855485 1.83206e-5 -0.1431115 -0.02554911 1.83206e-5 -0.1590129 -0.1322543 0.003363966 -0.08883088 0.1552321 0.0244053 -0.03640389 0.1345718 0.02309828 -0.06888782 0.06550019 0.01960015 -0.04358083 0.001309216 0.007309794 -0.08547741 -0.03842437 0.01563674 -0.08406722 -0.1198596 0.004617691 0.002255618 0.0573852 0.0203557 0.04906415 0.02630949 0.002207994 0.05341243 -0.08423525 0.008609414 -0.1393485 0.1301451 0.008156597 -0.1644447 0.1328392 0.007248282 -0.2194668 0.1387456 1.83206e-5 0.1202251 0.09352856 0.01359653</float_array>
          <technique_common>
            <accessor source="#crumpled-shirt-mesh-positions-array" count="37" stride="3">
              <param name="X" type="float"/>
              <param name="Y" type="float"/>
              <param name="Z" type="float"/>
            </accessor>
          </technique_common>
        </source>
        <source id="crumpled-shirt-mesh-normals">
          <float_array id="crumpled-shirt-mesh-normals-array" count="144">-0.1241113 0.05647981 0.9906596 0.01256674 -0.02521729 0.999603 0 0 1 0.07022017 0.02080619 0.9973145 0.04026693 3.03446e-4 0.999189 -0.1461614 -0.04330748 0.9883124 -0.2868617 -0.1333292 0.9486483 -0.16607 0.3669299 0.915305 0.03836542 -0.03286832 0.9987231 0.03790497 -0.03062969 0.9988118 -0.07038009 -0.2671034 0.9610943 -0.07604825 0.001464247 0.997103 0.05426478 0.1302199 0.9899991 0.05507057 0.3137474 0.9479081 -0.2488048 0.0680806 0.9661579 -0.01913589 -0.195288 0.9805592 -0.03019011 0.1916556 0.9809979 -0.06988698 -0.2386183 0.9685955 -0.01499092 0.2429551 0.9699217 -0.05036395 -0.1355575 0.9894886 0 0 1 0 0 1 -0.02634125 -0.01035004 0.9995995 0.03892898 0.05929327 0.9974812 0.1410076 -0.332226 0.9326 0.1776969 0.05712962 0.9824256 0.07188427 0.11977 0.9901958 -0.3949092 0.2170175 0.8927206 -0.07398104 -0.04318094 0.9963244 0.01564693 0.05841737 0.9981696 0.1246108 -0.3536723 0.9270318 -0.01554495 -0.0432803 0.998942 0.09672713 -0.04935753 0.9940863 -0.1460933 -0.1674749 0.9749917 -0.02622067 0.09136962 0.9954718 -0.250182 -0.118585 0.9609093 0 0 1 -0.3177894 -0.2463003 0.9156125 0.3081154 0.1158589 0.9442678 -0.2550939 0 0.9669163 0.005946099 -0.1339847 0.9909655 0.08789432 0.1146907 0.9895052 -0.03327751 -0.2005859 0.9791107 0.1790589 0.06012248 0.9819996 0.1001507 0.01556944 0.9948505 0.181436 0.05598813 0.9818077 0 0 1 -0.03988224 0.08216303 0.9958206</float_array>
          <technique_common>
            <accessor source="#crumpled-shirt-mesh-normals-array" count="48" stride="3">
              <param name="X" type="float"/>
              <param name="Y" type="float"/>
              <param name="Z" type="float"/>
            </accessor>
          </technique_common>
        </source>
        <source id="crumpled-shirt-mesh-map-0">
          <float_array id="crumpled-shirt-mesh-map-0-array" count="288">0.2163056 0.7112732 0.1729488 0.8346391 0.1214424 0.7214565 0.3560888 0.09056591 0.2256706 0.2542267 0.2425416 0.03398102 0.253086 0.4381967 0.253086 0.60662 0.2045819 0.5314773 0.3560888 0.09056591 0.253086 0.4381967 0.2256706 0.2542267 0.7423443 0.0495277 0.7402355 0.3293694 0.5037098 0.05947244 0.3560888 0.09056591 0.354884 0.2755964 0.253086 0.4381967 0.3524528 0.4159985 0.253086 0.4381967 0.354884 0.2755964 0.4246864 0.4845031 0.253086 0.4381967 0.3524528 0.4159985 0.9911913 0.6014379 0.7908484 0.5599797 0.8646588 0.4537435 0.9911913 0.6014379 0.8498967 0.769861 0.7908484 0.5599797 0.7908484 0.5599797 0.7071036 0.6434981 0.7043847 0.5599797 0.8498967 0.769861 0.7128202 0.8190923 0.7908484 0.5599797 0.5630902 0.7879988 0.7071036 0.6434981 0.7128202 0.8190923 0.4260135 0.9305106 0.5209128 0.8683236 0.5441104 0.9097816 0.4370601 0.7142605 0.253086 0.60662 0.3810548 0.5951746 0.253086 0.4381967 0.4246864 0.4845031 0.3810548 0.5951746 0.4260135 0.9305106 0.3437675 0.9175552 0.5209128 0.8683236 0.346671 0.749881 0.253086 0.60662 0.4370601 0.7142605 0.3437675 0.9175552 0.346671 0.749881 0.5209128 0.8683236 0.2163056 0.7112732 0.253086 0.60662 0.2595739 0.7066285 0.008456707 0.7335851 0.1214424 0.7214565 0.1729488 0.8346391 0.253086 0.60662 0.06328749 0.5936642 0.1075738 0.5159304 0.354884 0.2755964 0.5037098 0.05947244 0.5919123 0.3370162 0.5919123 0.3370162 0.5844154 0.527606 0.4246864 0.4845031 0.4246864 0.4845031 0.5844154 0.527606 0.503713 0.5811834 0.5630902 0.7879988 0.503713 0.5811834 0.7043847 0.5599797 0.5209128 0.8683236 0.346671 0.749881 0.4370601 0.7142605 0.2595739 0.7066285 0.346671 0.749881 0.3437675 0.9175552 0.5037098 0.05947244 0.354884 0.2755964 0.3560888 0.09056591 0.7043847 0.5599797 0.5844154 0.527606 0.5919123 0.3370162 0.7043847 0.5599797 0.503713 0.5811834 0.5844154 0.527606 0.4370601 0.7142605 0.3810548 0.5951746 0.503713 0.5811834 0.7402355 0.3293694 0.5919123 0.3370162 0.5037098 0.05947244 0.253086 0.60662 0.2163056 0.7112732 0.1214424 0.7214565 0.1729488 0.8346391 0.2163056 0.7112732 0.2595739 0.7066285 0.253086 0.60662 0.346671 0.749881 0.2595739 0.7066285 0.06328749 0.5936642 0.1214424 0.7214565 0.008456707 0.7335851 0.7043847 0.5599797 0.7071036 0.6434981 0.5630902 0.7879988 0.7128202 0.8190923 0.7071036 0.6434981 0.7908484 0.5599797 0.253086 0.4381967 0.3810548 0.5951746 0.253086 0.60662 0.354884 0.2755964 0.5919123 0.3370162 0.3524528 0.4159985 0.5919123 0.3370162 0.4246864 0.4845031 0.3524528 0.4159985 0.4246864 0.4845031 0.503713 0.5811834 0.3810548 0.5951746 0.5209128 0.8683236 0.4370601 0.7142605 0.5630902 0.7879988 0.7043847 0.5599797 0.5919123 0.3370162 0.7402355 0.3293694 0.4370601 0.7142605 0.503713 0.5811834 0.5630902 0.7879988 0.253086 0.60662 0.1214424 0.7214565 0.06328749 0.5936642 0.1729488 0.8346391 0.2595739 0.7066285 0.3437675 0.9175552</float_array>
          <technique_common>
            <accessor source="#crumpled-shirt-mesh-map-0-array" count="144" stride="2">
              <param name="S" type="float"/>
              <param name="T" type="float"/>
            </accessor>
          </technique_common>
        </source>
        <vertices id="crumpled-shirt-mesh-vertices">
          <input semantic="POSITION" source="#crumpled-shirt-mesh-positions"/>
        </vertices>
        <triangles material="crumpled-shirt_64-material" count="48">
          <input semantic="VERTEX" source="#crumpled-shirt-mesh-vertices" offset="0"/>
          <input semantic="NORMAL" source="#crumpled-shirt-mesh-normals" offset="1"/>
          <input semantic="TEXCOORD" source="#crumpled-shirt-mesh-map-0" offset="2" set="0"/>
          <p>34 0 0 16 0 1 35 0 2 3 1 3 23 1 4 0 1 5 22 2 6 20 2 7 21 2 8 3 3 9 22 3 10 23 3 11 1 4 12 4 4 13 2 4 14 3 5 15 29 5 16 22 5 17 28 6 18 22 6 19 29 6 20 27 7 21 22 7 22 28 7 23 8 8 24 6 8 25 7 8 26 8 9 27 9 9 28 6 9 29 6 10 30 36 10 31 5 10 32 9 11 33 10 11 34 6 11 35 11 12 36 36 12 37 10 12 38 14 13 39 12 13 40 13 13 41 25 14 42 20 14 43 26 14 44 22 15 45 27 15 46 26 15 47 14 16 48 15 16 49 12 16 50 24 17 51 20 17 52 25 17 53 15 18 54 24 18 55 12 18 56 34 19 57 20 19 58 33 19 59 17 20 60 35 20 61 16 20 62 20 21 63 18 21 64 19 21 65 29 22 66 2 22 67 32 22 68 32 23 69 31 23 70 27 23 71 27 24 72 31 24 73 30 24 74 11 25 75 30 25 76 5 25 77 12 26 78 24 26 79 25 26 80 33 27 81 24 27 82 15 27 83 2 28 84 29 28 85 3 28 86 5 29 87 31 29 88 32 29 89 5 30 90 30 30 91 31 30 92 25 31 93 26 31 94 30 31 95 4 32 96 32 32 97 2 32 98 20 33 99 34 33 100 35 33 101 16 34 102 34 34 103 33 34 104 20 35 105 24 35 106 33 35 107 18 36 108 35 36 109 17 36 110 5 37 111 36 37 112 11 37 113 10 38 114 36 38 115 6 38 116 22 39 117 26 39 118 20 39 119 29 40 120 32 40 121 28 40 122 32 41 123 27 41 124 28 41 125 27 42 126 30 42 127 26 42 128 12 43 129 25 43 130 11 43 131 5 44 132 32 44 133 4 44 134 25 45 135 30 45 136 11 45 137 20 46 138 35 46 139 18 46 140 16 47 141 33 47 142 15 47 143</p>
        </triangles>
      </mesh>
    </geometry>
  </library_geometries>
  <library_visual_scenes>
    <visual_scene id="Scene" name="Scene">
      <node id="crumpled-shirt" name="crumpled-shirt" type="NODE">
        <matrix sid="transform">1 0 0 0 0 1 0 0 0 0 1 0 0 0 0 1</matrix>
        <instance_geometry url="#crumpled-shirt-mesh" name="crumpled-shirt">
          <bind_material>
            <technique_common>
              <instance_material symbol="crumpled-shirt_64-material" target="#crumpled-shirt_64-material">
                <bind_vertex_input semantic="UVMap" input_semantic="TEXCOORD" input_set="0"/>
              </instance_material>
            </technique_common>
          </bind_material>
        </instance_geometry>
      </node>
    </visual_scene>
  </library_visual_scenes>
  <scene>
    <instance_visual_scene url="#Scene"/>
  </scene>
</COLLADA>