<?xml version="1.0" encoding="utf-8"?>
<COLLADA xmlns="http://www.collada.org/2005/11/COLLADASchema" version="1.4.1" xmlns:xsi="http://www.w3.org/2001/XMLSchema-instance">
  <asset>
    <contributor>
      <author>Blender User</author>
      <authoring_tool>Blender 4.4.3 commit date:2025-04-29, commit time:14:09, hash:802179c51ccc</authoring_tool>
    </contributor>
    <created>2025-08-04T15:50:45</created>
    <modified>2025-08-04T15:50:45</modified>
    <unit name="meter" meter="1"/>
    <up_axis>Z_UP</up_axis>
  </asset>
  <library_effects>
    <effect id="folding-table_512-effect">
      <profile_COMMON>
        <newparam sid="folding-table_512_png_001-surface">
          <surface type="2D">
            <init_from>folding-table_512_png_001</init_from>
          </surface>
        </newparam>
        <newparam sid="folding-table_512_png_001-sampler">
          <sampler2D>
            <source>folding-table_512_png_001-surface</source>
          </sampler2D>
        </newparam>
        <technique sid="common">
          <lambert>
            <emission>
              <color sid="emission">0 0 0 1</color>
            </emission>
            <diffuse>
              <texture texture="folding-table_512_png_001-sampler" texcoord="UVMap"/>
            </diffuse>
            <index_of_refraction>
              <float sid="ior">1.5</float>
            </index_of_refraction>
          </lambert>
        </technique>
      </profile_COMMON>
    </effect>
  </library_effects>
  <library_images>
    <image id="folding-table_512_png_001" name="folding-table_512_png_001">
      <init_from>folding-table_512.png.001.png</init_from>
    </image>
  </library_images>
  <library_materials>
    <material id="folding-table_512-material" name="folding-table_512">
      <instance_effect url="#folding-table_512-effect"/>
    </material>
  </library_materials>
  <library_geometries>
    <geometry id="folding-table-mesh" name="folding-table">
      <mesh>
        <source id="folding-table-mesh-positions">
          <float_array id="folding-table-mesh-positions-array" count="264">-0.55 -0.345 0.6776812 -0.55 0.3449999 0.6776812 0.55 0.3449999 0.6776812 0.55 -0.345 0.6776812 -0.55 -0.345 0.8199997 -0.4628035 0.2574864 0.7317354 0.4628035 0.2574864 0.7317354 0.55 -0.345 0.8199997 -0.55 0.3449999 0.8199997 -0.5278275 -0.345 0.8199997 0.55 0.3449999 0.8199997 0.5278275 -0.345 0.8199997 -0.4628035 -0.345 0.7317354 0.4628035 -0.345 0.7317354 -0.5278275 0.3227468 0.8199997 0.5278275 0.3227468 0.8199997 0.4582192 -0.09743177 0.03479659 0.4582192 -0.1325682 0.03479659 0.4582192 -0.09743183 0.6776812 0.4582192 -0.1325682 0.6776812 0.4932283 -0.09743177 0.03479659 0.4932283 -0.1325682 0.03479659 0.4932283 -0.09743183 0.6776812 0.4932283 -0.1325682 0.6776812 0.4582192 0.1325681 0.03479659 0.4582192 0.09743171 0.03479659 0.4582192 0.1325681 0.6776812 0.4582192 0.09743171 0.6776812 0.4582193 -0.09743177 -3.03321e-7 0.4932283 0.09743171 0.03479659 0.4932283 0.1325681 0.6776812 0.4932283 0.09743171 0.6776812 0.4582193 -0.345 -3.03321e-7 0.4582193 -0.345 0.03479665 0.4582193 0.345 -3.03321e-7 0.4582193 0.345 0.03479665 0.4932284 -0.345 -3.03321e-7 0.4932284 -0.345 0.03479665 0.4932284 0.345 -3.03321e-7 0.4932284 0.345 0.03479665 0.4582192 0.1149999 0.01739817 0.4932284 0.1149999 0.01739817 0.4932284 -0.115 0.01739817 0.4582192 -0.115 0.01739817 0.4582193 0.09743171 -3.03321e-7 0.4932284 0.1325681 0.03479659 0.4932284 0.1325681 -3.03321e-7 0.4932284 -0.1325682 -3.03321e-7 0.4932284 -0.09743183 -3.03321e-7 0.4932284 0.09743171 -3.03321e-7 0.4582193 -0.1325682 -3.03321e-7 0.4582193 0.1325681 -3.03321e-7 -0.4582192 -0.09743177 0.03479659 -0.4582192 -0.1325682 0.03479659 -0.4582192 -0.09743183 0.6776812 -0.4582192 -0.1325682 0.6776812 -0.4932283 -0.09743177 0.03479659 -0.4932283 -0.1325682 0.03479659 -0.4932283 -0.09743183 0.6776812 -0.4932283 -0.1325682 0.6776812 -0.4582192 0.1325681 0.03479659 -0.4582192 0.09743171 0.03479659 -0.4582192 0.1325681 0.6776812 -0.4582192 0.09743171 0.6776812 -0.4582193 -0.09743177 -3.03321e-7 -0.4932283 0.09743171 0.03479659 -0.4932283 0.1325681 0.6776812 -0.4932283 0.09743171 0.6776812 -0.4582193 -0.345 -3.03321e-7 -0.4582193 -0.345 0.03479665 -0.4582193 0.345 -3.03321e-7 -0.4582193 0.345 0.03479665 -0.4932284 -0.345 -3.03321e-7 -0.4932284 -0.345 0.03479665 -0.4932284 0.345 -3.03321e-7 -0.4932284 0.345 0.03479665 -0.4582192 0.1149999 0.01739817 -0.4932284 0.1149999 0.01739817 -0.4932284 -0.115 0.01739817 -0.4582192 -0.115 0.01739817 -0.4582193 0.09743171 -3.03321e-7 -0.4932284 0.1325681 0.03479659 -0.4932284 0.1325681 -3.03321e-7 -0.4932284 -0.1325682 -3.03321e-7 -0.4932284 -0.09743183 -3.03321e-7 -0.4932284 0.09743171 -3.03321e-7 -0.4582193 -0.1325682 -3.03321e-7 -0.4582193 0.1325681 -3.03321e-7</float_array>
          <technique_common>
            <accessor source="#folding-table-mesh-positions-array" count="88" stride="3">
              <param name="X" type="float"/>
              <param name="Y" type="float"/>
              <param name="Z" type="float"/>
            </accessor>
          </technique_common>
        </source>
        <source id="folding-table-mesh-normals">
          <float_array id="folding-table-mesh-normals-array" count="468">-1 0 0 0 1 0 1 0 0 0 0 -1 0 0 1 0 0 1 0 0 1 0 0 1 0 -1 0 0.8051119 0 0.5931231 0 -0.8040819 0.5945186 -0.8051118 0 0.593123 0 -1 0 0 -1 0 1 0 0 1 0 0 0 1 0 0 -1 0 -1 0 0 1 5.61166e-7 3.42586e-6 0 0 -1 0 1 0 0 -1 0 1 0 0 0 1 0 -1 5.61166e-7 -3.42586e-6 0 -1 0 0 2.63046e-7 1 0 -2.63046e-7 1 0 0 -1 -1 0 -3.42586e-6 0 0 -1 1 -3.39276e-6 1.85429e-7 0 0 -1 0 0 1 0 0 -1 -1 0 -6.8517e-6 1 0 0 1 0 3.42586e-6 -1 0 -6.8517e-6 -1 0 -3.42586e-6 -1 0 0 -1 0 0 -1 0 0 0 1 0 0 -1 0 1 0 0 -1 5.61165e-7 0 0 0 -1 0 1 0 0 -1 0 -1 0 0 0 1 0 1 5.61165e-7 0 0 -1 0 0 2.63046e-7 1 0 -2.63046e-7 1 0 0 -1 1 0 0 0 0 -1 -1 0 1.85429e-7 0 0 -1 0 0 1 0 0 -1 1 0 -6.8517e-6 -1 0 0 -1 3.39276e-6 3.42585e-6 1 0 -6.8517e-6 1 -3.39276e-6 -3.42586e-6 1 0 0 -1 0 0 0 1 0 1 0 0 0 0 -1 0 0 1 0 0 1 0 0 1 0 0 1 0 -1 0 0.8051118 0 0.593123 0 -0.8040819 0.5945186 -0.8051119 0 0.5931231 0 -1 0 0 -1 0 1 0 0 1 0 6.85173e-6 0 1 0 0 -1 0 -1 0 0 -1 0 0 1 0 0 1 -3.39276e-6 3.42586e-6 0 0 -1 -8.51272e-7 1 0 0 -1 0 1 0 0 1 0 0 0 1 0 -1 0 0 -1 3.39275e-6 -3.42586e-6 0 -1 0 0 2.63046e-7 1 0 -2.63046e-7 1 0 0 -1 -1 -5.61165e-7 0 -1 -3.39275e-6 -3.42586e-6 0 0 -1 1 0 0 1 -3.39276e-6 3.42587e-6 0 0 -1 0 0 1 0 0 -1 1 -3.39276e-6 3.42586e-6 1 0 3.42586e-6 1 3.39276e-6 3.42585e-6 -1 3.39275e-6 -3.42586e-6 -1 0 -3.42586e-6 -1 -3.39276e-6 -3.42586e-6 -1 0 0 -1 0 0 -1 0 6.85173e-6 -1 0 0 0 1 0 0 -1 0 1 0 0 1 0 0 -1 -3.39276e-6 3.42586e-6 -1 0 3.42586e-6 0 0 -1 8.51272e-7 1 0 0 -1 0 -1 0 0 -1 0 0 0 1 0 1 3.39275e-6 -3.42586e-6 1 0 -3.42586e-6 0 -1 0 0 2.63046e-7 1 0 -2.63046e-7 1 0 0 -1 1 -3.39275e-6 -3.42586e-6 1 -5.61166e-7 -3.42586e-6 0 0 -1 -1 -3.39276e-6 3.42587e-6 -1 -3.39276e-6 0 0 0 -1 0 0 1 0 0 -1 -1 0 3.42586e-6 -1 -3.39276e-6 3.42586e-6 -1 0 3.42586e-6 1 0 -3.42586e-6 1 3.39275e-6 -3.42586e-6 1 0 -3.42586e-6 1 0 0 1 0 0</float_array>
          <technique_common>
            <accessor source="#folding-table-mesh-normals-array" count="156" stride="3">
              <param name="X" type="float"/>
              <param name="Y" type="float"/>
              <param name="Z" type="float"/>
            </accessor>
          </technique_common>
        </source>
        <source id="folding-table-mesh-map-0">
          <float_array id="folding-table-mesh-map-0-array" count="936">0.1992187 0.8476563 0.2578125 0.5664063 0.2578125 0.8476563 0.7304688 0.984375 0.2773438 0.9257813 0.7304688 0.9257813 0.1992187 0.8476563 0.2578125 0.5664063 0.2578125 0.8476563 0.2773438 0.4648438 0.7304688 0.1835937 0.7304688 0.4648438 0.6953125 0.5703125 0.3164063 0.8164063 0.3164063 0.5703125 0.2890625 0.8398438 0.2773438 0.5664063 0.2890625 0.5664063 0.7226563 0.8398438 0.2773438 0.8476563 0.2890625 0.8398438 0.7226563 0.8398438 0.7304688 0.5664063 0.7304688 0.8476563 0.7304688 0.484375 0.7226563 0.5429688 0.6953125 0.5078125 0.2578125 0.8632813 0.01171875 0.90625 0.01171875 0.8632813 0.6953125 0.8632813 0.2851563 0.90625 0.3125 0.8632813 0.7460938 0.8632813 0.9960938 0.90625 0.71875 0.90625 0.7304688 0.484375 0.3125 0.5078125 0.2773438 0.484375 0.2773438 0.484375 0.2890625 0.5429688 0.2773438 0.5429688 0.140625 0.3359375 0.1289062 0.0703125 0.140625 0.0703125 0.1289062 0.0546875 0.140625 0.0546875 0.1328125 0.0625 0.7773438 0.75 0.7929688 0.484375 0.7929688 0.75 0.0390625 0.4726563 0.0546875 0.2070312 0.0546875 0.4726563 0.7929688 0.3359375 0.7773438 0.0703125 0.7929688 0.0703125 0.0390625 0.0703125 0.1289062 0.0546875 0.1289062 0.0703125 0.46875 0.0703125 0.453125 0.0546875 0.46875 0.0546875 0.0390625 0.4726563 0.0546875 0.2070312 0.0546875 0.4726563 0.7773438 0.75 0.7929688 0.484375 0.7929688 0.75 0.3242188 0.0546875 0.234375 0.0703125 0.234375 0.0546875 0.0390625 0.0859375 0.0546875 0.1015625 0.0390625 0.1015625 0.6914063 0.0703125 0.7773438 0.0546875 0.7773438 0.0703125 0.0546875 0.1015625 0.0390625 0.0859375 0.0546875 0.0859375 0.0390625 0.1210937 0.0546875 0.2070312 0.0390625 0.2070312 0.0390625 0.2070312 0.0546875 0.1210937 0.0546875 0.2070312 0.3671875 0.0546875 0.453125 0.0703125 0.3671875 0.0703125 0.9726563 0.0546875 0.8867188 0.0703125 0.8867188 0.0546875 0.5625 0.0703125 0.546875 0.0546875 0.5625 0.0546875 0.234375 0.3359375 0.2226562 0.0703125 0.234375 0.0703125 0.546875 0.0703125 0.46875 0.0546875 0.546875 0.0546875 0.8710938 0.5625 0.8867188 0.484375 0.8867188 0.5625 0.5625 0.0703125 0.6484375 0.0546875 0.6484375 0.0703125 0.8710938 0.0546875 0.8867188 0.0546875 0.8789063 0.0625 0.2304687 0.0625 0.2226562 0.0546875 0.234375 0.0546875 0.140625 0.0546875 0.2226562 0.0546875 0.140625 0.0703125 0.7929688 0.0546875 0.7851563 0.0625 0.7773438 0.0546875 0.7929688 0.0546875 0.8710938 0.0546875 0.8710938 0.0703125 0.8867188 0.3359375 0.8710938 0.0703125 0.8867188 0.0703125 0.234375 0.3359375 0.2226562 0.3359375 0.2226562 0.0703125 0.234375 0.0546875 0.2304687 0.0625 0.2226562 0.0546875 0.7773438 0.484375 0.7929688 0.75 0.7773438 0.75 0.0390625 0.2070312 0.0546875 0.4726563 0.0390625 0.4726563 0.8867188 0.3359375 0.8710938 0.3359375 0.8710938 0.0703125 0.3242188 0.0546875 0.3242188 0.0703125 0.234375 0.0703125 0.453125 0.0703125 0.46875 0.0546875 0.46875 0.0703125 0.0390625 0.2070312 0.0546875 0.4726563 0.0390625 0.4726563 0.7773438 0.484375 0.7929688 0.75 0.7773438 0.75 0.0390625 0.0703125 0.0390625 0.0546875 0.1289062 0.0546875 0.0546875 0.0859375 0.0390625 0.1015625 0.0390625 0.0859375 0.9726563 0.0546875 0.9726563 0.0703125 0.8867188 0.0703125 0.0546875 0.0859375 0.0390625 0.1015625 0.0390625 0.0859375 0.0546875 0.1210937 0.0390625 0.2070312 0.0390625 0.1210937 0.0390625 0.1210937 0.0546875 0.2070312 0.0390625 0.2070312 0.453125 0.0546875 0.3671875 0.0703125 0.3671875 0.0546875 0.6914063 0.0703125 0.6914063 0.0546875 0.7773438 0.0546875 0.5625 0.0546875 0.546875 0.0703125 0.546875 0.0546875 0.140625 0.3359375 0.1289062 0.3359375 0.1289062 0.0703125 0.46875 0.0703125 0.546875 0.0546875 0.546875 0.0703125 0.8867188 0.5625 0.8710938 0.484375 0.8867188 0.484375 0.6484375 0.0703125 0.5625 0.0546875 0.6484375 0.0546875 0.7929688 0.0546875 0.7851563 0.0625 0.7773438 0.0546875 0.1328125 0.0625 0.1289062 0.0546875 0.140625 0.0546875 0.2226562 0.0546875 0.2304687 0.0625 0.2226562 0.0703125 0.8710938 0.0546875 0.8867188 0.0546875 0.8789063 0.0625 0.8710938 0.0546875 0.8789063 0.0625 0.8710938 0.0703125 0.7929688 0.3359375 0.7773438 0.3359375 0.7773438 0.0703125 0.1992187 0.8476563 0.1992187 0.5664063 0.2578125 0.5664063 0.7304688 0.984375 0.2773438 0.984375 0.2773438 0.9257813 0.1992187 0.8476563 0.1992187 0.5664063 0.2578125 0.5664063 0.2773438 0.4648438 0.2773438 0.1835937 0.7304688 0.1835937 0.6953125 0.5703125 0.6953125 0.8164063 0.3164063 0.8164063 0.2890625 0.8398438 0.2773438 0.8476563 0.2773438 0.5664063 0.7226563 0.8398438 0.7304688 0.8476563 0.2773438 0.8476563 0.7226563 0.8398438 0.7226563 0.5664063 0.7304688 0.5664063 0.7304688 0.484375 0.7304688 0.5429688 0.7226563 0.5429688 0.2578125 0.8632813 0.2851563 0.90625 0.01171875 0.90625 0.6953125 0.8632813 0.71875 0.90625 0.2851563 0.90625 0.7460938 0.8632813 0.9960938 0.8632813 0.9960938 0.90625 0.7304688 0.484375 0.6953125 0.5078125 0.3125 0.5078125 0.2773438 0.484375 0.3125 0.5078125 0.2890625 0.5429688 0.1289062 0.3359375 0.1289062 0.0703125 0.140625 0.3359375 0.1289062 0.0703125 0.1328125 0.0625 0.140625 0.0703125 0.7773438 0.75 0.7773438 0.484375 0.7929688 0.484375 0.0390625 0.4726563 0.0390625 0.2070312 0.0546875 0.2070312 0.7773438 0.3359375 0.7773438 0.0703125 0.7929688 0.3359375 0.7773438 0.0703125 0.7851563 0.0625 0.7929688 0.0703125 0.0390625 0.0546875 0.1289062 0.0546875 0.0390625 0.0703125 0.1289062 0.0546875 0.1328125 0.0625 0.1289062 0.0703125 0.46875 0.0703125 0.453125 0.0703125 0.453125 0.0546875 0.0390625 0.4726563 0.0390625 0.2070312 0.0546875 0.2070312 0.7773438 0.75 0.7773438 0.484375 0.7929688 0.484375 0.3242188 0.0703125 0.234375 0.0703125 0.3242188 0.0546875 0.234375 0.0703125 0.2304687 0.0625 0.234375 0.0546875 0.0390625 0.0859375 0.0546875 0.0859375 0.0546875 0.1015625 0.6914063 0.0546875 0.7773438 0.0546875 0.6914063 0.0703125 0.7773438 0.0546875 0.7851563 0.0625 0.7773438 0.0703125 0.0546875 0.1015625 0.0390625 0.1015625 0.0390625 0.0859375 0.0390625 0.1210937 0.0546875 0.1210937 0.0546875 0.2070312 0.0390625 0.2070312 0.0390625 0.1210937 0.0546875 0.1210937 0.3671875 0.0546875 0.453125 0.0546875 0.453125 0.0703125 0.9726563 0.0703125 0.8867188 0.0703125 0.9726563 0.0546875 0.8867188 0.0703125 0.8789063 0.0625 0.8867188 0.0546875 0.5625 0.0703125 0.546875 0.0703125 0.546875 0.0546875 0.2226562 0.3359375 0.2226562 0.0703125 0.234375 0.3359375 0.2226562 0.0703125 0.2304687 0.0625 0.234375 0.0703125 0.546875 0.0703125 0.46875 0.0703125 0.46875 0.0546875 0.8710938 0.5625 0.8710938 0.484375 0.8867188 0.484375 0.5625 0.0703125 0.5625 0.0546875 0.6484375 0.0546875 0.2304687 0.0625 0.2226562 0.0703125 0.2226562 0.0546875 0.2226562 0.0703125 0.140625 0.0703125 0.2226562 0.0546875 0.140625 0.0703125 0.1328125 0.0625 0.140625 0.0546875 0.8789063 0.0625 0.8710938 0.0703125 0.8710938 0.0546875 0.8710938 0.0703125 0.7929688 0.0703125 0.7929688 0.0546875 0.7929688 0.0703125 0.7851563 0.0625 0.7929688 0.0546875 0.8710938 0.3359375 0.8710938 0.0703125 0.8867188 0.3359375 0.8710938 0.0703125 0.8789063 0.0625 0.8867188 0.0703125 0.2304687 0.0625 0.234375 0.0703125 0.2226562 0.0703125 0.234375 0.0703125 0.234375 0.3359375 0.2226562 0.0703125 0.7773438 0.484375 0.7929688 0.484375 0.7929688 0.75 0.0390625 0.2070312 0.0546875 0.2070312 0.0546875 0.4726563 0.8789063 0.0625 0.8867188 0.0703125 0.8710938 0.0703125 0.8867188 0.0703125 0.8867188 0.3359375 0.8710938 0.0703125 0.2304687 0.0625 0.234375 0.0546875 0.234375 0.0703125 0.234375 0.0546875 0.3242188 0.0546875 0.234375 0.0703125 0.453125 0.0703125 0.453125 0.0546875 0.46875 0.0546875 0.0390625 0.2070312 0.0546875 0.2070312 0.0546875 0.4726563 0.7773438 0.484375 0.7929688 0.484375 0.7929688 0.75 0.1328125 0.0625 0.1289062 0.0703125 0.1289062 0.0546875 0.1289062 0.0703125 0.0390625 0.0703125 0.1289062 0.0546875 0.0546875 0.0859375 0.0546875 0.1015625 0.0390625 0.1015625 0.8789063 0.0625 0.8867188 0.0546875 0.8867188 0.0703125 0.8867188 0.0546875 0.9726563 0.0546875 0.8867188 0.0703125 0.0546875 0.0859375 0.0546875 0.1015625 0.0390625 0.1015625 0.0546875 0.1210937 0.0546875 0.2070312 0.0390625 0.2070312 0.0390625 0.1210937 0.0546875 0.1210937 0.0546875 0.2070312 0.453125 0.0546875 0.453125 0.0703125 0.3671875 0.0703125 0.7851563 0.0625 0.7773438 0.0703125 0.7773438 0.0546875 0.7773438 0.0703125 0.6914063 0.0703125 0.7773438 0.0546875 0.5625 0.0546875 0.5625 0.0703125 0.546875 0.0703125 0.1328125 0.0625 0.140625 0.0703125 0.1289062 0.0703125 0.140625 0.0703125 0.140625 0.3359375 0.1289062 0.0703125 0.46875 0.0703125 0.46875 0.0546875 0.546875 0.0546875 0.8867188 0.5625 0.8710938 0.5625 0.8710938 0.484375 0.6484375 0.0703125 0.5625 0.0703125 0.5625 0.0546875 0.2226562 0.0703125 0.140625 0.0703125 0.140625 0.0546875 0.140625 0.0703125 0.1328125 0.0625 0.140625 0.0546875 0.140625 0.0546875 0.2226562 0.0546875 0.2226562 0.0703125 0.8710938 0.0703125 0.7929688 0.0703125 0.8710938 0.0546875 0.7929688 0.0703125 0.7851563 0.0625 0.7929688 0.0546875 0.8710938 0.0546875 0.7929688 0.0703125 0.7929688 0.0546875 0.7851563 0.0625 0.7929688 0.0703125 0.7773438 0.0703125 0.7929688 0.0703125 0.7929688 0.3359375 0.7773438 0.0703125</float_array>
          <technique_common>
            <accessor source="#folding-table-mesh-map-0-array" count="468" stride="2">
              <param name="S" type="float"/>
              <param name="T" type="float"/>
            </accessor>
          </technique_common>
        </source>
        <vertices id="folding-table-mesh-vertices">
          <input semantic="POSITION" source="#folding-table-mesh-positions"/>
        </vertices>
        <triangles material="folding-table_512-material" count="156">
          <input semantic="VERTEX" source="#folding-table-mesh-vertices" offset="0"/>
          <input semantic="NORMAL" source="#folding-table-mesh-normals" offset="1"/>
          <input semantic="TEXCOORD" source="#folding-table-mesh-map-0" offset="2" set="0"/>
          <p>4 0 0 1 0 1 0 0 2 8 1 3 2 1 4 1 1 5 10 2 6 3 2 7 2 2 8 0 3 9 2 3 10 3 3 11 13 4 12 5 4 13 12 4 14 14 5 15 4 5 16 9 5 17 15 6 18 8 6 19 14 6 20 15 7 21 7 7 22 10 7 23 3 8 24 11 8 25 13 8 26 5 9 27 9 9 28 12 9 29 6 10 30 14 10 31 5 10 32 6 11 33 11 11 34 15 11 35 3 12 36 12 12 37 0 12 38 0 13 39 9 13 40 4 13 41 22 14 42 21 14 43 20 14 44 47 15 45 48 15 46 42 15 47 22 16 48 16 16 49 18 16 50 19 17 51 21 17 52 23 17 53 27 18 54 24 18 55 25 18 56 37 19 57 47 19 58 21 19 59 48 20 60 50 20 61 28 20 62 30 21 63 24 21 64 26 21 65 27 22 66 29 22 67 31 22 68 38 23 69 45 23 70 46 23 71 35 24 72 38 24 73 34 24 74 35 25 75 51 25 76 24 25 77 37 26 78 32 26 79 36 26 80 33 27 81 21 27 82 17 27 83 45 28 84 35 28 85 24 28 86 32 29 87 47 29 88 36 29 89 32 30 90 17 30 91 50 30 92 46 31 93 44 31 94 51 31 95 30 32 96 29 32 97 45 32 98 49 33 99 28 33 100 44 33 101 20 34 102 25 34 103 16 34 104 46 35 105 34 35 106 38 35 107 28 36 108 50 36 109 43 36 110 41 37 111 49 37 112 46 37 113 48 38 114 49 38 115 20 38 116 44 39 117 40 39 118 51 39 119 44 40 120 28 40 121 16 40 122 19 41 123 16 41 124 17 41 125 59 42 126 58 42 127 56 42 128 83 43 129 78 43 130 84 43 131 52 44 132 58 44 133 54 44 134 57 45 135 55 45 136 59 45 137 62 46 138 63 46 139 61 46 140 72 47 141 73 47 142 57 47 143 86 48 144 84 48 145 64 48 146 60 49 147 66 49 148 62 49 149 65 50 150 63 50 151 67 50 152 75 51 153 74 51 154 82 51 155 74 52 156 71 52 157 70 52 158 70 53 159 71 53 160 60 53 161 68 54 162 73 54 163 72 54 164 69 55 165 57 55 166 73 55 167 71 56 168 81 56 169 60 56 170 83 57 171 68 57 172 72 57 173 69 58 174 68 58 175 86 58 176 82 59 177 80 59 178 85 59 179 67 60 180 66 60 181 81 60 182 64 61 183 85 61 184 80 61 185 61 62 186 56 62 187 52 62 188 70 63 189 82 63 190 74 63 191 64 64 192 79 64 193 86 64 194 77 65 195 82 65 196 85 65 197 84 66 198 78 66 199 56 66 200 80 67 201 87 67 202 76 67 203 80 68 204 76 68 205 61 68 206 54 69 207 55 69 208 53 69 209 4 70 210 8 70 211 1 70 212 8 71 213 10 71 214 2 71 215 10 72 216 7 72 217 3 72 218 0 73 219 1 73 220 2 73 221 13 74 222 6 74 223 5 74 224 14 75 225 8 75 226 4 75 227 15 76 228 10 76 229 8 76 230 15 77 231 11 77 232 7 77 233 3 78 234 7 78 235 11 78 236 5 79 237 14 79 238 9 79 239 6 80 240 15 80 241 14 80 242 6 81 243 13 81 244 11 81 245 3 82 246 13 82 247 12 82 248 0 83 249 12 83 250 9 83 251 23 84 252 21 84 253 22 84 254 21 85 255 42 85 256 20 85 257 22 86 258 20 86 259 16 86 260 19 87 261 17 87 262 21 87 263 26 88 264 24 88 265 27 88 266 24 89 267 40 89 268 25 89 269 36 90 270 47 90 271 37 90 272 47 91 273 42 91 274 21 91 275 48 92 276 47 92 277 50 92 278 30 93 279 45 93 280 24 93 281 27 94 282 25 94 283 29 94 284 39 95 285 45 95 286 38 95 287 45 96 288 41 96 289 46 96 290 35 97 291 39 97 292 38 97 293 34 98 294 51 98 295 35 98 296 51 99 297 40 99 298 24 99 299 37 100 300 33 100 301 32 100 302 33 101 303 37 101 304 21 101 305 45 102 306 39 102 307 35 102 308 32 103 309 50 103 310 47 103 311 33 104 312 17 104 313 32 104 314 17 105 315 43 105 316 50 105 317 46 106 318 49 106 319 44 106 320 31 107 321 29 107 322 30 107 323 29 108 324 41 108 325 45 108 326 49 109 327 48 109 328 28 109 329 20 110 330 29 110 331 25 110 332 46 111 333 51 111 334 34 111 335 41 112 336 29 112 337 49 112 338 29 113 339 20 113 340 49 113 341 20 114 342 42 114 343 48 114 344 43 115 345 16 115 346 28 115 347 16 116 348 25 116 349 44 116 350 25 117 351 40 117 352 44 117 353 18 118 354 16 118 355 19 118 356 16 119 357 43 119 358 17 119 359 78 120 360 57 120 361 56 120 362 57 121 363 59 121 364 56 121 365 52 122 366 56 122 367 58 122 368 57 123 369 53 123 370 55 123 371 76 124 372 60 124 373 61 124 374 60 125 375 62 125 376 61 125 377 78 126 378 83 126 379 57 126 380 83 127 381 72 127 382 57 127 383 86 128 384 83 128 385 84 128 386 60 129 387 81 129 388 66 129 389 65 130 390 61 130 391 63 130 392 77 131 393 81 131 394 82 131 395 81 132 396 75 132 397 82 132 398 74 133 399 75 133 400 71 133 401 76 134 402 87 134 403 60 134 404 87 135 405 70 135 406 60 135 407 68 136 408 69 136 409 73 136 410 69 137 411 53 137 412 57 137 413 71 138 414 75 138 415 81 138 416 83 139 417 86 139 418 68 139 419 79 140 420 53 140 421 86 140 422 53 141 423 69 141 424 86 141 425 82 142 426 87 142 427 80 142 428 77 143 429 65 143 430 81 143 431 65 144 432 67 144 433 81 144 434 64 145 435 84 145 436 85 145 437 61 146 438 65 146 439 56 146 440 70 147 441 87 147 442 82 147 443 56 148 444 65 148 445 85 148 446 65 149 447 77 149 448 85 149 449 85 150 450 84 150 451 56 150 452 61 151 453 52 151 454 80 151 455 52 152 456 79 152 457 64 152 458 80 153 459 52 153 460 64 153 461 79 154 462 52 154 463 53 154 464 52 155 465 54 155 466 53 155 467</p>
        </triangles>
      </mesh>
    </geometry>
  </library_geometries>
  <library_visual_scenes>
    <visual_scene id="Scene" name="Scene">
      <node id="folding-table-col" name="folding-table-col" type="NODE">
        <matrix sid="transform">1 0 0 0 0 1 0 0 0 0 1 0 0 0 0 1</matrix>
        <instance_geometry url="#folding-table-mesh" name="folding-table-col">
          <bind_material>
            <technique_common>
              <instance_material symbol="folding-table_512-material" target="#folding-table_512-material">
                <bind_vertex_input semantic="UVMap" input_semantic="TEXCOORD" input_set="0"/>
              </instance_material>
            </technique_common>
          </bind_material>
        </instance_geometry>
      </node>
    </visual_scene>
  </library_visual_scenes>
  <scene>
    <instance_visual_scene url="#Scene"/>
  </scene>
</COLLADA>