<?xml version="1.0" encoding="utf-8"?>
<COLLADA xmlns="http://www.collada.org/2005/11/COLLADASchema" version="1.4.1" xmlns:xsi="http://www.w3.org/2001/XMLSchema-instance">
  <asset>
    <contributor>
      <author>Blender User</author>
      <authoring_tool>Blender 4.4.3 commit date:2025-04-29, commit time:14:09, hash:802179c51ccc</authoring_tool>
    </contributor>
    <created>2025-08-04T15:55:52</created>
    <modified>2025-08-04T15:55:52</modified>
    <unit name="meter" meter="1"/>
    <up_axis>Z_UP</up_axis>
  </asset>
  <library_effects>
    <effect id="laundry-basket_empty_128-effect">
      <profile_COMMON>
        <newparam sid="laundry-basket_empty_128_png_001-surface">
          <surface type="2D">
            <init_from>laundry-basket_empty_128_png_001</init_from>
          </surface>
        </newparam>
        <newparam sid="laundry-basket_empty_128_png_001-sampler">
          <sampler2D>
            <source>laundry-basket_empty_128_png_001-surface</source>
          </sampler2D>
        </newparam>
        <technique sid="common">
          <lambert>
            <emission>
              <color sid="emission">0 0 0 1</color>
            </emission>
            <diffuse>
              <texture texture="laundry-basket_empty_128_png_001-sampler" texcoord="UVMap"/>
            </diffuse>
            <index_of_refraction>
              <float sid="ior">1.5</float>
            </index_of_refraction>
          </lambert>
        </technique>
      </profile_COMMON>
    </effect>
  </library_effects>
  <library_images>
    <image id="laundry-basket_empty_128_png_001" name="laundry-basket_empty_128_png_001">
      <init_from>laundry-basket_empty_128.png.001.png</init_from>
    </image>
  </library_images>
  <library_materials>
    <material id="laundry-basket_empty_128-material" name="laundry-basket_empty_128">
      <instance_effect url="#laundry-basket_empty_128-effect"/>
    </material>
  </library_materials>
  <library_geometries>
    <geometry id="laundry-basket_empty-mesh" name="laundry-basket_empty">
      <mesh>
        <source id="laundry-basket_empty-mesh-positions">
          <float_array id="laundry-basket_empty-mesh-positions-array" count="618">-0.1932735 -0.1949999 0.2695985 -0.265205 -0.175305 0.2695985 0.1932735 -0.1949999 0.2695985 -0.295 -0.1277571 0.2695985 -0.295 0.1277571 0.2695985 -0.265205 0.175305 0.2695985 -0.1932735 0.1949999 0.2695985 0.1932735 0.1949999 0.2695985 0.265205 -0.175305 0.2695985 0.295 -0.1277571 0.2695985 0.295 0.1277571 0.2695985 0.265205 0.175305 0.2695985 -0.2192496 -0.1497408 0.01266825 -0.2009745 -0.1233927 0 -0.159873 -0.1354512 0 -0.1637099 -0.1660353 0.01266825 -0.2268193 -0.1606546 0.04325234 -0.1652992 -0.1787037 0.04325234 -0.2404791 -0.113439 0.01266825 -0.2119363 -0.1046482 0 -0.2523018 -0.1170803 0.04325234 -0.1637099 0.1660353 0.01266825 -0.159873 0.1354512 0 -0.2009745 0.1233927 0 -0.2192496 0.1497408 0.01266825 -0.1652992 0.1787037 0.04325234 -0.2268193 0.1606546 0.04325234 -0.2119363 0.1046482 0 -0.240479 0.113439 0.01266825 -0.2523018 0.1170803 0.04325234 0.2404791 0.113439 0.01266825 0.2119363 0.1046482 0 0.2009745 0.1233927 0 0.2192496 0.1497408 0.01266825 0.2523018 0.1170803 0.04325234 0.2268193 0.1606546 0.04325234 0.159873 0.1354512 0 0.1637099 0.1660353 0.01266825 0.1652992 0.1787037 0.04325234 0.1637099 -0.1660353 0.01266825 0.159873 -0.1354512 0 0.2009745 -0.1233927 0 0.2192496 -0.1497408 0.01266825 0.1652992 -0.1787037 0.04325234 0.2268193 -0.1606546 0.04325234 0.2119363 -0.1046482 0 0.240479 -0.113439 0.01266825 0.2523018 -0.1170803 0.04325234 -0.2374104 -0.1569323 0.3049999 -0.2640827 -0.1143676 0.3049999 -0.2640827 0.1143676 0.3049999 -0.2374104 0.1569323 0.3049999 -0.1730176 0.1745632 0.3049999 0.1730176 0.1745632 0.3049999 0.2374104 -0.1569323 0.3049999 0.2374104 0.1569323 0.3049999 -0.1730176 -0.1745632 0.3049999 0.1730176 -0.1745632 0.3049999 0.2640827 -0.1143676 0.3049999 0.2640827 0.1143676 0.3049999 0 0.1930915 0.2809702 0 -0.1930915 0.2809702 0 0.1745632 0.3049999 0 -0.1745632 0.3049999 -0.1932735 -0.1949999 0.3049999 -0.265205 -0.175305 0.3049999 -0.2887347 -0.1277571 0.3049999 -0.265205 0.175305 0.3049999 -0.1932735 0.1949999 0.3049999 -0.2887347 0.1277571 0.3049999 0.265205 0.175305 0.3049999 0.2887347 0.1277571 0.3049999 0.1932735 0.1949999 0.3049999 0.265205 -0.175305 0.3049999 0.1932735 -0.1949999 0.3049999 0.2887347 -0.1277571 0.3049999 0 -0.1842922 0.3049999 0 0.1842922 0.3049999 -0.1543319 0.1783304 0.06685185 -0.1543319 0.1771522 0.1413284 -0.1543319 0.1767988 0.1636714 -0.1200359 0.1783304 0.06685185 -0.1543319 0.1756207 0.2381479 -0.08573991 0.1771522 0.1413284 -0.1200359 0.1771522 0.1413284 -0.1200359 0.1767988 0.1636714 -0.08573991 0.1767988 0.1636714 -0.1200359 0.1756207 0.2381479 -0.05144393 0.1783304 0.06685185 -0.08573991 0.1783304 0.06685185 -0.01714795 0.1783304 0.06685185 -0.05144393 0.1771522 0.1413284 -0.01714795 0.1767988 0.1636714 -0.01714795 0.1771522 0.1413284 -0.05144393 0.1767988 0.1636714 0.01714795 0.1783304 0.06685185 0.05144393 0.1783304 0.06685185 0.01714795 0.1771522 0.1413284 0.1200359 0.1783304 0.06685185 0.08573991 0.1783304 0.06685185 0.05144393 0.1756207 0.2381479 0.1200359 0.1771522 0.1413284 0.1200359 0.1767988 0.1636714 0.08573991 0.1756207 0.2381479 0.1543319 0.1756207 0.2381479 0.1543319 0.1771522 0.1413284 0.1543319 0.1767988 0.1636714 0.1543319 0.1783304 0.06685185 0.1200359 0.1756207 0.2381479 -0.08573991 0.1756207 0.2381479 -0.05144393 0.1756207 0.2381479 -0.01714795 0.1756207 0.2381479 0.01714795 0.1767988 0.1636714 0.01714795 0.1756207 0.2381479 0.08573991 0.1771522 0.1413284 0.05144393 0.1767988 0.1636714 0.05144393 0.1771522 0.1413284 0.08573991 0.1767988 0.1636714 -0.1200359 -0.1783304 0.06685185 -0.08573991 -0.1783304 0.06685185 -0.01714795 -0.1783304 0.06685185 -0.05144393 -0.1783304 0.06685185 -0.01714795 -0.1771522 0.1413284 0.01714795 -0.1771522 0.1413284 0.05144393 -0.1771522 0.1413284 0.05144393 -0.1767988 0.1636714 0.01714795 -0.1767988 0.1636714 0.05144393 -0.1783304 0.06685185 0.01714795 -0.1783304 0.06685185 0.08573991 -0.1771522 0.1413284 0.1200359 -0.1771522 0.1413284 0.1200359 -0.1767988 0.1636714 0.08573991 -0.1767988 0.1636714 0.1200359 -0.1783304 0.06685185 0.08573991 -0.1783304 0.06685185 0.1543319 -0.1756207 0.2381479 0.1543319 -0.1771522 0.1413284 0.1543319 -0.1767988 0.1636714 0.1543319 -0.1783304 0.06685185 0.1200359 -0.1756207 0.2381479 -0.1543319 -0.1783304 0.06685185 -0.1543319 -0.1771522 0.1413284 -0.1543319 -0.1767988 0.1636714 -0.1543319 -0.1756207 0.2381479 -0.05144393 -0.1756207 0.2381479 -0.08573991 -0.1756207 0.2381479 -0.1200359 -0.1771522 0.1413284 -0.1200359 -0.1767988 0.1636714 -0.1200359 -0.1756207 0.2381479 -0.08573991 -0.1771522 0.1413284 -0.08573991 -0.1767988 0.1636714 -0.05144393 -0.1771522 0.1413284 -0.05144393 -0.1767988 0.1636714 -0.01714795 -0.1767988 0.1636714 -0.01714795 -0.1756207 0.2381479 0.05144393 -0.1756207 0.2381479 0.01714795 -0.1756207 0.2381479 0.08573991 -0.1756207 0.2381479 0.2610738 -0.01714795 0.2381479 0.2610738 -0.05144393 0.2381479 0.2577217 0.01714795 0.1636714 0.2567161 0.05144393 0.1413284 0.2610738 0.01714795 0.2381479 0.2577217 0.05144393 0.1636714 0.2610738 0.08573991 0.2381479 0.2567161 0.08573991 0.1413284 0.2577217 0.08573991 0.1636714 0.2610738 0.05144393 0.2381479 0.253364 -0.08573991 0.06685185 0.2577217 -0.08573991 0.1636714 0.2567161 -0.08573991 0.1413284 0.2610738 -0.08573991 0.2381479 0.2567161 -0.05144393 0.1413284 0.2577217 -0.05144393 0.1636714 0.253364 -0.05144393 0.06685185 0.253364 -0.01714795 0.06685185 0.2567161 -0.01714795 0.1413284 0.2577217 -0.01714795 0.1636714 0.253364 0.05144393 0.06685185 0.253364 0.01714795 0.06685185 0.253364 0.08573991 0.06685185 0.2567161 0.01714795 0.1413284 -0.2567161 -0.08573991 0.1413284 -0.2577217 -0.08573991 0.1636714 -0.2610738 -0.08573991 0.2381479 -0.2567161 -0.05144393 0.1413284 -0.2577217 -0.01714795 0.1636714 -0.2577217 -0.05144393 0.1636714 -0.2610738 -0.05144393 0.2381479 -0.2610738 -0.01714795 0.2381479 -0.2610738 0.05144393 0.2381479 -0.2610738 0.01714795 0.2381479 -0.253364 -0.08573991 0.06685185 -0.253364 -0.05144393 0.06685185 -0.253364 -0.01714795 0.06685185 -0.2567161 -0.01714795 0.1413284 -0.253364 0.01714795 0.06685185 -0.2567161 0.01714795 0.1413284 -0.2577217 0.01714795 0.1636714 -0.2567161 0.05144393 0.1413284 -0.2577217 0.05144393 0.1636714 -0.253364 0.08573991 0.06685185 -0.2577217 0.08573991 0.1636714 -0.2610738 0.08573991 0.2381479 -0.2567161 0.08573991 0.1413284 -0.253364 0.05144393 0.06685185</float_array>
          <technique_common>
            <accessor source="#laundry-basket_empty-mesh-positions-array" count="206" stride="3">
              <param name="X" type="float"/>
              <param name="Y" type="float"/>
              <param name="Z" type="float"/>
            </accessor>
          </technique_common>
        </source>
        <source id="laundry-basket_empty-mesh-normals">
          <float_array id="laundry-basket_empty-mesh-normals-array" count="996">-0.8380057 -0.5251201 0.1483083 -0.9846979 0 0.1742695 0.9846979 0 0.1742695 -0.2640822 -0.9645001 0 0.2640822 0.9645001 0 0.896261 0.443527 0 -0.2640822 0.9645001 0 0.896261 -0.443527 0 -0.896261 0.443527 0 0.2640822 -0.9645001 0 0.2640811 -0.9644957 0.003030478 -0.8469259 0.5307094 -0.03261893 0.8469259 -0.5307094 -0.03261893 -0.2640811 0.9644957 0.003030478 0.8469259 0.5307095 -0.03261893 0.2640811 0.9644957 0.003030478 -0.1082058 -0.3688195 -0.9231813 -0.2602846 -0.8871787 -0.3810068 -0.3447939 -0.2016369 -0.9167659 -0.8031914 -0.4697109 -0.3664084 -0.1082059 0.3688195 -0.9231812 -0.2602843 0.8871784 -0.3810072 -0.3447941 0.2016373 -0.9167657 -0.8031915 0.4697105 -0.3664089 0.3447939 0.2016369 -0.9167659 0.8031914 0.4697109 -0.3664084 0.1082058 0.3688195 -0.9231813 0.2602846 0.8871787 -0.3810068 0.1082059 -0.3688195 -0.9231812 0.2602843 -0.8871784 -0.3810072 0.3447941 -0.2016373 -0.9167657 0.8031915 -0.4697105 -0.3664089 -0.932735 0 -0.3605628 -0.4056756 0 -0.9140172 0 0.9238795 -0.3826836 0.932735 0 -0.3605628 0.4056756 0 -0.9140172 0 -0.9238795 -0.3826836 -0.2815123 -0.959533 0.006877124 0.9989886 -1.61931e-6 -0.04496282 0.9989886 0 -0.0449633 3.04311e-6 0.9998748 0.01581686 -0.9989887 0 -0.0449633 -0.9989886 0 -0.0449633 0 -0.999875 0.01581662 0 -0.9998749 0.01581633 0 -0.999875 0.01581662 -0.8628932 -0.5046244 -0.02773898 0.009874165 0.9999512 0 0.009874165 -0.9999512 0 -0.009874165 -0.9999512 0 -0.009874165 0.9999512 0 0 0 1 0 0 1 0 0 1 0 0 1 0 0 1 0 0 1 0 0 1 0 0 1 0 0 1 0 0 1 0 0 1 0 0 1 0 0 1 0 0 1 0 -0.3826836 -0.9238795 0 0.3826836 -0.9238795 0 0 -1 -3.02827e-6 0.9998748 0.01581686 0 0.9998749 0.01581662 0 0.9998749 0.01581662 0 0.999875 0.01581662 0 0.9998749 0.01581686 0 0.999875 0.01581662 0 0.999875 0.01581662 0 0.999875 0.01581662 0 0.9998749 0.01581662 0 0.9998749 0.01581662 0 0.999875 0.01581662 0 0.999875 0.01581662 0 0.9998749 0.01581662 0 0.9998749 0.01581633 0 -0.999875 0.01581662 0 -0.9998749 0.01581662 0 -0.9998749 0.01581662 0 -0.999875 0.01581662 0 -0.999875 0.01581662 0 -0.9998749 0.01581662 3.02827e-6 -0.9998748 0.01581686 0 -0.999875 0.01581662 -3.04311e-6 -0.9998748 0.01581686 0 -0.9998749 0.01581662 0 -0.9998749 0.01581662 0 -0.9998749 0.01581686 0.9989887 0 -0.0449633 0.9989887 0 -0.0449633 0.9989887 0 -0.04496282 0.9989887 0 -0.04496335 0.9989887 0 -0.0449633 0.9989887 0 -0.0449633 0.9989886 0 -0.0449633 -0.9989886 0 -0.0449633 -0.9989887 0 -0.04496282 -0.9989886 1.61931e-6 -0.04496282 -0.9989887 0 -0.0449633 -0.9989887 0 -0.0449633 -0.9989887 0 -0.04496335 -0.9989887 0 -0.0449633 -0.896261 -0.443527 0 -0.9846979 0 0.1742695 0.9846979 0 0.1742695 -0.2640822 -0.9645001 0 0.2640822 0.9645001 0 0.8380057 0.5251201 0.1483083 -0.2640822 0.9645001 0 0.8380057 -0.5251201 0.1483083 -0.8380057 0.5251201 0.1483083 0.2640822 -0.9645001 0 0.2815123 -0.959533 0.006877124 -0.8628932 0.5046244 -0.02773898 0.8628932 -0.5046244 -0.02773898 -0.2815123 0.959533 0.006877124 0.8628932 0.5046244 -0.02773898 0.2815123 0.959533 0.006877124 -0.1082059 -0.3688195 -0.9231813 -0.2602843 -0.8871784 -0.3810072 -0.3447939 -0.2016374 -0.9167658 -0.8031915 -0.4697105 -0.366409 -0.1082058 0.3688194 -0.9231813 -0.2602846 0.8871785 -0.3810068 -0.3447941 0.2016372 -0.9167658 -0.8031914 0.4697104 -0.3664092 0.3447939 0.2016374 -0.9167658 0.8031915 0.4697105 -0.366409 0.1082059 0.3688195 -0.9231813 0.2602843 0.8871784 -0.3810072 0.1082058 -0.3688194 -0.9231813 0.2602846 -0.8871785 -0.3810068 0.3447941 -0.2016372 -0.9167658 0.8031914 -0.4697104 -0.3664092 -0.9327346 1.22522e-7 -0.3605636 -0.405676 0 -0.9140169 0 0.9238795 -0.3826836 0.9327346 -1.22522e-7 -0.3605636 0.405676 0 -0.9140169 0 -0.9238795 -0.3826836 -0.2640811 -0.9644957 0.003030478 0.9989886 0 -0.0449633 0.9989887 2.51004e-7 -0.0449633 0.9989886 0 -0.0449633 0.9989886 0 -0.0449633 0.9989886 0 -0.0449633 0.9989886 0 -0.0449633 0.9989886 0 -0.0449633 0.9989886 0 -0.0449633 0 0.999875 0.01581662 0 0.9998749 0.01581662 6.12333e-7 0.9998749 0.01581662 -0.9989887 0 -0.0449633 -0.9989886 0 -0.0449633 -0.9989886 0 -0.0449633 -0.9989886 0 -0.0449633 -0.9989886 0 -0.0449633 -0.9989886 0 -0.0449633 0 -0.999875 0.01581662 0 -0.9998749 0.01581633 0 -0.9998749 0.01581633 0 -0.9998749 0.01581633 0 -0.9998749 0.01581633 0 -0.9998749 0.01581633 0 -0.9998749 0.01581633 0 -0.9998749 0.01581633 0 -0.9998749 0.01581633 0 -0.9998749 0.01581633 0 -0.999875 0.01581662 -0.8469259 -0.5307095 -0.03261893 0.05195367 0.937755 0.3433895 0.05195367 -0.937755 0.3433895 -0.05195367 -0.937755 0.3433895 -0.05195367 0.937755 0.3433895 0 0 1 0 0 1 0 0 1 0 0 1 0 0 1 0 0 1 0 0 1 0 0 1 0 0 1 0 0 1 0 0 1 0 0 1 0 0 1 0 0 1 0 -0.3826836 -0.9238795 0 0.3826836 -0.9238795 0 0 -1 0 0 -1 0 0 -1 0 0 -1 0 0 -1 0 0 -1 0 0 -1 0 0 -1 0 0 -1 -6.12333e-7 0.9998749 0.01581662 0 0.9998749 0.01581662 0 0.999875 0.01581662 0 0.9998749 0.01581662 0 0.999875 0.01581662 0 0.9998749 0.01581686 0 0.9998749 0.01581686 0 0.9998749 0.01581686 0 0.9998749 0.01581686 0 0.9998749 0.01581686 0 0.9998749 0.01581686 0 0.9998749 0.01581686 0 0.9998749 0.01581686 0 0.9998749 0.01581686 0 0.9998749 0.01581686 0 0.9998749 0.01581686 0 0.9998749 0.01581686 0 0.9998749 0.01581686 0 0.9998749 0.01581686 0 0.9998749 0.01581686 0 0.9998749 0.01581686 0 0.9998749 0.01581686 0 0.999875 0.01581662 0 0.999875 0.01581662 0 0.999875 0.01581662 0 0.9998749 0.01581662 0 0.9998749 0.01581662 0 0.9998749 0.01581662 0 0.9998749 0.01581662 0 0.9998749 0.01581662 0 0.9998749 0.01581662 0 0.9998749 0.01581662 0 0.9998749 0.01581662 0 0.999875 0.01581662 0 0.999875 0.01581662 0 0.9998749 0.01581662 0 0.9998749 0.01581633 0 0.9998749 0.01581633 0 0.9998749 0.01581633 0 0.9998749 0.01581633 0 0.9998749 0.01581633 0 0.9998749 0.01581633 0 0.9998749 0.01581633 0 0.9998749 0.01581633 0 0.9998749 0.01581633 0 -0.999875 0.01581662 0 -0.9998749 0.01581662 0 -0.9998749 0.01581662 0 -0.9998749 0.01581662 0 -0.9998749 0.01581662 0 -0.9998749 0.01581662 0 -0.999875 0.01581662 0 -0.999875 0.01581662 6.12333e-7 -0.9998749 0.01581662 0 -0.9998749 0.01581662 0 -0.999875 0.01581662 0 -0.999875 0.01581662 0 -0.999875 0.01581662 0 -0.9998749 0.01581662 -6.12333e-7 -0.9998749 0.01581662 0 -0.9998749 0.01581662 0 -0.9998749 0.01581662 0 -0.9998749 0.01581662 0 -0.9998749 0.01581662 0 -0.9998749 0.01581662 0 -0.9998749 0.01581686 0 -0.9998749 0.01581686 0 -0.9998749 0.01581686 0 -0.9998749 0.01581686 0 -0.9998749 0.01581686 0 -0.9998749 0.01581686 0 -0.9998749 0.01581686 0 -0.9998749 0.01581686 0 -0.9998749 0.01581686 0 -0.9998749 0.01581686 0 -0.9998749 0.01581686 0 -0.9998749 0.01581686 0 -0.9998749 0.01581686 0 -0.9998749 0.01581686 0 -0.9998749 0.01581686 0 -0.9998749 0.01581686 0 -0.9998749 0.01581686 0.9989887 0 -0.0449633 0.9989887 0 -0.0449633 0.9989887 0 -0.04496282 0.9989887 0 -0.04496282 0.9989887 0 -0.04496282 0.9989887 0 -0.04496282 0.9989887 0 -0.04496282 0.9989887 0 -0.04496282 0.9989887 0 -0.04496282 0.9989887 0 -0.04496282 0.9989887 0 -0.04496282 0.9989887 0 -0.04496335 0.9989887 0 -0.04496335 0.9989887 0 -0.04496335 0.9989887 0 -0.04496335 0.9989887 0 -0.04496335 0.9989887 0 -0.0449633 0.9989887 0 -0.0449633 0.9989887 -2.51004e-7 -0.0449633 0.9989886 0 -0.0449633 0.9989886 1.61931e-6 -0.04496282 -0.9989887 2.51004e-7 -0.0449633 -0.9989886 0 -0.0449633 -0.9989886 -1.61931e-6 -0.04496282 -0.9989887 0 -0.04496282 -0.9989887 0 -0.04496282 -0.9989887 0 -0.04496282 -0.9989887 0 -0.04496282 -0.9989887 0 -0.04496282 -0.9989887 0 -0.04496282 -0.9989887 0 -0.04496282 -0.9989887 0 -0.04496282 -0.9989887 0 -0.04496282 -0.9989886 0 -0.0449633 -0.9989887 -2.51004e-7 -0.0449633 -0.9989886 0 -0.0449633 -0.9989887 0 -0.0449633 -0.9989887 0 -0.0449633 -0.9989887 0 -0.04496335 -0.9989887 0 -0.04496335 -0.9989887 0 -0.04496335 -0.9989887 0 -0.04496335 -0.9989887 0 -0.04496335 -0.9989887 0 -0.0449633</float_array>
          <technique_common>
            <accessor source="#laundry-basket_empty-mesh-normals-array" count="332" stride="3">
              <param name="X" type="float"/>
              <param name="Y" type="float"/>
              <param name="Z" type="float"/>
            </accessor>
          </technique_common>
        </source>
        <source id="laundry-basket_empty-mesh-map-0">
          <float_array id="laundry-basket_empty-mesh-map-0-array" count="1992">0.703125 0.4257813 0.640625 0.4570313 0.640625 0.4179688 0.640625 0.4570313 0.3632813 0.4179688 0.640625 0.4179688 0.640625 0.4570313 0.3632813 0.4179688 0.640625 0.4179688 0.78125 0.46875 0.703125 0.4257813 0.78125 0.4296875 0.703125 0.4257813 0.78125 0.46875 0.6992188 0.4648438 0.640625 0.4570313 0.703125 0.4257813 0.6992188 0.4648438 0.21875 0.4296875 0.3046875 0.4648438 0.2226562 0.46875 0.3007813 0.4257813 0.3632813 0.4570313 0.3046875 0.4648438 0.3007813 0.4257813 0.3632813 0.4570313 0.3046875 0.4648438 0.21875 0.4296875 0.3046875 0.4648438 0.2226562 0.46875 0.109375 0.390625 0.1796875 0.109375 0.1796875 0.3945313 0.1796875 0.3945313 0.234375 0.109375 0.234375 0.3945313 0.1796875 0.3945313 0.234375 0.109375 0.234375 0.3945313 0.109375 0.390625 0.1796875 0.109375 0.1796875 0.3945313 0.234375 0.109375 0.1796875 0.3945313 0.234375 0.3945313 0.1796875 0.109375 0.109375 0.390625 0.1796875 0.3945313 0.1640625 0.03515625 0.1132812 0.0703125 0.1757812 0.0703125 0.1757812 0.0703125 0.109375 0.1054687 0.1796875 0.109375 0.1992187 0.0390625 0.2304687 0.07421875 0.2226562 0.0390625 0.1835937 0.0703125 0.234375 0.109375 0.2304687 0.07421875 0.1640625 0.03515625 0.1132812 0.0703125 0.1171875 0.03515625 0.1757812 0.0703125 0.109375 0.1054687 0.1132812 0.0703125 0.1992187 0.0390625 0.2304687 0.07421875 0.1835937 0.0703125 0.1835937 0.0703125 0.234375 0.109375 0.1796875 0.109375 0.1992187 0.0390625 0.2304687 0.07421875 0.2226562 0.0390625 0.1835937 0.0703125 0.234375 0.109375 0.2304687 0.07421875 0.1640625 0.03515625 0.1132812 0.0703125 0.1757812 0.0703125 0.1757812 0.0703125 0.109375 0.1054687 0.1796875 0.109375 0.1640625 0.03515625 0.1132812 0.0703125 0.1171875 0.03515625 0.1757812 0.0703125 0.109375 0.1054687 0.1132812 0.0703125 0.1992187 0.0390625 0.2304687 0.07421875 0.1835937 0.0703125 0.1835937 0.0703125 0.234375 0.109375 0.1796875 0.109375 0.234375 0.109375 0.484375 0.07421875 0.4882813 0.109375 0.2382812 0.07421875 0.4765625 0.0390625 0.484375 0.07421875 0.4921875 0.109375 0.8515625 0.07421875 0.8554688 0.109375 0.234375 0.109375 0.484375 0.07421875 0.4882813 0.109375 0.2382812 0.07421875 0.4765625 0.0390625 0.484375 0.07421875 0.4921875 0.109375 0.8515625 0.07421875 0.8554688 0.109375 0.109375 0.390625 0.1796875 0.109375 0.109375 0.1054687 0.265625 0.2148437 0.265625 0.2421875 0.234375 0.109375 0.34375 0.1328125 0.234375 0.109375 0.3789063 0.1328125 0.5039063 0.2148437 0.5039063 0.2421875 0.4921875 0.109375 0.3789063 0.2148437 0.4179688 0.1328125 0.4179688 0.2148437 0.34375 0.1328125 0.234375 0.109375 0.3789063 0.1328125 0.7304688 0.2421875 0.6914063 0.3203125 0.6914063 0.2421875 0.4921875 0.109375 0.6914063 0.1367187 0.65625 0.1367187 0.765625 0.2148437 0.8046875 0.1367187 0.8046875 0.2148437 0.1796875 0.3945313 0.234375 0.109375 0.1796875 0.109375 0.2226562 0.46875 0.01171875 0.4609375 0.21875 0.4296875 0.9921875 0.4609375 0.78125 0.46875 0.78125 0.4296875 0.2226562 0.46875 0.01171875 0.4609375 0.21875 0.4296875 0.9921875 0.4609375 0.78125 0.46875 0.78125 0.4296875 0.1914062 0.5625 0.21875 0.828125 0.1914062 0.84375 0.1914062 0.84375 0.25 0.875 0.21875 0.8945313 0.25 0.875 0.296875 0.9140625 0.21875 0.8945313 0.5078125 0.9023438 0.3203125 0.8945313 0.5078125 0.8945313 0.765625 0.53125 0.71875 0.4921875 0.796875 0.5117188 0.8203125 0.5625 0.765625 0.53125 0.796875 0.5117188 0.8203125 0.84375 0.796875 0.578125 0.8203125 0.5625 0.765625 0.875 0.8203125 0.84375 0.796875 0.8945313 0.71875 0.9140625 0.765625 0.875 0.796875 0.8945313 0.6953125 0.8945313 0.5078125 0.9023438 0.5078125 0.8945313 0.1914062 0.5625 0.25 0.53125 0.21875 0.578125 0.296875 0.4921875 0.25 0.53125 0.21875 0.5117188 0.5078125 0.5 0.6953125 0.5117188 0.5078125 0.5117188 0.5078125 0.5 0.3203125 0.5117188 0.296875 0.4921875 0.5 0.03515625 0.8515625 0.07421875 0.4960938 0.07421875 0.4960938 0.07421875 0.8476563 0.03515625 0.8515625 0.07421875 0.3398438 0.859375 0.28125 0.8242188 0.3398438 0.5625 0.84375 0.2421875 0.84375 0.2148437 0.8554688 0.109375 0.765625 0.3203125 0.8046875 0.2421875 0.8046875 0.3203125 0.6757813 0.3945313 0.65625 0.3203125 0.6914063 0.3203125 0.6171875 0.2148437 0.65625 0.1367187 0.65625 0.2148437 0.5820313 0.2421875 0.5429688 0.2421875 0.5429688 0.2148437 0.5429688 0.2148437 0.5820313 0.1367187 0.5820313 0.2148437 0.5429688 0.3203125 0.5820313 0.2421875 0.5820313 0.3203125 0.65625 0.3203125 0.6171875 0.2421875 0.65625 0.2421875 0.5820313 0.3203125 0.6171875 0.3203125 0.6757813 0.3945313 0.765625 0.3203125 0.8046875 0.3203125 0.8632813 0.3945313 0.7304688 0.2421875 0.6914063 0.3203125 0.6914063 0.2421875 0.7304688 0.1367187 0.6914063 0.2148437 0.6914063 0.1367187 0.8046875 0.1367187 0.765625 0.2148437 0.765625 0.1367187 0.4921875 0.109375 0.6914063 0.1367187 0.65625 0.1367187 0.6171875 0.2148437 0.65625 0.1367187 0.65625 0.2148437 0.5820313 0.2421875 0.5429688 0.3203125 0.5429688 0.2421875 0.5820313 0.3203125 0.6171875 0.3203125 0.6757813 0.3945313 0.7304688 0.1367187 0.6914063 0.2148437 0.6914063 0.1367187 0.65625 0.2421875 0.6171875 0.3203125 0.6171875 0.2421875 0.65625 0.3203125 0.6914063 0.3203125 0.6757813 0.3945313 0.84375 0.2421875 0.84375 0.2148437 0.8554688 0.109375 0.765625 0.3203125 0.8046875 0.2421875 0.8046875 0.3203125 0.5039063 0.2148437 0.5039063 0.2421875 0.4921875 0.109375 0.765625 0.3203125 0.8046875 0.3203125 0.8632813 0.3945313 0.5820313 0.1367187 0.5429688 0.2148437 0.5429688 0.1367187 0.765625 0.2148437 0.8046875 0.2148437 0.8046875 0.2421875 0.34375 0.3203125 0.3046875 0.2421875 0.34375 0.2421875 0.3046875 0.2148437 0.34375 0.1328125 0.34375 0.2148437 0.34375 0.2421875 0.3046875 0.2421875 0.3046875 0.2148437 0.34375 0.3203125 0.3789063 0.3203125 0.484375 0.3945313 0.3789063 0.2421875 0.4179688 0.3203125 0.3789063 0.3203125 0.3789063 0.2148437 0.4179688 0.1328125 0.4179688 0.2148437 0.453125 0.2148437 0.453125 0.1328125 0.4882813 0.109375 0.453125 0.2148437 0.453125 0.1328125 0.4882813 0.109375 0.3789063 0.2148437 0.4179688 0.2148437 0.4179688 0.2421875 0.265625 0.2148437 0.265625 0.2421875 0.234375 0.109375 0.3789063 0.2421875 0.4179688 0.3203125 0.3789063 0.3203125 0.3046875 0.3203125 0.34375 0.2421875 0.34375 0.3203125 0.34375 0.3203125 0.3789063 0.3203125 0.484375 0.3945313 0.3046875 0.2148437 0.34375 0.1328125 0.34375 0.2148437 0.703125 0.4257813 0.6992188 0.4648438 0.640625 0.4570313 0.640625 0.4570313 0.3632813 0.4570313 0.3632813 0.4179688 0.640625 0.4570313 0.3632813 0.4570313 0.3632813 0.4179688 0.78125 0.46875 0.6992188 0.4648438 0.703125 0.4257813 0.703125 0.4257813 0.78125 0.4296875 0.78125 0.46875 0.640625 0.4570313 0.640625 0.4179688 0.703125 0.4257813 0.21875 0.4296875 0.3007813 0.4257813 0.3046875 0.4648438 0.3007813 0.4257813 0.3632813 0.4179688 0.3632813 0.4570313 0.3007813 0.4257813 0.3632813 0.4179688 0.3632813 0.4570313 0.21875 0.4296875 0.3007813 0.4257813 0.3046875 0.4648438 0.109375 0.390625 0.109375 0.1054687 0.1796875 0.109375 0.1796875 0.3945313 0.1796875 0.109375 0.234375 0.109375 0.1796875 0.3945313 0.1796875 0.109375 0.234375 0.109375 0.109375 0.390625 0.109375 0.1054687 0.1796875 0.109375 0.234375 0.109375 0.1796875 0.109375 0.1796875 0.3945313 0.1796875 0.109375 0.109375 0.1054687 0.109375 0.390625 0.1640625 0.03515625 0.1171875 0.03515625 0.1132812 0.0703125 0.1757812 0.0703125 0.1132812 0.0703125 0.109375 0.1054687 0.1992187 0.0390625 0.1835937 0.0703125 0.2304687 0.07421875 0.1835937 0.0703125 0.1796875 0.109375 0.234375 0.109375 0.1640625 0.03515625 0.1757812 0.0703125 0.1132812 0.0703125 0.1757812 0.0703125 0.1796875 0.109375 0.109375 0.1054687 0.1992187 0.0390625 0.2226562 0.0390625 0.2304687 0.07421875 0.1835937 0.0703125 0.2304687 0.07421875 0.234375 0.109375 0.1992187 0.0390625 0.1835937 0.0703125 0.2304687 0.07421875 0.1835937 0.0703125 0.1796875 0.109375 0.234375 0.109375 0.1640625 0.03515625 0.1171875 0.03515625 0.1132812 0.0703125 0.1757812 0.0703125 0.1132812 0.0703125 0.109375 0.1054687 0.1640625 0.03515625 0.1757812 0.0703125 0.1132812 0.0703125 0.1757812 0.0703125 0.1796875 0.109375 0.109375 0.1054687 0.1992187 0.0390625 0.2226562 0.0390625 0.2304687 0.07421875 0.1835937 0.0703125 0.2304687 0.07421875 0.234375 0.109375 0.234375 0.109375 0.2382812 0.07421875 0.484375 0.07421875 0.2382812 0.07421875 0.2460937 0.0390625 0.4765625 0.0390625 0.4921875 0.109375 0.4960938 0.07421875 0.8515625 0.07421875 0.234375 0.109375 0.2382812 0.07421875 0.484375 0.07421875 0.2382812 0.07421875 0.2460937 0.0390625 0.4765625 0.0390625 0.4921875 0.109375 0.4960938 0.07421875 0.8515625 0.07421875 0.109375 0.390625 0.1796875 0.3945313 0.1796875 0.109375 0.265625 0.2421875 0.265625 0.3203125 0.234375 0.3945313 0.234375 0.3945313 0.234375 0.109375 0.265625 0.2421875 0.234375 0.109375 0.265625 0.1328125 0.265625 0.2148437 0.3046875 0.1328125 0.265625 0.1328125 0.234375 0.109375 0.234375 0.109375 0.4882813 0.109375 0.3789063 0.1328125 0.4882813 0.109375 0.453125 0.1328125 0.4179688 0.1328125 0.4882813 0.109375 0.4179688 0.1328125 0.3789063 0.1328125 0.34375 0.1328125 0.3046875 0.1328125 0.234375 0.109375 0.5039063 0.2421875 0.5039063 0.3203125 0.484375 0.3945313 0.484375 0.3945313 0.4921875 0.109375 0.5039063 0.2421875 0.4921875 0.109375 0.5039063 0.1367187 0.5039063 0.2148437 0.3789063 0.2148437 0.3789063 0.1328125 0.4179688 0.1328125 0.3046875 0.1328125 0.265625 0.1328125 0.234375 0.109375 0.234375 0.109375 0.4882813 0.109375 0.3789063 0.1328125 0.4882813 0.109375 0.453125 0.1328125 0.4179688 0.1328125 0.4882813 0.109375 0.4179688 0.1328125 0.3789063 0.1328125 0.34375 0.1328125 0.3046875 0.1328125 0.234375 0.109375 0.7304688 0.2421875 0.7304688 0.3203125 0.6914063 0.3203125 0.5429688 0.1367187 0.5039063 0.1367187 0.4921875 0.109375 0.4921875 0.109375 0.8554688 0.109375 0.6914063 0.1367187 0.8554688 0.109375 0.84375 0.1367187 0.8046875 0.1367187 0.8554688 0.109375 0.8046875 0.1367187 0.765625 0.1367187 0.5820313 0.1367187 0.5429688 0.1367187 0.4921875 0.109375 0.6171875 0.1367187 0.5820313 0.1367187 0.4921875 0.109375 0.8554688 0.109375 0.765625 0.1367187 0.7304688 0.1367187 0.8554688 0.109375 0.7304688 0.1367187 0.6914063 0.1367187 0.65625 0.1367187 0.6171875 0.1367187 0.4921875 0.109375 0.765625 0.2148437 0.765625 0.1367187 0.8046875 0.1367187 0.1796875 0.3945313 0.234375 0.3945313 0.234375 0.109375 0.2226562 0.46875 0.01171875 0.4882813 0.01171875 0.4609375 0.9921875 0.4609375 0.9882813 0.4882813 0.78125 0.46875 0.2226562 0.46875 0.01171875 0.4882813 0.01171875 0.4609375 0.9921875 0.4609375 0.9882813 0.4882813 0.78125 0.46875 0.1914062 0.5625 0.21875 0.578125 0.21875 0.828125 0.1914062 0.84375 0.21875 0.828125 0.25 0.875 0.25 0.875 0.3203125 0.8945313 0.296875 0.9140625 0.5078125 0.9023438 0.296875 0.9140625 0.3203125 0.8945313 0.765625 0.53125 0.6953125 0.5117188 0.71875 0.4921875 0.8203125 0.5625 0.796875 0.578125 0.765625 0.53125 0.8203125 0.84375 0.796875 0.828125 0.796875 0.578125 0.765625 0.875 0.796875 0.828125 0.8203125 0.84375 0.71875 0.9140625 0.6953125 0.8945313 0.765625 0.875 0.6953125 0.8945313 0.71875 0.9140625 0.5078125 0.9023438 0.1914062 0.5625 0.21875 0.5117188 0.25 0.53125 0.296875 0.4921875 0.3203125 0.5117188 0.25 0.53125 0.5078125 0.5 0.71875 0.4921875 0.6953125 0.5117188 0.5078125 0.5 0.5078125 0.5117188 0.3203125 0.5117188 0.5 0.03515625 0.8476563 0.03515625 0.8515625 0.07421875 0.4960938 0.07421875 0.5 0.03515625 0.8476563 0.03515625 0.7421875 0.5976563 0.7421875 0.8242188 0.6875 0.859375 0.7421875 0.8242188 0.7304688 0.84375 0.6875 0.859375 0.6875 0.859375 0.3398438 0.859375 0.6875 0.5625 0.7421875 0.5976563 0.6875 0.859375 0.6875 0.5625 0.3398438 0.859375 0.2929688 0.84375 0.28125 0.8242188 0.28125 0.8242188 0.28125 0.5976563 0.3398438 0.5625 0.28125 0.5976563 0.2929688 0.578125 0.3398438 0.5625 0.3398438 0.5625 0.6875 0.5625 0.3398438 0.859375 0.6875 0.5625 0.7304688 0.578125 0.7421875 0.5976563 0.84375 0.2148437 0.84375 0.1367187 0.8554688 0.109375 0.8554688 0.109375 0.8632813 0.3945313 0.84375 0.2421875 0.8632813 0.3945313 0.84375 0.3203125 0.84375 0.2421875 0.765625 0.3203125 0.765625 0.2421875 0.8046875 0.2421875 0.6171875 0.2148437 0.6171875 0.1367187 0.65625 0.1367187 0.8046875 0.2148437 0.84375 0.2148437 0.84375 0.2421875 0.8046875 0.2148437 0.84375 0.2421875 0.8046875 0.2421875 0.765625 0.2148437 0.8046875 0.2148437 0.8046875 0.2421875 0.765625 0.2148437 0.8046875 0.2421875 0.765625 0.2421875 0.7304688 0.2148437 0.765625 0.2148437 0.765625 0.2421875 0.7304688 0.2148437 0.765625 0.2421875 0.7304688 0.2421875 0.6914063 0.2148437 0.7304688 0.2148437 0.7304688 0.2421875 0.6914063 0.2148437 0.7304688 0.2421875 0.6914063 0.2421875 0.65625 0.2148437 0.6914063 0.2148437 0.6914063 0.2421875 0.65625 0.2148437 0.6914063 0.2421875 0.65625 0.2421875 0.6171875 0.2148437 0.65625 0.2148437 0.65625 0.2421875 0.6171875 0.2148437 0.65625 0.2421875 0.6171875 0.2421875 0.5820313 0.2148437 0.6171875 0.2148437 0.6171875 0.2421875 0.5820313 0.2148437 0.6171875 0.2421875 0.5820313 0.2421875 0.5039063 0.2421875 0.5039063 0.2148437 0.5429688 0.2148437 0.5429688 0.2148437 0.5820313 0.2148437 0.5820313 0.2421875 0.5429688 0.2421875 0.5039063 0.2421875 0.5429688 0.2148437 0.5429688 0.2148437 0.5429688 0.1367187 0.5820313 0.1367187 0.5429688 0.3203125 0.5429688 0.2421875 0.5820313 0.2421875 0.65625 0.3203125 0.6171875 0.3203125 0.6171875 0.2421875 0.6171875 0.3203125 0.65625 0.3203125 0.6757813 0.3945313 0.6757813 0.3945313 0.484375 0.3945313 0.5820313 0.3203125 0.484375 0.3945313 0.5039063 0.3203125 0.5429688 0.3203125 0.484375 0.3945313 0.5429688 0.3203125 0.5820313 0.3203125 0.8046875 0.3203125 0.84375 0.3203125 0.8632813 0.3945313 0.8632813 0.3945313 0.6757813 0.3945313 0.765625 0.3203125 0.6757813 0.3945313 0.6914063 0.3203125 0.7304688 0.3203125 0.6757813 0.3945313 0.7304688 0.3203125 0.765625 0.3203125 0.7304688 0.2421875 0.7304688 0.3203125 0.6914063 0.3203125 0.7304688 0.1367187 0.7304688 0.2148437 0.6914063 0.2148437 0.8046875 0.1367187 0.8046875 0.2148437 0.765625 0.2148437 0.5429688 0.1367187 0.5039063 0.1367187 0.4921875 0.109375 0.4921875 0.109375 0.8554688 0.109375 0.6914063 0.1367187 0.8554688 0.109375 0.84375 0.1367187 0.8046875 0.1367187 0.8554688 0.109375 0.8046875 0.1367187 0.765625 0.1367187 0.5820313 0.1367187 0.5429688 0.1367187 0.4921875 0.109375 0.6171875 0.1367187 0.5820313 0.1367187 0.4921875 0.109375 0.8554688 0.109375 0.765625 0.1367187 0.7304688 0.1367187 0.8554688 0.109375 0.7304688 0.1367187 0.6914063 0.1367187 0.65625 0.1367187 0.6171875 0.1367187 0.4921875 0.109375 0.6171875 0.2148437 0.6171875 0.1367187 0.65625 0.1367187 0.5820313 0.2421875 0.5820313 0.3203125 0.5429688 0.3203125 0.6171875 0.3203125 0.65625 0.3203125 0.6757813 0.3945313 0.6757813 0.3945313 0.484375 0.3945313 0.5820313 0.3203125 0.484375 0.3945313 0.5039063 0.3203125 0.5429688 0.3203125 0.484375 0.3945313 0.5429688 0.3203125 0.5820313 0.3203125 0.7304688 0.1367187 0.7304688 0.2148437 0.6914063 0.2148437 0.65625 0.2421875 0.65625 0.3203125 0.6171875 0.3203125 0.84375 0.2148437 0.84375 0.1367187 0.8554688 0.109375 0.8554688 0.109375 0.8632813 0.3945313 0.84375 0.2421875 0.8632813 0.3945313 0.84375 0.3203125 0.84375 0.2421875 0.765625 0.3203125 0.765625 0.2421875 0.8046875 0.2421875 0.5039063 0.2421875 0.5039063 0.3203125 0.484375 0.3945313 0.484375 0.3945313 0.4921875 0.109375 0.5039063 0.2421875 0.4921875 0.109375 0.5039063 0.1367187 0.5039063 0.2148437 0.8046875 0.3203125 0.84375 0.3203125 0.8632813 0.3945313 0.8632813 0.3945313 0.6757813 0.3945313 0.765625 0.3203125 0.6757813 0.3945313 0.6914063 0.3203125 0.7304688 0.3203125 0.6757813 0.3945313 0.7304688 0.3203125 0.765625 0.3203125 0.5820313 0.1367187 0.5820313 0.2148437 0.5429688 0.2148437 0.5429688 0.2421875 0.5039063 0.2421875 0.5039063 0.2148437 0.5429688 0.2421875 0.5039063 0.2148437 0.5429688 0.2148437 0.5820313 0.2421875 0.5429688 0.2421875 0.5429688 0.2148437 0.5820313 0.2421875 0.5429688 0.2148437 0.5820313 0.2148437 0.6171875 0.2421875 0.5820313 0.2421875 0.5820313 0.2148437 0.6171875 0.2421875 0.5820313 0.2148437 0.6171875 0.2148437 0.65625 0.2421875 0.6171875 0.2421875 0.6171875 0.2148437 0.65625 0.2421875 0.6171875 0.2148437 0.65625 0.2148437 0.6914063 0.2421875 0.65625 0.2421875 0.65625 0.2148437 0.6914063 0.2421875 0.65625 0.2148437 0.6914063 0.2148437 0.7304688 0.2421875 0.6914063 0.2421875 0.6914063 0.2148437 0.7304688 0.2421875 0.6914063 0.2148437 0.7304688 0.2148437 0.765625 0.2421875 0.7304688 0.2421875 0.7304688 0.2148437 0.765625 0.2421875 0.7304688 0.2148437 0.765625 0.2148437 0.84375 0.2148437 0.84375 0.2421875 0.8046875 0.2421875 0.8046875 0.2421875 0.765625 0.2421875 0.765625 0.2148437 0.8046875 0.2148437 0.84375 0.2148437 0.8046875 0.2421875 0.34375 0.3203125 0.3046875 0.3203125 0.3046875 0.2421875 0.3046875 0.2148437 0.3046875 0.1328125 0.34375 0.1328125 0.4179688 0.2148437 0.453125 0.2148437 0.453125 0.2421875 0.4179688 0.2148437 0.453125 0.2421875 0.4179688 0.2421875 0.3789063 0.2148437 0.4179688 0.2148437 0.4179688 0.2421875 0.3789063 0.2148437 0.4179688 0.2421875 0.3789063 0.2421875 0.34375 0.2148437 0.3789063 0.2148437 0.3789063 0.2421875 0.34375 0.2148437 0.3789063 0.2421875 0.34375 0.2421875 0.265625 0.2421875 0.265625 0.2148437 0.3046875 0.2148437 0.3046875 0.2148437 0.34375 0.2148437 0.34375 0.2421875 0.3046875 0.2421875 0.265625 0.2421875 0.3046875 0.2148437 0.4179688 0.3203125 0.453125 0.3203125 0.484375 0.3945313 0.484375 0.3945313 0.234375 0.3945313 0.34375 0.3203125 0.234375 0.3945313 0.265625 0.3203125 0.3046875 0.3203125 0.234375 0.3945313 0.3046875 0.3203125 0.34375 0.3203125 0.3789063 0.3203125 0.4179688 0.3203125 0.484375 0.3945313 0.3789063 0.2421875 0.4179688 0.2421875 0.4179688 0.3203125 0.3789063 0.2148437 0.3789063 0.1328125 0.4179688 0.1328125 0.4882813 0.109375 0.484375 0.3945313 0.453125 0.2421875 0.484375 0.3945313 0.453125 0.3203125 0.453125 0.2421875 0.4882813 0.109375 0.453125 0.2421875 0.453125 0.2148437 0.4882813 0.109375 0.484375 0.3945313 0.453125 0.2421875 0.484375 0.3945313 0.453125 0.3203125 0.453125 0.2421875 0.4882813 0.109375 0.453125 0.2421875 0.453125 0.2148437 0.3046875 0.2421875 0.265625 0.2421875 0.265625 0.2148437 0.3046875 0.2421875 0.265625 0.2148437 0.3046875 0.2148437 0.34375 0.2421875 0.3046875 0.2421875 0.3046875 0.2148437 0.34375 0.2421875 0.3046875 0.2148437 0.34375 0.2148437 0.3789063 0.2421875 0.34375 0.2421875 0.34375 0.2148437 0.3789063 0.2421875 0.34375 0.2148437 0.3789063 0.2148437 0.453125 0.2148437 0.453125 0.2421875 0.4179688 0.2421875 0.4179688 0.2421875 0.3789063 0.2421875 0.3789063 0.2148437 0.4179688 0.2148437 0.453125 0.2148437 0.4179688 0.2421875 0.265625 0.2421875 0.265625 0.3203125 0.234375 0.3945313 0.234375 0.3945313 0.234375 0.109375 0.265625 0.2421875 0.234375 0.109375 0.265625 0.1328125 0.265625 0.2148437 0.3789063 0.2421875 0.4179688 0.2421875 0.4179688 0.3203125 0.3046875 0.3203125 0.3046875 0.2421875 0.34375 0.2421875 0.4179688 0.3203125 0.453125 0.3203125 0.484375 0.3945313 0.484375 0.3945313 0.234375 0.3945313 0.34375 0.3203125 0.234375 0.3945313 0.265625 0.3203125 0.3046875 0.3203125 0.234375 0.3945313 0.3046875 0.3203125 0.34375 0.3203125 0.3789063 0.3203125 0.4179688 0.3203125 0.484375 0.3945313 0.3046875 0.2148437 0.3046875 0.1328125 0.34375 0.1328125</float_array>
          <technique_common>
            <accessor source="#laundry-basket_empty-mesh-map-0-array" count="996" stride="2">
              <param name="S" type="float"/>
              <param name="T" type="float"/>
            </accessor>
          </technique_common>
        </source>
        <vertices id="laundry-basket_empty-mesh-vertices">
          <input semantic="POSITION" source="#laundry-basket_empty-mesh-positions"/>
        </vertices>
        <triangles material="laundry-basket_empty_128-material" count="332">
          <input semantic="VERTEX" source="#laundry-basket_empty-mesh-vertices" offset="0"/>
          <input semantic="NORMAL" source="#laundry-basket_empty-mesh-normals" offset="1"/>
          <input semantic="TEXCOORD" source="#laundry-basket_empty-mesh-map-0" offset="2" set="0"/>
          <p>1 0 0 66 0 1 3 0 2 66 1 3 4 1 4 3 1 5 71 2 6 9 2 7 10 2 8 64 3 9 1 3 10 0 3 11 11 4 12 72 4 13 70 4 14 71 5 15 11 5 16 70 5 17 6 6 18 67 6 19 68 6 20 8 7 21 75 7 22 73 7 23 5 8 24 69 8 25 67 8 26 2 9 27 73 9 28 74 9 29 57 10 30 44 10 31 54 10 32 51 11 33 29 11 34 50 11 35 54 12 36 47 12 37 58 12 38 52 13 39 26 13 40 51 13 41 34 14 42 55 14 43 59 14 44 35 15 45 53 15 46 55 15 47 13 16 48 15 16 49 12 16 50 12 17 51 17 17 52 16 17 53 13 18 54 18 18 55 19 18 56 12 19 57 20 19 58 18 19 59 23 20 60 21 20 61 22 20 62 24 21 63 25 21 64 21 21 65 23 22 66 28 22 67 24 22 68 24 23 69 29 23 70 26 23 71 32 24 72 30 24 73 31 24 74 33 25 75 34 25 76 30 25 77 32 26 78 37 26 79 33 26 80 33 27 81 38 27 82 35 27 83 41 28 84 39 28 85 40 28 86 42 29 87 43 29 88 39 29 89 41 30 90 46 30 91 42 30 92 42 31 93 47 31 94 44 31 95 29 32 96 18 32 97 20 32 98 28 33 99 19 33 100 18 33 101 38 34 102 21 34 103 25 34 104 47 35 105 30 35 106 34 35 107 46 36 108 31 36 109 30 36 110 17 37 111 39 37 112 43 37 113 56 38 114 16 38 115 17 38 116 170 39 117 169 39 118 47 39 119 175 40 120 47 40 121 179 40 122 105 41 123 106 41 124 38 41 125 195 42 126 193 42 127 185 42 128 196 43 129 29 43 130 194 43 131 125 44 132 156 44 133 126 44 134 17 45 135 128 45 136 120 45 137 129 46 138 133 46 139 130 46 140 48 47 141 20 47 142 16 47 143 68 48 144 60 48 145 6 48 146 61 49 147 64 49 148 0 49 149 74 50 150 61 50 151 2 50 152 60 51 153 72 51 154 7 51 155 66 52 156 50 52 157 69 52 158 69 53 159 51 53 160 67 53 161 51 54 162 68 54 163 67 54 164 77 55 165 52 55 166 62 55 167 54 56 168 74 56 169 73 56 170 75 57 171 54 57 172 73 57 173 71 58 174 58 58 175 75 58 176 55 59 177 71 59 178 70 59 179 72 60 180 55 60 181 70 60 182 53 61 183 77 61 184 62 61 185 66 62 186 48 62 187 49 62 188 64 63 189 48 63 190 65 63 191 76 64 192 57 64 193 63 64 194 76 65 195 56 65 196 64 65 197 14 66 198 39 66 199 15 66 200 37 67 201 22 67 202 21 67 203 14 68 204 19 68 205 22 68 206 80 69 207 79 69 208 25 69 209 109 70 210 85 70 211 87 70 212 62 71 213 113 71 214 111 71 215 116 72 216 95 72 217 97 72 218 117 73 219 102 73 220 101 73 221 101 74 222 99 74 223 114 74 224 108 75 225 117 75 226 103 75 227 113 76 228 115 76 229 112 76 230 103 77 231 100 77 232 62 77 233 109 78 234 87 78 235 52 78 236 94 79 237 111 79 238 92 79 239 88 80 240 93 80 241 90 80 242 81 81 243 83 81 244 89 81 245 38 82 246 90 82 247 95 82 248 151 83 249 120 83 250 122 83 251 150 84 252 148 84 253 147 84 254 145 85 255 144 85 256 63 85 257 127 86 258 123 86 259 128 86 260 153 87 261 144 87 262 152 87 263 154 88 264 156 88 265 63 88 266 137 89 267 136 89 268 43 89 269 157 90 270 131 90 271 139 90 272 141 91 273 142 91 274 17 91 275 157 92 276 139 92 277 57 92 278 119 93 279 146 93 280 118 93 281 129 94 282 130 94 283 131 94 284 158 95 285 173 95 286 177 95 287 172 96 288 175 96 289 176 96 290 177 97 291 173 97 292 172 97 293 158 98 294 162 98 295 59 98 296 160 99 297 167 99 298 162 99 299 181 100 300 178 100 301 161 100 302 165 101 303 180 101 304 34 101 305 182 102 306 192 102 307 20 102 308 195 103 309 185 103 310 187 103 311 204 104 312 202 104 313 29 104 314 186 105 315 188 105 316 189 105 317 190 106 318 198 106 319 191 106 320 191 107 321 189 107 322 49 107 323 199 108 324 196 108 325 197 108 326 1 109 327 65 109 328 66 109 329 66 110 330 69 110 331 4 110 332 71 111 333 75 111 334 9 111 335 64 112 336 65 112 337 1 112 338 11 113 339 7 113 340 72 113 341 71 114 342 10 114 343 11 114 344 6 115 345 5 115 346 67 115 347 8 116 348 9 116 349 75 116 350 5 117 351 4 117 352 69 117 353 2 118 354 8 118 355 73 118 356 57 119 357 43 119 358 44 119 359 51 120 360 26 120 361 29 120 362 54 121 363 44 121 364 47 121 365 52 122 366 25 122 367 26 122 368 34 123 369 35 123 370 55 123 371 35 124 372 38 124 373 53 124 374 13 125 375 14 125 376 15 125 377 12 126 378 15 126 379 17 126 380 13 127 381 12 127 382 18 127 383 12 128 384 16 128 385 20 128 386 23 129 387 24 129 388 21 129 389 24 130 390 26 130 391 25 130 392 23 131 393 27 131 394 28 131 395 24 132 396 28 132 397 29 132 398 32 133 399 33 133 400 30 133 401 33 134 402 35 134 403 34 134 404 32 135 405 36 135 406 37 135 407 33 136 408 37 136 409 38 136 410 41 137 411 42 137 412 39 137 413 42 138 414 44 138 415 43 138 416 41 139 417 45 139 418 46 139 419 42 140 420 46 140 421 47 140 422 29 141 423 28 141 424 18 141 425 28 142 426 27 142 427 19 142 428 38 143 429 37 143 430 21 143 431 47 144 432 46 144 433 30 144 434 46 145 435 45 145 436 31 145 437 17 146 438 15 146 439 39 146 440 56 147 441 48 147 442 16 147 443 169 148 444 171 148 445 58 148 446 58 149 447 47 149 448 169 149 449 47 150 450 168 150 451 170 150 452 174 151 453 168 151 454 47 151 455 47 152 456 34 152 457 179 152 458 34 153 459 180 153 460 178 153 461 34 154 462 178 154 463 179 154 464 175 155 465 174 155 466 47 155 467 106 156 468 104 156 469 53 156 470 53 157 471 38 157 472 106 157 473 38 158 474 107 158 475 105 158 476 195 159 477 194 159 478 193 159 479 205 160 480 201 160 481 29 160 482 29 161 483 20 161 484 194 161 485 20 162 486 192 162 487 193 162 488 20 163 489 193 163 490 194 163 491 196 164 492 205 164 493 29 164 494 125 165 495 155 165 496 156 165 497 118 166 498 140 166 499 17 166 500 17 167 501 43 167 502 128 167 503 43 168 504 138 168 505 133 168 506 43 169 507 133 169 508 134 169 509 119 170 510 118 170 511 17 170 512 121 171 513 119 171 514 17 171 515 43 172 516 134 172 517 127 172 518 43 173 519 127 173 520 128 173 521 120 174 522 121 174 523 17 174 524 129 175 525 134 175 526 133 175 527 48 176 528 49 176 529 20 176 530 68 177 531 77 177 532 60 177 533 61 178 534 76 178 535 64 178 536 74 179 537 76 179 538 61 179 539 60 180 540 77 180 541 72 180 542 66 181 543 49 181 544 50 181 545 69 182 546 50 182 547 51 182 548 51 183 549 52 183 550 68 183 551 77 184 552 68 184 553 52 184 554 54 185 555 57 185 556 74 185 557 75 186 558 58 186 559 54 186 560 71 187 561 59 187 562 58 187 563 55 188 564 59 188 565 71 188 566 72 189 567 53 189 568 55 189 569 53 190 570 72 190 571 77 190 572 66 191 573 65 191 574 48 191 575 64 192 576 56 192 577 48 192 578 76 193 579 74 193 580 57 193 581 76 194 582 63 194 583 56 194 584 14 195 585 40 195 586 39 195 587 37 196 588 36 196 589 22 196 590 31 197 591 45 197 592 40 197 593 45 198 594 41 198 595 40 198 596 40 199 597 14 199 598 36 199 599 31 200 600 40 200 601 36 200 602 14 201 603 13 201 604 19 201 605 19 202 606 27 202 607 22 202 608 27 203 609 23 203 610 22 203 611 22 204 612 36 204 613 14 204 614 36 205 615 32 205 616 31 205 617 79 206 618 78 206 619 25 206 620 25 207 621 52 207 622 80 207 623 52 208 624 82 208 625 80 208 626 109 209 627 86 209 628 85 209 629 116 210 630 96 210 631 95 210 632 84 211 633 79 211 634 80 211 635 84 212 636 80 212 637 85 212 638 83 213 639 84 213 640 85 213 641 83 214 642 85 214 643 86 214 644 91 215 645 83 215 646 86 215 647 91 216 648 86 216 649 94 216 650 93 217 651 91 217 652 94 217 653 93 218 654 94 218 655 92 218 656 97 219 657 93 219 658 92 219 659 97 220 660 92 220 661 112 220 662 116 221 663 97 221 664 112 221 665 116 222 666 112 222 667 115 222 668 114 223 669 116 223 670 115 223 671 114 224 672 115 224 673 117 224 674 106 225 675 105 225 676 101 225 677 101 226 678 114 226 679 117 226 680 102 227 681 106 227 682 101 227 683 101 228 684 98 228 685 99 228 686 108 229 687 102 229 688 117 229 689 113 230 690 100 230 691 115 230 692 100 231 693 113 231 694 62 231 695 62 232 696 53 232 697 103 232 698 53 233 699 104 233 700 108 233 701 53 234 702 108 234 703 103 234 704 87 235 705 82 235 706 52 235 707 52 236 708 62 236 709 109 236 710 62 237 711 111 237 712 110 237 713 62 238 714 110 238 715 109 238 716 94 239 717 110 239 718 111 239 719 88 240 720 91 240 721 93 240 722 81 241 723 84 241 724 83 241 725 98 242 726 107 242 727 38 242 728 38 243 729 25 243 730 90 243 731 25 244 732 78 244 733 81 244 734 25 245 735 81 245 736 89 245 737 99 246 738 98 246 739 38 246 740 96 247 741 99 247 742 38 247 743 25 248 744 89 248 745 88 248 746 25 249 747 88 249 748 90 249 749 95 250 750 96 250 751 38 250 752 151 251 753 121 251 754 120 251 755 150 252 756 145 252 757 148 252 758 144 253 759 154 253 760 63 253 761 63 254 762 56 254 763 145 254 764 56 255 765 143 255 766 148 255 767 56 256 768 148 256 769 145 256 770 127 257 771 124 257 772 123 257 773 153 258 774 154 258 775 144 258 776 136 259 777 138 259 778 43 259 779 43 260 780 57 260 781 137 260 782 57 261 783 135 261 784 137 261 785 157 262 786 132 262 787 131 262 788 142 263 789 143 263 790 56 263 791 56 264 792 17 264 793 142 264 794 17 265 795 140 265 796 141 265 797 139 266 798 135 266 799 57 266 800 57 267 801 63 267 802 157 267 803 63 268 804 156 268 805 155 268 806 63 269 807 155 269 808 157 269 809 119 270 810 149 270 811 146 270 812 147 271 813 142 271 814 141 271 815 147 272 816 141 272 817 146 272 818 150 273 819 147 273 820 146 273 821 150 274 822 146 274 823 149 274 824 152 275 825 150 275 826 149 275 827 152 276 828 149 276 829 151 276 830 153 277 831 152 277 832 151 277 833 153 278 834 151 278 835 122 278 836 126 279 837 153 279 838 122 279 839 126 280 840 122 280 841 123 280 842 125 281 843 126 281 844 123 281 845 125 282 846 123 282 847 124 282 848 132 283 849 125 283 850 124 283 851 132 284 852 124 284 853 129 284 854 136 285 855 137 285 856 131 285 857 131 286 858 132 286 859 129 286 860 130 287 861 136 287 862 131 287 863 158 288 864 159 288 865 173 288 866 172 289 867 174 289 868 175 289 869 161 290 870 165 290 871 166 290 872 161 291 873 166 291 874 163 291 875 181 292 876 161 292 877 163 292 878 181 293 879 163 293 880 160 293 881 176 294 882 181 294 883 160 294 884 176 295 885 160 295 886 177 295 887 169 296 888 170 296 889 172 296 890 172 297 891 176 297 892 177 297 893 173 298 894 169 298 895 172 298 896 167 299 897 164 299 898 59 299 899 59 300 900 58 300 901 158 300 902 58 301 903 171 301 904 159 301 905 58 302 906 159 302 907 158 302 908 162 303 909 167 303 910 59 303 911 160 304 912 163 304 913 167 304 914 181 305 915 179 305 916 178 305 917 34 306 918 59 306 919 166 306 920 59 307 921 164 307 922 166 307 923 34 308 924 166 308 925 165 308 926 20 309 927 49 309 928 183 309 929 49 310 930 184 310 931 183 310 932 20 311 933 183 311 934 182 311 935 200 312 936 202 312 937 204 312 938 200 313 939 204 313 940 199 313 941 198 314 942 200 314 943 199 314 944 198 315 945 199 315 946 197 315 947 186 316 948 198 316 949 197 316 950 186 317 951 197 317 952 195 317 953 182 318 954 183 318 955 187 318 956 187 319 957 186 319 958 195 319 959 185 320 960 182 320 961 187 320 962 202 321 963 203 321 964 50 321 965 50 322 966 29 322 967 202 322 968 29 323 969 201 323 970 204 323 971 186 324 972 187 324 973 188 324 974 190 325 975 200 325 976 198 325 977 188 326 978 184 326 979 49 326 980 49 327 981 50 327 982 191 327 983 50 328 984 203 328 985 190 328 986 50 329 987 190 329 988 191 329 989 189 330 990 188 330 991 49 330 992 199 331 993 205 331 994 196 331 995</p>
        </triangles>
      </mesh>
    </geometry>
  </library_geometries>
  <library_visual_scenes>
    <visual_scene id="Scene" name="Scene">
      <node id="laundry-basket_empty-col" name="laundry-basket_empty-col" type="NODE">
        <matrix sid="transform">1 0 0 0 0 1 0 0 0 0 1 0 0 0 0 1</matrix>
        <instance_geometry url="#laundry-basket_empty-mesh" name="laundry-basket_empty-col">
          <bind_material>
            <technique_common>
              <instance_material symbol="laundry-basket_empty_128-material" target="#laundry-basket_empty_128-material">
                <bind_vertex_input semantic="UVMap" input_semantic="TEXCOORD" input_set="0"/>
              </instance_material>
            </technique_common>
          </bind_material>
        </instance_geometry>
      </node>
    </visual_scene>
  </library_visual_scenes>
  <scene>
    <instance_visual_scene url="#Scene"/>
  </scene>
</COLLADA>