<?xml version="1.0" encoding="utf-8"?>
<COLLADA xmlns="http://www.collada.org/2005/11/COLLADASchema" version="1.4.1" xmlns:xsi="http://www.w3.org/2001/XMLSchema-instance">
  <asset>
    <contributor>
      <author>Blender User</author>
      <authoring_tool>Blender 4.4.3 commit date:2025-04-29, commit time:14:09, hash:802179c51ccc</authoring_tool>
    </contributor>
    <created>2025-08-04T15:57:18</created>
    <modified>2025-08-04T15:57:18</modified>
    <unit name="meter" meter="1"/>
    <up_axis>Z_UP</up_axis>
  </asset>
  <library_effects>
    <effect id="laundry-basket_filled_128-effect">
      <profile_COMMON>
        <newparam sid="laundry-basket_filled_128_png_001-surface">
          <surface type="2D">
            <init_from>laundry-basket_filled_128_png_001</init_from>
          </surface>
        </newparam>
        <newparam sid="laundry-basket_filled_128_png_001-sampler">
          <sampler2D>
            <source>laundry-basket_filled_128_png_001-surface</source>
          </sampler2D>
        </newparam>
        <technique sid="common">
          <lambert>
            <emission>
              <color sid="emission">0 0 0 1</color>
            </emission>
            <diffuse>
              <texture texture="laundry-basket_filled_128_png_001-sampler" texcoord="UVMap"/>
            </diffuse>
            <index_of_refraction>
              <float sid="ior">1.5</float>
            </index_of_refraction>
          </lambert>
        </technique>
      </profile_COMMON>
    </effect>
  </library_effects>
  <library_images>
    <image id="laundry-basket_filled_128_png_001" name="laundry-basket_filled_128_png_001">
      <init_from>laundry-basket_filled_128.png.001.png</init_from>
    </image>
  </library_images>
  <library_materials>
    <material id="laundry-basket_filled_128-material" name="laundry-basket_filled_128">
      <instance_effect url="#laundry-basket_filled_128-effect"/>
    </material>
  </library_materials>
  <library_geometries>
    <geometry id="laundry-basket_filled-mesh" name="laundry-basket_filled">
      <mesh>
        <source id="laundry-basket_filled-mesh-positions">
          <float_array id="laundry-basket_filled-mesh-positions-array" count="300">-0.1932735 -0.195 0.2695986 -0.265205 -0.175305 0.2695986 0.1932735 -0.195 0.2695986 -0.295 -0.1277571 0.2695986 -0.295 0.127757 0.2695986 -0.265205 0.175305 0.2695986 -0.1932735 0.1949999 0.2695986 0.1932735 0.1949999 0.2695986 0.265205 -0.175305 0.2695986 0.295 -0.1277571 0.2695986 0.295 0.127757 0.2695986 0.265205 0.175305 0.2695986 -0.2192496 -0.1497409 0.01266831 -0.2009745 -0.1233927 0 -0.159873 -0.1354512 0 -0.1637099 -0.1660353 0.01266831 -0.2268193 -0.1606546 0.0432524 -0.1652992 -0.1787037 0.0432524 -0.2404791 -0.113439 0.01266831 -0.2119363 -0.1046482 0 -0.2523018 -0.1170803 0.0432524 -0.1637099 0.1660352 0.01266831 -0.159873 0.1354511 0 -0.2009745 0.1233927 0 -0.2192496 0.1497408 0.01266831 -0.1652992 0.1787036 0.0432524 -0.2268193 0.1606546 0.0432524 -0.2119363 0.1046482 0 -0.240479 0.113439 0.01266831 -0.2523018 0.1170803 0.0432524 0.2404791 0.113439 0.01266831 0.2119363 0.1046482 0 0.2009745 0.1233927 0 0.2192496 0.1497408 0.01266831 0.2523018 0.1170803 0.0432524 0.2268193 0.1606546 0.0432524 0.159873 0.1354511 0 0.1637099 0.1660352 0.01266831 0.1652992 0.1787036 0.0432524 0.1637099 -0.1660353 0.01266831 0.159873 -0.1354512 0 0.2009745 -0.1233927 0 0.2192496 -0.1497409 0.01266831 0.1652992 -0.1787037 0.0432524 0.2268193 -0.1606546 0.0432524 0.2119363 -0.1046482 0 0.240479 -0.113439 0.01266831 0.2523018 -0.1170803 0.0432524 -0.2374104 -0.1569323 0.305 -0.2640827 -0.1143676 0.305 -0.2640827 0.1143676 0.305 -0.2374104 0.1569322 0.305 -0.1730176 0.1745631 0.305 0.1730176 0.1745631 0.305 0.2374104 -0.1569323 0.305 0.2374104 0.1569322 0.305 -0.1730176 -0.1745632 0.305 0.1730176 -0.1745632 0.305 0.2640827 -0.1143676 0.305 0.2640827 0.1143676 0.305 0 0.1930914 0.2809702 0 -0.1930915 0.2809702 0 0.1745631 0.305 0 -0.1745632 0.305 -0.1932735 -0.195 0.305 -0.265205 -0.175305 0.305 -0.2887347 -0.1277571 0.305 -0.265205 0.175305 0.305 -0.1932735 0.1949999 0.305 -0.2887347 0.127757 0.305 0.265205 0.175305 0.305 0.2887347 0.127757 0.305 0.1932735 0.1949999 0.305 0.265205 -0.175305 0.305 0.1932735 -0.195 0.305 0.2887347 -0.1277571 0.305 0 -0.1842922 0.305 0 0.1842921 0.305 0.1722809 -0.1749584 0.280014 0.2363994 -0.1572877 0.280014 0.2629582 -0.1146266 0.280014 0.2629582 0.1146265 0.280014 0.2363994 0.1572876 0.280014 0.1722809 0.1749584 0.280014 -0.2363994 0.1572876 0.280014 -0.2629582 0.1146265 0.280014 -0.1722809 0.1749584 0.280014 -0.1722809 -0.1749584 0.280014 -0.2363994 -0.1572877 0.280014 -0.2629582 -0.1146266 0.280014 0.01986205 -0.01171374 0.3353995 0.1879152 0.1250288 0.3029411 0.2015617 0.04417419 0.3297972 0.02476668 0.1088589 0.353568 0.1310693 -0.01899945 0.3355994 -0.1722809 -0.1146266 0.3303971 -0.1738542 0.04871672 0.3731517 0 -0.1749584 0.280014 0.01972824 -0.1163271 0.3497856 0.1667782 -0.1258331 0.3290878</float_array>
          <technique_common>
            <accessor source="#laundry-basket_filled-mesh-positions-array" count="100" stride="3">
              <param name="X" type="float"/>
              <param name="Y" type="float"/>
              <param name="Z" type="float"/>
            </accessor>
          </technique_common>
        </source>
        <source id="laundry-basket_filled-mesh-normals">
          <float_array id="laundry-basket_filled-mesh-normals-array" count="585">-0.8380057 -0.5251201 0.1483083 -0.9846979 0 0.1742695 0.9846979 0 0.1742695 -0.2640822 -0.9645001 0 0.2640822 0.9645001 0 0.896261 0.443527 0 -0.2640822 0.9645001 0 0.896261 -0.443527 0 -0.896261 0.443527 0 0.2640822 -0.9645001 0 0.265689 -0.9640543 0.002959132 -0.8484767 0.5282207 -0.03271448 0.8484767 -0.5282207 -0.03271448 -0.265689 0.9640543 0.002959132 0.8484767 0.5282207 -0.03271448 0.265689 0.9640543 0.002959132 -0.1082058 -0.3688195 -0.9231813 -0.2602846 -0.8871787 -0.3810068 -0.3447939 -0.2016369 -0.9167659 -0.8031914 -0.4697109 -0.3664084 -0.1082059 0.3688195 -0.9231812 -0.2602843 0.8871784 -0.3810072 -0.3447941 0.2016373 -0.9167657 -0.8031915 0.4697105 -0.3664089 0.3447939 0.2016369 -0.9167659 0.8031914 0.4697109 -0.3664084 0.1082058 0.3688195 -0.9231813 0.2602846 0.8871787 -0.3810068 0.1082059 -0.3688195 -0.9231812 0.2602843 -0.8871784 -0.3810072 0.3447941 -0.2016373 -0.9167657 0.8031915 -0.4697105 -0.3664089 -0.932735 0 -0.3605628 -0.4056756 0 -0.9140172 0 0.9238795 -0.3826836 0.932735 0 -0.3605628 0.4056756 0 -0.9140172 0 -0.9238795 -0.3826836 0.2656829 0.964032 -0.007414996 0.8486256 0.5283134 0.02682441 0.009874165 0.9999512 0 0.009874165 -0.9999512 0 -0.009874165 -0.9999512 0 -0.009874165 0.9999512 0 0 0 1 0 0 1 0 0 1 0 0 1 0 0 1 0 0 1 0 0 1 0 0 1 0 0 1 0 0 1 0 0 1 0 0 1 0 0 1 0 0 1 0 -0.3826836 -0.9238795 0 0.3826836 -0.9238795 0 0 -1 0 -0.999875 0.01581662 0 0.999875 0.01581662 0.9989886 0 -0.04496324 -0.9989886 0 -0.04496324 -0.9989886 0 0.04496347 -0.264081 -0.9644957 -0.003030955 -0.846926 -0.5307095 0.03261923 -0.8486256 0.5283134 0.02682435 -0.2656829 0.9640319 -0.007414937 0.9989886 0 0.04496347 -0.8628933 -0.5046245 -0.02773904 -0.2815123 -0.959533 0.006877183 0.2656829 -0.9640319 -0.007414937 0.8486256 -0.5283134 0.02682435 0 -0.9998748 -0.01581645 0 0.999875 -0.01581645 -0.5471869 0.3406522 0.7645539 -0.16182 0.5871651 0.7931276 -0.1739588 -0.6312108 0.7558514 -0.01150882 -0.1485353 0.9888401 0.1228165 0.4456403 0.8867474 0.629819 0 0.776742 0.461671 -0.2874141 0.8391979 0.3111112 0.1936829 0.9304282 0.2472628 0.342762 0.9062976 0.220462 0.4631975 0.8583965 0.2553132 -0.1979718 0.9463732 0.109243 -0.250716 0.9618771 -0.07267081 -0.7533397 0.6536041 -0.1002226 0.5915039 0.8000491 -0.09834694 0.1356983 0.9858569 0 -0.7655794 0.6433415 0.1466373 0.1345787 0.9799929 0.1883544 -0.6834451 0.7052839 -0.005908608 -0.0628038 0.9980084 -0.4729727 -0.2273641 0.8512358 -0.4649055 -0.2894277 0.8367165 -0.7225812 0 0.6912861 0.3176914 0.3467501 0.8825172 0.1183965 -0.04099166 0.9921199 0 0.7437918 0.6684114 0 -0.6409838 0.7675544 0.1427876 -0.153153 0.9778321 0.05443948 -0.7026284 0.7094714 0.4437623 0.09400737 0.8912001 -0.896261 -0.443527 0 -0.9846979 0 0.1742695 0.9846979 0 0.1742695 -0.2640822 -0.9645001 0 0.2640822 0.9645001 0 0.8380057 0.5251201 0.1483083 -0.2640822 0.9645001 0 0.8380057 -0.5251201 0.1483083 -0.8380057 0.5251201 0.1483083 0.2640822 -0.9645001 0 0.2815123 -0.959533 0.006877183 -0.8628933 0.5046245 -0.02773904 0.8628933 -0.5046245 -0.02773904 -0.2815123 0.959533 0.006877183 0.8628933 0.5046245 -0.02773904 0.2815123 0.959533 0.006877183 -0.1082059 -0.3688195 -0.9231813 -0.2602843 -0.8871784 -0.3810072 -0.3447939 -0.2016374 -0.9167658 -0.8031915 -0.4697105 -0.366409 -0.1082058 0.3688194 -0.9231813 -0.2602846 0.8871785 -0.3810068 -0.3447941 0.2016372 -0.9167658 -0.8031914 0.4697104 -0.3664092 0.3447939 0.2016374 -0.9167658 0.8031915 0.4697105 -0.366409 0.1082059 0.3688195 -0.9231813 0.2602843 0.8871784 -0.3810072 0.1082058 -0.3688194 -0.9231813 0.2602846 -0.8871785 -0.3810068 0.3447941 -0.2016372 -0.9167658 0.8031914 -0.4697104 -0.3664092 -0.9327346 1.22522e-7 -0.3605636 -0.405676 0 -0.9140169 0 0.9238795 -0.3826836 0.9327346 -1.22522e-7 -0.3605636 0.405676 0 -0.9140169 0 -0.9238795 -0.3826836 0.2640811 0.9644957 -0.003030955 0.8469259 0.5307095 0.03261923 0.05195367 0.937755 0.3433895 0.05195367 -0.937755 0.3433895 -0.05195367 -0.937755 0.3433895 -0.05195367 0.937755 0.3433895 0 0 1 0 0 1 0 0 1 0 0 1 0 0 1 0 0 1 0 0 1 0 0 1 0 0 1 0 0 1 0 0 1 0 0 1 0 0 1 0 0 1 0 -0.3826836 -0.9238795 0 0.3826836 -0.9238795 0 0 -1 0 0 -1 0 0 -1 0 0 -1 0 0 -1 0 0 -1 0 0 -1 0 0 -1 0 0 -1 0 -0.9998749 0.01581662 0 -0.9998749 0.01581662 0 0.9998749 0.01581662 0.9989887 0 -0.04496324 -0.9989887 0 -0.04496324 -0.9989886 0 0.04496347 -0.2656829 -0.9640319 -0.007414996 -0.8486256 -0.5283134 0.02682441 -0.8469259 0.5307095 0.03261923 -0.2640811 0.9644957 -0.003030955 0.9989886 0 0.04496347 -0.8484767 -0.5282207 -0.03271448 -0.265689 -0.9640543 0.002959132 0.2640811 -0.9644957 -0.003030955 0.8469259 -0.5307095 0.03261923 0 -0.9998748 -0.01581645 0 -0.999875 -0.01581645 0 0.9998748 -0.01581645 0 0.999875 -0.01581645 0 0.9998748 -0.01581645</float_array>
          <technique_common>
            <accessor source="#laundry-basket_filled-mesh-normals-array" count="195" stride="3">
              <param name="X" type="float"/>
              <param name="Y" type="float"/>
              <param name="Z" type="float"/>
            </accessor>
          </technique_common>
        </source>
        <source id="laundry-basket_filled-mesh-map-0">
          <float_array id="laundry-basket_filled-mesh-map-0-array" count="1170">0.6892014 0.01583367 0.6312628 0.0477311 0.6312628 0.01044923 0.6312628 0.0477311 0.3662935 0.01044923 0.6312628 0.01044923 0.6312628 0.0477311 0.3662935 0.01044923 0.6312628 0.01044923 0.7631362 0.05899232 0.6892014 0.01583367 0.7662598 0.02241396 0.6892016 0.01583385 0.7631362 0.05899244 0.686078 0.05241197 0.6312628 0.0477311 0.6892016 0.01583385 0.686078 0.05241197 0.2312966 0.02241408 0.3114784 0.05241197 0.2344202 0.05899232 0.308355 0.01583385 0.3662935 0.0477311 0.3114786 0.05241197 0.3083548 0.01583367 0.3662936 0.0477311 0.3114784 0.05241197 0.2312966 0.02241408 0.3114786 0.05241197 0.2344202 0.05899232 0.6643771 0.2341973 0.9078611 0.1677473 0.6621252 0.1652641 0.6621252 0.1652641 0.9066796 0.1154143 0.6609054 0.113166 0.6621252 0.1652641 0.9066796 0.1154143 0.6609054 0.113166 0.6643771 0.2341973 0.9078611 0.1677474 0.6621252 0.1652641 0.9066798 0.1154143 0.6621252 0.1652641 0.6609054 0.113166 0.9078611 0.1677474 0.6643771 0.2341973 0.6621252 0.1652641 0.9767922 0.1803372 0.9442527 0.2309588 0.9422881 0.1709685 0.9422881 0.1709685 0.9100372 0.2341973 0.907861 0.1677474 0.9743728 0.1464149 0.9408233 0.1175739 0.9738647 0.1239026 0.9418076 0.1611727 0.9066796 0.1154143 0.9408233 0.1175739 0.9767922 0.1803371 0.9442527 0.2309588 0.9782461 0.2247322 0.9422881 0.1709685 0.9100372 0.2341973 0.9442527 0.2309588 0.9743731 0.1464148 0.9408234 0.1175739 0.9418078 0.1611727 0.9418078 0.1611727 0.9066796 0.1154143 0.9078611 0.1677474 0.9743731 0.1464148 0.9408234 0.1175739 0.9738649 0.1239026 0.9418079 0.1611727 0.9066798 0.1154143 0.9408234 0.1175739 0.9767922 0.1803371 0.9442527 0.2309587 0.9422882 0.1709685 0.9422882 0.1709685 0.9100374 0.2341973 0.9078611 0.1677474 0.9767922 0.1803371 0.9442527 0.2309587 0.9782461 0.2247321 0.9422881 0.1709685 0.9100372 0.2341973 0.9442527 0.2309587 0.9743728 0.1464148 0.9408234 0.1175739 0.9418076 0.1611726 0.9418076 0.1611726 0.9066796 0.1154143 0.9078611 0.1677473 0.9101484 0.2316529 0.9441515 0.4707024 0.9101484 0.4744784 0.9441515 0.2354288 0.9765347 0.4615862 0.9441515 0.4707024 0.9099304 0.4791738 0.9442592 0.8203578 0.9099304 0.8220059 0.9101483 0.2316527 0.9441513 0.4707024 0.9101483 0.4744784 0.9441514 0.2354289 0.9765347 0.4615862 0.9441513 0.4707024 0.9099305 0.4791738 0.9442592 0.8203578 0.9099302 0.8220059 0.5284456 0.9490635 0.4599465 0.9739675 0.4594829 0.9480468 0.5805572 0.9493454 0.5291724 0.9749875 0.5284456 0.9490635 0.2344202 0.05899232 0.03259134 0.05121761 0.2312966 0.02241408 0.9649649 0.05121779 0.7631362 0.05899232 0.7662598 0.02241396 0.2344202 0.05899232 0.03259158 0.05121761 0.2312966 0.02241408 0.9649648 0.05121779 0.7631362 0.05899244 0.7662598 0.02241408 0.6333977 0.4226263 0.6078334 0.1715419 0.6333975 0.157657 0.6333975 0.157657 0.580174 0.1274021 0.6089972 0.1083495 0.580174 0.1274021 0.534404 0.08792591 0.6089972 0.1083495 0.3339784 0.09902995 0.5133986 0.1091189 0.3339784 0.1091189 0.08778285 0.4528812 0.133553 0.4923575 0.05895978 0.4719338 0.03455942 0.4226263 0.08778285 0.4528812 0.05895978 0.4719338 0.03455942 0.1576572 0.06012362 0.4087413 0.03455942 0.4226263 0.08778285 0.1274023 0.03455942 0.1576572 0.05895978 0.1083497 0.133553 0.08792591 0.08778285 0.1274023 0.05895978 0.1083497 0.1545584 0.1091189 0.3339784 0.09902995 0.3339784 0.1091189 0.6333977 0.4226263 0.580174 0.4528812 0.6078334 0.4087413 0.534404 0.4923575 0.580174 0.4528812 0.6089972 0.4719338 0.3339784 0.4812536 0.1545584 0.4711645 0.3339784 0.4711645 0.3339784 0.4812536 0.5133985 0.4711645 0.534404 0.4923575 0.9785884 0.4848009 0.9442592 0.8203578 0.9442594 0.480822 0.9442592 0.480822 0.9785884 0.8163788 0.9442592 0.8203578 0.1664586 0.4282827 0.1124687 0.3963398 0.1664585 0.1473557 0.6643769 0.6505898 0.9099305 0.4791738 0.9099302 0.8220059 0.6643769 0.8292458 0.9099304 0.4791738 0.9099304 0.8220059 0.9101483 0.2316527 0.664377 0.4719338 0.664377 0.2341974 0.9101484 0.2316529 0.664377 0.4719338 0.664377 0.2341973 0.5812615 0.975274 0.8182601 0.9453513 0.8184273 0.9712889 0.4599465 0.9739675 0.5284457 0.9490635 0.5291724 0.9749875 0.5291724 0.9749875 0.5805572 0.9493454 0.5812615 0.975274 0.8704774 0.9692527 0.8182601 0.9453513 0.8703327 0.9433188 0.1011306 0.9698053 0.03322768 0.9433189 0.1021952 0.9439023 0.5812615 0.975274 0.8182601 0.9453513 0.8184271 0.9712889 0.6621251 0.1652641 0.9066796 0.1154143 0.907861 0.1677474 0.664377 0.2341973 0.907861 0.1677474 0.9100372 0.2341973 0.1011307 0.9698054 0.0332278 0.943319 0.1021953 0.9439023 0.8704774 0.9692527 0.8182601 0.9453513 0.8703325 0.9433188 0.4594831 0.9480468 0.4599465 0.9739675 0.2805385 0.9718865 0.2805385 0.9718863 0.1021952 0.9439023 0.2808392 0.9459744 0.03322768 0.8437095 0.1572957 0.7624433 0.06327557 0.8933473 0.1349983 0.9230275 0.06327557 0.8933473 0.1572957 0.7624433 0.1484259 0.5989332 0.06496882 0.5428805 0.1355816 0.5150075 0.4579612 0.700395 0.3426061 0.824943 0.3435646 0.7027652 0.5745005 0.9015765 0.5019148 0.9230275 0.517137 0.8613201 0.6058708 0.8534444 0.5267766 0.7704436 0.6149137 0.6016433 0.6149137 0.6016433 0.4961552 0.5918526 0.5863569 0.550592 0.6058708 0.8534444 0.5745005 0.9015765 0.517137 0.8613201 0.5267766 0.7704436 0.517137 0.8613201 0.3426061 0.824943 0.3426061 0.824943 0.517137 0.8613201 0.5019148 0.9230275 0.5267766 0.7704436 0.4579612 0.700395 0.6149137 0.6016433 0.3435646 0.7027652 0.1572957 0.7624433 0.1484259 0.5989332 0.3254504 0.4986063 0.3451189 0.5953744 0.1484259 0.5989332 0.3426061 0.824943 0.1349983 0.9230275 0.1572957 0.7624433 0.3435646 0.7027652 0.1484259 0.5989332 0.3451189 0.5953744 0.5156851 0.5183541 0.3451189 0.5953744 0.3254504 0.4986063 0.4961552 0.5918526 0.3435646 0.7027652 0.3451189 0.5953744 0.5156851 0.5183541 0.5863569 0.550592 0.4961552 0.5918526 0.4579612 0.700395 0.3435646 0.7027652 0.4961552 0.5918526 0.1572957 0.7624433 0.03455942 0.5915977 0.1484259 0.5989332 0.1484259 0.5989332 0.03455942 0.5915977 0.06496882 0.5428805 0.03455942 0.5915977 0.1572957 0.7624433 0.03322768 0.8437095 0.6058708 0.8534444 0.517137 0.8613201 0.5267766 0.7704436 0.5267766 0.7704436 0.3426061 0.824943 0.4579612 0.700395 0.3426061 0.824943 0.5019148 0.9230275 0.1349983 0.9230275 0.3254504 0.4986063 0.1484259 0.5989332 0.1355816 0.5150075 0.3426061 0.824943 0.1572957 0.7624433 0.3435646 0.7027652 0.5156851 0.5183541 0.4961552 0.5918526 0.3451189 0.5953744 0.4579612 0.700395 0.4961552 0.5918526 0.6149137 0.6016433 0.6892014 0.01583367 0.686078 0.05241197 0.6312628 0.0477311 0.6312628 0.0477311 0.3662936 0.0477311 0.3662935 0.01044923 0.6312628 0.0477311 0.3662935 0.0477311 0.3662935 0.01044923 0.7631362 0.05899232 0.686078 0.05241197 0.6892014 0.01583367 0.6892016 0.01583385 0.7662598 0.02241408 0.7631362 0.05899244 0.6312628 0.0477311 0.6312628 0.01044923 0.6892016 0.01583385 0.2312966 0.02241408 0.3083548 0.01583367 0.3114784 0.05241197 0.308355 0.01583385 0.3662935 0.01044923 0.3662935 0.0477311 0.3083548 0.01583367 0.3662935 0.01044923 0.3662936 0.0477311 0.2312966 0.02241408 0.308355 0.01583385 0.3114786 0.05241197 0.6643771 0.2341973 0.9100372 0.2341973 0.9078611 0.1677473 0.6621252 0.1652641 0.9078611 0.1677474 0.9066796 0.1154143 0.6621252 0.1652641 0.9078611 0.1677473 0.9066796 0.1154143 0.6643771 0.2341973 0.9100372 0.2341973 0.9078611 0.1677474 0.9066798 0.1154143 0.9078611 0.1677474 0.6621252 0.1652641 0.9078611 0.1677474 0.9100374 0.2341973 0.6643771 0.2341973 0.9767922 0.1803372 0.9782459 0.2247322 0.9442527 0.2309588 0.9422881 0.1709685 0.9442527 0.2309588 0.9100372 0.2341973 0.9743728 0.1464149 0.9418076 0.1611727 0.9408233 0.1175739 0.9418076 0.1611727 0.907861 0.1677474 0.9066796 0.1154143 0.9767922 0.1803371 0.9422881 0.1709685 0.9442527 0.2309588 0.9422881 0.1709685 0.9078611 0.1677474 0.9100372 0.2341973 0.9743731 0.1464148 0.9738647 0.1239026 0.9408234 0.1175739 0.9418078 0.1611727 0.9408234 0.1175739 0.9066796 0.1154143 0.9743731 0.1464148 0.9418079 0.1611727 0.9408234 0.1175739 0.9418079 0.1611727 0.9078611 0.1677474 0.9066798 0.1154143 0.9767922 0.1803371 0.9782461 0.2247322 0.9442527 0.2309587 0.9422882 0.1709685 0.9442527 0.2309587 0.9100374 0.2341973 0.9767922 0.1803371 0.9422881 0.1709685 0.9442527 0.2309587 0.9422881 0.1709685 0.9078611 0.1677473 0.9100372 0.2341973 0.9743728 0.1464148 0.9738647 0.1239025 0.9408234 0.1175739 0.9418076 0.1611726 0.9408234 0.1175739 0.9066796 0.1154143 0.9101484 0.2316529 0.9441515 0.2354288 0.9441515 0.4707024 0.9441515 0.2354288 0.9765347 0.2445449 0.9765347 0.4615862 0.9099304 0.4791738 0.9442592 0.480822 0.9442592 0.8203578 0.9101483 0.2316527 0.9441514 0.2354289 0.9441513 0.4707024 0.9441514 0.2354289 0.9765346 0.2445449 0.9765347 0.4615862 0.9099305 0.4791738 0.9442594 0.480822 0.9442592 0.8203578 0.5284456 0.9490635 0.5291724 0.9749875 0.4599465 0.9739675 0.5805572 0.9493454 0.5812615 0.975274 0.5291724 0.9749875 0.2344202 0.05899232 0.03455919 0.0776816 0.03259134 0.05121761 0.9649649 0.05121779 0.9629972 0.07768172 0.7631362 0.05899232 0.2344202 0.05899232 0.03455942 0.07768172 0.03259158 0.05121761 0.9649648 0.05121779 0.962997 0.07768172 0.7631362 0.05899244 0.6333977 0.4226263 0.6078334 0.4087413 0.6078334 0.1715419 0.6333975 0.157657 0.6078334 0.1715419 0.580174 0.1274021 0.580174 0.1274021 0.5133986 0.1091189 0.534404 0.08792591 0.3339784 0.09902995 0.534404 0.08792591 0.5133986 0.1091189 0.08778285 0.4528812 0.1545584 0.4711645 0.133553 0.4923575 0.03455942 0.4226263 0.06012362 0.4087413 0.08778285 0.4528812 0.03455942 0.1576572 0.06012362 0.1715421 0.06012362 0.4087413 0.08778285 0.1274023 0.06012362 0.1715421 0.03455942 0.1576572 0.133553 0.08792591 0.1545584 0.1091189 0.08778285 0.1274023 0.1545584 0.1091189 0.133553 0.08792591 0.3339784 0.09902995 0.6333977 0.4226263 0.6089972 0.4719338 0.580174 0.4528812 0.534404 0.4923575 0.5133985 0.4711645 0.580174 0.4528812 0.3339784 0.4812536 0.133553 0.4923575 0.1545584 0.4711645 0.3339784 0.4812536 0.3339784 0.4711645 0.5133985 0.4711645 0.9785884 0.4848009 0.9785884 0.8163788 0.9442592 0.8203578 0.9442592 0.480822 0.9785884 0.4848009 0.9785884 0.8163788 0.5520262 0.1792985 0.5520263 0.3963397 0.4980365 0.4282827 0.5520263 0.3963397 0.5406588 0.415778 0.4980365 0.4282827 0.4980365 0.4282827 0.1664586 0.4282827 0.4980363 0.1473557 0.5520262 0.1792985 0.4980365 0.4282827 0.4980363 0.1473557 0.1664586 0.4282827 0.1238361 0.415778 0.1124687 0.3963398 0.1124687 0.3963398 0.1124687 0.1792987 0.1664585 0.1473557 0.1124687 0.1792987 0.1238361 0.1598606 0.1664585 0.1473557 0.1664585 0.1473557 0.4980363 0.1473557 0.1664586 0.4282827 0.4980363 0.1473557 0.5406588 0.1598604 0.5520262 0.1792985 0.9099302 0.8220059 0.6643769 0.8292458 0.6643769 0.6505898 0.6643769 0.6505898 0.664377 0.4719338 0.9099305 0.4791738 0.6643769 0.8292458 0.6643769 0.4719338 0.9099304 0.4791738 0.9101483 0.2316527 0.9101483 0.4744784 0.664377 0.4719338 0.9101484 0.2316529 0.9101484 0.4744784 0.664377 0.4719338 0.5812615 0.975274 0.5805572 0.9493454 0.8182601 0.9453513 0.4599465 0.9739675 0.4594831 0.9480468 0.5284457 0.9490635 0.5291724 0.9749875 0.5284457 0.9490635 0.5805572 0.9493454 0.8704774 0.9692527 0.8184273 0.9712889 0.8182601 0.9453513 0.1011306 0.9698053 0.0318998 0.9692192 0.03322768 0.9433189 0.5812615 0.975274 0.5805572 0.9493454 0.8182601 0.9453513 0.6621251 0.1652641 0.6609054 0.113166 0.9066796 0.1154143 0.664377 0.2341973 0.6621251 0.1652641 0.907861 0.1677474 0.1011307 0.9698054 0.03189992 0.9692192 0.0332278 0.943319 0.8704774 0.9692527 0.8184271 0.9712889 0.8182601 0.9453513 0.2805385 0.9718865 0.1011307 0.9698054 0.1021953 0.9439023 0.1021953 0.9439023 0.4594831 0.9480468 0.2805385 0.9718865 0.2805385 0.9718863 0.1011306 0.9698053 0.1021952 0.9439023 0.2808392 0.9459744 0.4594829 0.9480468 0.2805385 0.9718863 0.4594829 0.9480468 0.4599465 0.9739675 0.2805385 0.9718863</float_array>
          <technique_common>
            <accessor source="#laundry-basket_filled-mesh-map-0-array" count="585" stride="2">
              <param name="S" type="float"/>
              <param name="T" type="float"/>
            </accessor>
          </technique_common>
        </source>
        <vertices id="laundry-basket_filled-mesh-vertices">
          <input semantic="POSITION" source="#laundry-basket_filled-mesh-positions"/>
        </vertices>
        <triangles material="laundry-basket_filled_128-material" count="195">
          <input semantic="VERTEX" source="#laundry-basket_filled-mesh-vertices" offset="0"/>
          <input semantic="NORMAL" source="#laundry-basket_filled-mesh-normals" offset="1"/>
          <input semantic="TEXCOORD" source="#laundry-basket_filled-mesh-map-0" offset="2" set="0"/>
          <p>1 0 0 66 0 1 3 0 2 66 1 3 4 1 4 3 1 5 71 2 6 9 2 7 10 2 8 64 3 9 1 3 10 0 3 11 11 4 12 72 4 13 70 4 14 71 5 15 11 5 16 70 5 17 6 6 18 67 6 19 68 6 20 8 7 21 75 7 22 73 7 23 5 8 24 69 8 25 67 8 26 2 9 27 73 9 28 74 9 29 78 10 30 44 10 31 79 10 32 84 11 33 29 11 34 85 11 35 79 12 36 47 12 37 80 12 38 86 13 39 26 13 40 84 13 41 34 14 42 82 14 43 81 14 44 35 15 45 83 15 46 82 15 47 13 16 48 15 16 49 12 16 50 12 17 51 17 17 52 16 17 53 13 18 54 18 18 55 19 18 56 12 19 57 20 19 58 18 19 59 23 20 60 21 20 61 22 20 62 24 21 63 25 21 64 21 21 65 23 22 66 28 22 67 24 22 68 24 23 69 29 23 70 26 23 71 32 24 72 30 24 73 31 24 74 33 25 75 34 25 76 30 25 77 32 26 78 37 26 79 33 26 80 33 27 81 38 27 82 35 27 83 41 28 84 39 28 85 40 28 86 42 29 87 43 29 88 39 29 89 41 30 90 46 30 91 42 30 92 42 31 93 47 31 94 44 31 95 29 32 96 18 32 97 20 32 98 28 33 99 19 33 100 18 33 101 38 34 102 21 34 103 25 34 104 47 35 105 30 35 106 34 35 107 46 36 108 31 36 109 30 36 110 17 37 111 39 37 112 43 37 113 88 38 114 56 38 115 87 38 116 89 39 117 48 39 118 88 39 119 68 40 120 60 40 121 6 40 122 61 41 123 64 41 124 0 41 125 74 42 126 61 42 127 2 42 128 60 43 129 72 43 130 7 43 131 66 44 132 50 44 133 69 44 134 69 45 135 51 45 136 67 45 137 51 46 138 68 46 139 67 46 140 77 47 141 52 47 142 62 47 143 54 48 144 74 48 145 73 48 146 75 49 147 54 49 148 73 49 149 71 50 150 58 50 151 75 50 152 55 51 153 71 51 154 70 51 155 72 52 156 55 52 157 70 52 158 53 53 159 77 53 160 62 53 161 66 54 162 48 54 163 49 54 164 64 55 165 48 55 166 65 55 167 76 56 168 57 56 169 63 56 170 76 57 171 56 57 172 64 57 173 14 58 174 39 58 175 15 58 176 37 59 177 22 59 178 21 59 179 14 60 180 19 60 181 22 60 182 97 61 183 17 61 184 43 61 185 86 62 186 38 62 187 25 62 188 47 63 189 81 63 190 80 63 191 29 64 192 89 64 193 85 64 194 59 65 195 80 65 196 58 65 197 53 66 198 82 66 199 55 66 200 55 67 201 81 67 202 59 67 203 54 68 204 80 68 205 79 68 206 57 69 207 79 69 208 78 69 209 49 70 210 85 70 211 50 70 212 88 71 213 20 71 214 16 71 215 87 72 216 16 72 217 17 72 218 52 73 219 84 73 220 86 73 221 51 74 222 85 74 223 84 74 224 83 75 225 53 75 226 62 75 227 63 76 228 78 76 229 97 76 230 85 77 231 96 77 232 84 77 233 86 78 234 84 78 235 96 78 236 95 79 237 88 79 238 87 79 239 94 80 240 93 80 241 90 80 242 82 81 243 83 81 244 91 81 245 81 82 246 92 82 247 80 82 248 80 83 249 99 83 250 79 83 251 81 84 252 82 84 253 91 84 254 92 85 255 91 85 256 93 85 257 93 86 258 91 86 259 83 86 260 92 87 261 94 87 262 80 87 263 90 88 264 96 88 265 95 88 266 97 89 267 98 89 268 95 89 269 93 90 270 86 90 271 96 90 272 90 91 273 95 91 274 98 91 275 78 92 276 98 92 277 97 92 278 99 93 279 90 93 280 98 93 281 78 94 282 79 94 283 99 94 284 94 95 285 90 95 286 99 95 287 96 96 288 89 96 289 95 96 290 95 97 291 89 97 292 88 97 293 89 98 294 96 98 295 85 98 296 81 99 297 91 99 298 92 99 299 92 100 300 93 100 301 94 100 302 93 101 303 83 101 304 86 101 305 97 102 306 95 102 307 87 102 308 93 103 309 96 103 310 90 103 311 78 104 312 99 104 313 98 104 314 94 105 315 99 105 316 80 105 317 1 106 318 65 106 319 66 106 320 66 107 321 69 107 322 4 107 323 71 108 324 75 108 325 9 108 326 64 109 327 65 109 328 1 109 329 11 110 330 7 110 331 72 110 332 71 111 333 10 111 334 11 111 335 6 112 336 5 112 337 67 112 338 8 113 339 9 113 340 75 113 341 5 114 342 4 114 343 69 114 344 2 115 345 8 115 346 73 115 347 78 116 348 43 116 349 44 116 350 84 117 351 26 117 352 29 117 353 79 118 354 44 118 355 47 118 356 86 119 357 25 119 358 26 119 359 34 120 360 35 120 361 82 120 362 35 121 363 38 121 364 83 121 365 13 122 366 14 122 367 15 122 368 12 123 369 15 123 370 17 123 371 13 124 372 12 124 373 18 124 374 12 125 375 16 125 376 20 125 377 23 126 378 24 126 379 21 126 380 24 127 381 26 127 382 25 127 383 23 128 384 27 128 385 28 128 386 24 129 387 28 129 388 29 129 389 32 130 390 33 130 391 30 130 392 33 131 393 35 131 394 34 131 395 32 132 396 36 132 397 37 132 398 33 133 399 37 133 400 38 133 401 41 134 402 42 134 403 39 134 404 42 135 405 44 135 406 43 135 407 41 136 408 45 136 409 46 136 410 42 137 411 46 137 412 47 137 413 29 138 414 28 138 415 18 138 416 28 139 417 27 139 418 19 139 419 38 140 420 37 140 421 21 140 422 47 141 423 46 141 424 30 141 425 46 142 426 45 142 427 31 142 428 17 143 429 15 143 430 39 143 431 88 144 432 48 144 433 56 144 434 89 145 435 49 145 436 48 145 437 68 146 438 77 146 439 60 146 440 61 147 441 76 147 442 64 147 443 74 148 444 76 148 445 61 148 446 60 149 447 77 149 448 72 149 449 66 150 450 49 150 451 50 150 452 69 151 453 50 151 454 51 151 455 51 152 456 52 152 457 68 152 458 77 153 459 68 153 460 52 153 461 54 154 462 57 154 463 74 154 464 75 155 465 58 155 466 54 155 467 71 156 468 59 156 469 58 156 470 55 157 471 59 157 472 71 157 473 72 158 474 53 158 475 55 158 476 53 159 477 72 159 478 77 159 479 66 160 480 65 160 481 48 160 482 64 161 483 56 161 484 48 161 485 76 162 486 74 162 487 57 162 488 76 163 489 63 163 490 56 163 491 14 164 492 40 164 493 39 164 494 37 165 495 36 165 496 22 165 497 31 166 498 45 166 499 40 166 500 45 167 501 41 167 502 40 167 503 40 168 504 14 168 505 36 168 506 31 169 507 40 169 508 36 169 509 14 170 510 13 170 511 19 170 512 19 171 513 27 171 514 22 171 515 27 172 516 23 172 517 22 172 518 22 173 519 36 173 520 14 173 521 36 174 522 32 174 523 31 174 524 43 175 525 78 175 526 97 175 527 97 176 528 87 176 529 17 176 530 86 177 531 83 177 532 38 177 533 47 178 534 34 178 535 81 178 536 29 179 537 20 179 538 89 179 539 59 180 540 81 180 541 80 180 542 53 181 543 83 181 544 82 181 545 55 182 546 82 182 547 81 182 548 54 183 549 58 183 550 80 183 551 57 184 552 54 184 553 79 184 554 49 185 555 89 185 556 85 185 557 88 186 558 89 186 559 20 186 560 87 187 561 88 187 562 16 187 563 52 188 564 51 188 565 84 188 566 51 189 567 50 189 568 85 189 569 62 190 570 52 190 571 86 190 572 86 191 573 83 191 574 62 191 575 63 192 576 57 192 577 78 192 578 97 193 579 87 193 580 63 193 581 87 194 582 56 194 583 63 194 584</p>
        </triangles>
      </mesh>
    </geometry>
  </library_geometries>
  <library_visual_scenes>
    <visual_scene id="Scene" name="Scene">
      <node id="laundry-basket_filled-col" name="laundry-basket_filled-col" type="NODE">
        <matrix sid="transform">1 0 0 0 0 1 0 0 0 0 1 0 0 0 0 1</matrix>
        <instance_geometry url="#laundry-basket_filled-mesh" name="laundry-basket_filled-col">
          <bind_material>
            <technique_common>
              <instance_material symbol="laundry-basket_filled_128-material" target="#laundry-basket_filled_128-material">
                <bind_vertex_input semantic="UVMap" input_semantic="TEXCOORD" input_set="0"/>
              </instance_material>
            </technique_common>
          </bind_material>
        </instance_geometry>
      </node>
    </visual_scene>
  </library_visual_scenes>
  <scene>
    <instance_visual_scene url="#Scene"/>
  </scene>
</COLLADA>