<?xml version="1.0" encoding="utf-8"?>
<COLLADA xmlns="http://www.collada.org/2005/11/COLLADASchema" version="1.4.1" xmlns:xsi="http://www.w3.org/2001/XMLSchema-instance">
  <asset>
    <contributor>
      <author>Blender User</author>
      <authoring_tool>Blender 4.4.3 commit date:2025-04-29, commit time:14:09, hash:802179c51ccc</authoring_tool>
    </contributor>
    <created>2025-08-04T15:58:00</created>
    <modified>2025-08-04T15:58:00</modified>
    <unit name="meter" meter="1"/>
    <up_axis>Z_UP</up_axis>
  </asset>
  <library_effects>
    <effect id="notice-board_256-effect">
      <profile_COMMON>
        <newparam sid="notice-board_256_png_001-surface">
          <surface type="2D">
            <init_from>notice-board_256_png_001</init_from>
          </surface>
        </newparam>
        <newparam sid="notice-board_256_png_001-sampler">
          <sampler2D>
            <source>notice-board_256_png_001-surface</source>
          </sampler2D>
        </newparam>
        <technique sid="common">
          <lambert>
            <emission>
              <color sid="emission">0 0 0 1</color>
            </emission>
            <diffuse>
              <texture texture="notice-board_256_png_001-sampler" texcoord="UVMap"/>
            </diffuse>
            <index_of_refraction>
              <float sid="ior">1.5</float>
            </index_of_refraction>
          </lambert>
        </technique>
      </profile_COMMON>
    </effect>
  </library_effects>
  <library_images>
    <image id="notice-board_256_png_001" name="notice-board_256_png_001">
      <init_from>notice-board_256.png.001.png</init_from>
    </image>
  </library_images>
  <library_materials>
    <material id="notice-board_256-material" name="notice-board_256">
      <instance_effect url="#notice-board_256-effect"/>
    </material>
  </library_materials>
  <library_geometries>
    <geometry id="notice-board-mesh" name="notice-board">
      <mesh>
        <source id="notice-board-mesh-positions">
          <float_array id="notice-board-mesh-positions-array" count="48">-0.5337806 -0.02945351 0.06621921 -0.5337806 -0.02945351 0.8337802 -0.6000001 0 -2.08616e-7 -0.6000001 0 0.8999996 0.5337806 -0.02945351 0.06621921 0.5337806 -0.02945351 0.8337802 0.6000001 0 -2.08616e-7 0.6000001 0 0.8999996 -0.6000001 -0.02945351 -2.08616e-7 -0.6000001 -0.02945351 0.8999996 0.6000001 -0.02945351 0.8999996 0.6000001 -0.02945351 -2.08616e-7 -0.5337806 -0.003977477 0.06621921 -0.5337806 -0.003977477 0.8337802 0.5337806 -0.003977477 0.8337802 0.5337806 -0.003977477 0.06621921</float_array>
          <technique_common>
            <accessor source="#notice-board-mesh-positions-array" count="16" stride="3">
              <param name="X" type="float"/>
              <param name="Y" type="float"/>
              <param name="Z" type="float"/>
            </accessor>
          </technique_common>
        </source>
        <source id="notice-board-mesh-normals">
          <float_array id="notice-board-mesh-normals-array" count="84">-1 0 0 0 1 0 1 0 0 0 0 1 0 0 -1 0 0 1 0 -1 0 0 -1 0 0 -1 0 0 -1 0 0 -1 0 1 0 0 0 0 -1 -1 0 0 -1 0 0 0 1 0 1 0 0 0 0 1 0 0 -1 0 0 1 0 -1 0 0 -1 0 0 -1 0 0 -1 0 0 -1 0 1 0 0 0 0 -1 -1 0 0</float_array>
          <technique_common>
            <accessor source="#notice-board-mesh-normals-array" count="28" stride="3">
              <param name="X" type="float"/>
              <param name="Y" type="float"/>
              <param name="Z" type="float"/>
            </accessor>
          </technique_common>
        </source>
        <source id="notice-board-mesh-map-0">
          <float_array id="notice-board-mesh-map-0-array" count="168">0.6679688 0.9921875 0.6523438 0.5429688 0.6679688 0.5429688 0.5898438 0.4492188 0.01171875 0.0078125 0.5898438 0.0078125 0.6679688 0.9921875 0.6523438 0.5429688 0.6679688 0.5429688 0.0078125 0.4921875 0.53125 0.4804688 0.53125 0.4921875 0.59375 0.4609375 0.0078125 0.4765625 0.0078125 0.4609375 0.59375 0.4609375 0.0078125 0.4765625 0.0078125 0.4609375 0.04296875 0.9570313 0.0078125 0.5234375 0.04296875 0.5585938 0.5976563 0.5585938 0.6328125 0.9921875 0.5976563 0.9570313 0.04296875 0.5585938 0.6328125 0.5234375 0.5976563 0.5585938 0.5976563 0.9570313 0.0078125 0.9921875 0.04296875 0.9570313 0.5820313 0.9453125 0.05859375 0.5703125 0.5820313 0.5703125 0.6953125 0.5898438 0.7070313 0.9648438 0.6953125 0.9648438 0.53125 0.4960938 0.0078125 0.5078125 0.0078125 0.4960938 0.7070313 0.9648438 0.6953125 0.5898438 0.7070313 0.5898438 0.6679688 0.9921875 0.6523438 0.9921875 0.6523438 0.5429688 0.5898438 0.4492188 0.01171875 0.4492188 0.01171875 0.0078125 0.6679688 0.9921875 0.6523438 0.9921875 0.6523438 0.5429688 0.0078125 0.4921875 0.0078125 0.4804688 0.53125 0.4804688 0.59375 0.4609375 0.59375 0.4765625 0.0078125 0.4765625 0.59375 0.4609375 0.59375 0.4765625 0.0078125 0.4765625 0.04296875 0.9570313 0.0078125 0.9921875 0.0078125 0.5234375 0.5976563 0.5585938 0.6328125 0.5234375 0.6328125 0.9921875 0.04296875 0.5585938 0.0078125 0.5234375 0.6328125 0.5234375 0.5976563 0.9570313 0.6328125 0.9921875 0.0078125 0.9921875 0.5820313 0.9453125 0.05859375 0.9453125 0.05859375 0.5703125 0.6953125 0.5898438 0.7070313 0.5898438 0.7070313 0.9648438 0.53125 0.4960938 0.53125 0.5078125 0.0078125 0.5078125 0.7070313 0.9648438 0.6953125 0.9648438 0.6953125 0.5898438</float_array>
          <technique_common>
            <accessor source="#notice-board-mesh-map-0-array" count="84" stride="2">
              <param name="S" type="float"/>
              <param name="T" type="float"/>
            </accessor>
          </technique_common>
        </source>
        <vertices id="notice-board-mesh-vertices">
          <input semantic="POSITION" source="#notice-board-mesh-positions"/>
        </vertices>
        <triangles material="notice-board_256-material" count="28">
          <input semantic="VERTEX" source="#notice-board-mesh-vertices" offset="0"/>
          <input semantic="NORMAL" source="#notice-board-mesh-normals" offset="1"/>
          <input semantic="TEXCOORD" source="#notice-board-mesh-map-0" offset="2" set="0"/>
          <p>9 0 0 2 0 1 8 0 2 3 1 3 6 1 4 2 1 5 7 2 6 11 2 7 6 2 8 4 3 9 12 3 10 0 3 11 6 4 12 8 4 13 2 4 14 3 5 15 10 5 16 7 5 17 1 6 18 8 6 19 0 6 20 4 7 21 10 7 22 5 7 23 0 8 24 11 8 25 4 8 26 5 9 27 9 9 28 1 9 29 14 10 30 12 10 31 15 10 32 0 11 33 13 11 34 1 11 35 1 12 36 14 12 37 5 12 38 5 13 39 15 13 40 4 13 41 9 14 42 3 14 43 2 14 44 3 15 45 7 15 46 6 15 47 7 16 48 10 16 49 11 16 50 4 17 51 15 17 52 12 17 53 6 18 54 11 18 55 8 18 56 3 19 57 9 19 58 10 19 59 1 20 60 9 20 61 8 20 62 4 21 63 11 21 64 10 21 65 0 22 66 8 22 67 11 22 68 5 23 69 10 23 70 9 23 71 14 24 72 13 24 73 12 24 74 0 25 75 12 25 76 13 25 77 1 26 78 13 26 79 14 26 80 5 27 81 14 27 82 15 27 83</p>
        </triangles>
      </mesh>
    </geometry>
  </library_geometries>
  <library_visual_scenes>
    <visual_scene id="Scene" name="Scene">
      <node id="notice-board-col" name="notice-board-col" type="NODE">
        <matrix sid="transform">1 0 0 0 0 1 0 0 0 0 1 0 0 0 0 1</matrix>
        <instance_geometry url="#notice-board-mesh" name="notice-board-col">
          <bind_material>
            <technique_common>
              <instance_material symbol="notice-board_256-material" target="#notice-board_256-material">
                <bind_vertex_input semantic="UVMap" input_semantic="TEXCOORD" input_set="0"/>
              </instance_material>
            </technique_common>
          </bind_material>
        </instance_geometry>
      </node>
    </visual_scene>
  </library_visual_scenes>
  <scene>
    <instance_visual_scene url="#Scene"/>
  </scene>
</COLLADA>