<?xml version="1.0" encoding="utf-8"?>
<COLLADA xmlns="http://www.collada.org/2005/11/COLLADASchema" version="1.4.1" xmlns:xsi="http://www.w3.org/2001/XMLSchema-instance">
  <asset>
    <contributor>
      <author>Blender User</author>
      <authoring_tool>Blender 4.4.3 commit date:2025-04-29, commit time:14:09, hash:802179c51ccc</authoring_tool>
    </contributor>
    <created>2025-08-04T15:58:45</created>
    <modified>2025-08-04T15:58:45</modified>
    <unit name="meter" meter="1"/>
    <up_axis>Z_UP</up_axis>
  </asset>
  <library_effects>
    <effect id="pile-of-clothes_128-effect">
      <profile_COMMON>
        <newparam sid="pile-of-clothes_128_png_001-surface">
          <surface type="2D">
            <init_from>pile-of-clothes_128_png_001</init_from>
          </surface>
        </newparam>
        <newparam sid="pile-of-clothes_128_png_001-sampler">
          <sampler2D>
            <source>pile-of-clothes_128_png_001-surface</source>
          </sampler2D>
        </newparam>
        <technique sid="common">
          <lambert>
            <emission>
              <color sid="emission">0 0 0 1</color>
            </emission>
            <diffuse>
              <texture texture="pile-of-clothes_128_png_001-sampler" texcoord="UVMap"/>
            </diffuse>
            <index_of_refraction>
              <float sid="ior">1.5</float>
            </index_of_refraction>
          </lambert>
        </technique>
      </profile_COMMON>
    </effect>
  </library_effects>
  <library_images>
    <image id="pile-of-clothes_128_png_001" name="pile-of-clothes_128_png_001">
      <init_from>pile-of-clothes_128.png.001.png</init_from>
    </image>
  </library_images>
  <library_materials>
    <material id="pile-of-clothes_128-material" name="pile-of-clothes_128">
      <instance_effect url="#pile-of-clothes_128-effect"/>
    </material>
  </library_materials>
  <library_geometries>
    <geometry id="pile-of-clothes-mesh" name="pile-of-clothes">
      <mesh>
        <source id="pile-of-clothes-mesh-positions">
          <float_array id="pile-of-clothes-mesh-positions-array" count="63">-0.38249 0.1328351 0 -0.3736505 -0.04013806 0 -0.4421808 -0.2000563 0 -0.2811113 -0.3577405 0 -0.07104033 -0.3303547 0 0.1967517 -0.3333838 0 0.4421808 -0.1294603 0 0.2419106 0.0174508 0 0.2714918 0.2236202 0 0.09853225 0.3577405 0 -0.06923878 0.2825086 0 -0.3669963 0.311237 0 -0.1955026 -0.1639536 0.1189138 -0.2447925 -0.01167386 0.09342771 -0.2754185 0.1612873 0.1673601 -0.006977856 -0.2106492 0.09188818 -0.0351178 -0.0644347 0.1537079 -0.1033958 0.1034222 0.1642238 0.1400395 -0.1328231 0.1336408 0.09118199 0.0216183 0.2 0.1201506 0.186869 0.1309435</float_array>
          <technique_common>
            <accessor source="#pile-of-clothes-mesh-positions-array" count="21" stride="3">
              <param name="X" type="float"/>
              <param name="Y" type="float"/>
              <param name="Z" type="float"/>
            </accessor>
          </technique_common>
        </source>
        <source id="pile-of-clothes-mesh-normals">
          <float_array id="pile-of-clothes-mesh-normals-array" count="84">0.4487199 0.5786624 0.6810289 -0.8457071 0.07344722 0.5285689 0.07356172 0.7624365 0.6428679 -0.1488065 0.6836045 0.7145219 -0.3596872 -0.367409 0.8576921 -0.4488307 0.1923389 0.8726722 -0.5824134 -0.02976316 0.8123477 0.07095468 -0.544279 0.8358982 -0.2573031 0.07791799 0.9631842 -0.1208059 -0.4081797 0.9048731 -0.006861269 -0.60658 0.7949929 -0.05005115 -0.3970935 0.9164124 -0.2426741 -0.1586675 0.9570444 0.3670153 -0.4417157 0.8186495 0.7985268 -0.006018459 0.6019293 0.794853 0.1100337 0.5967423 0.2268669 0.6343812 0.7389803 -0.2545785 0.5677234 0.7828665 -0.5787954 -0.05113261 0.8138682 -0.7542388 -0.3664418 0.5448342 -0.03309577 -0.5973688 0.8012834 0.03743863 -0.3830308 0.9229766 -0.3144665 -0.1862272 0.9308223 0.05007946 -0.5439689 0.8376097 -0.05528414 -0.4088819 0.9109113 -0.007024168 0.3866148 0.9222145 0.3508009 0.478214 0.8051398 0.6644648 -0.09533733 0.7412134</float_array>
          <technique_common>
            <accessor source="#pile-of-clothes-mesh-normals-array" count="28" stride="3">
              <param name="X" type="float"/>
              <param name="Y" type="float"/>
              <param name="Z" type="float"/>
            </accessor>
          </technique_common>
        </source>
        <source id="pile-of-clothes-mesh-map-0">
          <float_array id="pile-of-clothes-mesh-map-0-array" count="168">0.5975449 0.6817766 0.7861468 0.7665341 0.5930682 0.9017284 0.04785245 0.6068379 0.2311467 0.6355844 0.08093208 0.8056026 0.2311467 0.6355844 0.4022583 0.8449328 0.08093208 0.8056026 0.5975449 0.6817766 0.4022583 0.8449328 0.3824105 0.5917441 0.02195173 0.2389684 0.2068303 0.07957398 0.2998094 0.3147051 0.2998094 0.3147051 0.06599044 0.4222215 0.02195173 0.2389684 0.2308563 0.4645652 0.04785245 0.6068379 0.06599044 0.4222215 0.4346308 0.1052099 0.2998094 0.3147051 0.2068303 0.07957398 0.2998094 0.3147051 0.4549455 0.4269825 0.2308563 0.4645652 0.2308563 0.4645652 0.3824105 0.5917441 0.2311467 0.6355844 0.7228224 0.1247174 0.4942345 0.268783 0.4346308 0.1052099 0.6381983 0.3730688 0.4549455 0.4269825 0.4942345 0.268783 0.5658345 0.5208871 0.3824105 0.5917441 0.4549455 0.4269825 0.7228224 0.1247174 0.9877967 0.3458497 0.6381983 0.3730688 0.6381983 0.3730688 0.8064792 0.5423719 0.5658345 0.5208871 0.8064792 0.5423719 0.5975449 0.6817766 0.5658345 0.5208871 0.2311467 0.6355844 0.3824105 0.5917441 0.4022583 0.8449328 0.5975449 0.6817766 0.5930682 0.9017284 0.4022583 0.8449328 0.2998094 0.3147051 0.2308563 0.4645652 0.06599044 0.4222215 0.2308563 0.4645652 0.2311467 0.6355844 0.04785245 0.6068379 0.4346308 0.1052099 0.4942345 0.268783 0.2998094 0.3147051 0.2998094 0.3147051 0.4942345 0.268783 0.4549455 0.4269825 0.2308563 0.4645652 0.4549455 0.4269825 0.3824105 0.5917441 0.7228224 0.1247174 0.6381983 0.3730688 0.4942345 0.268783 0.6381983 0.3730688 0.5658345 0.5208871 0.4549455 0.4269825 0.5658345 0.5208871 0.5975449 0.6817766 0.3824105 0.5917441 0.6381983 0.3730688 0.9877967 0.3458497 0.8064792 0.5423719 0.8064792 0.5423719 0.7861468 0.7665341 0.5975449 0.6817766</float_array>
          <technique_common>
            <accessor source="#pile-of-clothes-mesh-map-0-array" count="84" stride="2">
              <param name="S" type="float"/>
              <param name="T" type="float"/>
            </accessor>
          </technique_common>
        </source>
        <vertices id="pile-of-clothes-mesh-vertices">
          <input semantic="POSITION" source="#pile-of-clothes-mesh-positions"/>
        </vertices>
        <triangles material="pile-of-clothes_128-material" count="28">
          <input semantic="VERTEX" source="#pile-of-clothes-mesh-vertices" offset="0"/>
          <input semantic="NORMAL" source="#pile-of-clothes-mesh-normals" offset="1"/>
          <input semantic="TEXCOORD" source="#pile-of-clothes-mesh-map-0" offset="2" set="0"/>
          <p>20 0 0 8 0 1 9 0 2 0 1 3 14 1 4 11 1 5 14 2 6 10 2 7 11 2 8 20 3 9 10 3 10 17 3 11 2 4 12 3 4 13 12 4 14 12 5 15 1 5 16 2 5 17 13 6 18 0 6 19 1 6 20 4 7 21 12 7 22 3 7 23 12 8 24 16 8 25 13 8 26 13 9 27 17 9 28 14 9 29 5 10 30 15 10 31 4 10 32 18 11 33 16 11 34 15 11 35 19 12 36 17 12 37 16 12 38 5 13 39 6 13 40 18 13 41 18 14 42 7 14 43 19 14 44 7 15 45 20 15 46 19 15 47 14 16 48 17 16 49 10 16 50 20 17 51 9 17 52 10 17 53 12 18 54 13 18 55 1 18 56 13 19 57 14 19 58 0 19 59 4 20 60 15 20 61 12 20 62 12 21 63 15 21 64 16 21 65 13 22 66 16 22 67 17 22 68 5 23 69 18 23 70 15 23 71 18 24 72 19 24 73 16 24 74 19 25 75 20 25 76 17 25 77 18 26 78 6 26 79 7 26 80 7 27 81 8 27 82 20 27 83</p>
        </triangles>
      </mesh>
    </geometry>
  </library_geometries>
  <library_visual_scenes>
    <visual_scene id="Scene" name="Scene">
      <node id="pile-of-clothes-col" name="pile-of-clothes-col" type="NODE">
        <matrix sid="transform">1 0 0 0 0 1 0 0 0 0 1 0 0 0 0 1</matrix>
        <instance_geometry url="#pile-of-clothes-mesh" name="pile-of-clothes-col">
          <bind_material>
            <technique_common>
              <instance_material symbol="pile-of-clothes_128-material" target="#pile-of-clothes_128-material">
                <bind_vertex_input semantic="UVMap" input_semantic="TEXCOORD" input_set="0"/>
              </instance_material>
            </technique_common>
          </bind_material>
        </instance_geometry>
      </node>
    </visual_scene>
  </library_visual_scenes>
  <scene>
    <instance_visual_scene url="#Scene"/>
  </scene>
</COLLADA>