<?xml version="1.0" encoding="utf-8"?>
<COLLADA xmlns="http://www.collada.org/2005/11/COLLADASchema" version="1.4.1" xmlns:xsi="http://www.w3.org/2001/XMLSchema-instance">
  <asset>
    <contributor>
      <author>Blender User</author>
      <authoring_tool>Blender 4.4.3 commit date:2025-04-29, commit time:14:09, hash:802179c51ccc</authoring_tool>
    </contributor>
    <created>2025-08-04T16:00:22</created>
    <modified>2025-08-04T16:00:22</modified>
    <unit name="meter" meter="1"/>
    <up_axis>Z_UP</up_axis>
  </asset>
  <library_effects>
    <effect id="plastic-bench_dirty_128-effect">
      <profile_COMMON>
        <newparam sid="plastic-bench_dirty_128_png_001-surface">
          <surface type="2D">
            <init_from>plastic-bench_dirty_128_png_001</init_from>
          </surface>
        </newparam>
        <newparam sid="plastic-bench_dirty_128_png_001-sampler">
          <sampler2D>
            <source>plastic-bench_dirty_128_png_001-surface</source>
          </sampler2D>
        </newparam>
        <technique sid="common">
          <lambert>
            <emission>
              <color sid="emission">0 0 0 1</color>
            </emission>
            <diffuse>
              <texture texture="plastic-bench_dirty_128_png_001-sampler" texcoord="UVMap"/>
            </diffuse>
            <index_of_refraction>
              <float sid="ior">1.5</float>
            </index_of_refraction>
          </lambert>
        </technique>
      </profile_COMMON>
    </effect>
  </library_effects>
  <library_images>
    <image id="plastic-bench_dirty_128_png_001" name="plastic-bench_dirty_128_png_001">
      <init_from>plastic-bench_dirty_128.png.001.png</init_from>
    </image>
  </library_images>
  <library_materials>
    <material id="plastic-bench_dirty_128-material" name="plastic-bench_dirty_128">
      <instance_effect url="#plastic-bench_dirty_128-effect"/>
    </material>
  </library_materials>
  <library_geometries>
    <geometry id="plastic-bench_dirty-mesh" name="plastic-bench_dirty">
      <mesh>
        <source id="plastic-bench_dirty-mesh-positions">
          <float_array id="plastic-bench_dirty-mesh-positions-array" count="336">-0.4995651 0.1840364 0.3533473 -0.5007659 -0.1719863 0.3533472 -0.4995651 0.1840364 0.3850001 -0.5007659 -0.1719863 0.3850001 0.5004023 0.1759601 0.3533473 0.4991059 -0.1880004 0.3533472 0.5004023 0.1759601 0.3850001 0.4991059 -0.1880004 0.3850001 -0.5010087 0.04432469 0.3533473 -0.5004023 0.08038216 0.3533473 -0.4991059 -0.06834191 0.3533473 -0.4987549 -0.05930846 0.3533473 -0.4987549 -0.05930846 0.3850001 -0.4991059 -0.06834191 0.3850001 -0.5004023 0.08038216 0.3850001 -0.5010087 0.04432469 0.3850001 0.5010087 -0.03756642 0.3850001 0.5007659 -0.084356 0.3850001 0.4995651 0.07230579 0.3850001 0.4987549 0.06606674 0.3850001 0.5010087 -0.03756642 0.3533473 0.5007659 -0.084356 0.3533473 0.4995651 0.07230579 0.3533473 0.4987549 0.06606674 0.3533473 -0.4453557 -0.1483471 0 -0.468347 -0.1483471 0.3533472 -0.4453557 -0.1166943 0 -0.4137028 -0.1483471 0 -0.3907116 -0.1483471 0.3533472 -0.4137028 -0.1166943 0 -0.4453557 -0.1483471 0.3008044 -0.4453557 -0.1166943 0.3008044 -0.4137028 -0.1166943 0.3008044 -0.4137028 -0.1483471 0.3008044 -0.468347 -0.1483471 0.3216943 -0.468347 -0.1166943 0.3216943 -0.3907116 -0.1166943 0.3216943 -0.3907116 -0.1483471 0.3216943 -0.4453557 -0.1166943 0.1298585 -0.4453557 -0.1166943 0.09820568 -0.4137028 -0.1166943 0.09820568 -0.4137028 -0.1166943 0.1298585 -0.4453557 0.1483472 0 -0.4683469 0.1483472 0.3533472 -0.4453557 0.1166944 0 -0.4137028 0.1483472 0 -0.3907116 0.1483472 0.3533472 -0.4137028 0.1166944 0 -0.4453557 0.1483471 0.3008045 -0.4453557 0.1166943 0.3008045 -0.4137028 0.1166943 0.3008045 -0.4137028 0.1483471 0.3008045 -0.4683469 0.1483471 0.3216944 -0.4683469 0.1166943 0.3216944 -0.3907116 0.1166943 0.3216944 -0.3907116 0.1483471 0.3216944 -0.4453557 0.1166943 0.1298585 -0.4453557 0.1166944 0.09820568 -0.4137028 0.1166944 0.09820568 -0.4137028 0.1166943 0.1298585 -0.468347 0 0.3533472 -0.3907116 0 0.3533472 -0.4295293 -0.1166943 0.3216943 -0.4295293 0.1166943 0.3216944 -0.4453557 0.1483472 0.1140321 -0.4137028 0.1483472 0.1140321 -0.4453557 -0.1483471 0.1140321 -0.4137028 -0.1483471 0.1140321 0.4453558 -0.1483471 0 0.4683471 -0.1483471 0.3533472 0.4453558 -0.1166943 0 0.4137029 -0.1483471 0 0.3907117 -0.1483471 0.3533472 0.4137029 -0.1166943 0 0.4453558 -0.1483471 0.3008044 0.4453558 -0.1166943 0.3008044 0.4137029 -0.1166943 0.3008044 0.4137029 -0.1483471 0.3008044 0.4683471 -0.1483471 0.3216943 0.4683471 -0.1166943 0.3216943 0.3907117 -0.1166943 0.3216943 0.3907117 -0.1483471 0.3216943 0.4453558 -0.1166943 0.1298585 0.4453558 -0.1166943 0.09820568 0.4137029 -0.1166943 0.09820568 0.4137029 -0.1166943 0.1298585 0.4453558 0.1483472 0 0.468347 0.1483472 0.3533472 0.4453558 0.1166944 0 0.4137029 0.1483472 0 0.3907117 0.1483472 0.3533472 0.4137029 0.1166944 0 0.4453558 0.1483472 0.3008045 0.4453558 0.1166943 0.3008045 0.4137029 0.1166943 0.3008045 0.4137029 0.1483472 0.3008045 0.468347 0.1483472 0.3216944 0.468347 0.1166943 0.3216944 0.3907117 0.1166943 0.3216944 0.3907117 0.1483472 0.3216944 0.4453558 0.1166944 0.1298585 0.4453558 0.1166944 0.09820568 0.4137029 0.1166944 0.09820568 0.4137029 0.1166944 0.1298585 0.468347 0 0.3533472 0.3907117 0 0.3533472 0.4295294 -0.1166943 0.3216943 0.4295294 0.1166943 0.3216944 0.4453558 0.1483472 0.1140321 0.4137029 0.1483472 0.1140321 0.4453558 -0.1483471 0.1140321 0.4137029 -0.1483471 0.1140321</float_array>
          <technique_common>
            <accessor source="#plastic-bench_dirty-mesh-positions-array" count="112" stride="3">
              <param name="X" type="float"/>
              <param name="Y" type="float"/>
              <param name="Z" type="float"/>
            </accessor>
          </technique_common>
        </source>
        <source id="plastic-bench_dirty-mesh-normals">
          <float_array id="plastic-bench_dirty-mesh-normals-array" count="636">0 0 1 0 0 1 0.9997636 0.0217424 0 -0.9998718 0.01601386 0 0.00807631 0.9999674 0 -0.01601409 -0.9998717 0 -0.9997636 -0.0217424 0 0 2.8747e-7 -1 0.9999673 -0.008076071 0 0.9998719 -0.01601386 0 0 -2.87498e-7 1 0 0 -1 0 0 -1 -0.9999673 0.008076071 0 -0.02174198 0.9997637 0 0.02174198 -0.9997637 0 0.01601403 0.9998717 0 -0.00807631 -0.9999674 0 1 -2.00896e-7 -2.00896e-7 -1 0 0 1 0 0 0 1 -1.51734e-7 0.6724755 0 -0.7401194 -0.672475 0 -0.7401199 0 1 -5.67202e-7 -1 0 0 0 1 0 1 0 0 -1 0 0 1 0 0 0 -1 0 0.6724755 0 -0.7401194 -0.6724755 0 -0.7401194 -1 0 0 9.41534e-7 1.27694e-7 -1 -4.70767e-7 0 1 0 -1 0 -1 1.27694e-7 -4.70768e-7 0 1 0 0 1 0 0 -1 0 0 -1 -1.74338e-7 1 -1.27694e-7 -4.70768e-7 0 -1 0 0 1 1.59565e-7 0 1 0 0 -1 0 0 -1 0 -1 0 0 -1 0 0 -1 0 0 1 -1.27694e-7 0 1 0 0 1 0 0 0 1.27694e-7 -1 0 0 1 -1 0 0 1 4.01791e-7 4.01791e-7 -1 0 0 0 1 0 -0.6724755 0 -0.7401194 0.6724745 0 -0.7401203 0 1 0 1 0 0 0 1 0 -1 -4.01791e-7 4.01792e-7 1 0 0 -1 0 0 0 -1 0 -0.6724745 0 -0.7401203 0.6724755 0 -0.7401194 1 0 0 -9.41534e-7 1.27694e-7 -1 4.70767e-7 0 1 0 -1 0 1 2.55388e-7 9.41537e-7 0 1 0 0 1 0 0 -1 0 0 -1 0 -1 -2.55388e-7 9.41537e-7 0 -1 0 0 1 0 0 1 2.6135e-7 0 -1 0 0 -1 0 1 0 0 1 0 0 1 0 0 -1 0 0 -1 0 0 -1 0 0 0 1.27694e-7 -1 0 -2.00896e-7 1 0 0 -1 0 0 -1 0 0 -1 0 0 -1 0 0 1 0 0 1 0.9997636 0.0217424 0 -0.9998718 0.01601386 0 0.00807631 0.9999674 0 -0.01601409 -0.9998717 0 -0.9997636 -0.0217424 0 0 2.8747e-7 -1 0.9999673 -0.008076071 0 0.9998718 -0.01601386 0 0 -2.87498e-7 1 0 0 -1 0 0 -1 -0.9999673 0.008076071 0 -0.02174198 0.9997637 0 0.02174198 -0.9997637 0 0.01601403 0.9998717 0 -0.00807631 -0.9999674 0 1 0 0 -1 0 0 1 0 0 0 1 -1.51734e-7 0.6724755 0 -0.7401194 -0.672475 0 -0.7401199 8.55484e-7 1 -9.41537e-7 0 1 -5.67202e-7 -8.55484e-7 1 -9.41537e-7 -1 0 0 1 0 0 -1 2.00896e-7 -2.00896e-7 1 0 0 0 -1 0 0.6724755 0 -0.7401194 -0.6724755 0 -0.7401194 -1 0 0 0 0 -1 0 0 1 0 1 0 0 1 0 0 -1 0 0 -1 -1.74338e-7 0 -1 0 0 -1 0 0 -1 0 0 1 1.59565e-7 0 1 0 0 -1 0 0 -1 0 -1 0 0 -1 0 0 -1 0 0 -1 0 0 -1 0 0 1 0 0 1 -1.27694e-7 0 1 0 0 1 0 0 1 0 0 0 1.27694e-7 -1 0 1.27694e-7 -1 0 1.27694e-7 -1 0 0 1 0 -2.00896e-7 1 0 -2.00896e-7 1 -1 0 0 1 0 0 -1 0 0 0 1 0 -0.6724755 0 -0.7401194 0.6724745 0 -0.7401203 0 1 0 0 1 0 0 1 0 1 0 0 -1 0 0 1 0 0 -1 0 0 0 -1 0 -0.6724745 0 -0.7401203 0.6724755 0 -0.7401194 1 0 0 0 0 -1 0 0 1 0 1 0 0 1 0 0 -1 0 0 -1 0 0 -1 0 0 -1 0 0 -1 0 0 1 0 0 1 2.6135e-7 0 -1 0 0 -1 0 1 0 0 1 0 0 1 0 0 1 0 0 1 0 0 -1 0 0 -1 0 0 -1 0 0 -1 0 0 -1 0 0 0 1.27694e-7 -1 0 1.27694e-7 -1 0 1.27694e-7 -1 0 0 1 0 0 1 0 -2.00896e-7 1 0 0 -1 0 0 -1 0 0 -1 0 0 -1</float_array>
          <technique_common>
            <accessor source="#plastic-bench_dirty-mesh-normals-array" count="212" stride="3">
              <param name="X" type="float"/>
              <param name="Y" type="float"/>
              <param name="Z" type="float"/>
            </accessor>
          </technique_common>
        </source>
        <source id="plastic-bench_dirty-mesh-map-0">
          <float_array id="plastic-bench_dirty-mesh-map-0-array" count="1272">0.015625 0.375 0.9882813 0.4765625 0.015625 0.4765625 0.015625 0.375 0.9882813 0.4765625 0.015625 0.4765625 0.9921875 0.2265625 0.9609375 0.125 0.9921875 0.125 0.9609375 0.125 0.9921875 0.2265625 0.9609375 0.2265625 0.9882813 0.3359375 0.015625 0.3046875 0.015625 0.3359375 0.015625 0.3046875 0.9882813 0.3359375 0.015625 0.3359375 0.9609375 0.125 0.9921875 0.2265625 0.9609375 0.2265625 0.9882813 0.1132812 0.015625 0.01171875 0.9882813 0.01171875 0.9609375 0.125 0.9921875 0.2265625 0.9609375 0.2265625 0.9609375 0.125 0.9921875 0.2265625 0.9609375 0.2265625 0.015625 0.375 0.9882813 0.4765625 0.015625 0.4765625 0.9882813 0.1132812 0.015625 0.01171875 0.9882813 0.01171875 0.9882813 0.1132812 0.015625 0.01171875 0.9882813 0.01171875 0.9609375 0.2265625 0.9921875 0.125 0.9921875 0.2265625 0.015625 0.2734375 0.9882813 0.2421875 0.9882813 0.2734375 0.9882813 0.2421875 0.015625 0.2734375 0.015625 0.2421875 0.015625 0.2734375 0.9882813 0.2421875 0.9882813 0.2734375 0.9882813 0.2421875 0.015625 0.2734375 0.015625 0.2421875 0.453125 0.859375 0.484375 0.828125 0.5976563 0.859375 0.3046875 0.859375 0.2734375 0.828125 0.3046875 0.828125 0.484375 0.6328125 0.453125 0.8007813 0.453125 0.6171875 0.8828125 0.2226562 0.9140625 0.1289062 0.9140625 0.2226562 0.484375 0.828125 0.453125 0.8007813 0.484375 0.8007813 0.3046875 0.828125 0.2734375 0.8007813 0.3046875 0.8007813 0.4140625 0.859375 0.3398438 0.859375 0.3945313 0.8085938 0.3046875 0.8007813 0.2734375 0.6328125 0.3046875 0.6171875 0.8085938 0.8398438 0.8242188 0.859375 0.7851563 0.859375 0.7421875 0.859375 0.7109375 0.828125 0.7421875 0.828125 0.046875 0.828125 0.015625 0.859375 0.015625 0.828125 0.7421875 0.8007813 0.7109375 0.6328125 0.7421875 0.6171875 0.8828125 0.2226562 0.9140625 0.1289062 0.9140625 0.2226562 0.7421875 0.8007813 0.7109375 0.828125 0.7109375 0.8007813 0.046875 0.8007813 0.015625 0.828125 0.015625 0.8007813 0.046875 0.6328125 0.015625 0.8007813 0.015625 0.6171875 0.7617188 0.5429688 0.9882813 0.5117188 0.9882813 0.5429688 0.59375 0.1601562 0.8203125 0.1328125 0.8203125 0.1601562 0.8242188 0.859375 0.8398438 0.8398438 0.8632813 0.859375 0.2734375 0.828125 0.1601562 0.859375 0.046875 0.828125 0.8398438 0.8398438 0.8632813 0.859375 0.8242188 0.859375 0.8398438 0.8398438 0.8085938 0.8398438 0.8085938 0.671875 0.7851563 0.859375 0.8085938 0.8398438 0.8242188 0.859375 0.8085938 0.671875 0.8398438 0.671875 0.8398438 0.8398438 0.5976563 0.859375 0.484375 0.828125 0.7109375 0.828125 0.3398438 0.859375 0.3398438 0.828125 0.3632813 0.8085938 0.3945313 0.6289063 0.3632813 0.8085938 0.3632813 0.6289063 0.3945313 0.515625 0.3632813 0.6289063 0.3632813 0.515625 0.3945313 0.8085938 0.3632813 0.6289063 0.3945313 0.6289063 0.3945313 0.6289063 0.3632813 0.515625 0.3945313 0.515625 0.015625 0.5078125 0.046875 0.6015625 0.015625 0.6171875 0.2734375 0.6328125 0.046875 0.6328125 0.046875 0.6015625 0.3046875 0.5078125 0.2734375 0.6015625 0.2734375 0.5078125 0.484375 0.6015625 0.7109375 0.6015625 0.7109375 0.6328125 0.484375 0.6015625 0.453125 0.5078125 0.484375 0.5078125 0.7421875 0.5078125 0.7109375 0.6015625 0.7109375 0.5078125 0.5625 0.1679687 0.3359375 0.2070312 0.3359375 0.1679687 0.1601562 0.1328125 0.3046875 0.1328125 0.3046875 0.2070312 0.7109375 0.828125 0.7421875 0.859375 0.5976563 0.859375 0.015625 0.859375 0.046875 0.828125 0.1601562 0.859375 0.7421875 0.8007813 0.7109375 0.6328125 0.7421875 0.6171875 0.8828125 0.1289062 0.9140625 0.2226562 0.8828125 0.2226562 0.7421875 0.8007813 0.7109375 0.828125 0.7109375 0.8007813 0.046875 0.8007813 0.015625 0.828125 0.015625 0.8007813 0.3398438 0.859375 0.3398438 0.828125 0.3632813 0.8085938 0.046875 0.6328125 0.015625 0.8007813 0.015625 0.6171875 0.8398438 0.8398438 0.8632813 0.859375 0.8242188 0.859375 0.453125 0.859375 0.484375 0.828125 0.5976563 0.859375 0.2734375 0.828125 0.3046875 0.859375 0.1601562 0.859375 0.484375 0.6328125 0.453125 0.8007813 0.453125 0.6171875 0.9140625 0.2226562 0.8828125 0.1289062 0.9140625 0.1289062 0.484375 0.828125 0.453125 0.8007813 0.484375 0.8007813 0.3046875 0.828125 0.2734375 0.8007813 0.3046875 0.8007813 0.3046875 0.8007813 0.2734375 0.6328125 0.3046875 0.6171875 0.7617188 0.5117188 0.9882813 0.5429688 0.7617188 0.5429688 0.59375 0.1328125 0.8203125 0.1601562 0.59375 0.1601562 0.8242188 0.859375 0.7851563 0.859375 0.8085938 0.8398438 0.046875 0.828125 0.2734375 0.828125 0.1601562 0.859375 0.8085938 0.8398438 0.8242188 0.859375 0.7851563 0.859375 0.8398438 0.8398438 0.8242188 0.859375 0.8085938 0.8398438 0.8632813 0.859375 0.8242188 0.859375 0.8398438 0.8398438 0.8085938 0.671875 0.8398438 0.8398438 0.8085938 0.8398438 0.5976563 0.859375 0.484375 0.828125 0.7109375 0.828125 0.4140625 0.859375 0.3398438 0.859375 0.3945313 0.8085938 0.3945313 0.8085938 0.3632813 0.6289063 0.3945313 0.6289063 0.3945313 0.6289063 0.3632813 0.515625 0.3945313 0.515625 0.3945313 0.6289063 0.3632813 0.8085938 0.3632813 0.6289063 0.3945313 0.515625 0.3632813 0.6289063 0.3632813 0.515625 0.3046875 0.5078125 0.2734375 0.6015625 0.2734375 0.5078125 0.046875 0.6328125 0.015625 0.6171875 0.046875 0.6015625 0.015625 0.5078125 0.046875 0.6015625 0.015625 0.6171875 0.7109375 0.6015625 0.7421875 0.6171875 0.7109375 0.6328125 0.7421875 0.5078125 0.7109375 0.6015625 0.7109375 0.5078125 0.484375 0.6015625 0.453125 0.5078125 0.484375 0.5078125 0.5625 0.1679687 0.3359375 0.2070312 0.3359375 0.1679687 0.015625 0.2070312 0.015625 0.1328125 0.1601562 0.1328125 0.8085938 0.6015625 0.8398438 0.6328125 0.8085938 0.6328125 0.8085938 0.6328125 0.8398438 0.6015625 0.8398438 0.6328125 0.8398438 0.6015625 0.8085938 0.6328125 0.8085938 0.6015625 0.8398438 0.6328125 0.8085938 0.6015625 0.8398438 0.6015625 0.015625 0.375 0.9882813 0.375 0.9882813 0.4765625 0.015625 0.375 0.9882813 0.375 0.9882813 0.4765625 0.9921875 0.2265625 0.9609375 0.2265625 0.9609375 0.125 0.9609375 0.125 0.9921875 0.125 0.9921875 0.2265625 0.9882813 0.3359375 0.9882813 0.3046875 0.015625 0.3046875 0.015625 0.3046875 0.9882813 0.3046875 0.9882813 0.3359375 0.9609375 0.125 0.9921875 0.125 0.9921875 0.2265625 0.9882813 0.1132812 0.015625 0.1132812 0.015625 0.01171875 0.9609375 0.125 0.9921875 0.125 0.9921875 0.2265625 0.9609375 0.125 0.9921875 0.125 0.9921875 0.2265625 0.015625 0.375 0.9882813 0.375 0.9882813 0.4765625 0.9882813 0.1132812 0.015625 0.1132812 0.015625 0.01171875 0.9882813 0.1132812 0.015625 0.1132812 0.015625 0.01171875 0.9609375 0.2265625 0.9609375 0.125 0.9921875 0.125 0.015625 0.2734375 0.015625 0.2421875 0.9882813 0.2421875 0.9882813 0.2421875 0.9882813 0.2734375 0.015625 0.2734375 0.015625 0.2734375 0.015625 0.2421875 0.9882813 0.2421875 0.9882813 0.2421875 0.9882813 0.2734375 0.015625 0.2734375 0.453125 0.859375 0.453125 0.828125 0.484375 0.828125 0.3046875 0.859375 0.1601562 0.859375 0.2734375 0.828125 0.484375 0.6328125 0.484375 0.8007813 0.453125 0.8007813 0.8828125 0.2226562 0.8828125 0.1289062 0.9140625 0.1289062 0.484375 0.828125 0.453125 0.828125 0.453125 0.8007813 0.3046875 0.828125 0.2734375 0.828125 0.2734375 0.8007813 0.3398438 0.828125 0.3632813 0.8085938 0.3398438 0.859375 0.3632813 0.8085938 0.3945313 0.8085938 0.3398438 0.859375 0.3945313 0.8085938 0.4140625 0.828125 0.4140625 0.859375 0.3046875 0.8007813 0.2734375 0.8007813 0.2734375 0.6328125 0.7421875 0.859375 0.5976563 0.859375 0.7109375 0.828125 0.046875 0.828125 0.1601562 0.859375 0.015625 0.859375 0.7421875 0.8007813 0.7109375 0.8007813 0.7109375 0.6328125 0.8828125 0.2226562 0.8828125 0.1289062 0.9140625 0.1289062 0.7421875 0.8007813 0.7421875 0.828125 0.7109375 0.828125 0.046875 0.8007813 0.046875 0.828125 0.015625 0.828125 0.046875 0.6328125 0.046875 0.8007813 0.015625 0.8007813 0.7617188 0.5429688 0.7617188 0.5117188 0.9882813 0.5117188 0.59375 0.1601562 0.59375 0.1328125 0.8203125 0.1328125 0.8085938 0.671875 0.8398438 0.671875 0.8398438 0.8398438 0.8398438 0.8398438 0.8242188 0.859375 0.8085938 0.8398438 0.8242188 0.859375 0.8085938 0.8398438 0.8398438 0.8398438 0.8085938 0.8398438 0.8085938 0.671875 0.8398438 0.8398438 0.3632813 0.8085938 0.3945313 0.8085938 0.4140625 0.859375 0.3945313 0.8085938 0.4140625 0.828125 0.4140625 0.859375 0.4140625 0.859375 0.3398438 0.859375 0.3632813 0.8085938 0.3945313 0.6289063 0.3945313 0.8085938 0.3632813 0.8085938 0.3945313 0.515625 0.3945313 0.6289063 0.3632813 0.6289063 0.3945313 0.8085938 0.3632813 0.8085938 0.3632813 0.6289063 0.3945313 0.6289063 0.3632813 0.6289063 0.3632813 0.515625 0.015625 0.5078125 0.046875 0.5078125 0.046875 0.6015625 0.015625 0.6171875 0.046875 0.6015625 0.046875 0.6328125 0.046875 0.6015625 0.2734375 0.6015625 0.2734375 0.6328125 0.2734375 0.6015625 0.3046875 0.6171875 0.2734375 0.6328125 0.3046875 0.5078125 0.3046875 0.6171875 0.2734375 0.6015625 0.7421875 0.6171875 0.7109375 0.6328125 0.7109375 0.6015625 0.7109375 0.6328125 0.484375 0.6328125 0.484375 0.6015625 0.484375 0.6328125 0.453125 0.6171875 0.484375 0.6015625 0.484375 0.6015625 0.453125 0.6171875 0.453125 0.5078125 0.7421875 0.5078125 0.7421875 0.6171875 0.7109375 0.6015625 0.3359375 0.1328125 0.5625 0.1328125 0.5625 0.1679687 0.5625 0.1679687 0.5625 0.2070312 0.3359375 0.2070312 0.3359375 0.1679687 0.3359375 0.1328125 0.5625 0.1679687 0.3046875 0.2070312 0.1601562 0.2070312 0.1601562 0.1328125 0.1601562 0.2070312 0.015625 0.2070312 0.1601562 0.1328125 0.015625 0.2070312 0.015625 0.1328125 0.1601562 0.1328125 0.7109375 0.828125 0.7421875 0.828125 0.7421875 0.859375 0.015625 0.859375 0.015625 0.828125 0.046875 0.828125 0.7421875 0.8007813 0.7109375 0.8007813 0.7109375 0.6328125 0.8828125 0.1289062 0.9140625 0.1289062 0.9140625 0.2226562 0.7421875 0.8007813 0.7421875 0.828125 0.7109375 0.828125 0.046875 0.8007813 0.046875 0.828125 0.015625 0.828125 0.3632813 0.8085938 0.3945313 0.8085938 0.4140625 0.859375 0.3945313 0.8085938 0.4140625 0.828125 0.4140625 0.859375 0.4140625 0.859375 0.3398438 0.859375 0.3632813 0.8085938 0.046875 0.6328125 0.046875 0.8007813 0.015625 0.8007813 0.453125 0.859375 0.453125 0.828125 0.484375 0.828125 0.2734375 0.828125 0.3046875 0.828125 0.3046875 0.859375 0.484375 0.6328125 0.484375 0.8007813 0.453125 0.8007813 0.9140625 0.2226562 0.8828125 0.2226562 0.8828125 0.1289062 0.484375 0.828125 0.453125 0.828125 0.453125 0.8007813 0.3046875 0.828125 0.2734375 0.828125 0.2734375 0.8007813 0.3046875 0.8007813 0.2734375 0.8007813 0.2734375 0.6328125 0.7617188 0.5117188 0.9882813 0.5117188 0.9882813 0.5429688 0.59375 0.1328125 0.8203125 0.1328125 0.8203125 0.1601562 0.8085938 0.8398438 0.8085938 0.671875 0.8398438 0.671875 0.8398438 0.671875 0.8398438 0.8398438 0.8085938 0.8398438 0.8398438 0.671875 0.8398438 0.8398438 0.8085938 0.671875 0.8398438 0.8398438 0.8242188 0.859375 0.8085938 0.8398438 0.3398438 0.828125 0.3632813 0.8085938 0.3398438 0.859375 0.3632813 0.8085938 0.3945313 0.8085938 0.3398438 0.859375 0.3945313 0.8085938 0.4140625 0.828125 0.4140625 0.859375 0.3945313 0.8085938 0.3632813 0.8085938 0.3632813 0.6289063 0.3945313 0.6289063 0.3632813 0.6289063 0.3632813 0.515625 0.3945313 0.6289063 0.3945313 0.8085938 0.3632813 0.8085938 0.3945313 0.515625 0.3945313 0.6289063 0.3632813 0.6289063 0.3046875 0.5078125 0.3046875 0.6171875 0.2734375 0.6015625 0.046875 0.6015625 0.2734375 0.6015625 0.046875 0.6328125 0.2734375 0.6015625 0.3046875 0.6171875 0.2734375 0.6328125 0.046875 0.6328125 0.2734375 0.6015625 0.2734375 0.6328125 0.015625 0.5078125 0.046875 0.5078125 0.046875 0.6015625 0.7109375 0.6328125 0.484375 0.6328125 0.7109375 0.6015625 0.484375 0.6328125 0.453125 0.6171875 0.484375 0.6015625 0.7109375 0.6015625 0.484375 0.6328125 0.484375 0.6015625 0.7421875 0.5078125 0.7421875 0.6171875 0.7109375 0.6015625 0.484375 0.6015625 0.453125 0.6171875 0.453125 0.5078125 0.3359375 0.1679687 0.3359375 0.1328125 0.5625 0.1328125 0.5625 0.1679687 0.5625 0.2070312 0.3359375 0.2070312 0.3359375 0.1679687 0.5625 0.1328125 0.5625 0.1679687 0.1601562 0.1328125 0.3046875 0.1328125 0.1601562 0.2070312 0.3046875 0.1328125 0.3046875 0.2070312 0.1601562 0.2070312 0.1601562 0.2070312 0.015625 0.2070312 0.1601562 0.1328125 0.8085938 0.6015625 0.8398438 0.6015625 0.8398438 0.6328125 0.8085938 0.6328125 0.8085938 0.6015625 0.8398438 0.6015625 0.8398438 0.6015625 0.8398438 0.6328125 0.8085938 0.6328125 0.8398438 0.6328125 0.8085938 0.6328125 0.8085938 0.6015625</float_array>
          <technique_common>
            <accessor source="#plastic-bench_dirty-mesh-map-0-array" count="636" stride="2">
              <param name="S" type="float"/>
              <param name="T" type="float"/>
            </accessor>
          </technique_common>
        </source>
        <vertices id="plastic-bench_dirty-mesh-vertices">
          <input semantic="POSITION" source="#plastic-bench_dirty-mesh-positions"/>
        </vertices>
        <triangles material="plastic-bench_dirty_128-material" count="212">
          <input semantic="VERTEX" source="#plastic-bench_dirty-mesh-vertices" offset="0"/>
          <input semantic="NORMAL" source="#plastic-bench_dirty-mesh-normals" offset="1"/>
          <input semantic="TEXCOORD" source="#plastic-bench_dirty-mesh-map-0" offset="2" set="0"/>
          <p>3 0 0 17 0 1 13 0 2 12 1 3 19 1 4 15 1 5 16 2 6 23 2 7 19 2 8 1 3 9 13 3 10 10 3 11 6 4 12 0 4 13 2 4 14 1 5 15 7 5 16 3 5 17 11 6 18 15 6 19 8 6 20 5 7 21 10 7 22 21 7 23 18 8 24 4 8 25 6 8 26 7 9 27 21 9 28 17 9 29 14 10 30 6 10 31 2 10 32 22 11 33 0 11 34 4 11 35 20 12 36 8 12 37 23 12 38 0 13 39 14 13 40 2 13 41 8 14 42 19 14 43 23 14 44 20 15 45 12 15 46 11 15 47 10 16 48 17 16 49 21 16 50 22 17 51 14 17 52 9 17 53 28 18 54 36 18 55 61 18 56 25 19 57 35 19 58 34 19 59 41 20 60 33 20 61 67 20 62 40 21 63 26 21 64 39 21 65 36 22 66 33 22 67 32 22 68 34 23 69 31 23 70 30 23 71 43 24 72 46 24 73 48 24 74 30 25 75 38 25 76 66 25 77 32 26 78 62 26 79 36 26 80 46 27 81 54 27 82 55 27 83 53 28 84 43 28 85 52 28 86 51 29 87 59 29 88 65 29 89 57 30 90 47 30 91 58 30 92 51 31 93 54 31 94 50 31 95 49 32 96 52 32 97 48 32 98 56 33 99 48 33 100 64 33 101 40 34 102 57 34 103 58 34 104 38 35 105 59 35 106 56 35 107 63 36 108 50 36 109 54 36 110 35 37 111 60 37 112 53 37 113 31 38 114 35 38 115 62 38 116 31 39 117 32 39 118 41 39 119 53 40 120 49 40 121 63 40 122 56 41 123 59 41 124 50 41 125 61 42 126 36 42 127 54 42 128 25 43 129 34 43 130 30 43 131 64 44 132 51 44 133 65 44 134 42 45 135 65 45 136 45 45 137 33 46 138 66 46 139 67 46 140 67 47 141 24 47 142 27 47 143 42 48 144 57 48 145 64 48 146 38 49 147 56 49 148 57 49 149 24 50 150 39 50 151 26 50 152 40 51 153 58 51 154 59 51 155 40 52 156 27 52 157 29 52 158 45 53 159 58 53 160 47 53 161 62 54 162 53 54 163 63 54 164 61 55 165 46 55 166 43 55 167 80 56 168 72 56 169 105 56 170 69 57 171 79 57 172 104 57 173 77 58 174 85 58 175 111 58 176 70 59 177 84 59 178 83 59 179 77 60 180 80 60 181 76 60 182 75 61 183 78 61 184 74 61 185 87 62 186 96 62 187 92 62 188 82 63 189 74 63 190 110 63 191 76 64 192 80 64 193 106 64 194 90 65 195 98 65 196 105 65 197 97 66 198 87 66 199 104 66 200 103 67 201 95 67 202 109 67 203 101 68 204 91 68 205 88 68 206 98 69 207 95 69 208 94 69 209 96 70 210 93 70 211 92 70 212 92 71 213 100 71 214 108 71 215 101 72 216 84 72 217 102 72 218 103 73 219 82 73 220 100 73 221 107 74 222 98 74 223 94 74 224 79 75 225 97 75 226 104 75 227 75 76 228 106 76 229 79 76 230 76 77 231 106 77 232 75 77 233 97 78 234 107 78 235 93 78 236 103 79 237 93 79 238 94 79 239 105 80 240 98 80 241 80 80 242 69 81 243 72 81 244 74 81 245 95 82 246 108 82 247 109 82 248 109 83 249 86 83 250 89 83 251 110 84 252 77 84 253 111 84 254 68 85 255 111 85 256 71 85 257 86 86 258 101 86 259 88 86 260 82 87 261 110 87 262 83 87 263 68 88 264 83 88 265 110 88 266 84 89 267 111 89 268 85 89 269 71 90 270 84 90 271 73 90 272 102 91 273 89 91 274 91 91 275 107 92 276 79 92 277 106 92 278 72 93 279 69 93 280 104 93 281 29 94 282 24 94 283 26 94 284 42 95 285 47 95 286 44 95 287 68 96 288 73 96 289 70 96 290 91 97 291 86 97 292 88 97 293 3 98 294 7 98 295 17 98 296 12 99 297 16 99 298 19 99 299 16 100 300 20 100 301 23 100 302 1 101 303 3 101 304 13 101 305 6 102 306 4 102 307 0 102 308 1 103 309 5 103 310 7 103 311 11 104 312 12 104 313 15 104 314 5 105 315 1 105 316 10 105 317 18 106 318 22 106 319 4 106 320 7 107 321 5 107 322 21 107 323 14 108 324 18 108 325 6 108 326 22 109 327 9 109 328 0 109 329 20 110 330 11 110 331 8 110 332 0 111 333 9 111 334 14 111 335 8 112 336 15 112 337 19 112 338 20 113 339 16 113 340 12 113 341 10 114 342 13 114 343 17 114 344 22 115 345 18 115 346 14 115 347 28 116 348 37 116 349 36 116 350 25 117 351 60 117 352 35 117 353 41 118 354 32 118 355 33 118 356 40 119 357 29 119 358 26 119 359 36 120 360 37 120 361 33 120 362 34 121 363 35 121 364 31 121 365 55 122 366 51 122 367 46 122 368 51 123 369 48 123 370 46 123 371 48 124 372 52 124 373 43 124 374 30 125 375 31 125 376 38 125 377 46 126 378 61 126 379 54 126 380 53 127 381 60 127 382 43 127 383 51 128 384 50 128 385 59 128 386 57 129 387 44 129 388 47 129 389 51 130 390 55 130 391 54 130 392 49 131 393 53 131 394 52 131 395 56 132 396 49 132 397 48 132 398 40 133 399 39 133 400 57 133 401 38 134 402 41 134 403 59 134 404 41 135 405 38 135 406 31 135 407 31 136 408 62 136 409 32 136 410 63 137 411 49 137 412 50 137 413 49 138 414 56 138 415 50 138 416 30 139 417 33 139 418 28 139 419 33 140 420 37 140 421 28 140 422 28 141 423 25 141 424 30 141 425 64 142 426 48 142 427 51 142 428 42 143 429 64 143 430 65 143 431 33 144 432 30 144 433 66 144 434 67 145 435 66 145 436 24 145 437 42 146 438 44 146 439 57 146 440 64 147 441 57 147 442 56 147 443 57 148 444 39 148 445 38 148 446 39 149 447 66 149 448 38 149 449 24 150 450 66 150 451 39 150 452 65 151 453 59 151 454 58 151 455 59 152 456 41 152 457 40 152 458 41 153 459 67 153 460 40 153 461 40 154 462 67 154 463 27 154 464 45 155 465 65 155 466 58 155 467 54 156 468 36 156 469 62 156 470 62 157 471 35 157 472 53 157 473 63 158 474 54 158 475 62 158 476 43 159 477 60 159 478 61 159 479 60 160 480 25 160 481 61 160 482 25 161 483 28 161 484 61 161 485 80 162 486 81 162 487 72 162 488 69 163 489 78 163 490 79 163 491 77 164 492 76 164 493 85 164 494 70 165 495 73 165 496 84 165 497 77 166 498 81 166 499 80 166 500 75 167 501 79 167 502 78 167 503 92 168 504 95 168 505 90 168 506 95 169 507 99 169 508 90 169 509 90 170 510 87 170 511 92 170 512 82 171 513 75 171 514 74 171 515 90 172 516 99 172 517 98 172 518 97 173 519 96 173 520 87 173 521 103 174 522 94 174 523 95 174 524 101 175 525 102 175 526 91 175 527 98 176 528 99 176 529 95 176 530 96 177 531 97 177 532 93 177 533 92 178 534 93 178 535 100 178 536 101 179 537 83 179 538 84 179 539 103 180 540 85 180 541 82 180 542 75 181 543 82 181 544 85 181 545 85 182 546 76 182 547 75 182 548 100 183 549 93 183 550 103 183 551 93 184 552 107 184 553 94 184 554 81 185 555 77 185 556 72 185 557 77 186 558 74 186 559 72 186 560 74 187 561 78 187 562 69 187 563 95 188 564 92 188 565 108 188 566 109 189 567 108 189 568 86 189 569 110 190 570 74 190 571 77 190 572 68 191 573 110 191 574 111 191 575 86 192 576 108 192 577 101 192 578 83 193 579 101 193 580 82 193 581 101 194 582 108 194 583 100 194 584 82 195 585 101 195 586 100 195 587 68 196 588 70 196 589 83 196 590 85 197 591 103 197 592 84 197 593 103 198 594 109 198 595 102 198 596 84 199 597 103 199 598 102 199 599 71 200 600 111 200 601 84 200 602 102 201 603 109 201 604 89 201 605 106 202 606 80 202 607 98 202 608 107 203 609 97 203 610 79 203 611 106 204 612 98 204 613 107 204 614 104 205 615 87 205 616 105 205 617 87 206 618 90 206 619 105 206 620 105 207 621 72 207 622 104 207 623 29 208 624 27 208 625 24 208 626 42 209 627 45 209 628 47 209 629 68 210 630 71 210 631 73 210 632 91 211 633 89 211 634 86 211 635</p>
        </triangles>
      </mesh>
    </geometry>
  </library_geometries>
  <library_visual_scenes>
    <visual_scene id="Scene" name="Scene">
      <node id="plastic-bench_dirty-col" name="plastic-bench_dirty-col" type="NODE">
        <matrix sid="transform">1 0 0 0 0 1 0 0 0 0 1 0 0 0 0 1</matrix>
        <instance_geometry url="#plastic-bench_dirty-mesh" name="plastic-bench_dirty-col">
          <bind_material>
            <technique_common>
              <instance_material symbol="plastic-bench_dirty_128-material" target="#plastic-bench_dirty_128-material">
                <bind_vertex_input semantic="UVMap" input_semantic="TEXCOORD" input_set="0"/>
              </instance_material>
            </technique_common>
          </bind_material>
        </instance_geometry>
      </node>
    </visual_scene>
  </library_visual_scenes>
  <scene>
    <instance_visual_scene url="#Scene"/>
  </scene>
</COLLADA>