<?xml version="1.0" encoding="utf-8"?>
<COLLADA xmlns="http://www.collada.org/2005/11/COLLADASchema" version="1.4.1" xmlns:xsi="http://www.w3.org/2001/XMLSchema-instance">
  <asset>
    <contributor>
      <author>Blender User</author>
      <authoring_tool>Blender 4.4.3 commit date:2025-04-29, commit time:14:09, hash:802179c51ccc</authoring_tool>
    </contributor>
    <created>2025-08-04T16:01:23</created>
    <modified>2025-08-04T16:01:23</modified>
    <unit name="meter" meter="1"/>
    <up_axis>Z_UP</up_axis>
  </asset>
  <library_effects>
    <effect id="vending-machine_512-effect">
      <profile_COMMON>
        <newparam sid="vending-machine_512_png_001-surface">
          <surface type="2D">
            <init_from>vending-machine_512_png_001</init_from>
          </surface>
        </newparam>
        <newparam sid="vending-machine_512_png_001-sampler">
          <sampler2D>
            <source>vending-machine_512_png_001-surface</source>
          </sampler2D>
        </newparam>
        <technique sid="common">
          <lambert>
            <emission>
              <color sid="emission">0 0 0 1</color>
            </emission>
            <diffuse>
              <texture texture="vending-machine_512_png_001-sampler" texcoord="UVMap"/>
            </diffuse>
            <index_of_refraction>
              <float sid="ior">1.5</float>
            </index_of_refraction>
          </lambert>
        </technique>
      </profile_COMMON>
    </effect>
  </library_effects>
  <library_images>
    <image id="vending-machine_512_png_001" name="vending-machine_512_png_001">
      <init_from>vending-machine_512.png.001.png</init_from>
    </image>
  </library_images>
  <library_materials>
    <material id="vending-machine_512-material" name="vending-machine_512">
      <instance_effect url="#vending-machine_512-effect"/>
    </material>
  </library_materials>
  <library_geometries>
    <geometry id="vending-machine-mesh" name="vending-machine">
      <mesh>
        <source id="vending-machine-mesh-positions">
          <float_array id="vending-machine-mesh-positions-array" count="162">-0.4933497 -0.3113482 2.68221e-7 -0.3948146 -0.3113482 2.68221e-7 -0.4933497 -0.3113482 0.02547681 -0.376235 -0.3113482 0.02547681 -0.4933497 -0.2567951 0.02547681 -0.4933497 -0.2567951 2.68221e-7 -0.3948146 -0.2567951 2.68221e-7 -0.376235 -0.2567951 0.02547681 0.4933497 -0.3113483 1.58516e-7 0.3948144 -0.3113483 1.58516e-7 0.4933497 -0.3113483 0.02547681 0.3762348 -0.3113483 0.02547681 0.4933497 -0.2567951 0.02547681 0.4933497 -0.2567951 1.58516e-7 0.3948144 -0.2567951 1.58516e-7 0.3762348 -0.2567951 0.02547681 -0.4933497 0.3478358 1.58516e-7 -0.3948146 0.3478358 1.58516e-7 -0.4933497 0.3478358 0.02547681 -0.376235 0.3478358 0.02547681 -0.4933497 0.2932826 0.02547681 -0.4933497 0.2932826 1.58516e-7 -0.3948146 0.2932826 1.58516e-7 -0.376235 0.2932826 0.02547681 0.4933496 0.3478358 1.58516e-7 0.3948144 0.3478358 1.58516e-7 0.4933496 0.3478358 0.02547681 0.3762348 0.3478358 0.02547681 0.4933496 0.2932826 0.02547681 0.4933496 0.2932826 1.58516e-7 0.3948144 0.2932826 1.58516e-7 0.3762348 0.2932826 0.02547681 -0.4379546 -0.3064751 0.5837293 0.2778881 -0.3064751 0.5837293 -0.4379546 -0.3064751 1.70299 0.2778881 -0.3064751 1.70299 -0.53 0.3849999 1.82 -0.53 0.385 0.02547693 0.53 0.385 0.02547693 0.53 0.3849999 1.82 -0.53 -0.3485125 1.82 -0.53 -0.3485124 0.02547705 0.5299999 -0.3485125 1.82 0.3392652 -0.3485124 0.02547705 0.3392652 -0.3485125 1.78468 0.5299999 -0.3485125 1.78468 -0.4744212 -0.3485125 1.739865 -0.4744212 -0.3485125 0.5468547 0.3143547 -0.3485125 0.5468547 0.3143547 -0.3485125 1.739865 0.3392652 -0.385 0.02547705 0.5299999 -0.385 0.02547705 0.3392652 -0.385 1.739865 0.5299999 -0.385 1.739865</float_array>
          <technique_common>
            <accessor source="#vending-machine-mesh-positions-array" count="54" stride="3">
              <param name="X" type="float"/>
              <param name="Y" type="float"/>
              <param name="Z" type="float"/>
            </accessor>
          </technique_common>
        </source>
        <source id="vending-machine-mesh-normals">
          <float_array id="vending-machine-mesh-normals-array" count="240">0 -1 0 0 1 0 0 0 -1 0.8079623 0 -0.5892341 -1 0 0 0 -1 0 0 1 0 0 0 -1 -0.8079635 0 -0.5892325 1 0 0 0 1 0 0 -1 0 0 0 -1 0.8079635 0 -0.5892325 -1 0 0 0 1 0 0 -1 0 0 0 -1 -0.8079635 0 -0.5892325 1 0 0 0 -1 0 0 1 0 0 -1 0 0 -0.7754786 0.6313739 1 -1.62518e-7 0 -1 0 0 0 -1 0 0 -1 0 0 -1 0 0 -3.25037e-7 1 0.7553846 -0.6552816 0 0 -0.6594337 0.7517626 0 -0.6594337 -0.7517626 -0.7553852 -0.655281 0 0 -1 0 -1 0 0 0 -1 0 0 0 -1 0 -1.49822e-7 -1 1 -1.54817e-7 0 0 -1 0 0 -1 0 0 1 0 0 0 -1 0.8079623 0 -0.5892341 -1 0 0 0 -1 0 0 1 0 0 0 -1 -0.8079635 0 -0.5892325 1 0 0 0 1 0 0 -1 0 0 0 -1 0.8079635 0 -0.5892325 -1 0 0 0 1 0 0 -1 0 0 0 -1 -0.8079635 0 -0.5892325 1 0 0 0 -1 0 0 1 0 0 -1 0 0 -0.7754786 0.6313739 1 -1.62518e-7 0 -1 0 0 0 -1 0 1.68361e-6 -1 0 -7.60852e-7 -1 0 0 -3.25037e-7 1 0.7553847 -0.6552817 0 0 -0.6594337 0.7517627 0 -0.6594337 -0.7517627 -0.7553852 -0.6552811 0 0 -1 0 -1 0 0 0 -1.42722e-7 -1 0 -1.49822e-7 -1 1 0 0</float_array>
          <technique_common>
            <accessor source="#vending-machine-mesh-normals-array" count="80" stride="3">
              <param name="X" type="float"/>
              <param name="Y" type="float"/>
              <param name="Z" type="float"/>
            </accessor>
          </technique_common>
        </source>
        <source id="vending-machine-mesh-map-0">
          <float_array id="vending-machine-mesh-map-0-array" count="480">0.65625 0.1171875 0.625 0.125 0.625 0.1171875 0.625 0.125 0.65625 0.1171875 0.625 0.1171875 0.625 0.109375 0.65625 0.09375 0.625 0.09375 0.6796875 0.125 0.6601563 0.1132812 0.6601563 0.125 0.609375 0.1171875 0.625 0.125 0.625 0.1171875 0.625 0.125 0.65625 0.1171875 0.625 0.1171875 0.65625 0.1171875 0.625 0.125 0.625 0.1171875 0.625 0.09375 0.65625 0.109375 0.65625 0.09375 0.6601563 0.125 0.6796875 0.1132812 0.6601563 0.1132812 0.609375 0.125 0.625 0.1171875 0.609375 0.1171875 0.625 0.125 0.65625 0.1171875 0.625 0.1171875 0.65625 0.1171875 0.625 0.125 0.625 0.1171875 0.65625 0.109375 0.625 0.09375 0.625 0.109375 0.6796875 0.1132812 0.6601563 0.125 0.6796875 0.125 0.609375 0.125 0.625 0.1171875 0.609375 0.1171875 0.65625 0.1171875 0.625 0.125 0.625 0.1171875 0.625 0.125 0.65625 0.1171875 0.625 0.1171875 0.65625 0.09375 0.625 0.109375 0.65625 0.109375 0.6601563 0.1132812 0.6796875 0.125 0.6796875 0.1132812 0.609375 0.1171875 0.625 0.125 0.625 0.1171875 0.9726563 0.0390625 0.7539063 0.3828125 0.7539063 0.0390625 0.3320313 0.6914063 0.0078125 0.140625 0.3320313 0.140625 0.3671875 0.578125 0.6210938 0.4179688 0.6132813 0.578125 0.65625 0.9257813 0.7148438 0.9453125 0.65625 0.9453125 0.9882813 0.96875 0.765625 0.9609375 0.9882813 0.4179688 0.9882813 0.96875 0.765625 0.4179688 0.765625 0.96875 0.3671875 0.9453125 0.6210938 0.9609375 0.3515625 0.96875 0.6132813 0.578125 0.6210938 0.9609375 0.6132813 0.9453125 0.3515625 0.96875 0.3671875 0.578125 0.3671875 0.9453125 0.3320313 0.9375 0.0078125 0.7109375 0.0078125 0.9375 0.734375 0.3945313 0.7539063 0.0390625 0.7539063 0.3828125 0.7539063 0.0390625 0.984375 0.01953125 0.9726563 0.0390625 0.984375 0.3984375 0.7539063 0.3828125 0.9726563 0.3828125 0.9882813 0.02734375 0.9726563 0.3828125 0.9726563 0.0390625 0.7148438 0.3984375 0.65625 0.9257813 0.65625 0.3984375 0.6445313 0.3984375 0.65625 0.9257813 0.6445313 0.9414063 0.6796875 0.96875 0.6210938 0.9609375 0.6796875 0.9609375 0.6210938 0.3671875 0.6796875 0.3789063 0.6210938 0.3789063 0.6210938 0.3671875 0.3515625 0.140625 0.6796875 0.140625 0.9882813 0.4179688 0.7539063 0.9453125 0.7539063 0.4179688 0.3515625 0.96875 0.6210938 0.9609375 0.6796875 0.96875 0.65625 0.1171875 0.6601563 0.125 0.625 0.125 0.625 0.125 0.6601563 0.125 0.65625 0.1171875 0.625 0.109375 0.65625 0.109375 0.65625 0.09375 0.6796875 0.125 0.6796875 0.1132812 0.6601563 0.1132812 0.609375 0.1171875 0.609375 0.125 0.625 0.125 0.625 0.125 0.6601563 0.125 0.65625 0.1171875 0.65625 0.1171875 0.6601563 0.125 0.625 0.125 0.625 0.09375 0.625 0.109375 0.65625 0.109375 0.6601563 0.125 0.6796875 0.125 0.6796875 0.1132812 0.609375 0.125 0.625 0.125 0.625 0.1171875 0.625 0.125 0.6601563 0.125 0.65625 0.1171875 0.65625 0.1171875 0.6601563 0.125 0.625 0.125 0.65625 0.109375 0.65625 0.09375 0.625 0.09375 0.6796875 0.1132812 0.6601563 0.1132812 0.6601563 0.125 0.609375 0.125 0.625 0.125 0.625 0.1171875 0.65625 0.1171875 0.6601563 0.125 0.625 0.125 0.625 0.125 0.6601563 0.125 0.65625 0.1171875 0.65625 0.09375 0.625 0.09375 0.625 0.109375 0.6601563 0.1132812 0.6601563 0.125 0.6796875 0.125 0.609375 0.1171875 0.609375 0.125 0.625 0.125 0.9726563 0.0390625 0.9726563 0.3828125 0.7539063 0.3828125 0.3320313 0.6914063 0.0078125 0.6914063 0.0078125 0.140625 0.3671875 0.578125 0.3515625 0.4179688 0.6210938 0.4179688 0.65625 0.9257813 0.7148438 0.9257813 0.7148438 0.9453125 0.9882813 0.96875 0.765625 0.96875 0.765625 0.9609375 0.9882813 0.96875 0.9882813 0.4179688 0.765625 0.4179688 0.3671875 0.9453125 0.6132813 0.9453125 0.6210938 0.9609375 0.6132813 0.578125 0.6210938 0.4179688 0.6210938 0.9609375 0.3515625 0.96875 0.3515625 0.4179688 0.3671875 0.578125 0.3320313 0.9375 0.3320313 0.7109375 0.0078125 0.7109375 0.734375 0.3945313 0.734375 0.02734375 0.7539063 0.0390625 0.7539063 0.0390625 0.7421875 0.01953125 0.984375 0.01953125 0.984375 0.3984375 0.7421875 0.3984375 0.7539063 0.3828125 0.9882813 0.02734375 0.9882813 0.3945313 0.9726563 0.3828125 0.7148438 0.3984375 0.7148438 0.9257813 0.65625 0.9257813 0.6445313 0.3984375 0.65625 0.3984375 0.65625 0.9257813 0.6210938 0.3671875 0.6796875 0.140625 0.6796875 0.3789063 0.6210938 0.3671875 0.3515625 0.3671875 0.3515625 0.140625 0.9882813 0.4179688 0.765625 0.9609375 0.7539063 0.9453125</float_array>
          <technique_common>
            <accessor source="#vending-machine-mesh-map-0-array" count="240" stride="2">
              <param name="S" type="float"/>
              <param name="T" type="float"/>
            </accessor>
          </technique_common>
        </source>
        <vertices id="vending-machine-mesh-vertices">
          <input semantic="POSITION" source="#vending-machine-mesh-positions"/>
        </vertices>
        <triangles material="vending-machine_512-material" count="80">
          <input semantic="VERTEX" source="#vending-machine-mesh-vertices" offset="0"/>
          <input semantic="NORMAL" source="#vending-machine-mesh-normals" offset="1"/>
          <input semantic="TEXCOORD" source="#vending-machine-mesh-map-0" offset="2" set="0"/>
          <p>1 0 0 2 0 1 0 0 2 4 1 3 6 1 4 5 1 5 5 2 6 1 2 7 0 2 8 6 3 9 3 3 10 1 3 11 4 4 12 0 4 13 2 4 14 10 5 15 9 5 16 8 5 17 14 6 18 12 6 19 13 6 20 9 7 21 13 7 22 8 7 23 11 8 24 14 8 25 9 8 26 8 9 27 12 9 28 10 9 29 18 10 30 17 10 31 16 10 32 22 11 33 20 11 34 21 11 35 17 12 36 21 12 37 16 12 38 19 13 39 22 13 40 17 13 41 16 14 42 20 14 43 18 14 44 25 15 45 26 15 46 24 15 47 28 16 48 30 16 49 29 16 50 29 17 51 25 17 52 24 17 53 30 18 54 27 18 55 25 18 56 28 19 57 24 19 58 26 19 59 33 20 60 34 20 61 32 20 62 36 21 63 38 21 64 37 21 65 47 22 66 43 22 67 48 22 68 52 23 69 45 23 70 44 23 71 39 24 72 45 24 73 38 24 74 36 25 75 41 25 76 40 25 77 46 26 78 44 26 79 40 26 80 48 27 81 44 27 82 49 27 83 40 28 84 47 28 85 46 28 86 42 29 87 36 29 88 40 29 89 46 30 90 32 30 91 34 30 92 32 31 93 48 31 94 33 31 95 49 32 96 34 32 97 35 32 98 48 33 99 35 33 100 33 33 101 51 34 102 52 34 103 50 34 104 43 35 105 52 35 106 44 35 107 42 36 108 44 36 109 45 36 110 43 37 111 51 37 112 50 37 113 43 38 114 37 38 115 38 38 116 38 39 117 53 39 118 51 39 119 40 40 120 44 40 121 42 40 122 1 41 123 3 41 124 2 41 125 4 42 126 7 42 127 6 42 128 5 43 129 6 43 130 1 43 131 6 44 132 7 44 133 3 44 134 4 45 135 5 45 136 0 45 137 10 46 138 11 46 139 9 46 140 14 47 141 15 47 142 12 47 143 9 48 144 14 48 145 13 48 146 11 49 147 15 49 148 14 49 149 8 50 150 13 50 151 12 50 152 18 51 153 19 51 154 17 51 155 22 52 156 23 52 157 20 52 158 17 53 159 22 53 160 21 53 161 19 54 162 23 54 163 22 54 164 16 55 165 21 55 166 20 55 167 25 56 168 27 56 169 26 56 170 28 57 171 31 57 172 30 57 173 29 58 174 30 58 175 25 58 176 30 59 177 31 59 178 27 59 179 28 60 180 29 60 181 24 60 182 33 61 183 35 61 184 34 61 185 36 62 186 39 62 187 38 62 188 47 63 189 41 63 190 43 63 191 52 64 192 53 64 193 45 64 194 39 65 195 42 65 196 45 65 197 36 66 198 37 66 199 41 66 200 46 67 201 49 67 202 44 67 203 48 68 204 43 68 205 44 68 206 40 69 207 41 69 208 47 69 209 42 70 210 39 70 211 36 70 212 46 71 213 47 71 214 32 71 215 32 72 216 47 72 217 48 72 218 49 73 219 46 73 220 34 73 221 48 74 222 49 74 223 35 74 224 51 75 225 53 75 226 52 75 227 43 76 228 50 76 229 52 76 230 43 77 231 38 77 232 51 77 233 43 78 234 41 78 235 37 78 236 38 79 237 45 79 238 53 79 239</p>
        </triangles>
      </mesh>
    </geometry>
  </library_geometries>
  <library_visual_scenes>
    <visual_scene id="Scene" name="Scene">
      <node id="vending-machine-col" name="vending-machine-col" type="NODE">
        <matrix sid="transform">1 0 0 0 0 1 0 0 0 0 1 0 0 0 0 1</matrix>
        <instance_geometry url="#vending-machine-mesh" name="vending-machine-col">
          <bind_material>
            <technique_common>
              <instance_material symbol="vending-machine_512-material" target="#vending-machine_512-material">
                <bind_vertex_input semantic="UVMap" input_semantic="TEXCOORD" input_set="0"/>
              </instance_material>
            </technique_common>
          </bind_material>
        </instance_geometry>
      </node>
    </visual_scene>
  </library_visual_scenes>
  <scene>
    <instance_visual_scene url="#Scene"/>
  </scene>
</COLLADA>