<?xml version="1.0" encoding="utf-8"?>
<COLLADA xmlns="http://www.collada.org/2005/11/COLLADASchema" version="1.4.1" xmlns:xsi="http://www.w3.org/2001/XMLSchema-instance">
  <asset>
    <contributor>
      <author>Blender User</author>
      <authoring_tool>Blender 4.4.3 commit date:2025-04-29, commit time:14:09, hash:802179c51ccc</authoring_tool>
    </contributor>
    <created>2025-08-04T16:02:48</created>
    <modified>2025-08-04T16:02:48</modified>
    <unit name="meter" meter="1"/>
    <up_axis>Z_UP</up_axis>
  </asset>
  <library_effects>
    <effect id="wall-shelf_clean_128-effect">
      <profile_COMMON>
        <newparam sid="wall-shelf_clean_128_png_001-surface">
          <surface type="2D">
            <init_from>wall-shelf_clean_128_png_001</init_from>
          </surface>
        </newparam>
        <newparam sid="wall-shelf_clean_128_png_001-sampler">
          <sampler2D>
            <source>wall-shelf_clean_128_png_001-surface</source>
          </sampler2D>
        </newparam>
        <technique sid="common">
          <lambert>
            <emission>
              <color sid="emission">0 0 0 1</color>
            </emission>
            <diffuse>
              <texture texture="wall-shelf_clean_128_png_001-sampler" texcoord="UVMap"/>
            </diffuse>
            <index_of_refraction>
              <float sid="ior">1.5</float>
            </index_of_refraction>
          </lambert>
        </technique>
      </profile_COMMON>
    </effect>
  </library_effects>
  <library_images>
    <image id="wall-shelf_clean_128_png_001" name="wall-shelf_clean_128_png_001">
      <init_from>wall-shelf_clean_128.png.001.png</init_from>
    </image>
  </library_images>
  <library_materials>
    <material id="wall-shelf_clean_128-material" name="wall-shelf_clean_128">
      <instance_effect url="#wall-shelf_clean_128-effect"/>
    </material>
  </library_materials>
  <library_geometries>
    <geometry id="wall-shelf_clean-mesh" name="wall-shelf_clean">
      <mesh>
        <source id="wall-shelf_clean-mesh-positions">
          <float_array id="wall-shelf_clean-mesh-positions-array" count="132">-0.495 -0.25 0.08129912 -0.495 -0.25 0.1163942 -0.495 0 0.08129912 -0.495 0 0.1163942 0.495 -0.25 0.08129912 0.495 -0.25 0.1163942 0.495 0 0.08129912 0.495 0 0.1163942 0.3547842 0 0 0.3547842 0 0.08129906 0.3547842 -0.2096943 0.08129906 0.3547842 -0.1778243 0.06268936 0.3547842 -0.02153158 0.06268936 0.3547842 -0.02153158 0.01394402 0.3797842 0 0 0.3797842 0 0.08129906 0.3797842 -0.2096943 0.08129906 0.3797842 -0.1778243 0.06268936 0.3797842 -0.02153158 0.06268936 0.3797842 -0.02153158 0.01394397 -0.3797841 0 0 -0.3797841 0 0.081299 -0.3797841 -0.2096943 0.081299 -0.3797841 -0.1778243 0.0626893 -0.3797841 -0.02153158 0.0626893 -0.3797841 -0.02153158 0.01394397 -0.3547841 0 0 -0.3547841 0 0.081299 -0.3547841 -0.2096943 0.081299 -0.3547841 -0.1778243 0.0626893 -0.3547841 -0.02153158 0.0626893 -0.3547841 -0.02153158 0.01394397 -0.01249992 0 0 -0.01249992 0 0.081299 -0.01249992 -0.2096943 0.081299 -0.01249992 -0.1778243 0.0626893 -0.01249992 -0.02153164 0.0626893 -0.01249992 -0.02153164 0.01394397 0.01250004 0 0 0.01249998 0 0.081299 0.01250004 -0.2096943 0.081299 0.01249998 -0.1778243 0.0626893 0.01249998 -0.02153164 0.0626893 0.01250004 -0.02153164 0.01394397</float_array>
          <technique_common>
            <accessor source="#wall-shelf_clean-mesh-positions-array" count="44" stride="3">
              <param name="X" type="float"/>
              <param name="Y" type="float"/>
              <param name="Z" type="float"/>
            </accessor>
          </technique_common>
        </source>
        <source id="wall-shelf_clean-mesh-normals">
          <float_array id="wall-shelf_clean-mesh-normals-array" count="174">-1 0 0 1 0 0 0 -1 0 0 0 -1 0 0 1 -1 0 0 -1 0 0 1 0 0 1 0 0 -2.52353e-7 -0.5042516 -0.8635568 0 -1 0 -2.50149e-7 -0.5435751 -0.8393605 0 0 -1 -1 -3.95939e-7 -6.11388e-7 -1 0 0 1 0 0 1 0 0 0 -0.5042518 -0.8635567 0 -1 0 -4.99201e-7 -0.543575 -0.8393606 0 0 -1 -1 -4.14342e-7 -4.39435e-7 -1 -2.026e-7 2.34411e-7 1 4.14342e-7 4.39435e-7 1 0 0 0 -0.504252 -0.8635566 0 -1 0 0 -0.5435748 -0.8393608 0 0 -1 -1 0 0 1 0 0 0 -1 0 0 0 -1 0 0 1 -1 0 0 -1 0 0 1 0 0 1 0 0 0 -0.5042518 -0.8635567 0 -1 0 -3.75224e-7 -0.5435752 -0.8393605 0 0 -1 -1 3.16831e-7 -3.66577e-7 -1 0 0 1 0 0 1 0 0 0 -0.5042518 -0.8635567 0 -1 0 -2.50149e-7 -0.5435752 -0.8393605 0 0 -1 -1 1.9802e-7 -2.2911e-7 -1 -1.64329e-7 -1.31287e-7 1 -1.9802e-7 2.2911e-7 1 0 0 0 -0.504252 -0.8635566 0 -1 0 0 -0.5435748 -0.8393608 0 0 -1</float_array>
          <technique_common>
            <accessor source="#wall-shelf_clean-mesh-normals-array" count="58" stride="3">
              <param name="X" type="float"/>
              <param name="Y" type="float"/>
              <param name="Z" type="float"/>
            </accessor>
          </technique_common>
        </source>
        <source id="wall-shelf_clean-mesh-map-0">
          <float_array id="wall-shelf_clean-mesh-map-0-array" count="348">0.390625 0.3320313 0.140625 0.296875 0.390625 0.296875 0.8671875 0.3320313 0.6171875 0.296875 0.8671875 0.296875 0.00390625 0.6601563 0.9960938 0.6953125 0.00390625 0.6953125 0.9960938 0.3710938 0.00390625 0.6210938 0.00390625 0.3710938 0.00390625 0.9882813 0.9960938 0.7382813 0.9960938 0.9882813 0.84375 0.1289062 0.8671875 0.1914062 0.84375 0.1796875 0.6875 0.1289062 0.8671875 0.1102052 0.84375 0.1289062 0.8671875 0.1914062 0.84375 0.1289062 0.84375 0.1796875 0.6875 0.1289062 0.8671875 0.1102052 0.65625 0.1132812 0.140625 0.1132812 0.1796875 0.1367187 0.140625 0.1367187 0.3828125 0.1132812 0.3359375 0.1367187 0.3359375 0.1132812 0.4101563 0.1132812 0.3828125 0.1367187 0.3828125 0.1132812 0.3359375 0.1132812 0.1796875 0.1367187 0.1796875 0.1132812 0.84375 0.1289062 0.8671875 0.1914062 0.84375 0.1796875 0.6875 0.1289062 0.8671875 0.1102052 0.84375 0.1289062 0.8671875 0.1914062 0.84375 0.1289062 0.84375 0.1796875 0.6875 0.1289062 0.8671875 0.1102052 0.65625 0.1132812 0.1796875 0.1132812 0.140625 0.1367187 0.140625 0.1132812 0.3828125 0.1132812 0.3359375 0.1367187 0.3359375 0.1132812 0.4101563 0.1367187 0.3828125 0.1132812 0.4101563 0.1132812 0.3359375 0.1132812 0.1796875 0.1367187 0.1796875 0.1132812 0.84375 0.1289062 0.8671875 0.1914062 0.84375 0.1796875 0.6875 0.1289062 0.8671875 0.1102052 0.84375 0.1289062 0.8671875 0.1914062 0.84375 0.1289062 0.84375 0.1796875 0.6875 0.1289062 0.8671875 0.1102052 0.65625 0.1132812 0.1796875 0.1132812 0.140625 0.1367187 0.140625 0.1132812 0.3828125 0.1132812 0.3359375 0.1367187 0.3359375 0.1132812 0.4101563 0.1367187 0.3828125 0.1132812 0.4101563 0.1132812 0.1796875 0.1132812 0.3359375 0.1367187 0.1796875 0.1367187 0.390625 0.3320313 0.140625 0.3320313 0.140625 0.296875 0.8671875 0.3320313 0.6171875 0.3320313 0.6171875 0.296875 0.00390625 0.6601563 0.9960938 0.6601563 0.9960938 0.6953125 0.9960938 0.3710938 0.9960938 0.6210938 0.00390625 0.6210938 0.00390625 0.9882813 0.00390625 0.7382813 0.9960938 0.7382813 0.84375 0.1289062 0.8671875 0.1102052 0.8671875 0.1914062 0.6875 0.1289062 0.65625 0.1132812 0.8671875 0.1102052 0.8671875 0.1914062 0.8671875 0.1102052 0.84375 0.1289062 0.6875 0.1289062 0.84375 0.1289062 0.8671875 0.1102052 0.140625 0.1132812 0.1796875 0.1132812 0.1796875 0.1367187 0.3828125 0.1132812 0.3828125 0.1367187 0.3359375 0.1367187 0.4101563 0.1132812 0.4101563 0.1367187 0.3828125 0.1367187 0.3359375 0.1132812 0.3359375 0.1367187 0.1796875 0.1367187 0.84375 0.1289062 0.8671875 0.1102052 0.8671875 0.1914062 0.6875 0.1289062 0.65625 0.1132812 0.8671875 0.1102052 0.8671875 0.1914062 0.8671875 0.1102052 0.84375 0.1289062 0.6875 0.1289062 0.84375 0.1289062 0.8671875 0.1102052 0.1796875 0.1132812 0.1796875 0.1367187 0.140625 0.1367187 0.3828125 0.1132812 0.3828125 0.1367187 0.3359375 0.1367187 0.4101563 0.1367187 0.3828125 0.1367187 0.3828125 0.1132812 0.3359375 0.1132812 0.3359375 0.1367187 0.1796875 0.1367187 0.84375 0.1289062 0.8671875 0.1102052 0.8671875 0.1914062 0.6875 0.1289062 0.65625 0.1132812 0.8671875 0.1102052 0.8671875 0.1914062 0.8671875 0.1102052 0.84375 0.1289062 0.6875 0.1289062 0.84375 0.1289062 0.8671875 0.1102052 0.1796875 0.1132812 0.1796875 0.1367187 0.140625 0.1367187 0.3828125 0.1132812 0.3828125 0.1367187 0.3359375 0.1367187 0.4101563 0.1367187 0.3828125 0.1367187 0.3828125 0.1132812 0.1796875 0.1132812 0.3359375 0.1132812 0.3359375 0.1367187</float_array>
          <technique_common>
            <accessor source="#wall-shelf_clean-mesh-map-0-array" count="174" stride="2">
              <param name="S" type="float"/>
              <param name="T" type="float"/>
            </accessor>
          </technique_common>
        </source>
        <vertices id="wall-shelf_clean-mesh-vertices">
          <input semantic="POSITION" source="#wall-shelf_clean-mesh-positions"/>
        </vertices>
        <triangles material="wall-shelf_clean_128-material" count="58">
          <input semantic="VERTEX" source="#wall-shelf_clean-mesh-vertices" offset="0"/>
          <input semantic="NORMAL" source="#wall-shelf_clean-mesh-normals" offset="1"/>
          <input semantic="TEXCOORD" source="#wall-shelf_clean-mesh-map-0" offset="2" set="0"/>
          <p>1 0 0 2 0 1 0 0 2 7 1 3 4 1 4 6 1 5 5 2 6 0 2 7 4 2 8 6 3 9 0 3 10 2 3 11 3 4 12 5 4 13 7 4 14 12 5 15 8 5 16 13 5 17 11 6 18 9 6 19 12 6 20 14 7 21 18 7 22 19 7 23 17 8 24 15 8 25 16 8 26 10 9 27 17 9 28 16 9 29 13 10 30 18 10 31 12 10 32 8 11 33 19 11 34 13 11 35 12 12 36 17 12 37 11 12 38 24 13 39 20 13 40 25 13 41 23 14 42 21 14 43 24 14 44 26 15 45 30 15 46 31 15 47 29 16 48 27 16 49 28 16 50 23 17 51 28 17 52 22 17 53 25 18 54 30 18 55 24 18 56 26 19 57 25 19 58 20 19 59 24 20 60 29 20 61 23 20 62 36 21 63 32 21 64 37 21 65 35 22 66 33 22 67 36 22 68 38 23 69 42 23 70 43 23 71 41 24 72 39 24 73 40 24 74 35 25 75 40 25 76 34 25 77 37 26 78 42 26 79 36 26 80 38 27 81 37 27 82 32 27 83 35 28 84 42 28 85 41 28 86 1 29 87 3 29 88 2 29 89 7 30 90 5 30 91 4 30 92 5 31 93 1 31 94 0 31 95 6 32 96 4 32 97 0 32 98 3 33 99 1 33 100 5 33 101 12 34 102 9 34 103 8 34 104 11 35 105 10 35 106 9 35 107 14 36 108 15 36 109 18 36 110 17 37 111 18 37 112 15 37 113 10 38 114 11 38 115 17 38 116 13 39 117 19 39 118 18 39 119 8 40 120 14 40 121 19 40 122 12 41 123 18 41 124 17 41 125 24 42 126 21 42 127 20 42 128 23 43 129 22 43 130 21 43 131 26 44 132 27 44 133 30 44 134 29 45 135 30 45 136 27 45 137 23 46 138 29 46 139 28 46 140 25 47 141 31 47 142 30 47 143 26 48 144 31 48 145 25 48 146 24 49 147 30 49 148 29 49 149 36 50 150 33 50 151 32 50 152 35 51 153 34 51 154 33 51 155 38 52 156 39 52 157 42 52 158 41 53 159 42 53 160 39 53 161 35 54 162 41 54 163 40 54 164 37 55 165 43 55 166 42 55 167 38 56 168 43 56 169 37 56 170 35 57 171 36 57 172 42 57 173</p>
        </triangles>
      </mesh>
    </geometry>
  </library_geometries>
  <library_visual_scenes>
    <visual_scene id="Scene" name="Scene">
      <node id="wall-shelf_clean-col" name="wall-shelf_clean-col" type="NODE">
        <matrix sid="transform">1 0 0 0 0 1 0 0 0 0 1 0 0 0 0 1</matrix>
        <instance_geometry url="#wall-shelf_clean-mesh" name="wall-shelf_clean-col">
          <bind_material>
            <technique_common>
              <instance_material symbol="wall-shelf_clean_128-material" target="#wall-shelf_clean_128-material">
                <bind_vertex_input semantic="UVMap" input_semantic="TEXCOORD" input_set="0"/>
              </instance_material>
            </technique_common>
          </bind_material>
        </instance_geometry>
      </node>
    </visual_scene>
  </library_visual_scenes>
  <scene>
    <instance_visual_scene url="#Scene"/>
  </scene>
</COLLADA>