<?xml version="1.0" encoding="utf-8"?>
<COLLADA xmlns="http://www.collada.org/2005/11/COLLADASchema" version="1.4.1" xmlns:xsi="http://www.w3.org/2001/XMLSchema-instance">
  <asset>
    <contributor>
      <author>Blender User</author>
      <authoring_tool>Blender 4.4.3 commit date:2025-04-29, commit time:14:09, hash:802179c51ccc</authoring_tool>
    </contributor>
    <created>2025-08-04T16:05:53</created>
    <modified>2025-08-04T16:05:53</modified>
    <unit name="meter" meter="1"/>
    <up_axis>Z_UP</up_axis>
  </asset>
  <library_effects>
    <effect id="washing-machine_dirty_512-effect">
      <profile_COMMON>
        <newparam sid="washing-machine_dirty_512_png_001-surface">
          <surface type="2D">
            <init_from>washing-machine_dirty_512_png_001</init_from>
          </surface>
        </newparam>
        <newparam sid="washing-machine_dirty_512_png_001-sampler">
          <sampler2D>
            <source>washing-machine_dirty_512_png_001-surface</source>
          </sampler2D>
        </newparam>
        <technique sid="common">
          <lambert>
            <emission>
              <color sid="emission">0 0 0 1</color>
            </emission>
            <diffuse>
              <texture texture="washing-machine_dirty_512_png_001-sampler" texcoord="UVMap"/>
            </diffuse>
            <index_of_refraction>
              <float sid="ior">1.5</float>
            </index_of_refraction>
          </lambert>
        </technique>
      </profile_COMMON>
    </effect>
  </library_effects>
  <library_images>
    <image id="washing-machine_dirty_512_png_001" name="washing-machine_dirty_512_png_001">
      <init_from>washing-machine_dirty_512.png.001.png</init_from>
    </image>
  </library_images>
  <library_materials>
    <material id="washing-machine_dirty_512-material" name="washing-machine_dirty_512">
      <instance_effect url="#washing-machine_dirty_512-effect"/>
    </material>
  </library_materials>
  <library_geometries>
    <geometry id="washing-machine_dirty-mesh" name="washing-machine_dirty">
      <mesh>
        <source id="washing-machine_dirty-mesh-positions">
          <float_array id="washing-machine_dirty-mesh-positions-array" count="153">-0.2923122 -0.3048613 0.4535619 -0.37 -0.2843523 0.9899997 -0.2476612 -0.3048613 0.4535619 0.37 -0.2843523 0.9899997 -0.2923122 -0.3048613 0.5873712 -0.37 -0.2843521 3.61039e-7 -0.2476612 -0.3048613 0.5873712 0.37 -0.2843521 3.61039e-7 0.2195084 -0.2250672 0.5204667 0.177586 -0.2250673 0.6495454 0.06783181 -0.2250674 0.7293205 -0.06783187 -0.2250674 0.7293205 -0.177586 -0.2250673 0.6495454 -0.177586 -0.2250671 0.3913879 -0.06783181 -0.2250671 0.3116129 0.06783187 -0.2250671 0.3116129 0.1775861 -0.2250671 0.3913879 -0.37 -0.2843522 0.5204666 0.37 -0.2843522 0.5204666 0.2289518 -0.284352 0.6868807 0.2830001 -0.284352 0.5204666 0.08745181 -0.2843521 0.7897303 -0.08745181 -0.2843521 0.7897303 -0.2289519 -0.284352 0.6868807 -0.2289518 -0.2843518 0.3540524 -0.08745181 -0.2843518 0.2512029 0.08745181 -0.2843518 0.2512029 0.2289519 -0.2843519 0.3540525 -0.37 0.3399996 0.9900001 0.37 0.3399996 0.9900001 -0.37 0.3399997 7.37757e-7 0.37 0.3399997 7.37757e-7 0.2195084 0.3015964 0.5204669 0.177586 0.3015964 0.6495457 0.06783181 0.3015962 0.7293207 -0.06783187 0.3015964 0.7293207 -0.177586 0.3015964 0.6495457 -0.2195084 0.3015964 0.5204669 -0.177586 0.3015965 0.3913882 -0.06783181 0.3015966 0.3116132 0.06783187 0.3015966 0.3116132 0.1775861 0.3015965 0.3913882 -0.2923122 -0.284352 0.5204666 -0.2923122 -0.284352 0.4535619 -0.2923122 -0.284352 0.5873712 -0.2612707 -0.284352 0.5873712 -0.2476612 -0.2716443 0.5873712 -0.2612707 -0.284352 0.4535619 -0.2476612 -0.2716442 0.4535619 -0.2195084 -0.2250672 0.5204666 -0.2476612 -0.3048613 0.5204666</float_array>
          <technique_common>
            <accessor source="#washing-machine_dirty-mesh-positions-array" count="51" stride="3">
              <param name="X" type="float"/>
              <param name="Y" type="float"/>
              <param name="Z" type="float"/>
            </accessor>
          </technique_common>
        </source>
        <source id="washing-machine_dirty-mesh-normals">
          <float_array id="washing-machine_dirty-mesh-normals-array" count="294">0 -1 0 -1 0 0 0 0 1 0 -1.45311e-6 -1 0.921722 -3.4798e-7 -0.3878511 0 -1 -6.60759e-7 -1.70393e-7 -1 -3.54848e-7 0 -1 -7.33994e-7 -2.74044e-6 -1 -1.24822e-6 -2.05398e-6 -1 -2.29043e-7 -9.85408e-7 -1 1.96656e-7 0 -1 1.30502e-6 8.69528e-7 -1 3.26995e-7 9.6008e-7 -1 -5.86661e-7 3.06893e-6 -1 0 -0.6663049 -0.7135876 -0.2164037 -0.4118472 -0.7136709 -0.5666179 -1.41937e-7 -0.7137222 -0.7004289 0.4118474 -0.7136703 -0.5666185 0.6663052 -0.7135872 -0.2164037 0.6663057 -0.713587 0.2164032 0.4118471 -0.7136716 0.5666171 -1.62214e-7 -0.7137233 0.7004278 -0.4118472 -0.713671 0.5666177 -0.6663053 -0.7135876 0.2164028 0 6.03375e-7 -1 -1 0 0 0 -5.72799e-7 1 1 0 0 -1 0 0 -1 0 0 0 1 1.8062e-7 1 0 0 1 0 0 0 6.03375e-7 -1 0 1 1.8062e-7 0 -5.72799e-7 1 0 4.52696e-7 -1 -0.9510953 -2.08476e-7 0.3088977 0.5879488 -4.95248e-7 0.8088982 0.587949 3.6492e-7 -0.808898 -0.9510951 1.39837e-7 -0.3088983 0 -6.79044e-7 1 0.9510952 1.75902e-7 -0.3088978 -0.5879493 4.57731e-7 -0.8088978 -0.5879489 -5.03504e-7 0.8088981 0.9510952 -1.74796e-7 0.3088981 0 -1 -3.7358e-7 0.9217216 0 0.3878519 0 0 1 8.37753e-7 -8.972e-7 -1 0 -1.45311e-6 -1 0 0 1 -1 0 0 -1 0 0 0 -1 0 0 -1 0 0.9430265 -0.3327175 0 0.6663047 -0.7135877 -0.2164037 0.6663049 -0.7135878 0.216403 0 -1 -7.44056e-7 -1.34264e-6 -1 0 -2.74044e-6 -1 3.52789e-7 0 -1 1.30502e-6 3.06893e-6 -1 0 2.87168e-6 -1 -2.29043e-7 1.8079e-6 -1 0 0 -1 -5.98985e-7 0 -1 -6.50549e-7 3.12359e-6 -1 0 -0.6663054 -0.7135869 -0.2164043 -0.4118472 -0.7136706 -0.5666183 -1.21613e-7 -0.7137222 -0.7004289 0.4118474 -0.7136707 -0.566618 0.6663051 -0.7135874 -0.2164037 0.4118471 -0.7136712 0.5666174 0 -0.7137231 0.700428 -0.4118472 -0.7136716 0.566617 -0.6663054 -0.7135874 0.216403 0 4.52696e-7 -1 -0.9510954 -1.39837e-7 0.3088975 0.587949 -5.49277e-7 0.8088981 0.5879492 4.57731e-7 -0.8088978 -0.9510951 1.74796e-7 -0.3088982 2.19678e-7 -6.22457e-7 1 0.9510953 1.74796e-7 -0.3088978 -0.587949 3.66185e-7 -0.808898 -0.587949 -5.49277e-7 0.808898 0.9510952 -1.92276e-7 0.3088982 0 -1 -3.73579e-7 0 -1 -9.2354e-7 0 -1 -4.6177e-7 -8.78712e-7 -1 -2.70325e-6 0 -1 0 0 -1 -4.6177e-7 0 -1 -9.23539e-7 0.9430266 -0.3327176 0 0.666305 -0.7135877 0.2164032</float_array>
          <technique_common>
            <accessor source="#washing-machine_dirty-mesh-normals-array" count="98" stride="3">
              <param name="X" type="float"/>
              <param name="Y" type="float"/>
              <param name="Z" type="float"/>
            </accessor>
          </technique_common>
        </source>
        <source id="washing-machine_dirty-mesh-map-0">
          <float_array id="washing-machine_dirty-mesh-map-0-array" count="588">0.09179687 0.8769531 0.1054687 0.8554688 0.1054687 0.8769531 0.09179687 0.8769531 0.08398437 0.8769531 0.08398437 0.8554688 0.1054687 0.8769531 0.1054687 0.8867188 0.1015625 0.8828125 0.09179687 0.8320313 0.09179687 0.8261719 0.1015625 0.8261719 0.1289062 0.8066406 0.1054687 0.8320313 0.1054687 0.8222656 0.2714844 0.6523438 0.3183594 0.6855469 0.2226562 0.7519531 0.4648438 0.7519531 0.3183594 0.6855469 0.375 0.6855469 0.375 0.6855469 0.4199219 0.6523438 0.4648438 0.7519531 0.4648438 0.5976563 0.4199219 0.6523438 0.4375 0.5976563 0.4648438 0.5976563 0.4199219 0.5429688 0.4648438 0.4257813 0.4199219 0.5429688 0.3730469 0.5078125 0.4648438 0.4257813 0.4648438 0.4257813 0.3144531 0.5078125 0.2226562 0.4257813 0.3144531 0.5078125 0.2695313 0.5429688 0.2226562 0.4257813 0.2695313 0.5429688 0.2578125 0.5761719 0.2480468 0.5761719 0.2226562 0.5996094 0.25 0.5976563 0.25 0.6210938 0.3964844 0.6367188 0.4375 0.5976563 0.4199219 0.6523438 0.3652344 0.6601563 0.4199219 0.6523438 0.375 0.6855469 0.3652344 0.6601563 0.3183594 0.6855469 0.3261719 0.6601563 0.3261719 0.6601563 0.2714844 0.6523438 0.2929688 0.6347656 0.265625 0.6191406 0.2929688 0.6347656 0.2714844 0.6523438 0.265625 0.5761719 0.2578125 0.5761719 0.2695313 0.5429688 0.3242188 0.5351563 0.2695313 0.5429688 0.3144531 0.5078125 0.3242188 0.5351563 0.3730469 0.5078125 0.3652344 0.5351563 0.3652344 0.5351563 0.4199219 0.5429688 0.3964844 0.5605469 0.3964844 0.5605469 0.4375 0.5976563 0.4101563 0.5996094 0.01367187 0.1425781 0.2167968 0.1425781 0.2167968 0.3828125 0.2226562 0.5996094 0.2226562 0.7519531 0.01367187 0.7519531 0.4648438 0.7519531 0.4648438 0.953125 0.2226562 0.953125 0.4648438 0.5976563 0.6699219 0.4257813 0.6699219 0.75 0.2226562 0.5996094 0.01367187 0.7519531 0.01367187 0.4257813 0.2226562 0.4257813 0.2226562 0.5996094 0.01367187 0.4257813 0.5371094 0.1425781 0.5371094 0.3828125 0.2167968 0.3828125 0.4648438 0.5976563 0.4648438 0.4257813 0.6699219 0.4257813 0.4648438 0.7519531 0.4648438 0.5976563 0.6699219 0.75 0.01367187 0.3828125 0.01367187 0.1425781 0.2167968 0.3828125 0.2167968 0.1425781 0.5371094 0.1425781 0.2167968 0.3828125 0.2226562 0.7519531 0.4648438 0.7519531 0.2226562 0.953125 0.9433594 0.3828125 0.9863281 0.2109375 0.9863281 0.3828125 0.6796875 0.3828125 0.6347656 0.2109375 0.6796875 0.2109375 0.8105469 0.3828125 0.7675781 0.2109375 0.8105469 0.2109375 0.9433594 0.3828125 0.8984375 0.2109375 0.9433594 0.2109375 0.5917969 0.3828125 0.6347656 0.2109375 0.6347656 0.3828125 0.7226563 0.3828125 0.7675781 0.2109375 0.7675781 0.3828125 0.8984375 0.3828125 0.8554688 0.2109375 0.8984375 0.2109375 0.546875 0.3828125 0.5917969 0.2109375 0.5917969 0.3828125 0.6796875 0.3828125 0.7226563 0.2109375 0.7226563 0.3828125 0.8105469 0.3828125 0.8554688 0.2109375 0.8554688 0.3828125 0.5195313 0.8945313 0.5058594 0.8535156 0.5546875 0.7871094 0.1054687 0.8867188 0.1054687 0.8769531 0.1289062 0.9023438 0.09179687 0.8769531 0.1054687 0.8769531 0.1015625 0.8828125 0.1054687 0.8222656 0.1054687 0.8320313 0.1015625 0.8261719 0.1054687 0.8320313 0.09179687 0.8320313 0.1015625 0.8261719 0.09179687 0.8828125 0.09179687 0.8769531 0.1015625 0.8828125 0.09179687 0.8320313 0.09179687 0.8769531 0.08398437 0.8554688 0.08398437 0.8320313 0.09179687 0.8320313 0.08398437 0.8554688 0.09179687 0.8320313 0.1054687 0.8320313 0.1054687 0.8554688 0.09179687 0.8769531 0.09179687 0.8320313 0.1054687 0.8554688 0.1054687 0.8554688 0.1328125 0.8554688 0.1054687 0.8769531 0.2597656 0.6210938 0.265625 0.6191406 0.2714844 0.6523438 0.265625 0.5761719 0.2910156 0.5585938 0.2792969 0.5996094 0.4648438 0.7519531 0.2226562 0.7519531 0.3183594 0.6855469 0.4648438 0.5976563 0.4648438 0.7519531 0.4199219 0.6523438 0.4648438 0.5976563 0.4375 0.5976563 0.4199219 0.5429688 0.4648438 0.4257813 0.3730469 0.5078125 0.3144531 0.5078125 0.2480468 0.5761719 0.25 0.5976563 0.2226562 0.5996094 0.2226562 0.5996094 0.2226562 0.4257813 0.2480468 0.5761719 0.2226562 0.4257813 0.2695313 0.5429688 0.2480468 0.5761719 0.25 0.6210938 0.2597656 0.6210938 0.2714844 0.6523438 0.2714844 0.6523438 0.2226562 0.7519531 0.25 0.6210938 0.2226562 0.7519531 0.2226562 0.5996094 0.25 0.6210938 0.3964844 0.6367188 0.4101563 0.5996094 0.4375 0.5976563 0.3652344 0.6601563 0.3964844 0.6367188 0.4199219 0.6523438 0.3652344 0.6601563 0.375 0.6855469 0.3183594 0.6855469 0.3261719 0.6601563 0.3183594 0.6855469 0.2714844 0.6523438 0.265625 0.6191406 0.2792969 0.5996094 0.2929688 0.6347656 0.3242188 0.5351563 0.2910156 0.5585938 0.2695313 0.5429688 0.3242188 0.5351563 0.3144531 0.5078125 0.3730469 0.5078125 0.3652344 0.5351563 0.3730469 0.5078125 0.4199219 0.5429688 0.3964844 0.5605469 0.4199219 0.5429688 0.4375 0.5976563 0.9433594 0.3828125 0.9433594 0.2109375 0.9863281 0.2109375 0.6796875 0.3828125 0.6347656 0.3828125 0.6347656 0.2109375 0.8105469 0.3828125 0.7675781 0.3828125 0.7675781 0.2109375 0.9433594 0.3828125 0.8984375 0.3828125 0.8984375 0.2109375 0.5917969 0.3828125 0.5917969 0.2109375 0.6347656 0.2109375 0.7226563 0.3828125 0.7226563 0.2109375 0.7675781 0.2109375 0.8984375 0.3828125 0.8554688 0.3828125 0.8554688 0.2109375 0.546875 0.3828125 0.546875 0.2109375 0.5917969 0.2109375 0.6796875 0.3828125 0.6796875 0.2109375 0.7226563 0.2109375 0.8105469 0.3828125 0.8105469 0.2109375 0.8554688 0.2109375 0.5058594 0.8535156 0.5195313 0.8125 0.5546875 0.7871094 0.5546875 0.7871094 0.5976563 0.7871094 0.5546875 0.9199219 0.5976563 0.7871094 0.6308594 0.8125 0.5546875 0.9199219 0.6308594 0.8125 0.6445313 0.8535156 0.6308594 0.8945313 0.6308594 0.8945313 0.5976563 0.9199219 0.6308594 0.8125 0.5976563 0.9199219 0.5546875 0.9199219 0.6308594 0.8125 0.5546875 0.9199219 0.5195313 0.8945313 0.5546875 0.7871094 0.1054687 0.8554688 0.1054687 0.8320313 0.1328125 0.8554688 0.265625 0.5761719 0.2695313 0.5429688 0.2910156 0.5585938</float_array>
          <technique_common>
            <accessor source="#washing-machine_dirty-mesh-map-0-array" count="294" stride="2">
              <param name="S" type="float"/>
              <param name="T" type="float"/>
            </accessor>
          </technique_common>
        </source>
        <vertices id="washing-machine_dirty-mesh-vertices">
          <input semantic="POSITION" source="#washing-machine_dirty-mesh-positions"/>
        </vertices>
        <triangles material="washing-machine_dirty_512-material" count="98">
          <input semantic="VERTEX" source="#washing-machine_dirty-mesh-vertices" offset="0"/>
          <input semantic="NORMAL" source="#washing-machine_dirty-mesh-normals" offset="1"/>
          <input semantic="TEXCOORD" source="#washing-machine_dirty-mesh-map-0" offset="2" set="0"/>
          <p>4 0 0 50 0 1 6 0 2 4 1 3 44 1 4 42 1 5 6 2 6 46 2 7 45 2 8 0 3 9 43 3 10 47 3 11 49 4 12 2 4 13 48 4 14 23 5 15 22 5 16 1 5 17 3 6 18 22 6 19 21 6 20 21 7 21 19 7 22 3 7 23 18 8 24 19 8 25 20 8 26 18 9 27 27 9 28 7 9 29 27 10 30 26 10 31 7 10 32 7 11 33 25 11 34 5 11 35 25 12 36 24 12 37 5 12 38 24 13 39 47 13 40 43 13 41 17 14 42 42 14 43 44 14 44 9 15 45 20 15 46 19 15 47 10 16 48 19 16 49 21 16 50 10 17 51 22 17 52 11 17 53 11 18 54 23 18 55 12 18 56 46 19 57 12 19 58 23 19 59 48 20 60 47 20 61 24 20 62 14 21 63 24 21 64 25 21 65 14 22 66 26 22 67 15 22 68 15 23 69 27 23 70 16 23 71 16 24 72 20 24 73 8 24 74 5 25 75 30 25 76 31 25 77 17 26 78 1 26 79 28 26 80 3 27 81 29 27 82 28 27 83 18 28 84 31 28 85 29 28 86 17 29 87 28 29 88 30 29 89 5 30 90 17 30 91 30 30 92 28 31 93 29 31 94 31 31 95 18 32 96 7 32 97 31 32 98 3 33 99 18 33 100 29 33 101 7 34 102 5 34 103 31 34 104 30 35 105 28 35 106 31 35 107 1 36 108 3 36 109 28 36 110 11 37 111 34 37 112 10 37 113 16 38 114 32 38 115 41 38 116 13 39 117 39 39 118 38 39 119 11 40 120 36 40 121 35 40 122 9 41 123 32 41 124 8 41 125 15 42 126 39 42 127 14 42 128 12 43 129 37 43 130 36 43 131 10 44 132 33 44 133 9 44 134 16 45 135 40 45 136 15 45 137 13 46 138 37 46 139 49 46 140 38 47 141 39 47 142 41 47 143 46 48 144 6 48 145 49 48 146 4 49 147 6 49 148 45 49 149 48 50 150 2 50 151 47 50 152 2 51 153 0 51 154 47 51 155 44 52 156 4 52 157 45 52 158 0 53 159 4 53 160 42 53 161 43 54 162 0 54 163 42 54 164 0 55 165 2 55 166 50 55 167 4 56 168 0 56 169 50 56 170 50 57 171 49 57 172 6 57 173 45 58 174 46 58 175 23 58 176 48 59 177 13 59 178 49 59 179 3 60 180 1 60 181 22 60 182 18 61 183 3 61 184 19 61 185 18 62 186 20 62 187 27 62 188 7 63 189 26 63 190 25 63 191 43 64 192 42 64 193 17 64 194 17 65 195 5 65 196 43 65 197 5 66 198 24 66 199 43 66 200 44 67 201 45 67 202 23 67 203 23 68 204 1 68 205 44 68 206 1 69 207 17 69 208 44 69 209 9 70 210 8 70 211 20 70 212 10 71 213 9 71 214 19 71 215 10 72 216 21 72 217 22 72 218 11 73 219 22 73 220 23 73 221 46 74 222 49 74 223 12 74 224 14 75 225 13 75 226 24 75 227 14 76 228 25 76 229 26 76 230 15 77 231 26 77 232 27 77 233 16 78 234 27 78 235 20 78 236 11 79 237 35 79 238 34 79 239 16 80 240 8 80 241 32 80 242 13 81 243 14 81 244 39 81 245 11 82 246 12 82 247 36 82 248 9 83 249 33 83 250 32 83 251 15 84 252 40 84 253 39 84 254 12 85 255 49 85 256 37 85 257 10 86 258 34 86 259 33 86 260 16 87 261 41 87 262 40 87 263 13 88 264 38 88 265 37 88 266 39 89 267 40 89 268 41 89 269 41 90 270 32 90 271 37 90 272 32 91 273 33 91 274 37 91 275 33 92 276 34 92 277 35 92 278 35 93 279 36 93 280 33 93 281 36 94 282 37 94 283 33 94 284 37 95 285 38 95 286 41 95 287 50 96 288 2 96 289 49 96 290 48 97 291 24 97 292 13 97 293</p>
        </triangles>
      </mesh>
    </geometry>
  </library_geometries>
  <library_visual_scenes>
    <visual_scene id="Scene" name="Scene">
      <node id="washing-machine_dirty-col" name="washing-machine_dirty-col" type="NODE">
        <matrix sid="transform">1 0 0 0 0 1 0 0 0 0 1 0 0 0 0 1</matrix>
        <instance_geometry url="#washing-machine_dirty-mesh" name="washing-machine_dirty-col">
          <bind_material>
            <technique_common>
              <instance_material symbol="washing-machine_dirty_512-material" target="#washing-machine_dirty_512-material">
                <bind_vertex_input semantic="UVMap" input_semantic="TEXCOORD" input_set="0"/>
              </instance_material>
            </technique_common>
          </bind_material>
        </instance_geometry>
      </node>
    </visual_scene>
  </library_visual_scenes>
  <scene>
    <instance_visual_scene url="#Scene"/>
  </scene>
</COLLADA>