<?xml version="1.0" encoding="utf-8"?>
<COLLADA xmlns="http://www.collada.org/2005/11/COLLADASchema" version="1.4.1" xmlns:xsi="http://www.w3.org/2001/XMLSchema-instance">
  <asset>
    <contributor>
      <author>Blender User</author>
      <authoring_tool>Blender 4.4.3 commit date:2025-04-29, commit time:14:09, hash:802179c51ccc</authoring_tool>
    </contributor>
    <created>2025-08-04T16:03:37</created>
    <modified>2025-08-04T16:03:37</modified>
    <unit name="meter" meter="1"/>
    <up_axis>Z_UP</up_axis>
  </asset>
  <library_effects>
    <effect id="washing-machine_clean_512-effect">
      <profile_COMMON>
        <newparam sid="washing-machine_clean_512_png_001-surface">
          <surface type="2D">
            <init_from>washing-machine_clean_512_png_001</init_from>
          </surface>
        </newparam>
        <newparam sid="washing-machine_clean_512_png_001-sampler">
          <sampler2D>
            <source>washing-machine_clean_512_png_001-surface</source>
          </sampler2D>
        </newparam>
        <technique sid="common">
          <lambert>
            <emission>
              <color sid="emission">0 0 0 1</color>
            </emission>
            <diffuse>
              <texture texture="washing-machine_clean_512_png_001-sampler" texcoord="UVMap"/>
            </diffuse>
            <index_of_refraction>
              <float sid="ior">1.5</float>
            </index_of_refraction>
          </lambert>
        </technique>
      </profile_COMMON>
    </effect>
  </library_effects>
  <library_images>
    <image id="washing-machine_clean_512_png_001" name="washing-machine_clean_512_png_001">
      <init_from>washing-machine_clean_512.png.001.png</init_from>
    </image>
  </library_images>
  <library_materials>
    <material id="washing-machine_clean_512-material" name="washing-machine_clean_512">
      <instance_effect url="#washing-machine_clean_512-effect"/>
    </material>
  </library_materials>
  <library_geometries>
    <geometry id="washing-machine-door_clean-mesh" name="washing-machine-door_clean">
      <mesh>
        <source id="washing-machine-door_clean-mesh-positions">
          <float_array id="washing-machine-door_clean-mesh-positions-array" count="210">0.5025085 0 0 0.4605861 0 0.1290786 0.3508319 0 0.2088537 0.2151682 0 0.2088537 0.105414 0 0.1290786 0.06349164 0 0 0.105414 0 -0.1290787 0.2151682 0 -0.2088537 0.3508319 0 -0.2088537 0.4605862 0 -0.1290787 0.5119519 0 0.166414 0.5660001 0 0 0.3704519 0 0.2692637 0.1955482 0 0.2692637 0.05404818 0 0.166414 0 0 0 0.05404824 0 -0.166414 0.1955482 0 -0.2692636 0.3704519 0 -0.2692636 0.5119521 0 -0.166414 0.5025085 -0.05564713 0 0.4605861 -0.05564713 0.1290787 0.3508319 -0.05564713 0.2088538 0.2151682 -0.05564713 0.2088538 0.105414 -0.05564713 0.1290787 0.06349164 -0.05564713 0 0.105414 -0.05564713 -0.1290787 0.2151682 -0.05564713 -0.2088537 0.3508319 -0.05564713 -0.2088537 0.4605862 -0.05564713 -0.1290786 0.5119519 -0.05564713 0.166414 0.5660001 -0.05564713 0 0.3704519 -0.05564713 0.2692637 0.1955482 -0.05564713 0.2692637 0.05404818 -0.05564713 0.166414 0 -0.05564713 0 0.05404824 -0.05564713 -0.166414 0.1955482 -0.05564713 -0.2692636 0.3704519 -0.05564713 -0.2692636 0.5119521 -0.05564713 -0.166414 0.2830001 -0.05139869 0 0.2830001 -0.03628551 0 0.4605861 -0.01689517 0.1290786 0.5025085 -0.01689517 0 0.5025085 -0.03875201 0 0.4605861 -0.03875195 0.1290787 0.4605862 -0.01689517 -0.1290787 0.4605862 -0.03875195 -0.1290786 0.3508319 -0.01689517 -0.2088537 0.3508319 -0.03875195 -0.2088537 0.2151682 -0.01689517 -0.2088537 0.2151682 -0.03875195 -0.2088537 0.105414 -0.01689517 -0.1290787 0.105414 -0.03875195 -0.1290786 0.06349164 -0.01689517 0 0.06349164 -0.03875195 0 0.105414 -0.01689517 0.1290786 0.105414 -0.03875195 0.1290787 0.2151682 -0.01689517 0.2088537 0.2151682 -0.03875195 0.2088538 0.3508319 -0.01689517 0.2088537 0.3508319 -0.03875195 0.2088538 0.4259441 0 0.228929 0.4259441 -0.05564713 0.228929 0.5378016 0 0.08682334 0.5378016 -0.05564713 0.08682334 0.4848601 0 0.2525487 0.4848601 -0.0205087 0.2525486 0.5718449 0 0.1534857 0.5718449 -0.02050876 0.1534857</float_array>
          <technique_common>
            <accessor source="#washing-machine-door_clean-mesh-positions-array" count="70" stride="3">
              <param name="X" type="float"/>
              <param name="Y" type="float"/>
              <param name="Z" type="float"/>
            </accessor>
          </technique_common>
        </source>
        <source id="washing-machine-door_clean-mesh-normals">
          <float_array id="washing-machine-door_clean-mesh-normals-array" count="408">0 1 0 0 1 0 0 1 -4.93335e-7 2.90099e-7 1 -3.99117e-7 0 1 2.30885e-7 0 1 0 0 1 0 0 1 -4.93335e-7 0 1 0 0 1 2.30885e-7 0 -1 0 -4.63352e-7 -1 -1.60755e-7 0 -1 -4.93335e-7 0 -1 0 0 -1 0 -4.6939e-7 -1 -1.52449e-7 -2.90099e-7 -1 -3.99117e-7 0 -1 -4.93335e-7 2.90099e-7 -1 -3.99116e-7 0 -1 0 0 0 1 0.9510955 -1.65433e-7 -0.3088972 -0.5879489 0 -0.808898 -0.5879491 0 0.808898 1.22793e-6 1 1.07821e-6 0 5.35559e-7 -1 -0.9510952 2.86954e-7 0.3088979 0.5879494 0 0.8088978 0.5879488 4.33213e-7 -0.8088982 -0.9510951 0 -0.3088982 0 0 -1 0 0 -1 0.5879492 0 -0.8088979 0.9510952 0 -0.3088979 0.9510951 0 0.3088982 0.5879489 -2.85372e-6 0.8088981 0 -1.76395e-6 1 -0.587949 0 0.808898 -0.9510952 0 0.3088979 -0.9510951 0 -0.3088983 -0.5879492 0 -0.8088978 -0.9510953 6.09253e-7 0.3088975 -0.5879489 0 0.8088982 0 0 1 0.587949 1.42686e-6 0.808898 0.9510951 0 0.3088982 0.9510951 0 -0.308898 0.5879492 0 -0.8088979 -0.951095 0 -0.3088986 -0.5879492 0 -0.8088978 -0.08795672 0.9957146 -0.02856695 0.05750817 -0.9981703 0.01867783 -0.08795672 0.9957146 0.02856689 0.05750817 -0.9981703 -0.01867777 -0.05436038 0.9957166 0.07478892 0.03554213 -0.9981712 -0.04889869 0 0.9957178 0.0924443 0 -0.9981718 -0.0604422 0.05436044 0.9957166 0.07478892 -0.03554213 -0.9981712 -0.04889869 0.0879569 0.9957146 0.02856677 -0.05750846 -0.9981703 -0.01867747 0.08795684 0.9957146 -0.02856671 -0.05750846 -0.9981703 0.01867741 0.05436044 0.9957166 -0.07478886 -0.03554213 -0.9981712 0.04889869 0 0.9957178 -0.0924443 0 -0.9981718 0.06044214 -0.05436044 0.9957166 -0.07478886 0.03554213 -0.9981712 0.04889869 1.07021e-6 1 3.47587e-7 0.9510957 -3.20836e-7 0.3088968 -0.3721133 0 0.9281874 0.8905893 0 -0.4548084 0.7514299 -2.06677e-6 0.6598129 6.52046e-7 1 8.97082e-7 0.5213324 -0.7201797 0.4577704 0.5257561 -0.8333203 0.1707565 0.3217365 -0.8369898 0.442644 0 1 0 0 1 0 0 1 0 0 1 0 1.70393e-7 1 0 2.90099e-7 1 -3.99116e-7 4.69389e-7 1 -1.52449e-7 0 1 0 -1.19706e-7 1 -4.54457e-7 0 1 -4.93335e-7 1.19706e-7 1 -4.54457e-7 0 1 1.44883e-7 -4.69389e-7 -1 -1.5245e-7 -3.15729e-7 -1 1.28342e-7 1.44387e-7 -1 -5.4023e-7 0 -1 0 0 -1 -4.93335e-7 1.19706e-7 -1 -4.54457e-7 0 -1 0 0 -1 2.30885e-7 -2.90099e-7 -1 -3.99117e-7 0 -1 -4.93335e-7 2.90099e-7 -1 -3.99117e-7 3.64081e-7 -1 -2.97332e-7 0 0 1 0.9510954 3.30865e-7 -0.3088973 -0.587949 4.33213e-7 -0.8088979 -0.5879493 8.66425e-7 0.8088977 0 5.35559e-7 -1 -0.9510952 0 0.308898 0.5879493 0 0.8088977 0.587949 -4.33213e-7 -0.808898 -0.9510951 0 -0.3088982 0 0 -1 0 0 -1 0.5879492 0 -0.8088979 0.9510952 0 -0.3088979 0.9510951 -1.08976e-6 0.3088981 0.587949 -1.42686e-6 0.808898 2.19678e-7 0 1 -0.587949 0 0.808898 -0.9510952 0 0.3088979 -0.9510951 0 -0.3088983 -0.5879492 0 -0.8088978 -0.9510952 0 0.3088976 -0.5879487 1.42686e-6 0.8088982 0 0 1 0.5879489 0 0.8088981 0.9510951 5.44882e-7 0.3088981 0.9510952 0 -0.308898 0.5879492 0 -0.8088979 -0.951095 0 -0.3088986 -0.5879492 0 -0.8088978 0.9510955 0 0.308897 -0.3721141 -2.69761e-6 0.928187 0.8905892 0 -0.4548084 0.7514297 0 0.6598132</float_array>
          <technique_common>
            <accessor source="#washing-machine-door_clean-mesh-normals-array" count="136" stride="3">
              <param name="X" type="float"/>
              <param name="Y" type="float"/>
              <param name="Z" type="float"/>
            </accessor>
          </technique_common>
        </source>
        <source id="washing-machine-door_clean-mesh-map-0">
          <float_array id="washing-machine-door_clean-mesh-map-0-array" count="816">0.7167969 0.6132813 0.7050781 0.578125 0.7304688 0.578125 0.7617188 0.6699219 0.7265625 0.6445313 0.7480469 0.6289063 0.8554688 0.6875 0.7929688 0.6621094 0.8476563 0.6621094 0.9121094 0.6445313 0.8476563 0.6621094 0.8925781 0.6289063 0.9335938 0.578125 0.8925781 0.6289063 0.9082031 0.578125 0.8925781 0.5253906 0.9335938 0.578125 0.9082031 0.578125 0.8476563 0.4921875 0.9121094 0.5097656 0.8925781 0.5253906 0.7851563 0.46875 0.8476563 0.4921875 0.7929688 0.4921875 0.7265625 0.5097656 0.7929688 0.4921875 0.7480469 0.5253906 0.7050781 0.578125 0.7480469 0.5253906 0.7304688 0.578125 0.9101563 0.8164063 0.9355469 0.8164063 0.9238281 0.8515625 0.8925781 0.8671875 0.9121094 0.8828125 0.8789063 0.9082031 0.8496094 0.9003906 0.7871094 0.9257813 0.7949219 0.9023438 0.7949219 0.9023438 0.7285156 0.8847656 0.75 0.8691406 0.75 0.8691406 0.7050781 0.8183594 0.7324219 0.8183594 0.7480469 0.765625 0.7050781 0.8183594 0.7265625 0.75 0.7929688 0.7324219 0.7265625 0.75 0.7832031 0.7070313 0.7929688 0.7324219 0.8554688 0.7070313 0.8476563 0.7324219 0.8476563 0.7324219 0.9121094 0.7480469 0.8925781 0.7636719 0.8925781 0.7636719 0.9355469 0.8164063 0.9101563 0.8164063 0.1113281 0.9648438 0.04101562 0.9863281 0.04101562 0.9648438 0.6074219 0.9648438 0.5371094 0.9863281 0.5371094 0.9648438 0.3945313 0.9648438 0.3242188 0.9863281 0.3242188 0.9648438 0.1113281 0.9648438 0.1816406 0.9863281 0.1113281 0.9863281 0.7382813 0.6796875 0.703125 0.640625 0.7265625 0.6445313 0.4667969 0.9648438 0.3945313 0.9863281 0.3945313 0.9648438 0.1816406 0.9648438 0.2539063 0.9863281 0.1816406 0.9863281 0.04101562 0.9648438 0.01367187 0.9863281 0.01367187 0.9648438 0.5371094 0.9648438 0.4667969 0.9863281 0.4667969 0.9648438 0.3242188 0.9648438 0.2539063 0.9863281 0.2539063 0.9648438 0.01367187 0.4003906 0.06835937 0.3925781 0.06835937 0.4003906 0.5625 0.4101563 0.5078125 0.4160156 0.5078125 0.4101563 0.06835937 0.4101563 0.01367187 0.4160156 0.01367187 0.4101563 0.1230468 0.4101563 0.06835937 0.4160156 0.06835937 0.4101563 0.1230468 0.4101563 0.1777343 0.4160156 0.1230468 0.4160156 0.2324218 0.4101563 0.1777343 0.4160156 0.1777343 0.4101563 0.2871094 0.4101563 0.2324218 0.4160156 0.2324218 0.4101563 0.34375 0.4101563 0.2871094 0.4160156 0.2871094 0.4101563 0.3984375 0.4101563 0.34375 0.4160156 0.34375 0.4101563 0.453125 0.4101563 0.3984375 0.4160156 0.3984375 0.4101563 0.06835937 0.4003906 0.1230468 0.3925781 0.1230468 0.4003906 0.2324218 0.4003906 0.1777343 0.3925781 0.2324218 0.3925781 0.2324218 0.4003906 0.2871094 0.3925781 0.2871094 0.4003906 0.2871094 0.4003906 0.34375 0.3925781 0.34375 0.4003906 0.34375 0.4003906 0.3984375 0.3925781 0.3984375 0.4003906 0.3984375 0.4003906 0.453125 0.3925781 0.453125 0.4003906 0.453125 0.4003906 0.5078125 0.3925781 0.5078125 0.4003906 0.5078125 0.4003906 0.5625 0.3925781 0.5625 0.4003906 0.1230468 0.4003906 0.1777343 0.3925781 0.1777343 0.4003906 0.5078125 0.4101563 0.453125 0.4160156 0.453125 0.4101563 0.6367188 0.1152343 0.5644531 0.1679687 0.546875 0.1152343 0.8242188 0.1152343 0.8964844 0.0625 0.9140625 0.1152343 0.6367188 0.1152343 0.546875 0.1152343 0.5644531 0.0625 0.8242188 0.1152343 0.8515625 0.03125 0.8964844 0.0625 0.6367188 0.1152343 0.5644531 0.0625 0.609375 0.03125 0.8242188 0.1152343 0.796875 0.03125 0.8515625 0.03125 0.6367188 0.1152343 0.609375 0.03125 0.6640625 0.03125 0.8242188 0.1152343 0.7539063 0.0625 0.796875 0.03125 0.6367188 0.1152343 0.6640625 0.03125 0.7089844 0.0625 0.8242188 0.1152343 0.7363281 0.1152343 0.7539063 0.0625 0.6367188 0.1152343 0.7089844 0.0625 0.7265625 0.1152343 0.8242188 0.1152343 0.7539063 0.1679687 0.7363281 0.1152343 0.6367188 0.1152343 0.7265625 0.1152343 0.7089844 0.1679687 0.8242188 0.1152343 0.796875 0.2011718 0.7539063 0.1679687 0.6367188 0.1152343 0.7089844 0.1679687 0.6640625 0.2011718 0.8242188 0.1152343 0.8515625 0.2011718 0.796875 0.2011718 0.6367188 0.1152343 0.6640625 0.2011718 0.609375 0.2011718 0.8242188 0.1152343 0.8964844 0.1679687 0.8515625 0.2011718 0.6367188 0.1152343 0.609375 0.2011718 0.5644531 0.1679687 0.8242188 0.1152343 0.9140625 0.1152343 0.8964844 0.1679687 0.7167969 0.6132813 0.7265625 0.6445313 0.703125 0.640625 0.6074219 0.9648438 0.6445313 0.9863281 0.6074219 0.9863281 0.7285156 0.9726563 0.7539063 0.9648438 0.7539063 0.9863281 0.6445313 0.9648438 0.6757813 0.9726563 0.6445313 0.9863281 0.7285156 0.9726563 0.6757813 0.9648438 0.7285156 0.9648438 0.7265625 0.6445313 0.7617188 0.6699219 0.7382813 0.6796875 0.9414063 0.8808594 0.90625 0.9199219 0.9121094 0.8828125 0.9414063 0.8808594 0.9121094 0.8828125 0.9238281 0.8515625 0.8789063 0.9082031 0.9121094 0.8828125 0.90625 0.9199219 0.7304688 0.578125 0.7480469 0.6289063 0.7167969 0.6132813 0.7480469 0.6289063 0.7265625 0.6445313 0.7167969 0.6132813 0.7480469 0.6289063 0.7929688 0.6621094 0.7617188 0.6699219 0.7929688 0.6621094 0.7851563 0.6875 0.7617188 0.6699219 0.8554688 0.6875 0.7851563 0.6875 0.7929688 0.6621094 0.9121094 0.6445313 0.8554688 0.6875 0.8476563 0.6621094 0.9335938 0.578125 0.9121094 0.6445313 0.8925781 0.6289063 0.8925781 0.5253906 0.9121094 0.5097656 0.9335938 0.578125 0.8476563 0.4921875 0.8554688 0.46875 0.9121094 0.5097656 0.7851563 0.46875 0.8554688 0.46875 0.8476563 0.4921875 0.7265625 0.5097656 0.7851563 0.46875 0.7929688 0.4921875 0.7050781 0.578125 0.7265625 0.5097656 0.7480469 0.5253906 0.9121094 0.8828125 0.8925781 0.8671875 0.9238281 0.8515625 0.8925781 0.8671875 0.9101563 0.8164063 0.9238281 0.8515625 0.8574219 0.9257813 0.8496094 0.9003906 0.8789063 0.9082031 0.8496094 0.9003906 0.8925781 0.8671875 0.8789063 0.9082031 0.8496094 0.9003906 0.8574219 0.9257813 0.7871094 0.9257813 0.7949219 0.9023438 0.7871094 0.9257813 0.7285156 0.8847656 0.75 0.8691406 0.7285156 0.8847656 0.7050781 0.8183594 0.7480469 0.765625 0.7324219 0.8183594 0.7050781 0.8183594 0.7929688 0.7324219 0.7480469 0.765625 0.7265625 0.75 0.7929688 0.7324219 0.7832031 0.7070313 0.8554688 0.7070313 0.8476563 0.7324219 0.8554688 0.7070313 0.9121094 0.7480469 0.8925781 0.7636719 0.9121094 0.7480469 0.9355469 0.8164063 0.1113281 0.9648438 0.1113281 0.9863281 0.04101562 0.9863281 0.6074219 0.9648438 0.6074219 0.9863281 0.5371094 0.9863281 0.3945313 0.9648438 0.3945313 0.9863281 0.3242188 0.9863281 0.1113281 0.9648438 0.1816406 0.9648438 0.1816406 0.9863281 0.4667969 0.9648438 0.4667969 0.9863281 0.3945313 0.9863281 0.1816406 0.9648438 0.2539063 0.9648438 0.2539063 0.9863281 0.04101562 0.9648438 0.04101562 0.9863281 0.01367187 0.9863281 0.5371094 0.9648438 0.5371094 0.9863281 0.4667969 0.9863281 0.3242188 0.9648438 0.3242188 0.9863281 0.2539063 0.9863281 0.01367187 0.4003906 0.01367187 0.3925781 0.06835937 0.3925781 0.5625 0.4101563 0.5625 0.4160156 0.5078125 0.4160156 0.06835937 0.4101563 0.06835937 0.4160156 0.01367187 0.4160156 0.1230468 0.4101563 0.1230468 0.4160156 0.06835937 0.4160156 0.1230468 0.4101563 0.1777343 0.4101563 0.1777343 0.4160156 0.2324218 0.4101563 0.2324218 0.4160156 0.1777343 0.4160156 0.2871094 0.4101563 0.2871094 0.4160156 0.2324218 0.4160156 0.34375 0.4101563 0.34375 0.4160156 0.2871094 0.4160156 0.3984375 0.4101563 0.3984375 0.4160156 0.34375 0.4160156 0.453125 0.4101563 0.453125 0.4160156 0.3984375 0.4160156 0.06835937 0.4003906 0.06835937 0.3925781 0.1230468 0.3925781 0.2324218 0.4003906 0.1777343 0.4003906 0.1777343 0.3925781 0.2324218 0.4003906 0.2324218 0.3925781 0.2871094 0.3925781 0.2871094 0.4003906 0.2871094 0.3925781 0.34375 0.3925781 0.34375 0.4003906 0.34375 0.3925781 0.3984375 0.3925781 0.3984375 0.4003906 0.3984375 0.3925781 0.453125 0.3925781 0.453125 0.4003906 0.453125 0.3925781 0.5078125 0.3925781 0.5078125 0.4003906 0.5078125 0.3925781 0.5625 0.3925781 0.1230468 0.4003906 0.1230468 0.3925781 0.1777343 0.3925781 0.5078125 0.4101563 0.5078125 0.4160156 0.453125 0.4160156 0.6074219 0.9648438 0.6445313 0.9648438 0.6445313 0.9863281 0.7285156 0.9726563 0.7285156 0.9648438 0.7539063 0.9648438 0.6445313 0.9648438 0.6757813 0.9648438 0.6757813 0.9726563 0.7285156 0.9726563 0.6757813 0.9726563 0.6757813 0.9648438</float_array>
          <technique_common>
            <accessor source="#washing-machine-door_clean-mesh-map-0-array" count="408" stride="2">
              <param name="S" type="float"/>
              <param name="T" type="float"/>
            </accessor>
          </technique_common>
        </source>
        <vertices id="washing-machine-door_clean-mesh-vertices">
          <input semantic="POSITION" source="#washing-machine-door_clean-mesh-positions"/>
        </vertices>
        <triangles material="washing-machine_clean_512-material" count="136">
          <input semantic="VERTEX" source="#washing-machine-door_clean-mesh-vertices" offset="0"/>
          <input semantic="NORMAL" source="#washing-machine-door_clean-mesh-normals" offset="1"/>
          <input semantic="TEXCOORD" source="#washing-machine-door_clean-mesh-map-0" offset="2" set="0"/>
          <p>64 0 0 11 0 1 0 0 2 62 1 3 10 1 4 1 1 5 13 2 6 2 2 7 3 2 8 14 3 9 3 3 10 4 3 11 15 4 12 4 4 13 5 4 14 6 5 15 15 5 16 5 5 17 7 6 18 16 6 19 6 6 20 18 7 21 7 7 22 8 7 23 19 8 24 8 8 25 9 8 26 11 9 27 9 9 28 0 9 29 20 10 30 31 10 31 65 10 32 21 11 33 30 11 34 63 11 35 22 12 36 33 12 37 23 12 38 23 13 39 34 13 40 24 13 41 24 14 42 35 14 43 25 14 44 26 15 45 35 15 46 36 15 47 27 16 48 36 16 49 37 16 50 27 17 51 38 17 52 28 17 53 28 18 54 39 18 55 29 18 56 29 19 57 31 19 58 20 19 59 13 20 60 32 20 61 12 20 62 11 21 63 39 21 64 19 21 65 17 22 66 36 22 67 16 22 68 13 23 69 34 23 70 33 23 71 66 24 72 68 24 73 10 24 74 18 25 75 37 25 76 17 25 77 14 26 78 35 26 79 34 26 80 12 27 81 63 27 82 62 27 83 19 28 84 38 28 85 18 28 86 16 29 87 35 29 88 15 29 89 58 30 90 2 30 91 60 30 92 23 31 93 61 31 94 22 31 95 24 32 96 59 32 97 23 32 98 25 33 99 57 33 100 24 33 101 25 34 102 53 34 103 55 34 104 27 35 105 53 35 106 26 35 107 28 36 108 51 36 109 27 36 110 29 37 111 49 37 112 28 37 113 20 38 114 47 38 115 29 38 116 21 39 117 44 39 118 20 39 119 60 40 120 1 40 121 42 40 122 46 41 123 0 41 124 9 41 125 46 42 126 8 42 127 48 42 128 48 43 129 7 43 130 50 43 131 50 44 132 6 44 133 52 44 134 52 45 135 5 45 136 54 45 137 54 46 138 4 46 139 56 46 140 56 47 141 3 47 142 58 47 143 42 48 144 0 48 145 43 48 146 22 49 147 45 49 148 21 49 149 41 50 150 42 50 151 43 50 152 40 51 153 44 51 154 45 51 155 41 52 156 43 52 157 46 52 158 40 53 159 47 53 160 44 53 161 41 54 162 46 54 163 48 54 164 40 55 165 49 55 166 47 55 167 41 56 168 48 56 169 50 56 170 40 57 171 51 57 172 49 57 173 41 58 174 50 58 175 52 58 176 40 59 177 53 59 178 51 59 179 41 60 180 52 60 181 54 60 182 40 61 183 55 61 184 53 61 185 41 62 186 54 62 187 56 62 188 40 63 189 57 63 190 55 63 191 41 64 192 56 64 193 58 64 194 40 65 195 59 65 196 57 65 197 41 66 198 58 66 199 60 66 200 40 67 201 61 67 202 59 67 203 41 68 204 60 68 205 42 68 206 40 69 207 45 69 208 61 69 209 64 70 210 10 70 211 68 70 212 11 71 213 65 71 214 31 71 215 67 72 216 62 72 217 63 72 218 64 73 219 69 73 220 65 73 221 67 74 222 68 74 223 66 74 224 10 75 225 62 75 226 66 75 227 69 76 228 67 76 229 30 76 230 69 77 231 30 77 232 65 77 233 63 78 234 30 78 235 67 78 236 0 79 237 1 79 238 64 79 239 1 80 240 10 80 241 64 80 242 1 81 243 2 81 244 62 81 245 2 82 246 12 82 247 62 82 248 13 83 249 12 83 250 2 83 251 14 84 252 13 84 253 3 84 254 15 85 255 14 85 256 4 85 257 6 86 258 16 86 259 15 86 260 7 87 261 17 87 262 16 87 263 18 88 264 17 88 265 7 88 266 19 89 267 18 89 268 8 89 269 11 90 270 19 90 271 9 90 272 30 91 273 21 91 274 65 91 275 21 92 276 20 92 277 65 92 278 32 93 279 22 93 280 63 93 281 22 94 282 21 94 283 63 94 284 22 95 285 32 95 286 33 95 287 23 96 288 33 96 289 34 96 290 24 97 291 34 97 292 35 97 293 26 98 294 25 98 295 35 98 296 27 99 297 26 99 298 36 99 299 27 100 300 37 100 301 38 100 302 28 101 303 38 101 304 39 101 305 29 102 306 39 102 307 31 102 308 13 103 309 33 103 310 32 103 311 11 104 312 31 104 313 39 104 314 17 105 315 37 105 316 36 105 317 13 106 318 14 106 319 34 106 320 18 107 321 38 107 322 37 107 323 14 108 324 15 108 325 35 108 326 12 109 327 32 109 328 63 109 329 19 110 330 39 110 331 38 110 332 16 111 333 36 111 334 35 111 335 58 112 336 3 112 337 2 112 338 23 113 339 59 113 340 61 113 341 24 114 342 57 114 343 59 114 344 25 115 345 55 115 346 57 115 347 25 116 348 26 116 349 53 116 350 27 117 351 51 117 352 53 117 353 28 118 354 49 118 355 51 118 356 29 119 357 47 119 358 49 119 359 20 120 360 44 120 361 47 120 362 21 121 363 45 121 364 44 121 365 60 122 366 2 122 367 1 122 368 46 123 369 43 123 370 0 123 371 46 124 372 9 124 373 8 124 374 48 125 375 8 125 376 7 125 377 50 126 378 7 126 379 6 126 380 52 127 381 6 127 382 5 127 383 54 128 384 5 128 385 4 128 386 56 129 387 4 129 388 3 129 389 42 130 390 1 130 391 0 130 392 22 131 393 61 131 394 45 131 395 11 132 396 64 132 397 65 132 398 67 133 399 66 133 400 62 133 401 64 134 402 68 134 403 69 134 404 67 135 405 69 135 406 68 135 407</p>
        </triangles>
      </mesh>
    </geometry>
  </library_geometries>
  <library_visual_scenes>
    <visual_scene id="Scene" name="Scene">
      <node id="washing-machine-door_clean-col" name="washing-machine-door_clean-col" type="NODE">
        <matrix sid="transform">1 0 0 -0.2830001 0 1 0 -0.2843526 0 0 1 0.5204665 0 0 0 1</matrix>
        <instance_geometry url="#washing-machine-door_clean-mesh" name="washing-machine-door_clean-col">
          <bind_material>
            <technique_common>
              <instance_material symbol="washing-machine_clean_512-material" target="#washing-machine_clean_512-material">
                <bind_vertex_input semantic="UVMap" input_semantic="TEXCOORD" input_set="0"/>
              </instance_material>
            </technique_common>
          </bind_material>
        </instance_geometry>
      </node>
    </visual_scene>
  </library_visual_scenes>
  <scene>
    <instance_visual_scene url="#Scene"/>
  </scene>
</COLLADA>