# Blender 4.4.3
# www.blender.org
mtllib ac-grill.mtl
o ac-grill
v -0.242000 0.007137 0.007092
v 0.242000 0.007137 0.007092
v -0.242000 0.102921 0.007092
v 0.242000 0.102921 0.007092
v -0.250763 0.110058 0.000000
v -0.250763 0.000000 0.000000
v 0.250763 0.000000 0.000000
v 0.250763 0.110058 0.000000
vn -0.0000 -0.0000 1.0000
vn 0.6291 -0.0000 0.7773
vn -0.6291 -0.0000 0.7773
vn -0.0000 0.7049 0.7093
vn -0.0000 -0.7049 0.7093
vt 0.036611 0.404973
vt 0.034110 0.594494
vt 0.968340 0.595027
vt 0.970841 0.405506
vt 0.991661 0.614882
vt 0.013289 0.385118
vt 0.993625 0.385118
vt 0.011326 0.614882
s 0
usemtl ac-grill_64
f 3/1/1 1/2/1 2/3/1
f 4/4/2 2/3/2 7/5/2
f 1/2/3 3/1/3 5/6/3
f 3/1/4 4/4/4 8/7/4
f 2/3/5 1/2/5 6/8/5
f 3/1/1 2/3/1 4/4/1
f 4/4/2 7/5/2 8/7/2
f 1/2/3 5/6/3 6/8/3
f 3/1/4 8/7/4 5/6/4
f 2/3/5 6/8/5 7/5/5
