# Blender 4.4.3
# www.blender.org
mtllib box-of-detergent_green.mtl
o box-of-detergent_green-col
v -0.035000 -0.000000 0.105000
v -0.035000 0.270000 0.105000
v -0.035000 -0.000000 -0.105000
v -0.035000 0.270000 -0.105000
v 0.035000 -0.000000 0.105000
v 0.035000 0.270000 0.105000
v 0.035000 -0.000000 -0.105000
v 0.035000 0.270000 -0.105000
vn -1.0000 -0.0000 -0.0000
vn -0.0000 -0.0000 -1.0000
vn 1.0000 -0.0000 -0.0000
vn -0.0000 -0.0000 1.0000
vn -0.0000 -1.0000 -0.0000
vn -0.0000 1.0000 -0.0000
vt 0.343750 0.610175
vt 0.652344 1.000000
vt 0.343750 1.000000
vt 0.748985 0.500000
vt 0.652344 0.109160
vt 0.748985 0.109160
vt 0.652344 0.500000
vt 0.343750 0.109160
vt 0.343750 0.500000
vt 0.250800 0.109160
vt 0.343750 0.000000
vt 0.652344 0.000000
vt 0.652344 0.601562
vt 0.652344 0.610175
vt 0.250800 0.500000
vt 0.343750 0.601562
s 0
usemtl box-of-detergent_green_64
f 2/1/1 3/2/1 1/3/1
f 4/4/2 7/5/2 3/6/2
f 8/7/3 5/8/3 7/5/3
f 6/9/4 1/10/4 5/8/4
f 7/5/5 1/11/5 3/12/5
f 4/13/6 6/9/6 8/7/6
f 2/1/1 4/14/1 3/2/1
f 4/4/2 8/7/2 7/5/2
f 8/7/3 6/9/3 5/8/3
f 6/9/4 2/15/4 1/10/4
f 7/5/5 5/8/5 1/11/5
f 4/13/6 2/16/6 6/9/6
