# Blender 4.4.3
# www.blender.org
mtllib coin-changer.mtl
o coin-changer-col
v 0.111154 -0.000000 0.212862
v 0.111154 0.533400 0.212862
v -0.111146 -0.000000 0.212862
v 0.062170 0.076004 0.212862
v -0.111146 0.533400 0.212862
v 0.111149 -0.000000 -0.000002
v 0.000004 0.030838 0.212862
v 0.111149 0.533400 -0.000002
v 0.031088 0.076004 0.266699
v -0.111151 -0.000000 0.000002
v 0.019215 0.043322 0.246135
v -0.111151 0.533400 0.000002
v -0.031078 0.076004 0.266700
v -0.019206 0.043322 0.246136
v 0.062170 0.096203 0.212862
v -0.044003 0.462471 0.212862
v 0.031088 0.096203 0.266699
v 0.044011 0.462471 0.212862
v -0.031078 0.096203 0.266700
v -0.062162 0.076004 0.212862
v -0.038417 0.043322 0.212862
v 0.038425 0.043322 0.212862
v -0.062162 0.096203 0.212862
v -0.062162 0.533400 0.212862
v 0.062170 0.533400 0.212862
v -0.044003 0.346727 0.212862
v 0.044011 0.346727 0.212862
v 0.044011 0.346727 0.225978
v -0.044002 0.346727 0.225980
v -0.044002 0.462471 0.225980
v 0.044011 0.462471 0.225978
v 0.062170 0.096216 0.212862
v 0.059415 0.155362 0.212862
v 0.047644 0.121141 0.212862
v -0.047637 0.121141 0.212862
v -0.059407 0.155362 0.212862
v -0.062162 0.096216 0.212862
v 0.000004 -0.000000 0.212862
vn -1.0000 -0.0000 -0.0000
vn 1.0000 -0.0000 -0.0000
vn -0.0000 1.0000 -0.0000
vn -0.0000 -1.0000 -0.0000
vn -0.0000 -0.0000 -1.0000
vn -0.0000 -0.0000 1.0000
vn 0.3042 -0.9363 0.1756
vn 0.7330 -0.5326 0.4232
vn -0.0000 -0.9363 0.3513
vn -0.0000 -0.5326 0.8464
vn -0.3042 -0.9363 0.1756
vn -0.7330 -0.5326 0.4232
vn -0.8660 -0.0000 0.5000
vn 0.8660 -0.0000 0.5000
vt 0.039062 0.988281
vt 0.308594 0.316406
vt 0.039062 0.316406
vt 0.308594 0.988281
vt 0.328125 0.585938
vt 0.347656 0.476562
vt 0.347656 0.585938
vt 0.257812 0.011719
vt 0.320312 0.011719
vt 0.320312 0.281250
vt 0.964844 0.011719
vt 0.964844 0.281250
vt 0.824219 0.281250
vt 0.683594 0.988281
vt 0.964844 0.316406
vt 0.964844 0.988281
vt 0.648438 0.320312
vt 0.585938 0.414062
vt 0.554688 0.371094
vt 0.582031 0.164062
vt 0.605469 0.207031
vt 0.558594 0.207031
vt 0.621094 0.253906
vt 0.503906 0.164062
vt 0.527344 0.207031
vt 0.480469 0.207031
vt 0.464844 0.253906
vt 0.425781 0.164062
vt 0.449219 0.207031
vt 0.402344 0.207031
vt 0.386719 0.281250
vt 0.386719 0.253906
vt 0.542969 0.281250
vt 0.542969 0.253906
vt 0.621094 0.281250
vt 0.449219 0.468750
vt 0.570312 0.468750
vt 0.585938 0.511719
vt 0.457031 0.375000
vt 0.429688 0.414062
vt 0.371094 0.320312
vt 0.566406 0.902344
vt 0.429688 0.988281
vt 0.453125 0.902344
vt 0.429688 0.437500
vt 0.433594 0.511719
vt 0.429688 0.121094
vt 0.578125 0.011719
vt 0.578125 0.121094
vt 0.328125 0.734375
vt 0.347656 0.843750
vt 0.328125 0.843750
vt 0.347656 0.988281
vt 0.328125 0.988281
vt 0.347656 0.734375
vt 0.585938 0.437500
vt 0.101562 0.011719
vt 0.039062 0.281250
vt 0.039062 0.011719
vt 0.683594 0.281250
vt 0.683594 0.011719
vt 0.328125 0.476562
vt 0.683594 0.316406
vt 0.503906 0.355469
vt 0.503906 0.320312
vt 0.464844 0.281250
vt 0.566406 0.753906
vt 0.453125 0.753906
vt 0.585938 0.988281
vt 0.367188 0.988281
vt 0.429688 0.011719
vt 0.648438 0.988281
s 0
usemtl coin-changer_128
f 5/1/1 10/2/1 3/3/1
f 8/4/2 1/3/2 6/2/2
f 18/5/3 30/6/3 31/7/3
f 25/8/3 2/9/3 8/10/3
f 6/11/4 1/12/4 38/13/4
f 8/14/5 10/15/5 12/16/5
f 1/17/6 4/18/6 22/19/6
f 7/20/7 22/21/7 11/22/7
f 4/23/8 11/22/8 22/21/8
f 7/24/9 11/25/9 14/26/9
f 11/25/10 13/27/10 14/26/10
f 7/28/11 14/29/11 21/30/11
f 13/27/12 21/30/12 14/29/12
f 13/27/13 23/31/13 20/32/13
f 17/33/6 13/27/6 9/34/6
f 15/35/14 9/34/14 4/23/14
f 35/36/6 34/37/6 33/38/6
f 21/39/6 20/40/6 3/41/6
f 18/42/6 24/43/6 16/44/6
f 3/41/6 37/45/6 36/46/6
f 29/47/6 31/48/6 30/49/6
f 27/50/4 29/51/4 26/52/4
f 26/52/1 30/53/1 16/54/1
f 18/5/2 28/55/2 27/50/2
f 32/56/6 33/38/6 34/37/6
f 35/36/6 36/46/6 37/45/6
f 32/56/6 15/56/6 1/17/6
f 24/57/3 8/10/3 12/58/3
f 5/59/3 24/57/3 12/58/3
f 3/60/4 10/61/4 38/13/4
f 10/61/4 6/11/4 38/13/4
f 5/1/1 12/4/1 10/2/1
f 8/4/2 2/1/2 1/3/2
f 18/5/3 16/62/3 30/6/3
f 8/14/5 6/63/5 10/15/5
f 7/64/6 38/65/6 22/19/6
f 38/65/6 1/17/6 22/19/6
f 4/23/8 9/34/8 11/22/8
f 11/25/10 9/34/10 13/27/10
f 13/27/12 20/32/12 21/30/12
f 13/27/13 19/66/13 23/31/13
f 17/33/6 19/66/6 13/27/6
f 15/35/14 17/33/14 9/34/14
f 33/38/6 27/67/6 26/68/6
f 26/68/6 36/46/6 33/38/6
f 36/46/6 35/36/6 33/38/6
f 3/41/6 38/65/6 21/39/6
f 38/65/6 7/64/6 21/39/6
f 18/42/6 25/69/6 24/43/6
f 36/46/6 26/68/6 5/70/6
f 26/68/6 16/44/6 5/70/6
f 16/44/6 24/43/6 5/70/6
f 5/70/6 3/41/6 36/46/6
f 3/41/6 20/40/6 23/45/6
f 3/41/6 23/45/6 37/45/6
f 29/47/6 28/71/6 31/48/6
f 27/50/4 28/55/4 29/51/4
f 26/52/1 29/51/1 30/53/1
f 18/5/2 31/7/2 28/55/2
f 25/69/6 18/42/6 2/72/6
f 18/42/6 27/67/6 2/72/6
f 27/67/6 33/38/6 2/72/6
f 1/17/6 2/72/6 33/38/6
f 15/56/6 4/18/6 1/17/6
f 33/38/6 32/56/6 1/17/6
f 24/57/3 25/8/3 8/10/3
