# Blender 4.4.3
# www.blender.org
mtllib crumpled-shirt.mtl
o crumpled-shirt
v -0.149227 0.000018 0.260000
v 0.140665 0.000018 0.250983
v 0.002254 0.005594 0.245215
v -0.083369 0.000018 0.227180
v 0.139442 0.000018 0.088671
v 0.118648 0.000018 -0.045087
v 0.168798 0.003691 -0.045087
v 0.211609 0.000018 0.016532
v 0.285000 0.000018 -0.069133
v 0.203047 0.006124 -0.166821
v 0.123541 0.000018 -0.195376
v 0.036695 0.007151 -0.177341
v 0.012232 0.008759 -0.223931
v 0.025687 0.000018 -0.247977
v -0.042811 0.000018 -0.260000
v -0.090515 0.000018 -0.252486
v -0.189592 0.000018 -0.204393
v -0.285000 0.000018 -0.145780
v -0.253197 0.000018 -0.064624
v -0.227511 0.000018 -0.019538
v -0.143112 0.000018 -0.072139
v -0.171245 0.000018 -0.028555
v -0.143112 0.000018 0.025549
v -0.159013 0.003364 0.132254
v -0.088831 0.024405 -0.155232
v -0.036404 0.023098 -0.134572
v -0.068888 0.019600 -0.065500
v -0.043581 0.007310 -0.001309
v -0.085477 0.015637 0.038424
v -0.084067 0.004618 0.119860
v 0.002256 0.020356 -0.057385
v 0.049064 0.002208 -0.026309
v 0.053412 0.008609 0.084235
v -0.139349 0.008157 -0.130145
v -0.164445 0.007248 -0.132839
v -0.219467 0.000018 -0.138746
v 0.120225 0.013597 -0.093529
vn -0.1241 0.9907 -0.0565
vn 0.0126 0.9996 0.0252
vn -0.0000 1.0000 -0.0000
vn 0.0702 0.9973 -0.0208
vn 0.0403 0.9992 -0.0003
vn -0.1462 0.9883 0.0433
vn -0.2869 0.9486 0.1333
vn -0.1661 0.9153 -0.3669
vn 0.0384 0.9987 0.0329
vn 0.0379 0.9988 0.0306
vn -0.0704 0.9611 0.2671
vn -0.0760 0.9971 -0.0015
vn 0.0543 0.9900 -0.1302
vn 0.0551 0.9479 -0.3137
vn -0.2488 0.9662 -0.0681
vn -0.0191 0.9806 0.1953
vn -0.0302 0.9810 -0.1917
vn -0.0699 0.9686 0.2386
vn -0.0150 0.9699 -0.2430
vn -0.0504 0.9895 0.1356
vn -0.0263 0.9996 0.0104
vn 0.0389 0.9975 -0.0593
vn 0.1410 0.9326 0.3322
vn 0.1777 0.9824 -0.0571
vn 0.0719 0.9902 -0.1198
vn -0.3949 0.8927 -0.2170
vn -0.0740 0.9963 0.0432
vn 0.0156 0.9982 -0.0584
vn 0.1246 0.9270 0.3537
vn -0.0155 0.9989 0.0433
vn 0.0967 0.9941 0.0494
vn -0.1461 0.9750 0.1675
vn -0.0262 0.9955 -0.0914
vn -0.2502 0.9609 0.1186
vn -0.3178 0.9156 0.2463
vn 0.3081 0.9443 -0.1159
vn -0.2551 0.9669 -0.0000
vn 0.0059 0.9910 0.1340
vn 0.0879 0.9895 -0.1147
vn -0.0333 0.9791 0.2006
vn 0.1791 0.9820 -0.0601
vn 0.1002 0.9949 -0.0156
vn 0.1814 0.9818 -0.0560
vn -0.0399 0.9958 -0.0822
vt 0.216306 0.711273
vt 0.172949 0.834639
vt 0.121442 0.721457
vt 0.356089 0.090566
vt 0.225671 0.254227
vt 0.242542 0.033981
vt 0.253086 0.438197
vt 0.253086 0.606620
vt 0.204582 0.531477
vt 0.742344 0.049528
vt 0.740235 0.329369
vt 0.503710 0.059472
vt 0.354884 0.275596
vt 0.352453 0.415998
vt 0.424686 0.484503
vt 0.991191 0.601438
vt 0.790848 0.559980
vt 0.864659 0.453743
vt 0.849897 0.769861
vt 0.707104 0.643498
vt 0.704385 0.559980
vt 0.712820 0.819092
vt 0.563090 0.787999
vt 0.426013 0.930511
vt 0.520913 0.868324
vt 0.544110 0.909782
vt 0.437060 0.714261
vt 0.381055 0.595175
vt 0.343767 0.917555
vt 0.346671 0.749881
vt 0.259574 0.706629
vt 0.008457 0.733585
vt 0.063287 0.593664
vt 0.107574 0.515930
vt 0.591912 0.337016
vt 0.584415 0.527606
vt 0.503713 0.581183
s 0
usemtl crumpled-shirt_64
f 35/1/1 17/2/1 36/3/1
f 4/4/2 24/5/2 1/6/2
f 23/7/3 21/8/3 22/9/3
f 4/4/4 23/7/4 24/5/4
f 2/10/5 5/11/5 3/12/5
f 4/4/6 30/13/6 23/7/6
f 29/14/7 23/7/7 30/13/7
f 28/15/8 23/7/8 29/14/8
f 9/16/9 7/17/9 8/18/9
f 9/16/10 10/19/10 7/17/10
f 7/17/11 37/20/11 6/21/11
f 10/19/12 11/22/12 7/17/12
f 12/23/13 37/20/13 11/22/13
f 15/24/14 13/25/14 14/26/14
f 26/27/15 21/8/15 27/28/15
f 23/7/16 28/15/16 27/28/16
f 15/24/17 16/29/17 13/25/17
f 25/30/18 21/8/18 26/27/18
f 16/29/19 25/30/19 13/25/19
f 35/1/20 21/8/20 34/31/20
f 18/32/3 36/3/3 17/2/3
f 21/8/3 19/33/3 20/34/3
f 30/13/21 3/12/21 33/35/21
f 33/35/22 32/36/22 28/15/22
f 28/15/23 32/36/23 31/37/23
f 12/23/24 31/37/24 6/21/24
f 13/25/25 25/30/25 26/27/25
f 34/31/26 25/30/26 16/29/26
f 3/12/27 30/13/27 4/4/27
f 6/21/28 32/36/28 33/35/28
f 6/21/29 31/37/29 32/36/29
f 26/27/30 27/28/30 31/37/30
f 5/11/31 33/35/31 3/12/31
f 21/8/32 35/1/32 36/3/32
f 17/2/33 35/1/33 34/31/33
f 21/8/34 25/30/34 34/31/34
f 19/33/3 36/3/3 18/32/3
f 6/21/35 37/20/35 12/23/35
f 11/22/36 37/20/36 7/17/36
f 23/7/37 27/28/37 21/8/37
f 30/13/38 33/35/38 29/14/38
f 33/35/39 28/15/39 29/14/39
f 28/15/40 31/37/40 27/28/40
f 13/25/41 26/27/41 12/23/41
f 6/21/42 33/35/42 5/11/42
f 26/27/43 31/37/43 12/23/43
f 21/8/3 36/3/3 19/33/3
f 17/2/44 34/31/44 16/29/44
