# Blender 4.4.3
# www.blender.org
mtllib fabric-softner.mtl
o fabric-softner-col
v -0.056231 0.000000 0.000000
v -0.038589 0.000000 0.024749
v 0.000000 0.000000 0.035000
v 0.038589 0.000000 0.024749
v 0.050014 0.000000 0.000000
v -0.065779 0.090290 0.000000
v -0.046513 0.090290 0.024749
v 0.000000 0.090290 0.035000
v 0.061221 0.090290 0.000000
v -0.061697 0.140893 0.000000
v -0.043627 0.140893 0.024749
v -0.025631 0.227558 0.000000
v -0.018124 0.227558 0.018259
v 0.000000 0.227558 0.025822
v 0.018124 0.227558 0.018259
v 0.025631 0.227558 0.000000
v 0.025631 0.244783 0.000000
v 0.018124 0.244783 0.018259
v 0.000000 0.244783 0.025822
v -0.018124 0.244783 0.018259
v -0.025631 0.244783 0.000000
v 0.018280 0.244783 0.000000
v 0.012926 0.244783 0.013022
v 0.000000 0.244783 0.018416
v -0.012926 0.244783 0.013022
v -0.018280 0.244783 0.000000
v 0.018280 0.270036 0.000000
v 0.012926 0.270036 0.013022
v 0.000000 0.270036 0.018416
v -0.012926 0.270036 0.013022
v -0.018280 0.270036 0.000000
v -0.048306 0.191667 0.000000
v 0.045405 0.191667 0.000000
v 0.000000 0.191667 0.031623
v -0.032106 0.191667 0.022361
v 0.045884 0.090290 0.023009
v 0.018965 0.105655 0.030627
v 0.000000 0.140893 0.035000
v 0.052858 0.126463 0.010387
v 0.012590 0.191667 0.027991
v 0.030730 0.191667 0.021964
v 0.049113 0.154459 0.013057
v 0.000000 0.174557 0.032788
v 0.060821 0.121493 0.000000
v 0.056008 0.155637 0.000000
v 0.011603 0.166611 0.023445
v 0.028168 0.115209 0.016284
v 0.040999 0.114948 0.000000
v 0.012066 0.141646 0.023592
v 0.016874 0.181513 0.025486
v 0.019206 0.176552 0.000000
v 0.016280 0.161496 0.000000
v 0.040963 0.152856 0.000000
v 0.019021 0.142911 0.000000
v 0.031100 0.118470 0.000000
v 0.029468 0.178414 0.000000
v 0.044130 0.132584 0.000000
v -0.038589 0.000000 -0.024749
v 0.000000 0.000000 -0.035000
v 0.038589 0.000000 -0.024749
v -0.046513 0.090290 -0.024749
v 0.000000 0.090290 -0.035000
v -0.043627 0.140893 -0.024749
v -0.018124 0.227558 -0.018259
v 0.000000 0.227558 -0.025822
v 0.018124 0.227558 -0.018259
v 0.018124 0.244783 -0.018259
v 0.000000 0.244783 -0.025822
v -0.018124 0.244783 -0.018259
v 0.012926 0.244783 -0.013022
v 0.000000 0.244783 -0.018416
v -0.012926 0.244783 -0.013022
v 0.012926 0.270036 -0.013022
v 0.000000 0.270036 -0.018416
v -0.012926 0.270036 -0.013022
v 0.000000 0.191667 -0.031623
v -0.032106 0.191667 -0.022361
v 0.045884 0.090290 -0.023009
v 0.018965 0.105655 -0.030627
v 0.000000 0.140893 -0.035000
v 0.052858 0.126463 -0.010387
v 0.012590 0.191667 -0.027991
v 0.030730 0.191667 -0.021964
v 0.049113 0.154459 -0.013057
v 0.000000 0.174557 -0.032788
v 0.011603 0.166611 -0.023445
v 0.028168 0.115209 -0.016284
v 0.012066 0.141646 -0.023592
v 0.016874 0.181513 -0.025486
vn -0.2152 -0.0189 0.9764
vn 0.2567 -0.0000 0.9665
vn -0.7864 -0.0832 0.6122
vn 0.2247 -0.0000 0.9744
vn -0.7875 0.0635 0.6130
vn -0.7209 0.1280 0.6812
vn -0.2152 0.0123 0.9765
vn 0.2739 0.1535 0.9494
vn -0.7209 0.4555 0.5223
vn 0.1748 -0.9633 0.2035
vn 0.7559 0.4165 0.5051
vn -0.2708 0.2128 0.9388
vn 0.9249 -0.0000 0.3803
vn -0.3851 -0.0000 0.9229
vn 0.3851 -0.0000 0.9229
vn -0.9249 -0.0000 0.3803
vn -0.0000 1.0000 -0.0000
vn 0.2766 0.0653 0.9588
vn 0.8469 0.2492 0.4697
vn -0.7899 0.2083 0.5768
vn -0.2283 0.0638 0.9715
vn 0.8141 0.1148 0.5692
vn 0.6072 -0.6952 0.3846
vn 0.6470 0.0500 0.7609
vn 0.7226 0.2634 0.6391
vn 0.8277 -0.1027 0.5517
vn 0.8316 0.0331 0.5543
vn 0.4767 -0.2826 0.8324
vn -0.8338 -0.1303 0.5365
vn 0.6397 0.5883 0.4946
vn 0.9477 0.1398 0.2869
vn 0.3253 0.9142 0.2417
vn 0.8530 0.4434 0.2753
vn 0.9250 -0.3481 0.1524
vn -0.8098 -0.4806 0.3366
vn -0.2567 -0.0000 -0.9665
vn 0.2567 -0.0000 -0.9665
vn -0.8122 -0.0713 -0.5790
vn 0.2247 -0.0000 -0.9744
vn -0.7875 0.0635 -0.6130
vn -0.7209 0.1280 -0.6812
vn -0.2152 0.0123 -0.9765
vn 0.2739 0.1535 -0.9494
vn -0.7209 0.4555 -0.5223
vn 0.1748 -0.9633 -0.2035
vn 0.7559 0.4165 -0.5051
vn -0.2708 0.2128 -0.9388
vn 0.9249 -0.0000 -0.3803
vn -0.3851 -0.0000 -0.9229
vn 0.3851 -0.0000 -0.9229
vn -0.9249 -0.0000 -0.3803
vn 0.2766 0.0653 -0.9588
vn 0.8469 0.2492 -0.4697
vn -0.7899 0.2083 -0.5768
vn -0.2569 0.1035 -0.9609
vn 0.8141 0.1148 -0.5692
vn 0.3137 -0.1006 -0.9442
vn 0.6863 0.0170 -0.7271
vn 0.6539 0.2639 -0.7091
vn 0.9060 -0.0651 -0.4183
vn 0.7959 0.0102 -0.6053
vn 0.4767 -0.2826 -0.8324
vn -0.8004 -0.1621 -0.5771
vn 0.4994 0.5383 -0.6789
vn 0.9477 0.1398 -0.2869
vn 0.3253 0.9142 -0.2417
vn 0.8530 0.4434 -0.2753
vn 0.9250 -0.3481 -0.1524
vn -0.7752 -0.3487 -0.5267
vn -0.0000 -1.0000 -0.0000
vn 0.3137 -0.1006 0.9442
vn 0.6072 -0.6952 -0.3846
vn -0.2567 -0.0000 0.9665
vn 0.2528 -0.0018 0.9675
vn -0.8122 -0.0713 0.5790
vn 0.2527 -0.0367 0.9669
vn -0.8068 0.0460 0.5891
vn -0.7834 0.3340 0.5242
vn -0.2287 -0.0000 0.9735
vn 0.3087 0.2043 0.9290
vn 0.3783 0.1875 0.9065
vn -0.8576 0.3744 0.3526
vn 0.8691 0.3421 0.3573
vn -0.3809 0.1475 0.9128
vn 0.8011 0.2677 0.5353
vn -0.7923 0.2068 0.5740
vn -0.2766 0.0653 0.9588
vn -0.2569 0.1035 0.9609
vn 0.8792 0.0727 0.4708
vn 0.6863 0.0170 0.7271
vn 0.6539 0.2639 0.7091
vn 0.9060 -0.0651 0.4183
vn 0.7959 0.0102 0.6053
vn 0.4138 -0.0497 0.9090
vn -0.8004 -0.1621 0.5771
vn 0.4994 0.5383 0.6789
vn 0.9813 0.0193 0.1915
vn 0.8697 0.4298 0.2427
vn 0.9551 -0.1856 0.2310
vn -0.7752 -0.3487 0.5267
vn -0.2152 -0.0189 -0.9764
vn 0.2528 -0.0018 -0.9675
vn -0.7864 -0.0832 -0.6122
vn 0.2527 -0.0367 -0.9669
vn -0.8068 0.0460 -0.5891
vn -0.7834 0.3340 -0.5242
vn -0.2287 -0.0000 -0.9735
vn 0.3783 0.1875 -0.9065
vn 0.3087 0.2043 -0.9290
vn -0.8576 0.3744 -0.3526
vn 0.8691 0.3421 -0.3573
vn -0.3809 0.1475 -0.9128
vn 0.8011 0.2677 -0.5353
vn -0.7923 0.2068 -0.5740
vn -0.2766 0.0653 -0.9588
vn -0.2283 0.0638 -0.9715
vn 0.8792 0.0727 -0.4708
vn 0.6470 0.0500 -0.7609
vn 0.7226 0.2634 -0.6391
vn 0.8277 -0.1027 -0.5517
vn 0.8316 0.0331 -0.5543
vn 0.4138 -0.0497 -0.9090
vn -0.8338 -0.1303 -0.5365
vn 0.6397 0.5883 -0.4946
vn 0.9813 0.0193 -0.1915
vn 0.8697 0.4298 -0.2427
vn 0.9551 -0.1856 -0.2310
vn -0.8098 -0.4806 -0.3366
vt 0.234375 0.019531
vt 0.347656 0.269531
vt 0.214844 0.273438
vt 0.457031 0.019531
vt 0.343750 0.019531
vt 0.148438 0.019531
vt 0.143235 0.273438
vt 0.398438 0.312500
vt 0.347656 0.410156
vt 0.148450 0.414062
vt 0.152344 0.718750
vt 0.195312 0.687500
vt 0.199219 0.726562
vt 0.222656 0.410156
vt 0.343750 0.651227
vt 0.343750 0.546875
vt 0.378906 0.550781
vt 0.253906 0.546875
vt 0.234375 0.651227
vt 0.175781 0.558594
vt 0.152344 0.933594
vt 0.074219 0.937500
vt 0.140625 0.906250
vt 0.453125 0.651227
vt 0.429688 0.550781
vt 0.503906 0.562500
vt 0.289062 0.651227
vt 0.875000 0.699219
vt 0.820312 0.746094
vt 0.820312 0.699219
vt 0.769531 0.699219
vt 0.714844 0.746094
vt 0.714844 0.699219
vt 0.769531 0.746094
vt 0.660156 0.746094
vt 0.660156 0.699219
vt 0.241809 0.968540
vt 0.288768 0.964928
vt 0.288768 0.982989
vt 0.332115 0.964928
vt 0.321279 0.950479
vt 0.220136 0.921581
vt 0.252646 0.954091
vt 0.350176 0.914357
vt 0.332115 0.917969
vt 0.792969 0.773438
vt 0.753906 0.843750
vt 0.753906 0.773438
vt 0.871094 0.773438
vt 0.832031 0.843750
vt 0.832031 0.773438
vt 0.792969 0.843750
vt 0.906250 0.773438
vt 0.871094 0.843750
vt 0.343750 0.500000
vt 0.492188 0.453125
vt 0.531250 0.460938
vt 0.507812 0.375000
vt 0.546875 0.363281
vt 0.101562 0.976562
vt 0.015625 0.820312
vt 0.066406 0.890625
vt 0.023438 0.910156
vt 0.062500 0.816406
vt 0.046875 0.714844
vt 0.097656 0.730469
vt 0.476562 0.269531
vt 0.535156 0.019531
vt 0.550781 0.273438
vt 0.269531 0.710938
vt 0.253906 0.746094
vt 0.097656 0.644531
vt 0.132812 0.867188
vt 0.132812 0.816406
vt 0.140625 0.746094
vt 0.316406 0.785156
vt 0.375000 0.746094
vt 0.878906 0.019531
vt 0.769531 0.269531
vt 0.769531 0.019531
vt 0.656250 0.019531
vt 0.964844 0.019531
vt 0.898438 0.273438
vt 0.714844 0.312500
vt 0.769531 0.410156
vt 0.964831 0.414062
vt 0.970047 0.273438
vt 0.890625 0.410156
vt 0.734375 0.550781
vt 0.769531 0.546875
vt 0.769531 0.651227
vt 0.882812 0.651227
vt 0.859375 0.546875
vt 0.937500 0.558594
vt 0.683594 0.550781
vt 0.660156 0.651227
vt 0.609375 0.562500
vt 0.828125 0.651227
vt 0.929688 0.746094
vt 0.929688 0.699219
vt 0.605469 0.746094
vt 0.550781 0.699219
vt 0.605469 0.699219
vt 0.984375 0.746094
vt 0.984375 0.699219
vt 0.285156 0.871010
vt 0.238197 0.874622
vt 0.281544 0.852949
vt 0.328503 0.871010
vt 0.252646 0.885459
vt 0.317666 0.885459
vt 0.714844 0.773438
vt 0.984375 0.843750
vt 0.945312 0.773438
vt 0.984375 0.773438
vt 0.714844 0.843750
vt 0.675781 0.773438
vt 0.945312 0.843750
vt 0.769531 0.500000
vt 0.621094 0.453125
vt 0.582031 0.460938
vt 0.605469 0.375000
vt 0.566406 0.363281
vt 0.050781 0.964844
vt 0.636719 0.269531
vt 0.578125 0.019531
vt 0.562500 0.273438
vt 0.605469 0.777344
vt 0.636719 0.843750
vt 0.605469 0.914062
vt 0.233053 0.827716
vt 0.206118 0.839687
vt 0.176190 0.827716
vt 0.398438 0.651227
vt 0.875000 0.746094
vt 0.238197 0.921581
vt 0.906250 0.843750
vt 0.714844 0.651227
vt 0.550781 0.746094
vt 0.675781 0.843750
vt 0.496094 0.941406
vt 0.496094 0.746094
vt 0.390625 0.914062
vt 0.390625 0.777344
vt 0.339844 0.843750
vt 0.164219 0.800781
vt 0.242031 0.797789
vt 0.173197 0.773846
vt 0.230060 0.770854
vt 0.200132 0.761875
s 0
usemtl fabric-softner_64
f 2/1/1 8/2/1 7/3/1
f 4/4/2 8/2/2 3/5/2
f 1/6/3 7/3/3 6/7/3
f 8/2/4 37/8/4 38/9/4
f 7/3/5 10/10/5 6/7/5
f 48/11/6 39/12/6 57/13/6
f 8/2/7 11/14/7 7/3/7
f 14/15/8 34/16/8 40/17/8
f 35/18/9 12/19/9 32/20/9
f 56/21/10 50/22/10 51/23/10
f 16/24/11 41/25/11 33/26/11
f 34/16/12 13/27/12 35/18/12
f 16/28/13 18/29/13 15/30/13
f 14/31/14 20/32/14 13/33/14
f 15/30/15 19/34/15 14/31/15
f 13/33/16 21/35/16 12/36/16
f 18/37/17 24/38/17 19/39/17
f 20/40/17 24/38/17 25/41/17
f 17/42/17 23/43/17 18/37/17
f 21/44/17 25/41/17 26/45/17
f 25/46/16 31/47/16 26/48/16
f 23/49/15 29/50/15 24/51/15
f 24/51/14 30/52/14 25/46/14
f 22/53/13 28/54/13 23/49/13
f 40/17/18 34/16/18 43/55/18
f 33/26/19 42/56/19 45/57/19
f 11/14/20 32/20/20 10/10/20
f 11/14/21 38/9/21 43/55/21
f 45/57/22 39/58/22 44/59/22
f 50/22/23 56/21/23 41/60/23
f 38/61/24 46/62/24 43/63/24
f 49/64/25 37/65/25 47/66/25
f 36/67/26 5/68/26 9/69/26
f 9/69/27 39/58/27 36/67/27
f 50/22/28 43/63/28 46/62/28
f 57/13/29 42/70/29 53/71/29
f 47/66/30 36/72/30 48/11/30
f 52/73/31 49/64/31 54/74/31
f 47/66/32 48/11/32 55/75/32
f 47/66/33 54/74/33 49/64/33
f 46/62/34 51/23/34 50/22/34
f 56/76/35 42/70/35 41/77/35
f 58/78/36 62/79/36 59/80/36
f 62/79/37 60/81/37 59/80/37
f 1/82/38 61/83/38 58/78/38
f 79/84/39 62/79/39 80/85/39
f 10/86/40 61/83/40 6/87/40
f 81/12/41 48/11/41 57/13/41
f 63/88/42 62/79/42 61/83/42
f 82/89/43 76/90/43 65/91/43
f 12/92/44 77/93/44 32/94/44
f 56/21/45 51/23/45 89/22/45
f 83/95/46 16/96/46 33/97/46
f 64/98/47 76/90/47 77/93/47
f 67/99/48 16/28/48 66/100/48
f 69/101/49 65/102/49 64/103/49
f 68/104/50 66/100/50 65/105/50
f 21/35/51 64/103/51 12/36/51
f 71/106/17 67/107/17 68/108/17
f 69/109/17 71/106/17 68/108/17
f 70/110/17 17/42/17 67/107/17
f 21/44/17 72/111/17 69/109/17
f 31/47/51 72/112/51 26/48/51
f 74/113/50 70/114/50 71/115/50
f 75/116/49 71/117/49 72/112/49
f 73/118/48 22/53/48 70/114/48
f 82/89/52 85/119/52 76/90/52
f 84/120/53 33/97/53 45/121/53
f 32/94/54 63/88/54 10/86/54
f 85/119/55 63/88/55 77/93/55
f 81/122/56 45/121/56 44/123/56
f 89/22/57 82/124/57 83/60/57
f 80/61/58 86/62/58 88/64/58
f 88/64/59 79/65/59 80/61/59
f 78/125/60 5/126/60 60/81/60
f 9/127/61 81/122/61 44/123/61
f 85/63/62 89/22/62 86/62/62
f 57/13/63 84/70/63 81/12/63
f 87/66/64 78/72/64 79/65/64
f 88/64/65 52/73/65 54/74/65
f 87/66/66 55/75/66 48/11/66
f 54/74/67 87/66/67 88/64/67
f 51/23/68 86/62/68 89/22/68
f 56/76/69 84/70/69 53/71/69
f 60/128/70 5/129/70 4/130/70
f 73/131/17 74/132/17 75/133/17
f 40/124/71 50/22/71 41/60/71
f 56/21/72 89/22/72 83/60/72
f 2/1/73 3/5/73 8/2/73
f 4/4/74 36/67/74 8/2/74
f 1/6/75 2/1/75 7/3/75
f 8/2/76 36/67/76 37/8/76
f 7/3/77 11/14/77 10/10/77
f 48/11/78 36/72/78 39/12/78
f 8/2/79 38/9/79 11/14/79
f 41/25/80 15/134/80 40/17/80
f 15/134/81 14/15/81 40/17/81
f 35/18/82 13/27/82 12/19/82
f 16/24/83 15/134/83 41/25/83
f 34/16/84 14/15/84 13/27/84
f 16/28/13 17/135/13 18/29/13
f 14/31/14 19/34/14 20/32/14
f 15/30/15 18/29/15 19/34/15
f 13/33/16 20/32/16 21/35/16
f 18/37/17 23/43/17 24/38/17
f 20/40/17 19/39/17 24/38/17
f 17/42/17 22/136/17 23/43/17
f 21/44/17 20/40/17 25/41/17
f 25/46/16 30/52/16 31/47/16
f 23/49/15 28/54/15 29/50/15
f 24/51/14 29/50/14 30/52/14
f 22/53/13 27/137/13 28/54/13
f 33/26/85 41/25/85 42/56/85
f 11/14/86 35/18/86 32/20/86
f 43/55/87 34/16/87 35/18/87
f 35/18/88 11/14/88 43/55/88
f 45/57/89 42/56/89 39/58/89
f 38/61/90 49/64/90 46/62/90
f 49/64/91 38/61/91 37/65/91
f 36/67/92 4/4/92 5/68/92
f 9/69/93 44/59/93 39/58/93
f 50/22/94 40/124/94 43/63/94
f 57/13/95 39/12/95 42/70/95
f 47/66/96 37/65/96 36/72/96
f 52/73/97 46/62/97 49/64/97
f 47/66/98 55/75/98 54/74/98
f 46/62/99 52/73/99 51/23/99
f 56/76/100 53/71/100 42/70/100
f 58/78/101 61/83/101 62/79/101
f 62/79/102 78/125/102 60/81/102
f 1/82/103 6/87/103 61/83/103
f 79/84/104 78/125/104 62/79/104
f 10/86/105 63/88/105 61/83/105
f 81/12/106 78/72/106 48/11/106
f 63/88/107 80/85/107 62/79/107
f 65/91/108 66/138/108 82/89/108
f 66/138/109 83/95/109 82/89/109
f 12/92/110 64/98/110 77/93/110
f 83/95/111 66/138/111 16/96/111
f 64/98/112 65/91/112 76/90/112
f 67/99/48 17/135/48 16/28/48
f 69/101/49 68/139/49 65/102/49
f 68/104/50 67/99/50 66/100/50
f 21/35/51 69/101/51 64/103/51
f 71/106/17 70/110/17 67/107/17
f 69/109/17 72/111/17 71/106/17
f 70/110/17 22/136/17 17/42/17
f 21/44/17 26/45/17 72/111/17
f 31/47/51 75/116/51 72/112/51
f 74/113/50 73/118/50 70/114/50
f 75/116/49 74/140/49 71/117/49
f 73/118/48 27/137/48 22/53/48
f 84/120/113 83/95/113 33/97/113
f 32/94/114 77/93/114 63/88/114
f 77/93/115 76/90/115 85/119/115
f 85/119/116 80/85/116 63/88/116
f 81/122/117 84/120/117 45/121/117
f 80/61/118 85/63/118 86/62/118
f 88/64/119 87/66/119 79/65/119
f 78/125/120 9/127/120 5/126/120
f 9/127/121 78/125/121 81/122/121
f 85/63/122 82/124/122 89/22/122
f 57/13/123 53/71/123 84/70/123
f 87/66/124 48/11/124 78/72/124
f 88/64/125 86/62/125 52/73/125
f 54/74/126 55/75/126 87/66/126
f 51/23/127 52/73/127 86/62/127
f 56/76/128 83/77/128 84/70/128
f 4/130/70 3/141/70 59/142/70
f 3/141/70 2/143/70 58/144/70
f 2/143/70 1/145/70 58/144/70
f 58/144/70 59/142/70 3/141/70
f 59/142/70 60/128/70 4/130/70
f 75/133/17 31/146/17 27/147/17
f 31/146/17 30/148/17 28/149/17
f 30/148/17 29/150/17 28/149/17
f 28/149/17 27/147/17 31/146/17
f 27/147/17 73/131/17 75/133/17
