# Blender 4.4.3
# www.blender.org
mtllib fluorescent-light-panel.mtl
o fluorescent-light-panel-col
v -0.150000 0.000000 0.600000
v -0.150000 0.000000 -0.600000
v 0.127846 -0.070000 0.577846
v 0.150000 0.000000 0.600000
v 0.150000 0.000000 -0.600000
v -0.150000 -0.070000 -0.600000
v -0.150000 -0.070000 0.600000
v 0.150000 -0.070000 -0.600000
v 0.150000 -0.070000 0.600000
v -0.127846 -0.070000 -0.577846
v -0.127846 -0.070000 0.577846
v 0.127846 -0.070000 -0.577846
vn -1.0000 -0.0000 -0.0000
vn -0.0000 -0.0000 -1.0000
vn 1.0000 -0.0000 -0.0000
vn -0.0000 -0.0000 1.0000
vn -0.0000 1.0000 -0.0000
vn -0.0000 -1.0000 -0.0000
vt 0.996094 0.449219
vt 0.007812 0.390625
vt 0.996094 0.390625
vt 0.511719 0.093750
vt 0.261719 0.039062
vt 0.511719 0.039062
vt 0.996094 0.382812
vt 0.007812 0.324219
vt 0.996094 0.324219
vt 0.253906 0.093750
vt 0.007812 0.039062
vt 0.253906 0.039062
vt 0.007812 0.714844
vt 0.996094 0.960938
vt 0.007812 0.960938
vt 0.980469 0.476562
vt 0.007812 0.457031
vt 0.996094 0.457031
vt 0.996094 0.707031
vt 0.980469 0.687500
vt 0.023438 0.687500
vt 0.007812 0.707031
vt 0.023438 0.476562
vt 0.007812 0.105469
vt 0.960938 0.316406
vt 0.007812 0.316406
vt 0.007812 0.449219
vt 0.261719 0.093750
vt 0.007812 0.382812
vt 0.007812 0.093750
vt 0.996094 0.714844
vt 0.960938 0.105469
s 0
usemtl fluorescent-light-panel_256
f 1/1/1 6/2/1 7/3/1
f 2/4/2 8/5/2 6/6/2
f 5/7/3 9/8/3 8/9/3
f 4/10/4 7/11/4 9/12/4
f 2/13/5 4/14/5 5/15/5
f 10/16/6 7/17/6 6/18/6
f 10/16/6 8/19/6 12/20/6
f 3/21/6 8/19/6 9/22/6
f 3/21/6 7/17/6 11/23/6
f 1/1/1 2/27/1 6/2/1
f 2/4/2 5/28/2 8/5/2
f 5/7/3 4/29/3 9/8/3
f 4/10/4 1/30/4 7/11/4
f 2/13/5 1/31/5 4/14/5
f 10/16/6 11/23/6 7/17/6
f 10/16/6 6/18/6 8/19/6
f 3/21/6 12/20/6 8/19/6
f 3/21/6 9/22/6 7/17/6
usemtl fluorescent-light-panel_emission
f 12/24/6 11/25/6 10/26/6
f 12/24/6 3/32/6 11/25/6
