# Blender 4.4.3
# www.blender.org
mtllib folding-table.mtl
o folding-table-col
v -0.550000 0.677681 0.345000
v -0.550000 0.677681 -0.345000
v 0.550000 0.677681 -0.345000
v 0.550000 0.677681 0.345000
v -0.550000 0.820000 0.345000
v -0.462804 0.731735 -0.257486
v 0.462804 0.731735 -0.257486
v 0.550000 0.820000 0.345000
v -0.550000 0.820000 -0.345000
v -0.527828 0.820000 0.345000
v 0.550000 0.820000 -0.345000
v 0.527828 0.820000 0.345000
v -0.462804 0.731735 0.345000
v 0.462804 0.731735 0.345000
v -0.527828 0.820000 -0.322747
v 0.527828 0.820000 -0.322747
v 0.458219 0.034797 0.097432
v 0.458219 0.034797 0.132568
v 0.458219 0.677681 0.097432
v 0.458219 0.677681 0.132568
v 0.493228 0.034797 0.097432
v 0.493228 0.034797 0.132568
v 0.493228 0.677681 0.097432
v 0.493228 0.677681 0.132568
v 0.458219 0.034797 -0.132568
v 0.458219 0.034797 -0.097432
v 0.458219 0.677681 -0.132568
v 0.458219 0.677681 -0.097432
v 0.458219 -0.000000 0.097432
v 0.493228 0.034797 -0.097432
v 0.493228 0.677681 -0.132568
v 0.493228 0.677681 -0.097432
v 0.458219 -0.000000 0.345000
v 0.458219 0.034797 0.345000
v 0.458219 -0.000000 -0.345000
v 0.458219 0.034797 -0.345000
v 0.493228 -0.000000 0.345000
v 0.493228 0.034797 0.345000
v 0.493228 -0.000000 -0.345000
v 0.493228 0.034797 -0.345000
v 0.458219 0.017398 -0.115000
v 0.493228 0.017398 -0.115000
v 0.493228 0.017398 0.115000
v 0.458219 0.017398 0.115000
v 0.458219 -0.000000 -0.097432
v 0.493228 0.034797 -0.132568
v 0.493228 -0.000000 -0.132568
v 0.493228 -0.000000 0.132568
v 0.493228 -0.000000 0.097432
v 0.493228 -0.000000 -0.097432
v 0.458219 -0.000000 0.132568
v 0.458219 -0.000000 -0.132568
v -0.458219 0.034797 0.097432
v -0.458219 0.034797 0.132568
v -0.458219 0.677681 0.097432
v -0.458219 0.677681 0.132568
v -0.493228 0.034797 0.097432
v -0.493228 0.034797 0.132568
v -0.493228 0.677681 0.097432
v -0.493228 0.677681 0.132568
v -0.458219 0.034797 -0.132568
v -0.458219 0.034797 -0.097432
v -0.458219 0.677681 -0.132568
v -0.458219 0.677681 -0.097432
v -0.458219 -0.000000 0.097432
v -0.493228 0.034797 -0.097432
v -0.493228 0.677681 -0.132568
v -0.493228 0.677681 -0.097432
v -0.458219 -0.000000 0.345000
v -0.458219 0.034797 0.345000
v -0.458219 -0.000000 -0.345000
v -0.458219 0.034797 -0.345000
v -0.493228 -0.000000 0.345000
v -0.493228 0.034797 0.345000
v -0.493228 -0.000000 -0.345000
v -0.493228 0.034797 -0.345000
v -0.458219 0.017398 -0.115000
v -0.493228 0.017398 -0.115000
v -0.493228 0.017398 0.115000
v -0.458219 0.017398 0.115000
v -0.458219 -0.000000 -0.097432
v -0.493228 0.034797 -0.132568
v -0.493228 -0.000000 -0.132568
v -0.493228 -0.000000 0.132568
v -0.493228 -0.000000 0.097432
v -0.493228 -0.000000 -0.097432
v -0.458219 -0.000000 0.132568
v -0.458219 -0.000000 -0.132568
vn -1.0000 -0.0000 -0.0000
vn -0.0000 -0.0000 -1.0000
vn 1.0000 -0.0000 -0.0000
vn -0.0000 -1.0000 -0.0000
vn -0.0000 1.0000 -0.0000
vn -0.0000 -0.0000 1.0000
vn 0.8051 0.5931 -0.0000
vn -0.0000 0.5945 0.8041
vn -0.8051 0.5931 -0.0000
vt 0.199219 0.847656
vt 0.257812 0.566406
vt 0.257812 0.847656
vt 0.730469 0.984375
vt 0.277344 0.925781
vt 0.730469 0.925781
vt 0.277344 0.464844
vt 0.730469 0.183594
vt 0.730469 0.464844
vt 0.695312 0.570312
vt 0.316406 0.816406
vt 0.316406 0.570312
vt 0.289062 0.839844
vt 0.277344 0.566406
vt 0.289062 0.566406
vt 0.722656 0.839844
vt 0.277344 0.847656
vt 0.730469 0.566406
vt 0.730469 0.847656
vt 0.730469 0.484375
vt 0.722656 0.542969
vt 0.695312 0.507812
vt 0.257812 0.863281
vt 0.011719 0.906250
vt 0.011719 0.863281
vt 0.695312 0.863281
vt 0.285156 0.906250
vt 0.312500 0.863281
vt 0.746094 0.863281
vt 0.996094 0.906250
vt 0.718750 0.906250
vt 0.312500 0.507812
vt 0.277344 0.484375
vt 0.289062 0.542969
vt 0.277344 0.542969
vt 0.140625 0.335938
vt 0.128906 0.070312
vt 0.140625 0.070312
vt 0.128906 0.054688
vt 0.140625 0.054688
vt 0.132812 0.062500
vt 0.777344 0.750000
vt 0.792969 0.484375
vt 0.792969 0.750000
vt 0.039062 0.472656
vt 0.054688 0.207031
vt 0.054688 0.472656
vt 0.792969 0.335938
vt 0.777344 0.070312
vt 0.792969 0.070312
vt 0.039062 0.070312
vt 0.468750 0.070312
vt 0.453125 0.054688
vt 0.468750 0.054688
vt 0.324219 0.054688
vt 0.234375 0.070312
vt 0.234375 0.054688
vt 0.039062 0.085938
vt 0.054688 0.101562
vt 0.039062 0.101562
vt 0.691406 0.070312
vt 0.777344 0.054688
vt 0.054688 0.085938
vt 0.039062 0.121094
vt 0.039062 0.207031
vt 0.054688 0.121094
vt 0.367188 0.054688
vt 0.453125 0.070312
vt 0.367188 0.070312
vt 0.972656 0.054688
vt 0.886719 0.070312
vt 0.886719 0.054688
vt 0.562500 0.070312
vt 0.546875 0.054688
vt 0.562500 0.054688
vt 0.234375 0.335938
vt 0.222656 0.070312
vt 0.546875 0.070312
vt 0.871094 0.562500
vt 0.886719 0.484375
vt 0.886719 0.562500
vt 0.648438 0.054688
vt 0.648438 0.070312
vt 0.871094 0.054688
vt 0.878906 0.062500
vt 0.230469 0.062500
vt 0.222656 0.054688
vt 0.792969 0.054688
vt 0.785156 0.062500
vt 0.871094 0.070312
vt 0.886719 0.335938
vt 0.222656 0.335938
vt 0.777344 0.484375
vt 0.871094 0.335938
vt 0.324219 0.070312
vt 0.039062 0.054688
vt 0.972656 0.070312
vt 0.691406 0.054688
vt 0.128906 0.335938
vt 0.871094 0.484375
vt 0.777344 0.335938
vt 0.199219 0.566406
vt 0.277344 0.984375
vt 0.277344 0.183594
vt 0.695312 0.816406
vt 0.722656 0.566406
vt 0.730469 0.542969
vt 0.996094 0.863281
s 0
usemtl folding-table_512
f 5/1/1 2/2/1 1/3/1
f 9/4/2 3/5/2 2/6/2
f 11/1/3 4/2/3 3/3/3
f 1/7/4 3/8/4 4/9/4
f 14/10/5 6/11/5 13/12/5
f 15/13/5 5/14/5 10/15/5
f 16/16/5 9/17/5 15/13/5
f 16/16/5 8/18/5 11/19/5
f 4/20/6 12/21/6 14/22/6
f 6/23/7 10/24/7 13/25/7
f 7/26/8 15/27/8 6/28/8
f 7/29/9 12/30/9 16/31/9
f 4/20/6 13/32/6 1/33/6
f 1/33/6 10/34/6 5/35/6
f 23/36/3 22/37/3 21/38/3
f 48/39/3 49/40/3 43/41/3
f 23/42/2 17/43/2 19/44/2
f 20/45/6 22/46/6 24/47/6
f 28/48/1 25/49/1 26/50/1
f 38/51/3 48/39/3 22/37/3
f 49/52/4 51/53/4 29/54/4
f 31/45/2 25/46/2 27/47/2
f 28/42/6 30/43/6 32/44/6
f 39/55/3 46/56/3 47/57/3
f 36/58/2 39/59/2 35/60/2
f 36/61/1 52/62/1 25/49/1
f 38/59/6 33/58/6 37/63/6
f 34/64/5 22/46/5 18/65/5
f 46/65/5 36/66/5 25/46/5
f 33/67/4 48/68/4 37/69/4
f 33/70/1 18/71/1 51/72/1
f 47/73/4 45/74/4 52/75/4
f 31/76/3 30/77/3 46/56/3
f 50/78/4 29/54/4 45/74/4
f 21/79/5 26/80/5 17/81/5
f 47/73/4 35/82/4 39/83/4
f 29/84/1 51/72/1 44/85/1
f 42/86/3 50/87/3 47/57/3
f 49/40/3 50/87/3 21/38/3
f 45/88/1 41/89/1 52/62/1
f 45/88/1 29/84/1 17/90/1
f 20/91/1 17/90/1 18/71/1
f 60/76/1 59/92/1 57/77/1
f 84/57/1 79/86/1 85/87/1
f 53/93/2 59/44/2 55/42/2
f 58/65/6 56/47/6 60/45/6
f 63/91/3 64/94/3 62/90/3
f 73/55/1 74/95/1 58/56/1
f 87/68/4 85/54/4 65/52/4
f 61/65/2 67/47/2 63/45/2
f 66/93/6 64/44/6 68/42/6
f 76/51/1 75/96/1 83/39/1
f 75/63/2 72/60/2 71/58/2
f 71/70/3 72/97/3 61/71/3
f 69/63/6 74/60/6 73/58/6
f 70/66/5 58/65/5 74/64/5
f 72/64/5 82/46/5 61/65/5
f 84/53/4 69/69/4 73/67/4
f 70/61/3 69/98/3 87/62/3
f 83/75/4 81/78/4 86/74/4
f 68/36/1 67/99/1 82/37/1
f 65/52/4 86/74/4 81/78/4
f 62/81/5 57/100/5 53/80/5
f 71/83/4 83/75/4 75/82/4
f 65/88/3 80/89/3 87/62/3
f 78/41/1 83/39/1 86/40/1
f 85/87/1 79/86/1 57/77/1
f 81/84/3 88/72/3 77/85/3
f 81/84/3 77/85/3 62/90/3
f 55/48/3 56/101/3 54/49/3
f 5/1/1 9/102/1 2/2/1
f 9/4/2 11/103/2 3/5/2
f 11/1/3 8/102/3 4/2/3
f 1/7/4 2/104/4 3/8/4
f 14/10/5 7/105/5 6/11/5
f 15/13/5 9/17/5 5/14/5
f 16/16/5 11/19/5 9/17/5
f 16/16/5 12/106/5 8/18/5
f 4/20/6 8/107/6 12/21/6
f 6/23/7 15/27/7 10/24/7
f 7/26/8 16/31/8 15/27/8
f 7/29/9 14/108/9 12/30/9
f 4/20/6 14/22/6 13/32/6
f 1/33/6 13/32/6 10/34/6
f 24/99/3 22/37/3 23/36/3
f 22/37/3 43/41/3 21/38/3
f 23/42/2 21/93/2 17/43/2
f 20/45/6 18/65/6 22/46/6
f 27/101/1 25/49/1 28/48/1
f 25/49/1 41/89/1 26/50/1
f 37/96/3 48/39/3 38/51/3
f 48/39/3 43/41/3 22/37/3
f 49/52/4 48/68/4 51/53/4
f 31/45/2 46/65/2 25/46/2
f 28/42/6 26/93/6 30/43/6
f 40/95/3 46/56/3 39/55/3
f 46/56/3 42/86/3 47/57/3
f 36/58/2 40/63/2 39/59/2
f 35/98/1 52/62/1 36/61/1
f 52/62/1 41/89/1 25/49/1
f 38/59/6 34/60/6 33/58/6
f 34/64/5 38/66/5 22/46/5
f 46/65/5 40/64/5 36/66/5
f 33/67/4 51/53/4 48/68/4
f 34/97/1 18/71/1 33/70/1
f 18/71/1 44/85/1 51/72/1
f 47/73/4 50/78/4 45/74/4
f 32/92/3 30/77/3 31/76/3
f 30/77/3 42/86/3 46/56/3
f 50/78/4 49/52/4 29/54/4
f 21/79/5 30/100/5 26/80/5
f 47/73/4 52/75/4 35/82/4
f 42/86/3 30/77/3 50/87/3
f 30/77/3 21/38/3 50/87/3
f 21/38/3 43/41/3 49/40/3
f 44/85/1 17/90/1 29/84/1
f 17/90/1 26/50/1 45/88/1
f 26/50/1 41/89/1 45/88/1
f 19/94/1 17/90/1 20/91/1
f 17/90/1 44/85/1 18/71/1
f 79/86/1 58/56/1 57/77/1
f 58/56/1 60/76/1 57/77/1
f 53/93/2 57/43/2 59/44/2
f 58/65/6 54/46/6 56/47/6
f 77/85/3 61/71/3 62/90/3
f 61/71/3 63/91/3 62/90/3
f 79/86/1 84/57/1 58/56/1
f 84/57/1 73/55/1 58/56/1
f 87/68/4 84/53/4 85/54/4
f 61/65/2 82/46/2 67/47/2
f 66/93/6 62/43/6 64/44/6
f 78/41/1 82/37/1 83/39/1
f 82/37/1 76/51/1 83/39/1
f 75/63/2 76/59/2 72/60/2
f 77/85/3 88/72/3 61/71/3
f 88/72/3 71/70/3 61/71/3
f 69/63/6 70/59/6 74/60/6
f 70/66/5 54/46/5 58/65/5
f 72/64/5 76/66/5 82/46/5
f 84/53/4 87/68/4 69/69/4
f 80/89/3 54/49/3 87/62/3
f 54/49/3 70/61/3 87/62/3
f 83/75/4 88/73/4 81/78/4
f 78/41/1 66/38/1 82/37/1
f 66/38/1 68/36/1 82/37/1
f 65/52/4 85/54/4 86/74/4
f 62/81/5 66/79/5 57/100/5
f 71/83/4 88/73/4 83/75/4
f 57/77/1 66/38/1 86/40/1
f 66/38/1 78/41/1 86/40/1
f 86/40/1 85/87/1 57/77/1
f 62/90/3 53/50/3 81/84/3
f 53/50/3 80/89/3 65/88/3
f 81/84/3 53/50/3 65/88/3
f 80/89/3 53/50/3 54/49/3
f 53/50/3 55/48/3 54/49/3
