# Blender 4.4.3
# www.blender.org
mtllib laundry-basket_filled.mtl
o laundry-basket_filled-col
v -0.193274 0.269599 0.195000
v -0.265205 0.269599 0.175305
v 0.193274 0.269599 0.195000
v -0.295000 0.269599 0.127757
v -0.295000 0.269599 -0.127757
v -0.265205 0.269599 -0.175305
v -0.193274 0.269599 -0.195000
v 0.193274 0.269599 -0.195000
v 0.265205 0.269599 0.175305
v 0.295000 0.269599 0.127757
v 0.295000 0.269599 -0.127757
v 0.265205 0.269599 -0.175305
v -0.219250 0.012668 0.149741
v -0.200974 0.000000 0.123393
v -0.159873 0.000000 0.135451
v -0.163710 0.012668 0.166035
v -0.226819 0.043252 0.160655
v -0.165299 0.043252 0.178704
v -0.240479 0.012668 0.113439
v -0.211936 0.000000 0.104648
v -0.252302 0.043252 0.117080
v -0.163710 0.012668 -0.166035
v -0.159873 0.000000 -0.135451
v -0.200974 0.000000 -0.123393
v -0.219250 0.012668 -0.149741
v -0.165299 0.043252 -0.178704
v -0.226819 0.043252 -0.160655
v -0.211936 0.000000 -0.104648
v -0.240479 0.012668 -0.113439
v -0.252302 0.043252 -0.117080
v 0.240479 0.012668 -0.113439
v 0.211936 0.000000 -0.104648
v 0.200974 0.000000 -0.123393
v 0.219250 0.012668 -0.149741
v 0.252302 0.043252 -0.117080
v 0.226819 0.043252 -0.160655
v 0.159873 0.000000 -0.135451
v 0.163710 0.012668 -0.166035
v 0.165299 0.043252 -0.178704
v 0.163710 0.012668 0.166035
v 0.159873 0.000000 0.135451
v 0.200974 0.000000 0.123393
v 0.219250 0.012668 0.149741
v 0.165299 0.043252 0.178704
v 0.226819 0.043252 0.160655
v 0.211936 0.000000 0.104648
v 0.240479 0.012668 0.113439
v 0.252302 0.043252 0.117080
v -0.237410 0.305000 0.156932
v -0.264083 0.305000 0.114368
v -0.264083 0.305000 -0.114368
v -0.237410 0.305000 -0.156932
v -0.173018 0.305000 -0.174563
v 0.173018 0.305000 -0.174563
v 0.237410 0.305000 0.156932
v 0.237410 0.305000 -0.156932
v -0.173018 0.305000 0.174563
v 0.173018 0.305000 0.174563
v 0.264083 0.305000 0.114368
v 0.264083 0.305000 -0.114368
v 0.000000 0.280970 -0.193091
v 0.000000 0.280970 0.193092
v 0.000000 0.305000 -0.174563
v 0.000000 0.305000 0.174563
v -0.193274 0.305000 0.195000
v -0.265205 0.305000 0.175305
v -0.288735 0.305000 0.127757
v -0.265205 0.305000 -0.175305
v -0.193274 0.305000 -0.195000
v -0.288735 0.305000 -0.127757
v 0.265205 0.305000 -0.175305
v 0.288735 0.305000 -0.127757
v 0.193274 0.305000 -0.195000
v 0.265205 0.305000 0.175305
v 0.193274 0.305000 0.195000
v 0.288735 0.305000 0.127757
v 0.000000 0.305000 0.184292
v 0.000000 0.305000 -0.184292
v 0.172281 0.280014 0.174958
v 0.236399 0.280014 0.157288
v 0.262958 0.280014 0.114627
v 0.262958 0.280014 -0.114627
v 0.236399 0.280014 -0.157288
v 0.172281 0.280014 -0.174958
v -0.236399 0.280014 -0.157288
v -0.262958 0.280014 -0.114627
v -0.172281 0.280014 -0.174958
v -0.172281 0.280014 0.174958
v -0.236399 0.280014 0.157288
v -0.262958 0.280014 0.114627
v 0.019862 0.335399 0.011714
v 0.187915 0.302941 -0.125029
v 0.201562 0.329797 -0.044174
v 0.024767 0.353568 -0.108859
v 0.131069 0.335599 0.018999
v -0.172281 0.330397 0.114627
v -0.173854 0.373152 -0.048717
v 0.000000 0.280014 0.174958
v 0.019728 0.349786 0.116327
v 0.166778 0.329088 0.125833
vn -0.8380 0.1483 0.5251
vn -0.9847 0.1743 -0.0000
vn 0.9847 0.1743 -0.0000
vn -0.2641 -0.0000 0.9645
vn 0.2641 -0.0000 -0.9645
vn 0.8963 -0.0000 -0.4435
vn -0.2641 -0.0000 -0.9645
vn 0.8963 -0.0000 0.4435
vn -0.8963 -0.0000 -0.4435
vn 0.2641 -0.0000 0.9645
vn 0.2657 0.0030 0.9641
vn -0.8485 -0.0327 -0.5282
vn 0.8485 -0.0327 0.5282
vn -0.2657 0.0030 -0.9641
vn 0.8485 -0.0327 -0.5282
vn 0.2657 0.0030 -0.9641
vn -0.1082 -0.9232 0.3688
vn -0.2603 -0.3810 0.8872
vn -0.3448 -0.9168 0.2016
vn -0.8032 -0.3664 0.4697
vn -0.1082 -0.9232 -0.3688
vn -0.2603 -0.3810 -0.8872
vn -0.3448 -0.9168 -0.2016
vn -0.8032 -0.3664 -0.4697
vn 0.3448 -0.9168 -0.2016
vn 0.8032 -0.3664 -0.4697
vn 0.1082 -0.9232 -0.3688
vn 0.2603 -0.3810 -0.8872
vn 0.1082 -0.9232 0.3688
vn 0.2603 -0.3810 0.8872
vn 0.3448 -0.9168 0.2016
vn 0.8032 -0.3664 0.4697
vn -0.9327 -0.3606 -0.0000
vn -0.4057 -0.9140 -0.0000
vn -0.0000 -0.3827 -0.9239
vn 0.9327 -0.3606 -0.0000
vn 0.4057 -0.9140 -0.0000
vn -0.0000 -0.3827 0.9239
vn 0.2657 -0.0074 -0.9640
vn 0.8486 0.0268 -0.5283
vn 0.0099 -0.0000 -1.0000
vn 0.0099 -0.0000 1.0000
vn -0.0099 -0.0000 1.0000
vn -0.0099 -0.0000 -1.0000
vn -0.0000 1.0000 -0.0000
vn -0.0000 -0.9239 0.3827
vn -0.0000 -0.9239 -0.3827
vn -0.0000 -1.0000 -0.0000
vn -0.0000 0.0158 0.9999
vn -0.0000 0.0158 -0.9999
vn 0.9990 -0.0450 -0.0000
vn -0.9990 -0.0450 -0.0000
vn -0.9990 0.0450 -0.0000
vn -0.2641 -0.0030 0.9645
vn -0.8469 0.0326 0.5307
vn -0.8486 0.0268 -0.5283
vn -0.2657 -0.0074 -0.9640
vn 0.9990 0.0450 -0.0000
vn -0.8629 -0.0277 0.5046
vn -0.2815 0.0069 0.9595
vn 0.2657 -0.0074 0.9640
vn 0.8486 0.0268 0.5283
vn -0.0000 -0.0158 0.9999
vn -0.0000 -0.0158 -0.9999
vn -0.5472 0.7646 -0.3407
vn -0.1618 0.7931 -0.5872
vn -0.1740 0.7559 0.6312
vn -0.0115 0.9888 0.1485
vn 0.1228 0.8867 -0.4456
vn 0.6298 0.7767 -0.0000
vn 0.4617 0.8392 0.2874
vn 0.3111 0.9304 -0.1937
vn 0.2473 0.9063 -0.3428
vn 0.2205 0.8584 -0.4632
vn 0.2553 0.9464 0.1980
vn 0.1092 0.9619 0.2507
vn -0.0727 0.6536 0.7533
vn -0.1002 0.8000 -0.5915
vn -0.0983 0.9859 -0.1357
vn -0.0000 0.6433 0.7656
vn 0.1466 0.9800 -0.1346
vn 0.1884 0.7053 0.6834
vn -0.0059 0.9980 0.0628
vn -0.4730 0.8512 0.2274
vn -0.4649 0.8367 0.2894
vn -0.7226 0.6913 -0.0000
vn 0.3177 0.8825 -0.3467
vn 0.1184 0.9921 0.0410
vn -0.0000 0.6684 -0.7438
vn -0.0000 0.7676 0.6410
vn 0.1428 0.9778 0.1532
vn 0.0544 0.7095 0.7026
vn 0.4438 0.8912 -0.0940
vn -0.8963 -0.0000 0.4435
vn 0.8380 0.1483 -0.5251
vn 0.8380 0.1483 0.5251
vn -0.8380 0.1483 -0.5251
vn 0.2815 0.0069 0.9595
vn -0.8629 -0.0277 -0.5046
vn 0.8629 -0.0277 0.5046
vn -0.2815 0.0069 -0.9595
vn 0.8629 -0.0277 -0.5046
vn 0.2815 0.0069 -0.9595
vn 0.2641 -0.0030 -0.9645
vn 0.8469 0.0326 -0.5307
vn 0.0520 0.3434 -0.9378
vn 0.0520 0.3434 0.9378
vn -0.0520 0.3434 0.9378
vn -0.0520 0.3434 -0.9378
vn -0.2657 -0.0074 0.9640
vn -0.8486 0.0268 0.5283
vn -0.8469 0.0326 -0.5307
vn -0.2641 -0.0030 -0.9645
vn -0.8485 -0.0327 0.5282
vn -0.2657 0.0030 0.9641
vn 0.2641 -0.0030 0.9645
vn 0.8469 0.0326 0.5307
vt 0.689201 0.015834
vt 0.631263 0.047731
vt 0.631263 0.010449
vt 0.366293 0.010449
vt 0.763136 0.058992
vt 0.766260 0.022414
vt 0.689202 0.015834
vt 0.763136 0.058992
vt 0.686078 0.052412
vt 0.231297 0.022414
vt 0.311478 0.052412
vt 0.234420 0.058992
vt 0.308355 0.015834
vt 0.366293 0.047731
vt 0.311479 0.052412
vt 0.308355 0.015834
vt 0.366294 0.047731
vt 0.664377 0.234197
vt 0.907861 0.167747
vt 0.662125 0.165264
vt 0.906680 0.115414
vt 0.660905 0.113166
vt 0.907861 0.167747
vt 0.906680 0.115414
vt 0.976792 0.180337
vt 0.944253 0.230959
vt 0.942288 0.170969
vt 0.910037 0.234197
vt 0.907861 0.167747
vt 0.974373 0.146415
vt 0.940823 0.117574
vt 0.973865 0.123903
vt 0.941808 0.161173
vt 0.976792 0.180337
vt 0.978246 0.224732
vt 0.974373 0.146415
vt 0.940823 0.117574
vt 0.941808 0.161173
vt 0.973865 0.123903
vt 0.941808 0.161173
vt 0.944253 0.230959
vt 0.942288 0.170969
vt 0.910037 0.234197
vt 0.978246 0.224732
vt 0.942288 0.170969
vt 0.974373 0.146415
vt 0.941808 0.161173
vt 0.910148 0.231653
vt 0.944151 0.470702
vt 0.910148 0.474478
vt 0.944151 0.235429
vt 0.976535 0.461586
vt 0.909930 0.479174
vt 0.944259 0.820358
vt 0.909930 0.822006
vt 0.910148 0.231653
vt 0.944151 0.470702
vt 0.910148 0.474478
vt 0.944151 0.235429
vt 0.909930 0.479174
vt 0.909930 0.822006
vt 0.528446 0.949063
vt 0.459946 0.973967
vt 0.459483 0.948047
vt 0.580557 0.949345
vt 0.529172 0.974988
vt 0.032591 0.051218
vt 0.964965 0.051218
vt 0.032592 0.051218
vt 0.964965 0.051218
vt 0.766260 0.022414
vt 0.633398 0.422626
vt 0.607833 0.171542
vt 0.633397 0.157657
vt 0.580174 0.127402
vt 0.608997 0.108350
vt 0.534404 0.087926
vt 0.333978 0.099030
vt 0.513399 0.109119
vt 0.333978 0.109119
vt 0.087783 0.452881
vt 0.133553 0.492357
vt 0.058960 0.471934
vt 0.034559 0.422626
vt 0.034559 0.157657
vt 0.060124 0.408741
vt 0.087783 0.127402
vt 0.058960 0.108350
vt 0.133553 0.087926
vt 0.154558 0.109119
vt 0.580174 0.452881
vt 0.607833 0.408741
vt 0.534404 0.492357
vt 0.608997 0.471934
vt 0.333978 0.481254
vt 0.154558 0.471165
vt 0.333978 0.471165
vt 0.513398 0.471165
vt 0.978588 0.484801
vt 0.944259 0.480822
vt 0.944259 0.480822
vt 0.978588 0.816379
vt 0.166459 0.428283
vt 0.112469 0.396340
vt 0.166459 0.147356
vt 0.664377 0.650590
vt 0.664377 0.829246
vt 0.664377 0.471934
vt 0.664377 0.234197
vt 0.664377 0.234197
vt 0.581262 0.975274
vt 0.818260 0.945351
vt 0.818427 0.971289
vt 0.528446 0.949063
vt 0.870477 0.969253
vt 0.870333 0.943319
vt 0.101131 0.969805
vt 0.033228 0.943319
vt 0.102195 0.943902
vt 0.818427 0.971289
vt 0.662125 0.165264
vt 0.101131 0.969805
vt 0.033228 0.943319
vt 0.102195 0.943902
vt 0.870332 0.943319
vt 0.459483 0.948047
vt 0.280538 0.971886
vt 0.280538 0.971886
vt 0.280839 0.945974
vt 0.033228 0.843710
vt 0.157296 0.762443
vt 0.063276 0.893347
vt 0.134998 0.923027
vt 0.148426 0.598933
vt 0.064969 0.542881
vt 0.135582 0.515007
vt 0.457961 0.700395
vt 0.342606 0.824943
vt 0.343565 0.702765
vt 0.574501 0.901576
vt 0.501915 0.923027
vt 0.517137 0.861320
vt 0.605871 0.853444
vt 0.526777 0.770444
vt 0.614914 0.601643
vt 0.496155 0.591853
vt 0.586357 0.550592
vt 0.325450 0.498606
vt 0.345119 0.595374
vt 0.515685 0.518354
vt 0.034559 0.591598
vt 0.978246 0.224732
vt 0.973865 0.123903
vt 0.976535 0.244545
vt 0.976535 0.244545
vt 0.034559 0.077682
vt 0.962997 0.077682
vt 0.034559 0.077682
vt 0.962997 0.077682
vt 0.060124 0.171542
vt 0.552026 0.179299
vt 0.552026 0.396340
vt 0.498037 0.428283
vt 0.540659 0.415778
vt 0.498036 0.147356
vt 0.123836 0.415778
vt 0.112469 0.179299
vt 0.123836 0.159861
vt 0.540659 0.159860
vt 0.664377 0.471934
vt 0.031900 0.969219
vt 0.031900 0.969219
s 0
usemtl laundry-basket_filled_128
f 2/1/1 67/2/1 4/3/1
f 67/2/2 5/4/2 4/3/2
f 72/2/3 10/4/3 11/3/3
f 65/5/4 2/1/4 1/6/4
f 12/7/5 73/8/5 71/9/5
f 72/2/6 12/7/6 71/9/6
f 7/10/7 68/11/7 69/12/7
f 9/13/8 76/14/8 74/15/8
f 6/16/9 70/17/9 68/11/9
f 3/10/10 74/15/10 75/12/10
f 79/18/11 45/19/11 80/20/11
f 85/20/12 30/21/12 86/22/12
f 80/20/13 48/21/13 81/22/13
f 87/18/14 27/23/14 85/20/14
f 35/24/15 83/20/15 82/22/15
f 36/23/16 84/18/16 83/20/16
f 14/25/17 16/26/17 13/27/17
f 13/27/18 18/28/18 17/29/18
f 14/30/19 19/31/19 20/32/19
f 13/33/20 21/21/20 19/31/20
f 24/34/21 22/26/21 23/35/21
f 25/27/22 26/28/22 22/26/22
f 24/36/23 29/37/23 25/38/23
f 25/38/24 30/21/24 27/23/24
f 33/36/25 31/37/25 32/39/25
f 34/40/26 35/24/26 31/37/26
f 33/34/27 38/41/27 34/42/27
f 34/42/28 39/43/28 36/23/28
f 42/34/29 40/41/29 41/44/29
f 43/45/30 44/28/30 40/41/30
f 42/46/31 47/37/31 43/47/31
f 43/47/32 48/21/32 45/19/32
f 30/48/33 19/49/33 21/50/33
f 29/51/34 20/52/34 19/49/34
f 39/53/35 22/54/35 26/55/35
f 48/56/36 31/57/36 35/58/36
f 47/59/37 32/52/37 31/57/37
f 18/60/38 40/54/38 44/61/38
f 89/62/39 57/63/39 88/64/39
f 90/65/40 49/66/40 89/62/40
f 69/12/41 61/67/41 7/10/41
f 62/68/42 65/5/42 1/6/42
f 75/12/43 62/69/43 3/10/43
f 61/70/44 73/8/44 8/71/44
f 67/72/45 51/73/45 70/74/45
f 70/74/45 52/75/45 68/76/45
f 52/75/45 69/77/45 68/76/45
f 78/78/45 53/79/45 63/80/45
f 55/81/45 75/82/45 74/83/45
f 76/84/45 55/81/45 74/83/45
f 72/85/45 59/86/45 76/84/45
f 56/87/45 72/85/45 71/88/45
f 73/89/45 56/87/45 71/88/45
f 54/90/45 78/78/45 63/80/45
f 67/72/45 49/91/45 50/92/45
f 65/93/45 49/91/45 66/94/45
f 77/95/45 58/96/45 64/97/45
f 77/95/45 57/98/45 65/93/45
f 15/99/46 40/54/46 16/100/46
f 38/101/47 23/102/47 22/54/47
f 15/103/48 20/104/48 23/105/48
f 98/106/49 18/60/49 44/61/49
f 87/107/50 39/53/50 26/55/50
f 48/56/51 82/108/51 81/109/51
f 30/48/52 90/108/52 86/110/52
f 60/111/53 81/112/53 59/113/53
f 54/63/54 83/114/54 56/66/54
f 56/66/55 82/65/55 60/111/55
f 55/115/56 81/112/56 80/116/56
f 58/117/57 80/118/57 79/119/57
f 50/111/58 86/112/58 51/120/58
f 89/121/59 21/21/59 17/29/59
f 88/110/60 17/29/60 18/28/60
f 53/122/61 85/123/61 87/124/61
f 52/115/62 86/112/62 85/125/62
f 84/126/63 54/63/63 63/127/63
f 64/128/64 79/119/64 98/129/64
f 86/130/65 97/131/65 85/132/65
f 87/133/66 85/132/66 97/131/66
f 96/134/67 89/135/67 88/136/67
f 95/137/68 94/138/68 91/139/68
f 83/140/69 84/141/69 92/142/69
f 82/143/70 93/144/70 81/145/70
f 81/145/71 100/146/71 80/147/71
f 82/143/72 83/140/72 92/142/72
f 93/144/73 92/142/73 94/138/73
f 94/138/74 92/142/74 84/141/74
f 93/144/75 95/137/75 81/145/75
f 91/139/76 97/131/76 96/134/76
f 98/148/77 99/149/77 96/134/77
f 94/138/78 87/133/78 97/131/78
f 91/139/79 96/134/79 99/149/79
f 79/150/80 99/149/80 98/148/80
f 100/146/81 91/139/81 99/149/81
f 79/150/82 80/147/82 100/146/82
f 95/137/83 91/139/83 100/146/83
f 97/131/84 90/151/84 96/134/84
f 96/134/85 90/151/85 89/135/85
f 90/151/86 97/131/86 86/130/86
f 82/143/87 92/142/87 93/144/87
f 93/144/88 94/138/88 95/137/88
f 94/138/89 84/141/89 87/133/89
f 98/148/90 96/134/90 88/136/90
f 94/138/91 97/131/91 91/139/91
f 79/150/92 100/146/92 99/149/92
f 95/137/93 100/146/93 81/145/93
f 2/1/94 66/9/94 67/2/94
f 67/2/2 70/17/2 5/4/2
f 72/2/3 76/14/3 10/4/3
f 65/5/4 66/9/4 2/1/4
f 12/7/5 8/71/5 73/8/5
f 72/2/95 11/3/95 12/7/95
f 7/10/7 6/16/7 68/11/7
f 9/13/96 10/4/96 76/14/96
f 6/16/97 5/4/97 70/17/97
f 3/10/10 9/13/10 74/15/10
f 79/18/98 44/28/98 45/19/98
f 85/20/99 27/23/99 30/21/99
f 80/20/100 45/19/100 48/21/100
f 87/18/101 26/28/101 27/23/101
f 35/24/102 36/23/102 83/20/102
f 36/23/103 39/43/103 84/18/103
f 14/25/17 15/152/17 16/26/17
f 13/27/18 16/26/18 18/28/18
f 14/30/19 13/33/19 19/31/19
f 13/33/20 17/29/20 21/21/20
f 24/34/21 25/27/21 22/26/21
f 25/27/22 27/23/22 26/28/22
f 24/36/23 28/32/23 29/37/23
f 25/38/24 29/37/24 30/21/24
f 33/36/25 34/40/25 31/37/25
f 34/40/26 36/23/26 35/24/26
f 33/34/27 37/35/27 38/41/27
f 34/42/28 38/41/28 39/43/28
f 42/34/29 43/45/29 40/41/29
f 43/45/30 45/19/30 44/28/30
f 42/46/31 46/153/31 47/37/31
f 43/47/32 47/37/32 48/21/32
f 30/48/33 29/51/33 19/49/33
f 29/51/34 28/154/34 20/52/34
f 39/53/35 38/101/35 22/54/35
f 48/56/36 47/59/36 31/57/36
f 47/59/37 46/155/37 32/52/37
f 18/60/38 16/100/38 40/54/38
f 89/62/104 49/66/104 57/63/104
f 90/65/105 50/111/105 49/66/105
f 69/12/106 78/156/106 61/67/106
f 62/68/107 77/157/107 65/5/107
f 75/12/108 77/158/108 62/69/108
f 61/70/109 78/159/109 73/8/109
f 67/72/45 50/92/45 51/73/45
f 70/74/45 51/73/45 52/75/45
f 52/75/45 53/79/45 69/77/45
f 78/78/45 69/77/45 53/79/45
f 55/81/45 58/96/45 75/82/45
f 76/84/45 59/86/45 55/81/45
f 72/85/45 60/160/45 59/86/45
f 56/87/45 60/160/45 72/85/45
f 73/89/45 54/90/45 56/87/45
f 54/90/45 73/89/45 78/78/45
f 67/72/45 66/94/45 49/91/45
f 65/93/45 57/98/45 49/91/45
f 77/95/45 75/82/45 58/96/45
f 77/95/45 64/97/45 57/98/45
f 15/99/46 41/102/46 40/54/46
f 38/101/47 37/99/47 23/102/47
f 32/161/48 46/162/48 41/163/48
f 46/162/48 42/164/48 41/163/48
f 41/163/48 15/103/48 37/165/48
f 32/161/48 41/163/48 37/165/48
f 15/103/48 14/166/48 20/104/48
f 20/104/48 28/167/48 23/105/48
f 28/167/48 24/168/48 23/105/48
f 23/105/48 37/165/48 15/103/48
f 37/165/48 33/169/48 32/161/48
f 44/61/49 79/107/49 98/106/49
f 98/106/49 88/108/49 18/60/49
f 87/107/50 84/170/50 39/53/50
f 48/56/51 35/58/51 82/108/51
f 30/48/52 21/50/52 90/108/52
f 60/111/53 82/65/53 81/112/53
f 54/63/110 84/126/110 83/114/110
f 56/66/111 83/114/111 82/65/111
f 55/115/112 59/113/112 81/112/112
f 58/117/113 55/171/113 80/118/113
f 50/111/58 90/65/58 86/112/58
f 89/121/114 90/22/114 21/21/114
f 88/110/115 89/121/115 17/29/115
f 53/122/116 52/172/116 85/123/116
f 52/115/117 51/120/117 86/112/117
f 63/127/63 53/122/63 87/124/63
f 87/124/63 84/126/63 63/127/63
f 64/128/64 58/117/64 79/119/64
f 98/129/64 88/64/64 64/128/64
f 88/64/64 57/63/64 64/128/64
