# Blender 4.4.3
# www.blender.org
mtllib laundry-basket_empty.mtl
o laundry-basket_empty-col
v -0.193274 0.269599 0.195000
v -0.265205 0.269599 0.175305
v 0.193274 0.269599 0.195000
v -0.295000 0.269599 0.127757
v -0.295000 0.269599 -0.127757
v -0.265205 0.269599 -0.175305
v -0.193274 0.269599 -0.195000
v 0.193274 0.269599 -0.195000
v 0.265205 0.269599 0.175305
v 0.295000 0.269599 0.127757
v 0.295000 0.269599 -0.127757
v 0.265205 0.269599 -0.175305
v -0.219250 0.012668 0.149741
v -0.200974 -0.000000 0.123393
v -0.159873 -0.000000 0.135451
v -0.163710 0.012668 0.166035
v -0.226819 0.043252 0.160655
v -0.165299 0.043252 0.178704
v -0.240479 0.012668 0.113439
v -0.211936 -0.000000 0.104648
v -0.252302 0.043252 0.117080
v -0.163710 0.012668 -0.166035
v -0.159873 -0.000000 -0.135451
v -0.200974 -0.000000 -0.123393
v -0.219250 0.012668 -0.149741
v -0.165299 0.043252 -0.178704
v -0.226819 0.043252 -0.160655
v -0.211936 -0.000000 -0.104648
v -0.240479 0.012668 -0.113439
v -0.252302 0.043252 -0.117080
v 0.240479 0.012668 -0.113439
v 0.211936 -0.000000 -0.104648
v 0.200974 -0.000000 -0.123393
v 0.219250 0.012668 -0.149741
v 0.252302 0.043252 -0.117080
v 0.226819 0.043252 -0.160655
v 0.159873 -0.000000 -0.135451
v 0.163710 0.012668 -0.166035
v 0.165299 0.043252 -0.178704
v 0.163710 0.012668 0.166035
v 0.159873 -0.000000 0.135451
v 0.200974 -0.000000 0.123393
v 0.219250 0.012668 0.149741
v 0.165299 0.043252 0.178704
v 0.226819 0.043252 0.160655
v 0.211936 -0.000000 0.104648
v 0.240479 0.012668 0.113439
v 0.252302 0.043252 0.117080
v -0.237410 0.305000 0.156932
v -0.264083 0.305000 0.114368
v -0.264083 0.305000 -0.114368
v -0.237410 0.305000 -0.156932
v -0.173018 0.305000 -0.174563
v 0.173018 0.305000 -0.174563
v 0.237410 0.305000 0.156932
v 0.237410 0.305000 -0.156932
v -0.173018 0.305000 0.174563
v 0.173018 0.305000 0.174563
v 0.264083 0.305000 0.114368
v 0.264083 0.305000 -0.114368
v 0.000000 0.280970 -0.193091
v 0.000000 0.280970 0.193091
v 0.000000 0.305000 -0.174563
v 0.000000 0.305000 0.174563
v -0.193274 0.305000 0.195000
v -0.265205 0.305000 0.175305
v -0.288735 0.305000 0.127757
v -0.265205 0.305000 -0.175305
v -0.193274 0.305000 -0.195000
v -0.288735 0.305000 -0.127757
v 0.265205 0.305000 -0.175305
v 0.288735 0.305000 -0.127757
v 0.193274 0.305000 -0.195000
v 0.265205 0.305000 0.175305
v 0.193274 0.305000 0.195000
v 0.288735 0.305000 0.127757
v 0.000000 0.305000 0.184292
v 0.000000 0.305000 -0.184292
v -0.154332 0.066852 -0.178330
v -0.154332 0.141328 -0.177152
v -0.154332 0.163671 -0.176799
v -0.120036 0.066852 -0.178330
v -0.154332 0.238148 -0.175621
v -0.085740 0.141328 -0.177152
v -0.120036 0.141328 -0.177152
v -0.120036 0.163671 -0.176799
v -0.085740 0.163671 -0.176799
v -0.120036 0.238148 -0.175621
v -0.051444 0.066852 -0.178330
v -0.085740 0.066852 -0.178330
v -0.017148 0.066852 -0.178330
v -0.051444 0.141328 -0.177152
v -0.017148 0.163671 -0.176799
v -0.017148 0.141328 -0.177152
v -0.051444 0.163671 -0.176799
v 0.017148 0.066852 -0.178330
v 0.051444 0.066852 -0.178330
v 0.017148 0.141328 -0.177152
v 0.120036 0.066852 -0.178330
v 0.085740 0.066852 -0.178330
v 0.051444 0.238148 -0.175621
v 0.120036 0.141328 -0.177152
v 0.120036 0.163671 -0.176799
v 0.085740 0.238148 -0.175621
v 0.154332 0.238148 -0.175621
v 0.154332 0.141328 -0.177152
v 0.154332 0.163671 -0.176799
v 0.154332 0.066852 -0.178330
v 0.120036 0.238148 -0.175621
v -0.085740 0.238148 -0.175621
v -0.051444 0.238148 -0.175621
v -0.017148 0.238148 -0.175621
v 0.017148 0.163671 -0.176799
v 0.017148 0.238148 -0.175621
v 0.085740 0.141328 -0.177152
v 0.051444 0.163671 -0.176799
v 0.051444 0.141328 -0.177152
v 0.085740 0.163671 -0.176799
v -0.120036 0.066852 0.178330
v -0.085740 0.066852 0.178330
v -0.017148 0.066852 0.178330
v -0.051444 0.066852 0.178330
v -0.017148 0.141328 0.177152
v 0.017148 0.141328 0.177152
v 0.051444 0.141328 0.177152
v 0.051444 0.163671 0.176799
v 0.017148 0.163671 0.176799
v 0.051444 0.066852 0.178330
v 0.017148 0.066852 0.178330
v 0.085740 0.141328 0.177152
v 0.120036 0.141328 0.177152
v 0.120036 0.163671 0.176799
v 0.085740 0.163671 0.176799
v 0.120036 0.066852 0.178330
v 0.085740 0.066852 0.178330
v 0.154332 0.238148 0.175621
v 0.154332 0.141328 0.177152
v 0.154332 0.163671 0.176799
v 0.154332 0.066852 0.178330
v 0.120036 0.238148 0.175621
v -0.154332 0.066852 0.178330
v -0.154332 0.141328 0.177152
v -0.154332 0.163671 0.176799
v -0.154332 0.238148 0.175621
v -0.051444 0.238148 0.175621
v -0.085740 0.238148 0.175621
v -0.120036 0.141328 0.177152
v -0.120036 0.163671 0.176799
v -0.120036 0.238148 0.175621
v -0.085740 0.141328 0.177152
v -0.085740 0.163671 0.176799
v -0.051444 0.141328 0.177152
v -0.051444 0.163671 0.176799
v -0.017148 0.163671 0.176799
v -0.017148 0.238148 0.175621
v 0.051444 0.238148 0.175621
v 0.017148 0.238148 0.175621
v 0.085740 0.238148 0.175621
v 0.261074 0.238148 0.017148
v 0.261074 0.238148 0.051444
v 0.257722 0.163671 -0.017148
v 0.256716 0.141328 -0.051444
v 0.261074 0.238148 -0.017148
v 0.257722 0.163671 -0.051444
v 0.261074 0.238148 -0.085740
v 0.256716 0.141328 -0.085740
v 0.257722 0.163671 -0.085740
v 0.261074 0.238148 -0.051444
v 0.253364 0.066852 0.085740
v 0.257722 0.163671 0.085740
v 0.256716 0.141328 0.085740
v 0.261074 0.238148 0.085740
v 0.256716 0.141328 0.051444
v 0.257722 0.163671 0.051444
v 0.253364 0.066852 0.051444
v 0.253364 0.066852 0.017148
v 0.256716 0.141328 0.017148
v 0.257722 0.163671 0.017148
v 0.253364 0.066852 -0.051444
v 0.253364 0.066852 -0.017148
v 0.253364 0.066852 -0.085740
v 0.256716 0.141328 -0.017148
v -0.256716 0.141328 0.085740
v -0.257722 0.163671 0.085740
v -0.261074 0.238148 0.085740
v -0.256716 0.141328 0.051444
v -0.257722 0.163671 0.017148
v -0.257722 0.163671 0.051444
v -0.261074 0.238148 0.051444
v -0.261074 0.238148 0.017148
v -0.261074 0.238148 -0.051444
v -0.261074 0.238148 -0.017148
v -0.253364 0.066852 0.085740
v -0.253364 0.066852 0.051444
v -0.253364 0.066852 0.017148
v -0.256716 0.141328 0.017148
v -0.253364 0.066852 -0.017148
v -0.256716 0.141328 -0.017148
v -0.257722 0.163671 -0.017148
v -0.256716 0.141328 -0.051444
v -0.257722 0.163671 -0.051444
v -0.253364 0.066852 -0.085740
v -0.257722 0.163671 -0.085740
v -0.261074 0.238148 -0.085740
v -0.256716 0.141328 -0.085740
v -0.253364 0.066852 -0.051444
vn -0.8380 0.1483 0.5251
vn -0.9847 0.1743 -0.0000
vn 0.9847 0.1743 -0.0000
vn -0.2641 -0.0000 0.9645
vn 0.2641 -0.0000 -0.9645
vn 0.8963 -0.0000 -0.4435
vn -0.2641 -0.0000 -0.9645
vn 0.8963 -0.0000 0.4435
vn -0.8963 -0.0000 -0.4435
vn 0.2641 -0.0000 0.9645
vn 0.2641 0.0030 0.9645
vn -0.8469 -0.0326 -0.5307
vn 0.8469 -0.0326 0.5307
vn -0.2641 0.0030 -0.9645
vn 0.8469 -0.0326 -0.5307
vn 0.2641 0.0030 -0.9645
vn -0.1082 -0.9232 0.3688
vn -0.2603 -0.3810 0.8872
vn -0.3448 -0.9168 0.2016
vn -0.8032 -0.3664 0.4697
vn -0.1082 -0.9232 -0.3688
vn -0.2603 -0.3810 -0.8872
vn -0.3448 -0.9168 -0.2016
vn -0.8032 -0.3664 -0.4697
vn 0.3448 -0.9168 -0.2016
vn 0.8032 -0.3664 -0.4697
vn 0.1082 -0.9232 -0.3688
vn 0.2603 -0.3810 -0.8872
vn 0.1082 -0.9232 0.3688
vn 0.2603 -0.3810 0.8872
vn 0.3448 -0.9168 0.2016
vn 0.8032 -0.3664 0.4697
vn -0.9327 -0.3606 -0.0000
vn -0.4057 -0.9140 -0.0000
vn -0.0000 -0.3827 -0.9239
vn 0.9327 -0.3606 -0.0000
vn 0.4057 -0.9140 -0.0000
vn -0.0000 -0.3827 0.9239
vn -0.2815 0.0069 0.9595
vn 0.9990 -0.0450 -0.0000
vn -0.0000 0.0158 -0.9999
vn -0.9990 -0.0450 -0.0000
vn -0.0000 0.0158 0.9999
vn -0.8629 -0.0277 0.5046
vn 0.0099 -0.0000 -1.0000
vn 0.0099 -0.0000 1.0000
vn -0.0099 -0.0000 1.0000
vn -0.0099 -0.0000 -1.0000
vn -0.0000 1.0000 -0.0000
vn -0.0000 -0.9239 0.3827
vn -0.0000 -0.9239 -0.3827
vn -0.0000 -1.0000 -0.0000
vn -0.8963 -0.0000 0.4435
vn 0.8380 0.1483 -0.5251
vn 0.8380 0.1483 0.5251
vn -0.8380 0.1483 -0.5251
vn 0.2815 0.0069 0.9595
vn -0.8629 -0.0277 -0.5046
vn 0.8629 -0.0277 0.5046
vn -0.2815 0.0069 -0.9595
vn 0.8629 -0.0277 -0.5046
vn 0.2815 0.0069 -0.9595
vn -0.2641 0.0030 0.9645
vn -0.8469 -0.0326 0.5307
vn 0.0520 0.3434 -0.9378
vn 0.0520 0.3434 0.9378
vn -0.0520 0.3434 0.9378
vn -0.0520 0.3434 -0.9378
vt 0.703125 0.425781
vt 0.640625 0.457031
vt 0.640625 0.417969
vt 0.363281 0.417969
vt 0.781250 0.468750
vt 0.781250 0.429688
vt 0.699219 0.464844
vt 0.218750 0.429688
vt 0.304688 0.464844
vt 0.222656 0.468750
vt 0.300781 0.425781
vt 0.363281 0.457031
vt 0.109375 0.390625
vt 0.179688 0.109375
vt 0.179688 0.394531
vt 0.234375 0.109375
vt 0.234375 0.394531
vt 0.164062 0.035156
vt 0.113281 0.070312
vt 0.175781 0.070312
vt 0.109375 0.105469
vt 0.199219 0.039062
vt 0.230469 0.074219
vt 0.222656 0.039062
vt 0.183594 0.070312
vt 0.117188 0.035156
vt 0.484375 0.074219
vt 0.488281 0.109375
vt 0.238281 0.074219
vt 0.476562 0.039062
vt 0.492188 0.109375
vt 0.851562 0.074219
vt 0.855469 0.109375
vt 0.265625 0.214844
vt 0.265625 0.242188
vt 0.343750 0.132812
vt 0.378906 0.132812
vt 0.503906 0.214844
vt 0.503906 0.242188
vt 0.378906 0.214844
vt 0.417969 0.132812
vt 0.417969 0.214844
vt 0.730469 0.242188
vt 0.691406 0.320312
vt 0.691406 0.242188
vt 0.691406 0.136719
vt 0.656250 0.136719
vt 0.765625 0.214844
vt 0.804688 0.136719
vt 0.804688 0.214844
vt 0.011719 0.460938
vt 0.992188 0.460938
vt 0.191406 0.562500
vt 0.218750 0.828125
vt 0.191406 0.843750
vt 0.250000 0.875000
vt 0.218750 0.894531
vt 0.296875 0.914062
vt 0.507812 0.902344
vt 0.320312 0.894531
vt 0.507812 0.894531
vt 0.765625 0.531250
vt 0.718750 0.492188
vt 0.796875 0.511719
vt 0.820312 0.562500
vt 0.820312 0.843750
vt 0.796875 0.578125
vt 0.765625 0.875000
vt 0.796875 0.894531
vt 0.718750 0.914062
vt 0.695312 0.894531
vt 0.250000 0.531250
vt 0.218750 0.578125
vt 0.296875 0.492188
vt 0.218750 0.511719
vt 0.507812 0.500000
vt 0.695312 0.511719
vt 0.507812 0.511719
vt 0.320312 0.511719
vt 0.500000 0.035156
vt 0.496094 0.074219
vt 0.847656 0.035156
vt 0.339844 0.859375
vt 0.281250 0.824219
vt 0.339844 0.562500
vt 0.843750 0.242188
vt 0.843750 0.214844
vt 0.765625 0.320312
vt 0.804688 0.242188
vt 0.804688 0.320312
vt 0.675781 0.394531
vt 0.656250 0.320312
vt 0.617188 0.214844
vt 0.656250 0.214844
vt 0.582031 0.242188
vt 0.542969 0.242188
vt 0.542969 0.214844
vt 0.582031 0.136719
vt 0.582031 0.214844
vt 0.542969 0.320312
vt 0.582031 0.320312
vt 0.617188 0.242188
vt 0.656250 0.242188
vt 0.617188 0.320312
vt 0.863281 0.394531
vt 0.730469 0.136719
vt 0.691406 0.214844
vt 0.765625 0.136719
vt 0.542969 0.136719
vt 0.343750 0.320312
vt 0.304688 0.242188
vt 0.343750 0.242188
vt 0.304688 0.214844
vt 0.343750 0.214844
vt 0.378906 0.320312
vt 0.484375 0.394531
vt 0.378906 0.242188
vt 0.417969 0.320312
vt 0.453125 0.214844
vt 0.453125 0.132812
vt 0.417969 0.242188
vt 0.304688 0.320312
vt 0.246094 0.039062
vt 0.265625 0.320312
vt 0.265625 0.132812
vt 0.304688 0.132812
vt 0.503906 0.320312
vt 0.503906 0.136719
vt 0.730469 0.320312
vt 0.843750 0.136719
vt 0.617188 0.136719
vt 0.011719 0.488281
vt 0.988281 0.488281
vt 0.796875 0.828125
vt 0.742188 0.597656
vt 0.742188 0.824219
vt 0.687500 0.859375
vt 0.730469 0.843750
vt 0.687500 0.562500
vt 0.292969 0.843750
vt 0.281250 0.597656
vt 0.292969 0.578125
vt 0.730469 0.578125
vt 0.843750 0.320312
vt 0.765625 0.242188
vt 0.730469 0.214844
vt 0.453125 0.242188
vt 0.453125 0.320312
s 0
usemtl laundry-basket_empty_128
f 2/1/1 67/2/1 4/3/1
f 67/2/2 5/4/2 4/3/2
f 72/2/3 10/4/3 11/3/3
f 65/5/4 2/1/4 1/6/4
f 12/1/5 73/5/5 71/7/5
f 72/2/6 12/1/6 71/7/6
f 7/8/7 68/9/7 69/10/7
f 9/11/8 76/12/8 74/9/8
f 6/11/9 70/12/9 68/9/9
f 3/8/10 74/9/10 75/10/10
f 58/13/11 45/14/11 55/15/11
f 52/15/12 30/16/12 51/17/12
f 55/15/13 48/16/13 59/17/13
f 53/13/14 27/14/14 52/15/14
f 35/16/15 56/15/15 60/17/15
f 36/14/16 54/13/16 56/15/16
f 14/18/17 16/19/17 13/20/17
f 13/20/18 18/21/18 17/14/18
f 14/22/19 19/23/19 20/24/19
f 13/25/20 21/16/20 19/23/20
f 24/18/21 22/19/21 23/26/21
f 25/20/22 26/21/22 22/19/22
f 24/22/23 29/23/23 25/25/23
f 25/25/24 30/16/24 27/14/24
f 33/22/25 31/23/25 32/24/25
f 34/25/26 35/16/26 31/23/26
f 33/18/27 38/19/27 34/20/27
f 34/20/28 39/21/28 36/14/28
f 42/18/29 40/19/29 41/26/29
f 43/20/30 44/21/30 40/19/30
f 42/22/31 47/23/31 43/25/31
f 43/25/32 48/16/32 45/14/32
f 30/16/33 19/27/33 21/28/33
f 29/29/34 20/30/34 19/27/34
f 39/31/35 22/32/35 26/33/35
f 48/16/36 31/27/36 35/28/36
f 47/29/37 32/30/37 31/27/37
f 18/31/38 40/32/38 44/33/38
f 57/13/39 17/14/39 18/21/39
f 171/34/40 170/35/40 48/16/40
f 176/36/40 48/16/40 180/37/40
f 106/38/41 107/39/41 39/31/41
f 196/40/42 194/41/42 186/42/42
f 197/36/42 30/16/42 195/37/42
f 126/43/43 157/44/43 127/45/43
f 18/31/43 129/46/43 121/47/43
f 130/48/43 134/49/43 131/50/43
f 49/15/44 21/16/44 17/14/44
f 69/10/45 61/51/45 7/8/45
f 62/52/46 65/5/46 1/6/46
f 75/10/47 62/51/47 3/8/47
f 61/52/48 73/5/48 8/6/48
f 67/53/49 51/54/49 70/55/49
f 70/55/49 52/56/49 68/57/49
f 52/56/49 69/58/49 68/57/49
f 78/59/49 53/60/49 63/61/49
f 55/62/49 75/63/49 74/64/49
f 76/65/49 55/62/49 74/64/49
f 72/66/49 59/67/49 76/65/49
f 56/68/49 72/66/49 71/69/49
f 73/70/49 56/68/49 71/69/49
f 54/71/49 78/59/49 63/61/49
f 67/53/49 49/72/49 50/73/49
f 65/74/49 49/72/49 66/75/49
f 77/76/49 58/77/49 64/78/49
f 77/76/49 57/79/49 65/74/49
f 15/80/50 40/32/50 16/81/50
f 38/81/51 23/82/51 22/32/51
f 15/83/52 20/84/52 23/85/52
f 81/86/41 80/87/41 26/33/41
f 110/88/41 86/89/41 88/90/41
f 63/91/41 114/92/41 112/44/41
f 117/93/41 96/47/41 98/94/41
f 118/95/41 103/96/41 102/97/41
f 102/97/41 100/98/41 115/99/41
f 109/100/41 118/95/41 104/101/41
f 114/92/41 116/102/41 113/103/41
f 104/101/41 101/104/41 63/91/41
f 110/88/41 88/90/41 53/105/41
f 95/43/41 112/44/41 93/45/41
f 89/106/41 94/107/41 91/46/41
f 82/49/41 84/48/41 90/108/41
f 39/31/41 91/46/41 96/47/41
f 152/93/43 121/47/43 123/94/43
f 151/95/43 149/100/43 148/96/43
f 146/101/43 145/104/43 64/91/43
f 128/106/43 124/107/43 129/46/43
f 154/103/43 145/104/43 153/102/43
f 155/92/43 157/44/43 64/91/43
f 138/86/43 137/87/43 44/33/43
f 158/88/43 132/89/43 140/90/43
f 142/38/43 143/39/43 18/31/43
f 158/88/43 140/90/43 58/105/43
f 120/98/43 147/97/43 119/109/43
f 130/48/43 131/50/43 132/89/43
f 159/110/40 174/111/40 178/112/40
f 173/113/40 176/36/40 177/114/40
f 178/112/40 174/111/40 173/113/40
f 159/110/40 163/115/40 60/116/40
f 161/117/40 168/118/40 163/115/40
f 182/40/40 179/41/40 162/42/40
f 166/119/40 181/120/40 35/28/40
f 183/119/42 193/120/42 21/28/42
f 196/40/42 186/42/42 188/121/42
f 205/34/42 203/35/42 30/16/42
f 187/117/42 189/118/42 190/115/42
f 191/122/42 199/112/42 192/110/42
f 192/110/42 190/115/42 50/116/42
f 200/113/42 197/36/42 198/114/42
f 2/1/53 66/7/53 67/2/53
f 67/2/2 70/12/2 5/4/2
f 72/2/3 76/12/3 10/4/3
f 65/5/4 66/7/4 2/1/4
f 12/1/5 8/6/5 73/5/5
f 72/2/54 11/3/54 12/1/54
f 7/8/7 6/11/7 68/9/7
f 9/11/55 10/4/55 76/12/55
f 6/11/56 5/4/56 70/12/56
f 3/8/10 9/11/10 74/9/10
f 58/13/57 44/21/57 45/14/57
f 52/15/58 27/14/58 30/16/58
f 55/15/59 45/14/59 48/16/59
f 53/13/60 26/21/60 27/14/60
f 35/16/61 36/14/61 56/15/61
f 36/14/62 39/21/62 54/13/62
f 14/18/17 15/26/17 16/19/17
f 13/20/18 16/19/18 18/21/18
f 14/22/19 13/25/19 19/23/19
f 13/25/20 17/14/20 21/16/20
f 24/18/21 25/20/21 22/19/21
f 25/20/22 27/14/22 26/21/22
f 24/22/23 28/24/23 29/23/23
f 25/25/24 29/23/24 30/16/24
f 33/22/25 34/25/25 31/23/25
f 34/25/26 36/14/26 35/16/26
f 33/18/27 37/26/27 38/19/27
f 34/20/28 38/19/28 39/21/28
f 42/18/29 43/20/29 40/19/29
f 43/20/30 45/14/30 44/21/30
f 42/22/31 46/24/31 47/23/31
f 43/25/32 47/23/32 48/16/32
f 30/16/33 29/29/33 19/27/33
f 29/29/34 28/123/34 20/30/34
f 39/31/35 38/81/35 22/32/35
f 48/16/36 47/29/36 31/27/36
f 47/29/37 46/123/37 32/30/37
f 18/31/38 16/81/38 40/32/38
f 57/13/63 49/15/63 17/14/63
f 170/35/40 172/124/40 59/17/40
f 59/17/40 48/16/40 170/35/40
f 48/16/40 169/125/40 171/34/40
f 175/126/40 169/125/40 48/16/40
f 48/16/40 35/28/40 180/37/40
f 35/28/40 181/120/40 179/41/40
f 35/28/40 179/41/40 180/37/40
f 176/36/40 175/126/40 48/16/40
f 107/39/41 105/127/41 54/116/41
f 54/116/41 39/31/41 107/39/41
f 39/31/41 108/128/41 106/38/41
f 196/40/42 195/37/42 194/41/42
f 206/126/42 202/125/42 30/16/42
f 30/16/42 21/28/42 195/37/42
f 21/28/42 193/120/42 194/41/42
f 21/28/42 194/41/42 195/37/42
f 197/36/42 206/126/42 30/16/42
f 126/43/43 156/129/43 157/44/43
f 119/109/43 141/128/43 18/31/43
f 18/31/43 44/33/43 129/46/43
f 44/33/43 139/130/43 134/49/43
f 44/33/43 134/49/43 135/108/43
f 120/98/43 119/109/43 18/31/43
f 122/131/43 120/98/43 18/31/43
f 44/33/43 135/108/43 128/106/43
f 44/33/43 128/106/43 129/46/43
f 121/47/43 122/131/43 18/31/43
f 130/48/43 135/108/43 134/49/43
f 49/15/64 50/17/64 21/16/64
f 69/10/65 78/132/65 61/51/65
f 62/52/66 77/133/66 65/5/66
f 75/10/67 77/132/67 62/51/67
f 61/52/68 78/133/68 73/5/68
f 67/53/49 50/73/49 51/54/49
f 70/55/49 51/54/49 52/56/49
f 52/56/49 53/60/49 69/58/49
f 78/59/49 69/58/49 53/60/49
f 55/62/49 58/77/49 75/63/49
f 76/65/49 59/67/49 55/62/49
f 72/66/49 60/134/49 59/67/49
f 56/68/49 60/134/49 72/66/49
f 73/70/49 54/71/49 56/68/49
f 54/71/49 73/70/49 78/59/49
f 67/53/49 66/75/49 49/72/49
f 65/74/49 57/79/49 49/72/49
f 77/76/49 75/63/49 58/77/49
f 77/76/49 64/78/49 57/79/49
f 15/80/50 41/82/50 40/32/50
f 38/81/51 37/80/51 23/82/51
f 32/135/52 46/136/52 41/137/52
f 46/136/52 42/138/52 41/137/52
f 41/137/52 15/83/52 37/139/52
f 32/135/52 41/137/52 37/139/52
f 15/83/52 14/140/52 20/84/52
f 20/84/52 28/141/52 23/85/52
f 28/141/52 24/142/52 23/85/52
f 23/85/52 37/139/52 15/83/52
f 37/139/52 33/143/52 32/135/52
f 80/87/41 79/130/41 26/33/41
f 26/33/41 53/105/41 81/86/41
f 53/105/41 83/144/41 81/86/41
f 110/88/41 87/145/41 86/89/41
f 117/93/41 97/131/41 96/47/41
f 85/50/41 80/87/41 81/86/41
f 85/50/41 81/86/41 86/89/41
f 84/48/41 85/50/41 86/89/41
f 84/48/41 86/89/41 87/145/41
f 92/146/41 84/48/41 87/145/41
f 92/146/41 87/145/41 95/43/41
f 94/107/41 92/146/41 95/43/41
f 94/107/41 95/43/41 93/45/41
f 98/94/41 94/107/41 93/45/41
f 98/94/41 93/45/41 113/103/41
f 117/93/41 98/94/41 113/103/41
f 117/93/41 113/103/41 116/102/41
f 115/99/41 117/93/41 116/102/41
f 115/99/41 116/102/41 118/95/41
f 107/39/41 106/38/41 102/97/41
f 102/97/41 115/99/41 118/95/41
f 103/96/41 107/39/41 102/97/41
f 102/97/41 99/109/41 100/98/41
f 109/100/41 103/96/41 118/95/41
f 114/92/41 101/104/41 116/102/41
f 101/104/41 114/92/41 63/91/41
f 63/91/41 54/116/41 104/101/41
f 54/116/41 105/127/41 109/100/41
f 54/116/41 109/100/41 104/101/41
f 88/90/41 83/144/41 53/105/41
f 53/105/41 63/91/41 110/88/41
f 63/91/41 112/44/41 111/129/41
f 63/91/41 111/129/41 110/88/41
f 95/43/41 111/129/41 112/44/41
f 89/106/41 92/146/41 94/107/41
f 82/49/41 85/50/41 84/48/41
f 99/109/41 108/128/41 39/31/41
f 39/31/41 26/33/41 91/46/41
f 26/33/41 79/130/41 82/49/41
f 26/33/41 82/49/41 90/108/41
f 100/98/41 99/109/41 39/31/41
f 97/131/41 100/98/41 39/31/41
f 26/33/41 90/108/41 89/106/41
f 26/33/41 89/106/41 91/46/41
f 96/47/41 97/131/41 39/31/41
f 152/93/43 122/131/43 121/47/43
f 151/95/43 146/101/43 149/100/43
f 145/104/43 155/92/43 64/91/43
f 64/91/43 57/116/43 146/101/43
f 57/116/43 144/127/43 149/100/43
f 57/116/43 149/100/43 146/101/43
f 128/106/43 125/146/43 124/107/43
f 154/103/43 155/92/43 145/104/43
f 137/87/43 139/130/43 44/33/43
f 44/33/43 58/105/43 138/86/43
f 58/105/43 136/144/43 138/86/43
f 158/88/43 133/145/43 132/89/43
f 143/39/43 144/127/43 57/116/43
f 57/116/43 18/31/43 143/39/43
f 18/31/43 141/128/43 142/38/43
f 140/90/43 136/144/43 58/105/43
f 58/105/43 64/91/43 158/88/43
f 64/91/43 157/44/43 156/129/43
f 64/91/43 156/129/43 158/88/43
f 120/98/43 150/99/43 147/97/43
f 148/96/43 143/39/43 142/38/43
f 148/96/43 142/38/43 147/97/43
f 151/95/43 148/96/43 147/97/43
f 151/95/43 147/97/43 150/99/43
f 153/102/43 151/95/43 150/99/43
f 153/102/43 150/99/43 152/93/43
f 154/103/43 153/102/43 152/93/43
f 154/103/43 152/93/43 123/94/43
f 127/45/43 154/103/43 123/94/43
f 127/45/43 123/94/43 124/107/43
f 126/43/43 127/45/43 124/107/43
f 126/43/43 124/107/43 125/146/43
f 133/145/43 126/43/43 125/146/43
f 133/145/43 125/146/43 130/48/43
f 137/87/43 138/86/43 132/89/43
f 132/89/43 133/145/43 130/48/43
f 131/50/43 137/87/43 132/89/43
f 159/110/40 160/122/40 174/111/40
f 173/113/40 175/126/40 176/36/40
f 162/42/40 166/119/40 167/147/40
f 162/42/40 167/147/40 164/121/40
f 182/40/40 162/42/40 164/121/40
f 182/40/40 164/121/40 161/117/40
f 177/114/40 182/40/40 161/117/40
f 177/114/40 161/117/40 178/112/40
f 170/35/40 171/34/40 173/113/40
f 173/113/40 177/114/40 178/112/40
f 174/111/40 170/35/40 173/113/40
f 168/118/40 165/148/40 60/116/40
f 60/116/40 59/17/40 159/110/40
f 59/17/40 172/124/40 160/122/40
f 59/17/40 160/122/40 159/110/40
f 163/115/40 168/118/40 60/116/40
f 161/117/40 164/121/40 168/118/40
f 182/40/40 180/37/40 179/41/40
f 35/28/40 60/116/40 167/147/40
f 60/116/40 165/148/40 167/147/40
f 35/28/40 167/147/40 166/119/40
f 21/28/42 50/116/42 184/147/42
f 50/116/42 185/148/42 184/147/42
f 21/28/42 184/147/42 183/119/42
f 201/111/42 203/35/42 205/34/42
f 201/111/42 205/34/42 200/113/42
f 199/112/42 201/111/42 200/113/42
f 199/112/42 200/113/42 198/114/42
f 187/117/42 199/112/42 198/114/42
f 187/117/42 198/114/42 196/40/42
f 183/119/42 184/147/42 188/121/42
f 188/121/42 187/117/42 196/40/42
f 186/42/42 183/119/42 188/121/42
f 203/35/42 204/124/42 51/17/42
f 51/17/42 30/16/42 203/35/42
f 30/16/42 202/125/42 205/34/42
f 187/117/42 188/121/42 189/118/42
f 191/122/42 201/111/42 199/112/42
f 189/118/42 185/148/42 50/116/42
f 50/116/42 51/17/42 192/110/42
f 51/17/42 204/124/42 191/122/42
f 51/17/42 191/122/42 192/110/42
f 190/115/42 189/118/42 50/116/42
f 200/113/42 206/126/42 197/36/42
