# Blender 4.4.3
# www.blender.org
mtllib notice-board.mtl
o notice-board-col
v -0.533781 0.066219 0.029454
v -0.533781 0.833780 0.029454
v -0.600000 -0.000000 -0.000000
v -0.600000 0.900000 -0.000000
v 0.533781 0.066219 0.029454
v 0.533781 0.833780 0.029454
v 0.600000 -0.000000 -0.000000
v 0.600000 0.900000 -0.000000
v -0.600000 -0.000000 0.029454
v -0.600000 0.900000 0.029454
v 0.600000 0.900000 0.029454
v 0.600000 -0.000000 0.029454
v -0.533781 0.066219 0.003978
v -0.533781 0.833780 0.003978
v 0.533781 0.833780 0.003978
v 0.533781 0.066219 0.003978
vn -1.0000 -0.0000 -0.0000
vn -0.0000 -0.0000 -1.0000
vn 1.0000 -0.0000 -0.0000
vn -0.0000 1.0000 -0.0000
vn -0.0000 -1.0000 -0.0000
vn -0.0000 -0.0000 1.0000
vt 0.667969 0.992188
vt 0.652344 0.542969
vt 0.667969 0.542969
vt 0.589844 0.449219
vt 0.011719 0.007812
vt 0.589844 0.007812
vt 0.007812 0.492188
vt 0.531250 0.480469
vt 0.531250 0.492188
vt 0.593750 0.460938
vt 0.007812 0.476562
vt 0.007812 0.460938
vt 0.042969 0.957031
vt 0.007812 0.523438
vt 0.042969 0.558594
vt 0.597656 0.558594
vt 0.632812 0.992188
vt 0.597656 0.957031
vt 0.632812 0.523438
vt 0.007812 0.992188
vt 0.582031 0.945312
vt 0.058594 0.570312
vt 0.582031 0.570312
vt 0.695312 0.589844
vt 0.707031 0.964844
vt 0.695312 0.964844
vt 0.531250 0.496094
vt 0.007812 0.507812
vt 0.007812 0.496094
vt 0.707031 0.589844
vt 0.652344 0.992188
vt 0.011719 0.449219
vt 0.007812 0.480469
vt 0.593750 0.476562
vt 0.058594 0.945312
vt 0.531250 0.507812
s 0
usemtl notice-board_256
f 10/1/1 3/2/1 9/3/1
f 4/4/2 7/5/2 3/6/2
f 8/1/3 12/2/3 7/3/3
f 5/7/4 13/8/4 1/9/4
f 7/10/5 9/11/5 3/12/5
f 4/10/4 11/11/4 8/12/4
f 2/13/6 9/14/6 1/15/6
f 5/16/6 11/17/6 6/18/6
f 1/15/6 12/19/6 5/16/6
f 6/18/6 10/20/6 2/13/6
f 15/21/6 13/22/6 16/23/6
f 1/24/3 14/25/3 2/26/3
f 2/27/5 15/28/5 6/29/5
f 6/25/1 16/24/1 5/30/1
f 10/1/1 4/31/1 3/2/1
f 4/4/2 8/32/2 7/5/2
f 8/1/3 11/31/3 12/2/3
f 5/7/4 16/33/4 13/8/4
f 7/10/5 12/34/5 9/11/5
f 4/10/4 10/34/4 11/11/4
f 2/13/6 10/20/6 9/14/6
f 5/16/6 12/19/6 11/17/6
f 1/15/6 9/14/6 12/19/6
f 6/18/6 11/17/6 10/20/6
f 15/21/6 14/35/6 13/22/6
f 1/24/3 13/30/3 14/25/3
f 2/27/5 14/36/5 15/28/5
f 6/25/1 15/26/1 16/24/1
