# Blender 4.4.3
# www.blender.org
mtllib pile-of-clothes.mtl
o pile-of-clothes-col
v -0.382490 0.000000 -0.132835
v -0.373650 0.000000 0.040138
v -0.442181 0.000000 0.200056
v -0.281111 0.000000 0.357741
v -0.071040 0.000000 0.330355
v 0.196752 0.000000 0.333384
v 0.442181 0.000000 0.129460
v 0.241911 0.000000 -0.017451
v 0.271492 0.000000 -0.223620
v 0.098532 0.000000 -0.357741
v -0.069239 0.000000 -0.282509
v -0.366996 0.000000 -0.311237
v -0.195503 0.118914 0.163954
v -0.244792 0.093428 0.011674
v -0.275418 0.167360 -0.161287
v -0.006978 0.091888 0.210649
v -0.035118 0.153708 0.064435
v -0.103396 0.164224 -0.103422
v 0.140040 0.133641 0.132823
v 0.091182 0.200000 -0.021618
v 0.120151 0.130944 -0.186869
vn 0.4487 0.6810 -0.5787
vn -0.8457 0.5286 -0.0734
vn 0.0736 0.6429 -0.7624
vn -0.1488 0.7145 -0.6836
vn -0.3597 0.8577 0.3674
vn -0.4488 0.8727 -0.1923
vn -0.5824 0.8123 0.0298
vn 0.0710 0.8359 0.5443
vn -0.2573 0.9632 -0.0779
vn -0.1208 0.9049 0.4082
vn -0.0069 0.7950 0.6066
vn -0.0501 0.9164 0.3971
vn -0.2427 0.9570 0.1587
vn 0.3670 0.8186 0.4417
vn 0.7985 0.6019 0.0060
vn 0.7949 0.5967 -0.1100
vn 0.2269 0.7390 -0.6344
vn -0.2546 0.7829 -0.5677
vn -0.5788 0.8139 0.0511
vn -0.7542 0.5448 0.3664
vn -0.0331 0.8013 0.5974
vn 0.0374 0.9230 0.3830
vn -0.3145 0.9308 0.1862
vn 0.0501 0.8376 0.5440
vn -0.0553 0.9109 0.4089
vn -0.0070 0.9222 -0.3866
vn 0.3508 0.8051 -0.4782
vn 0.6645 0.7412 0.0953
vt 0.597545 0.681777
vt 0.786147 0.766534
vt 0.593068 0.901728
vt 0.047852 0.606838
vt 0.231147 0.635584
vt 0.080932 0.805603
vt 0.402258 0.844933
vt 0.382411 0.591744
vt 0.021952 0.238968
vt 0.206830 0.079574
vt 0.299809 0.314705
vt 0.065990 0.422222
vt 0.230856 0.464565
vt 0.434631 0.105210
vt 0.454945 0.426982
vt 0.722822 0.124717
vt 0.494235 0.268783
vt 0.638198 0.373069
vt 0.565835 0.520887
vt 0.987797 0.345850
vt 0.806479 0.542372
s 0
usemtl pile-of-clothes_128
f 21/1/1 9/2/1 10/3/1
f 1/4/2 15/5/2 12/6/2
f 15/5/3 11/7/3 12/6/3
f 21/1/4 11/7/4 18/8/4
f 3/9/5 4/10/5 13/11/5
f 13/11/6 2/12/6 3/9/6
f 14/13/7 1/4/7 2/12/7
f 5/14/8 13/11/8 4/10/8
f 13/11/9 17/15/9 14/13/9
f 14/13/10 18/8/10 15/5/10
f 6/16/11 16/17/11 5/14/11
f 19/18/12 17/15/12 16/17/12
f 20/19/13 18/8/13 17/15/13
f 6/16/14 7/20/14 19/18/14
f 19/18/15 8/21/15 20/19/15
f 8/21/16 21/1/16 20/19/16
f 15/5/17 18/8/17 11/7/17
f 21/1/18 10/3/18 11/7/18
f 13/11/19 14/13/19 2/12/19
f 14/13/20 15/5/20 1/4/20
f 5/14/21 16/17/21 13/11/21
f 13/11/22 16/17/22 17/15/22
f 14/13/23 17/15/23 18/8/23
f 6/16/24 19/18/24 16/17/24
f 19/18/25 20/19/25 17/15/25
f 20/19/26 21/1/26 18/8/26
f 19/18/27 7/20/27 8/21/27
f 8/21/28 9/2/28 21/1/28
