# Blender 4.4.3
# www.blender.org
mtllib plastic-bench_dirty.mtl
o plastic-bench_dirty-col
v -0.499565 0.353347 -0.184036
v -0.500766 0.353347 0.171986
v -0.499565 0.385000 -0.184036
v -0.500766 0.385000 0.171986
v 0.500402 0.353347 -0.175960
v 0.499106 0.353347 0.188000
v 0.500402 0.385000 -0.175960
v 0.499106 0.385000 0.188000
v -0.501009 0.353347 -0.044325
v -0.500402 0.353347 -0.080382
v -0.499106 0.353347 0.068342
v -0.498755 0.353347 0.059308
v -0.498755 0.385000 0.059308
v -0.499106 0.385000 0.068342
v -0.500402 0.385000 -0.080382
v -0.501009 0.385000 -0.044325
v 0.501009 0.385000 0.037566
v 0.500766 0.385000 0.084356
v 0.499565 0.385000 -0.072306
v 0.498755 0.385000 -0.066067
v 0.501009 0.353347 0.037566
v 0.500766 0.353347 0.084356
v 0.499565 0.353347 -0.072306
v 0.498755 0.353347 -0.066067
v -0.445356 0.000000 0.148347
v -0.468347 0.353347 0.148347
v -0.445356 0.000000 0.116694
v -0.413703 0.000000 0.148347
v -0.390712 0.353347 0.148347
v -0.413703 0.000000 0.116694
v -0.445356 0.300804 0.148347
v -0.445356 0.300804 0.116694
v -0.413703 0.300804 0.116694
v -0.413703 0.300804 0.148347
v -0.468347 0.321694 0.148347
v -0.468347 0.321694 0.116694
v -0.390712 0.321694 0.116694
v -0.390712 0.321694 0.148347
v -0.445356 0.129859 0.116694
v -0.445356 0.098206 0.116694
v -0.413703 0.098206 0.116694
v -0.413703 0.129859 0.116694
v -0.445356 0.000000 -0.148347
v -0.468347 0.353347 -0.148347
v -0.445356 0.000000 -0.116694
v -0.413703 0.000000 -0.148347
v -0.390712 0.353347 -0.148347
v -0.413703 0.000000 -0.116694
v -0.445356 0.300804 -0.148347
v -0.445356 0.300804 -0.116694
v -0.413703 0.300804 -0.116694
v -0.413703 0.300804 -0.148347
v -0.468347 0.321694 -0.148347
v -0.468347 0.321694 -0.116694
v -0.390712 0.321694 -0.116694
v -0.390712 0.321694 -0.148347
v -0.445356 0.129859 -0.116694
v -0.445356 0.098206 -0.116694
v -0.413703 0.098206 -0.116694
v -0.413703 0.129859 -0.116694
v -0.468347 0.353347 -0.000000
v -0.390712 0.353347 -0.000000
v -0.429529 0.321694 0.116694
v -0.429529 0.321694 -0.116694
v -0.445356 0.114032 -0.148347
v -0.413703 0.114032 -0.148347
v -0.445356 0.114032 0.148347
v -0.413703 0.114032 0.148347
v 0.445356 0.000000 0.148347
v 0.468347 0.353347 0.148347
v 0.445356 0.000000 0.116694
v 0.413703 0.000000 0.148347
v 0.390712 0.353347 0.148347
v 0.413703 0.000000 0.116694
v 0.445356 0.300804 0.148347
v 0.445356 0.300804 0.116694
v 0.413703 0.300804 0.116694
v 0.413703 0.300804 0.148347
v 0.468347 0.321694 0.148347
v 0.468347 0.321694 0.116694
v 0.390712 0.321694 0.116694
v 0.390712 0.321694 0.148347
v 0.445356 0.129859 0.116694
v 0.445356 0.098206 0.116694
v 0.413703 0.098206 0.116694
v 0.413703 0.129859 0.116694
v 0.445356 0.000000 -0.148347
v 0.468347 0.353347 -0.148347
v 0.445356 0.000000 -0.116694
v 0.413703 0.000000 -0.148347
v 0.390712 0.353347 -0.148347
v 0.413703 0.000000 -0.116694
v 0.445356 0.300804 -0.148347
v 0.445356 0.300804 -0.116694
v 0.413703 0.300804 -0.116694
v 0.413703 0.300804 -0.148347
v 0.468347 0.321694 -0.148347
v 0.468347 0.321694 -0.116694
v 0.390712 0.321694 -0.116694
v 0.390712 0.321694 -0.148347
v 0.445356 0.129859 -0.116694
v 0.445356 0.098206 -0.116694
v 0.413703 0.098206 -0.116694
v 0.413703 0.129859 -0.116694
v 0.468347 0.353347 -0.000000
v 0.390712 0.353347 -0.000000
v 0.429529 0.321694 0.116694
v 0.429529 0.321694 -0.116694
v 0.445356 0.114032 -0.148347
v 0.413703 0.114032 -0.148347
v 0.445356 0.114032 0.148347
v 0.413703 0.114032 0.148347
vn -0.0000 1.0000 -0.0000
vn 0.9998 -0.0000 -0.0217
vn -0.9999 -0.0000 -0.0160
vn 0.0081 -0.0000 -1.0000
vn -0.0160 -0.0000 0.9999
vn -0.9998 -0.0000 0.0217
vn -0.0000 -1.0000 -0.0000
vn 1.0000 -0.0000 0.0081
vn 0.9999 -0.0000 0.0160
vn -1.0000 -0.0000 -0.0081
vn -0.0217 -0.0000 -0.9998
vn 0.0217 -0.0000 0.9998
vn 0.0160 -0.0000 -0.9999
vn -0.0081 -0.0000 1.0000
vn 1.0000 -0.0000 -0.0000
vn -1.0000 -0.0000 -0.0000
vn -0.0000 -0.0000 -1.0000
vn 0.6725 -0.7401 -0.0000
vn -0.6725 -0.7401 -0.0000
vn -0.0000 -0.0000 1.0000
vt 0.015625 0.375000
vt 0.988281 0.476562
vt 0.015625 0.476562
vt 0.992188 0.226562
vt 0.960938 0.125000
vt 0.992188 0.125000
vt 0.960938 0.226562
vt 0.988281 0.335938
vt 0.015625 0.304688
vt 0.015625 0.335938
vt 0.988281 0.113281
vt 0.015625 0.011719
vt 0.988281 0.011719
vt 0.015625 0.273438
vt 0.988281 0.242188
vt 0.988281 0.273438
vt 0.015625 0.242188
vt 0.453125 0.859375
vt 0.484375 0.828125
vt 0.597656 0.859375
vt 0.304688 0.859375
vt 0.273438 0.828125
vt 0.304688 0.828125
vt 0.484375 0.632812
vt 0.453125 0.800781
vt 0.453125 0.617188
vt 0.882812 0.222656
vt 0.914062 0.128906
vt 0.914062 0.222656
vt 0.484375 0.800781
vt 0.273438 0.800781
vt 0.304688 0.800781
vt 0.414062 0.859375
vt 0.339844 0.859375
vt 0.394531 0.808594
vt 0.273438 0.632812
vt 0.304688 0.617188
vt 0.808594 0.839844
vt 0.824219 0.859375
vt 0.785156 0.859375
vt 0.742188 0.859375
vt 0.710938 0.828125
vt 0.742188 0.828125
vt 0.046875 0.828125
vt 0.015625 0.859375
vt 0.015625 0.828125
vt 0.742188 0.800781
vt 0.710938 0.632812
vt 0.742188 0.617188
vt 0.710938 0.800781
vt 0.046875 0.800781
vt 0.015625 0.800781
vt 0.046875 0.632812
vt 0.015625 0.617188
vt 0.761719 0.542969
vt 0.988281 0.511719
vt 0.988281 0.542969
vt 0.593750 0.160156
vt 0.820312 0.132812
vt 0.820312 0.160156
vt 0.839844 0.839844
vt 0.863281 0.859375
vt 0.160156 0.859375
vt 0.808594 0.671875
vt 0.839844 0.671875
vt 0.339844 0.828125
vt 0.363281 0.808594
vt 0.394531 0.628906
vt 0.363281 0.628906
vt 0.394531 0.515625
vt 0.363281 0.515625
vt 0.015625 0.507812
vt 0.046875 0.601562
vt 0.304688 0.507812
vt 0.273438 0.601562
vt 0.273438 0.507812
vt 0.484375 0.601562
vt 0.710938 0.601562
vt 0.453125 0.507812
vt 0.484375 0.507812
vt 0.742188 0.507812
vt 0.710938 0.507812
vt 0.562500 0.167969
vt 0.335938 0.207031
vt 0.335938 0.167969
vt 0.160156 0.132812
vt 0.304688 0.132812
vt 0.304688 0.207031
vt 0.882812 0.128906
vt 0.761719 0.511719
vt 0.593750 0.132812
vt 0.015625 0.207031
vt 0.015625 0.132812
vt 0.808594 0.601562
vt 0.839844 0.632812
vt 0.808594 0.632812
vt 0.839844 0.601562
vt 0.988281 0.375000
vt 0.988281 0.304688
vt 0.015625 0.113281
vt 0.453125 0.828125
vt 0.414062 0.828125
vt 0.046875 0.507812
vt 0.335938 0.132812
vt 0.562500 0.132812
vt 0.562500 0.207031
vt 0.160156 0.207031
s 0
usemtl plastic-bench_dirty_128
f 4/1/1 18/2/1 14/3/1
f 13/1/1 20/2/1 16/3/1
f 17/4/2 24/5/2 20/6/2
f 2/5/3 14/4/3 11/7/3
f 7/8/4 1/9/4 3/10/4
f 2/9/5 8/8/5 4/10/5
f 12/5/6 16/4/6 9/7/6
f 6/11/7 11/12/7 22/13/7
f 19/5/8 5/4/8 7/7/8
f 8/5/9 22/4/9 18/7/9
f 15/1/1 7/2/1 3/3/1
f 23/11/7 1/12/7 5/13/7
f 21/11/7 9/12/7 24/13/7
f 1/7/10 15/6/10 3/4/10
f 9/14/11 20/15/11 24/16/11
f 21/15/12 13/14/12 12/17/12
f 11/14/13 18/15/13 22/16/13
f 23/15/14 15/14/14 10/17/14
f 29/18/15 37/19/15 62/20/15
f 26/21/16 36/22/16 35/23/16
f 42/24/15 34/25/15 68/26/15
f 41/27/17 27/28/17 40/29/17
f 37/19/18 34/25/18 33/30/18
f 35/23/19 32/31/19 31/32/19
f 44/33/17 47/34/17 49/35/17
f 31/32/16 39/36/16 67/37/16
f 33/38/17 63/39/17 37/40/17
f 47/41/15 55/42/15 56/43/15
f 54/44/16 44/45/16 53/46/16
f 52/47/15 60/48/15 66/49/15
f 58/27/20 48/28/20 59/29/20
f 52/47/18 55/42/18 51/50/18
f 50/51/19 53/46/19 49/52/19
f 57/53/16 49/52/16 65/54/16
f 41/55/7 58/56/7 59/57/7
f 39/58/1 60/59/1 57/60/1
f 64/39/20 51/61/20 55/62/20
f 36/22/16 61/63/16 54/44/16
f 32/61/17 36/62/17 63/39/17
f 32/61/17 33/38/17 42/64/17
f 54/40/20 50/38/20 64/39/20
f 57/64/20 60/65/20 51/61/20
f 62/20/15 37/19/15 55/42/15
f 26/34/20 35/66/20 31/67/20
f 65/68/17 52/67/17 66/69/17
f 43/70/17 66/69/17 46/71/17
f 34/35/20 67/69/20 68/68/20
f 68/68/20 25/71/20 28/70/20
f 43/72/16 58/73/16 65/54/16
f 39/36/16 57/53/16 58/73/16
f 25/74/16 40/75/16 27/76/16
f 41/77/15 59/78/15 60/48/15
f 41/77/15 28/79/15 30/80/15
f 46/81/15 59/78/15 48/82/15
f 63/83/7 54/84/7 64/85/7
f 62/86/1 47/87/1 44/88/1
f 81/42/16 73/41/16 106/20/16
f 70/45/15 80/44/15 105/63/15
f 78/47/16 86/48/16 112/49/16
f 71/89/17 85/29/17 84/27/17
f 78/47/19 81/42/19 77/50/19
f 76/51/18 79/46/18 75/52/18
f 88/34/17 97/66/17 93/67/17
f 83/53/15 75/52/15 111/54/15
f 77/61/17 81/62/17 107/39/17
f 91/18/16 99/19/16 106/20/16
f 98/22/15 88/21/15 105/63/15
f 104/24/16 96/25/16 110/26/16
f 102/29/20 92/89/20 89/28/20
f 99/19/19 96/25/19 95/30/19
f 97/23/18 94/31/18 93/32/18
f 93/32/15 101/36/15 109/37/15
f 102/90/7 85/57/7 103/55/7
f 104/91/1 83/60/1 101/58/1
f 108/39/20 99/40/20 95/38/20
f 80/44/15 98/22/15 105/63/15
f 76/38/17 107/39/17 80/40/17
f 77/61/17 107/39/17 76/38/17
f 98/62/20 108/39/20 94/61/20
f 104/64/20 94/61/20 95/38/20
f 106/20/16 99/19/16 81/42/16
f 70/33/20 73/34/20 75/35/20
f 96/35/17 109/69/17 110/68/17
f 110/68/17 87/71/17 90/70/17
f 111/68/20 78/67/20 112/69/20
f 69/70/20 112/69/20 72/71/20
f 87/74/15 102/75/15 89/76/15
f 83/53/15 111/54/15 84/73/15
f 69/72/15 84/73/15 111/54/15
f 85/78/16 112/49/16 86/48/16
f 72/81/16 85/78/16 74/82/16
f 103/77/16 90/79/16 92/80/16
f 108/83/7 80/84/7 107/85/7
f 73/92/1 70/93/1 105/86/1
f 30/94/7 25/95/7 27/96/7
f 43/96/7 48/97/7 45/95/7
f 69/97/7 74/96/7 71/94/7
f 92/95/7 87/94/7 89/97/7
f 4/1/1 8/98/1 18/2/1
f 13/1/1 17/98/1 20/2/1
f 17/4/2 21/7/2 24/5/2
f 2/5/3 4/6/3 14/4/3
f 7/8/4 5/99/4 1/9/4
f 2/9/5 6/99/5 8/8/5
f 12/5/6 13/6/6 16/4/6
f 6/11/7 2/100/7 11/12/7
f 19/5/8 23/6/8 5/4/8
f 8/5/9 6/6/9 22/4/9
f 15/1/1 19/98/1 7/2/1
f 23/11/7 10/100/7 1/12/7
f 21/11/7 12/100/7 9/12/7
f 1/7/10 10/5/10 15/6/10
f 9/14/11 16/17/11 20/15/11
f 21/15/12 17/16/12 13/14/12
f 11/14/13 14/17/13 18/15/13
f 23/15/14 19/16/14 15/14/14
f 29/18/15 38/101/15 37/19/15
f 26/21/16 61/63/16 36/22/16
f 42/24/15 33/30/15 34/25/15
f 41/27/17 30/89/17 27/28/17
f 37/19/18 38/101/18 34/25/18
f 35/23/19 36/22/19 32/31/19
f 56/66/17 52/67/17 47/34/17
f 52/67/17 49/35/17 47/34/17
f 49/35/17 53/102/17 44/33/17
f 31/32/16 32/31/16 39/36/16
f 47/41/15 62/20/15 55/42/15
f 54/44/16 61/63/16 44/45/16
f 52/47/15 51/50/15 60/48/15
f 58/27/20 45/89/20 48/28/20
f 52/47/18 56/43/18 55/42/18
f 50/51/19 54/44/19 53/46/19
f 57/53/16 50/51/16 49/52/16
f 41/55/7 40/90/7 58/56/7
f 39/58/1 42/91/1 60/59/1
f 42/64/17 39/65/17 32/61/17
f 32/61/17 63/39/17 33/38/17
f 64/39/20 50/38/20 51/61/20
f 50/38/20 57/64/20 51/61/20
f 31/67/20 34/35/20 29/33/20
f 34/35/20 38/102/20 29/33/20
f 29/33/20 26/34/20 31/67/20
f 65/68/17 49/35/17 52/67/17
f 43/70/17 65/68/17 66/69/17
f 34/35/20 31/67/20 67/69/20
f 68/68/20 67/69/20 25/71/20
f 43/72/16 45/103/16 58/73/16
f 65/54/16 58/73/16 57/53/16
f 58/73/16 40/75/16 39/36/16
f 40/75/16 67/37/16 39/36/16
f 25/74/16 67/37/16 40/75/16
f 66/49/15 60/48/15 59/78/15
f 60/48/15 42/24/15 41/77/15
f 42/24/15 68/26/15 41/77/15
f 41/77/15 68/26/15 28/79/15
f 46/81/15 66/49/15 59/78/15
f 55/104/7 37/105/7 63/83/7
f 63/83/7 36/106/7 54/84/7
f 64/85/7 55/104/7 63/83/7
f 44/88/1 61/107/1 62/86/1
f 61/107/1 26/92/1 62/86/1
f 26/92/1 29/93/1 62/86/1
f 81/42/16 82/43/16 73/41/16
f 70/45/15 79/46/15 80/44/15
f 78/47/16 77/50/16 86/48/16
f 71/89/17 74/28/17 85/29/17
f 78/47/19 82/43/19 81/42/19
f 76/51/18 80/44/18 79/46/18
f 93/67/17 96/35/17 91/33/17
f 96/35/17 100/102/17 91/33/17
f 91/33/17 88/34/17 93/67/17
f 83/53/15 76/51/15 75/52/15
f 91/18/16 100/101/16 99/19/16
f 98/22/15 97/23/15 88/21/15
f 104/24/16 95/30/16 96/25/16
f 102/29/20 103/27/20 92/89/20
f 99/19/19 100/101/19 96/25/19
f 97/23/18 98/22/18 94/31/18
f 93/32/15 94/31/15 101/36/15
f 102/90/7 84/56/7 85/57/7
f 104/91/1 86/59/1 83/60/1
f 76/38/17 83/64/17 86/65/17
f 86/65/17 77/61/17 76/38/17
f 101/65/20 94/61/20 104/64/20
f 94/61/20 108/39/20 95/38/20
f 82/66/20 78/67/20 73/34/20
f 78/67/20 75/35/20 73/34/20
f 75/35/20 79/102/20 70/33/20
f 96/35/17 93/67/17 109/69/17
f 110/68/17 109/69/17 87/71/17
f 111/68/20 75/35/20 78/67/20
f 69/70/20 111/68/20 112/69/20
f 87/74/15 109/37/15 102/75/15
f 84/73/15 102/75/15 83/53/15
f 102/75/15 109/37/15 101/36/15
f 83/53/15 102/75/15 101/36/15
f 69/72/15 71/103/15 84/73/15
f 86/48/16 104/24/16 85/78/16
f 104/24/16 110/26/16 103/77/16
f 85/78/16 104/24/16 103/77/16
f 72/81/16 112/49/16 85/78/16
f 103/77/16 110/26/16 90/79/16
f 107/85/7 81/104/7 99/105/7
f 108/83/7 98/106/7 80/84/7
f 107/85/7 99/105/7 108/83/7
f 105/86/1 88/87/1 106/107/1
f 88/87/1 91/88/1 106/107/1
f 106/107/1 73/92/1 105/86/1
f 30/94/7 28/97/7 25/95/7
f 43/96/7 46/94/7 48/97/7
f 69/97/7 72/95/7 74/96/7
f 92/95/7 90/96/7 87/94/7
