# Blender 4.4.3
# www.blender.org
mtllib plastic-bench_clean.mtl
o plastic-bench_clean-col
v -0.500000 0.353347 -0.180000
v -0.500000 0.353347 0.180000
v -0.500000 0.385000 -0.180000
v -0.500000 0.385000 0.180000
v 0.500000 0.353347 -0.180000
v 0.500000 0.353347 0.180000
v 0.500000 0.385000 -0.180000
v 0.500000 0.385000 0.180000
v -0.500000 0.353347 -0.051829
v -0.500000 0.353347 -0.076342
v -0.500000 0.353347 0.076342
v -0.500000 0.353347 0.051829
v -0.500000 0.385000 0.051829
v -0.500000 0.385000 0.076342
v -0.500000 0.385000 -0.076342
v -0.500000 0.385000 -0.051829
v 0.500000 0.385000 0.051829
v 0.500000 0.385000 0.076342
v 0.500000 0.385000 -0.076342
v 0.500000 0.385000 -0.051829
v 0.500000 0.353347 0.051829
v 0.500000 0.353347 0.076342
v 0.500000 0.353347 -0.076342
v 0.500000 0.353347 -0.051829
v -0.445356 0.000000 0.148347
v -0.468347 0.353347 0.148347
v -0.445356 0.000000 0.116694
v -0.413703 0.000000 0.148347
v -0.390712 0.353347 0.148347
v -0.413703 0.000000 0.116694
v -0.445356 0.300804 0.148347
v -0.445356 0.300804 0.116694
v -0.413703 0.300804 0.116694
v -0.413703 0.300804 0.148347
v -0.468347 0.321694 0.148347
v -0.468347 0.321694 0.116694
v -0.390712 0.321694 0.116694
v -0.390712 0.321694 0.148347
v -0.445356 0.129858 0.116694
v -0.445356 0.098206 0.116694
v -0.413703 0.098206 0.116694
v -0.413703 0.129858 0.116694
v -0.445356 0.000000 -0.148347
v -0.468347 0.353347 -0.148347
v -0.445356 0.000000 -0.116694
v -0.413703 0.000000 -0.148347
v -0.390712 0.353347 -0.148347
v -0.413703 0.000000 -0.116694
v -0.445356 0.300804 -0.148347
v -0.445356 0.300804 -0.116694
v -0.413703 0.300804 -0.116694
v -0.413703 0.300804 -0.148347
v -0.468347 0.321694 -0.148347
v -0.468347 0.321694 -0.116694
v -0.390712 0.321694 -0.116694
v -0.390712 0.321694 -0.148347
v -0.445356 0.129858 -0.116694
v -0.445356 0.098206 -0.116694
v -0.413703 0.098206 -0.116694
v -0.413703 0.129859 -0.116694
v -0.468347 0.353347 -0.000000
v -0.390712 0.353347 -0.000000
v -0.429529 0.321694 0.116694
v -0.429529 0.321694 -0.116694
v -0.445356 0.114032 -0.148347
v -0.413703 0.114032 -0.148347
v -0.445356 0.114032 0.148347
v -0.413703 0.114032 0.148347
v 0.445356 0.000000 0.148347
v 0.468347 0.353347 0.148347
v 0.445356 0.000000 0.116694
v 0.413703 0.000000 0.148347
v 0.390712 0.353347 0.148347
v 0.413703 0.000000 0.116694
v 0.445356 0.300804 0.148347
v 0.445356 0.300804 0.116694
v 0.413703 0.300804 0.116694
v 0.413703 0.300804 0.148347
v 0.468347 0.321694 0.148347
v 0.468347 0.321694 0.116694
v 0.390712 0.321694 0.116694
v 0.390712 0.321694 0.148347
v 0.445356 0.129858 0.116694
v 0.445356 0.098206 0.116694
v 0.413703 0.098206 0.116694
v 0.413703 0.129858 0.116694
v 0.445356 0.000000 -0.148347
v 0.468347 0.353347 -0.148347
v 0.445356 0.000000 -0.116694
v 0.413703 0.000000 -0.148347
v 0.390712 0.353347 -0.148347
v 0.413703 0.000000 -0.116694
v 0.445356 0.300804 -0.148347
v 0.445356 0.300804 -0.116694
v 0.413703 0.300804 -0.116694
v 0.413703 0.300804 -0.148347
v 0.468347 0.321694 -0.148347
v 0.468347 0.321694 -0.116694
v 0.390712 0.321694 -0.116694
v 0.390712 0.321694 -0.148347
v 0.445356 0.129858 -0.116694
v 0.445356 0.098206 -0.116694
v 0.413703 0.098206 -0.116694
v 0.413703 0.129859 -0.116694
v 0.468347 0.353347 -0.000000
v 0.390712 0.353347 -0.000000
v 0.429529 0.321694 0.116694
v 0.429529 0.321694 -0.116694
v 0.445356 0.114032 -0.148347
v 0.413703 0.114032 -0.148347
v 0.445356 0.114032 0.148347
v 0.413703 0.114032 0.148347
vn -0.0000 1.0000 -0.0000
vn 1.0000 -0.0000 -0.0000
vn -1.0000 -0.0000 -0.0000
vn -0.0000 -0.0000 -1.0000
vn -0.0000 -0.0000 1.0000
vn -0.0000 -1.0000 -0.0000
vn 0.6725 -0.7401 -0.0000
vn -0.6725 -0.7401 -0.0000
vt 0.015625 0.371094
vt 0.988281 0.472656
vt 0.015625 0.472656
vt 0.988281 0.226562
vt 0.957031 0.125000
vt 0.988281 0.125000
vt 0.957031 0.226562
vt 0.988281 0.332031
vt 0.015625 0.300781
vt 0.015625 0.332031
vt 0.988281 0.113281
vt 0.015625 0.011719
vt 0.988281 0.011719
vt 0.015625 0.269531
vt 0.988281 0.238281
vt 0.988281 0.269531
vt 0.015625 0.238281
vt 0.453125 0.859375
vt 0.484375 0.828125
vt 0.597656 0.859375
vt 0.304688 0.859375
vt 0.273438 0.828125
vt 0.304688 0.828125
vt 0.484375 0.632812
vt 0.453125 0.800781
vt 0.453125 0.617188
vt 0.882812 0.222656
vt 0.914062 0.128906
vt 0.914062 0.222656
vt 0.484375 0.800781
vt 0.273438 0.800781
vt 0.304688 0.800781
vt 0.414062 0.859375
vt 0.339844 0.859375
vt 0.394531 0.808594
vt 0.273438 0.632812
vt 0.304688 0.617188
vt 0.808594 0.839844
vt 0.824219 0.859375
vt 0.785156 0.859375
vt 0.742188 0.859375
vt 0.710938 0.828125
vt 0.742188 0.828125
vt 0.046875 0.828125
vt 0.015625 0.859375
vt 0.015625 0.828125
vt 0.742188 0.800781
vt 0.710938 0.632812
vt 0.742188 0.617188
vt 0.710938 0.800781
vt 0.046875 0.800781
vt 0.015625 0.800781
vt 0.046875 0.632812
vt 0.015625 0.617188
vt 0.761719 0.542969
vt 0.988281 0.511719
vt 0.988281 0.542969
vt 0.593750 0.160156
vt 0.820312 0.132812
vt 0.820312 0.160156
vt 0.839844 0.839844
vt 0.863281 0.859375
vt 0.160156 0.859375
vt 0.808594 0.671875
vt 0.839844 0.671875
vt 0.339844 0.828125
vt 0.363281 0.808594
vt 0.394531 0.628906
vt 0.363281 0.628906
vt 0.394531 0.515625
vt 0.363281 0.515625
vt 0.015625 0.507812
vt 0.046875 0.601562
vt 0.304688 0.507812
vt 0.273438 0.601562
vt 0.273438 0.507812
vt 0.484375 0.601562
vt 0.710938 0.601562
vt 0.453125 0.507812
vt 0.484375 0.507812
vt 0.742188 0.507812
vt 0.710938 0.507812
vt 0.562500 0.167969
vt 0.335938 0.207031
vt 0.335938 0.167969
vt 0.160156 0.132812
vt 0.304688 0.132812
vt 0.304688 0.207031
vt 0.882812 0.128906
vt 0.761719 0.511719
vt 0.593750 0.132812
vt 0.015625 0.207031
vt 0.015625 0.132812
vt 0.808594 0.601562
vt 0.839844 0.632812
vt 0.808594 0.632812
vt 0.839844 0.601562
vt 0.988281 0.371094
vt 0.988281 0.300781
vt 0.015625 0.113281
vt 0.453125 0.828125
vt 0.414062 0.828125
vt 0.046875 0.507812
vt 0.335938 0.132812
vt 0.562500 0.132812
vt 0.562500 0.207031
vt 0.160156 0.207031
s 0
usemtl plastic-bench_clean_128
f 4/1/1 18/2/1 14/3/1
f 13/1/1 20/2/1 16/3/1
f 17/4/2 24/5/2 20/6/2
f 2/5/3 14/4/3 11/7/3
f 7/8/4 1/9/4 3/10/4
f 2/9/5 8/8/5 4/10/5
f 12/5/3 16/4/3 9/7/3
f 6/11/6 11/12/6 22/13/6
f 19/5/2 5/4/2 7/7/2
f 8/5/2 22/4/2 18/7/2
f 15/1/1 7/2/1 3/3/1
f 23/11/6 1/12/6 5/13/6
f 21/11/6 9/12/6 24/13/6
f 1/7/3 15/6/3 3/4/3
f 9/14/4 20/15/4 24/16/4
f 21/15/5 13/14/5 12/17/5
f 11/14/4 18/15/4 22/16/4
f 23/15/5 15/14/5 10/17/5
f 29/18/2 37/19/2 62/20/2
f 26/21/3 36/22/3 35/23/3
f 42/24/2 34/25/2 68/26/2
f 41/27/4 27/28/4 40/29/4
f 37/19/7 34/25/7 33/30/7
f 35/23/8 32/31/8 31/32/8
f 44/33/4 47/34/4 49/35/4
f 31/32/3 39/36/3 67/37/3
f 33/38/4 63/39/4 37/40/4
f 47/41/2 55/42/2 56/43/2
f 54/44/3 44/45/3 53/46/3
f 52/47/2 60/48/2 66/49/2
f 58/27/5 48/28/5 59/29/5
f 52/47/7 55/42/7 51/50/7
f 50/51/8 53/46/8 49/52/8
f 57/53/3 49/52/3 65/54/3
f 41/55/6 58/56/6 59/57/6
f 39/58/1 60/59/1 57/60/1
f 64/39/5 51/61/5 55/62/5
f 36/22/3 61/63/3 54/44/3
f 32/61/4 36/62/4 63/39/4
f 32/61/4 33/38/4 42/64/4
f 54/40/5 50/38/5 64/39/5
f 57/64/5 60/65/5 51/61/5
f 62/20/2 37/19/2 55/42/2
f 26/34/5 35/66/5 31/67/5
f 65/68/4 52/67/4 66/69/4
f 43/70/4 66/69/4 46/71/4
f 34/35/5 67/69/5 68/68/5
f 68/68/5 25/71/5 28/70/5
f 43/72/3 58/73/3 65/54/3
f 39/36/3 57/53/3 58/73/3
f 25/74/3 40/75/3 27/76/3
f 41/77/2 59/78/2 60/48/2
f 41/77/2 28/79/2 30/80/2
f 46/81/2 59/78/2 48/82/2
f 63/83/6 54/84/6 64/85/6
f 62/86/1 47/87/1 44/88/1
f 81/42/3 73/41/3 106/20/3
f 70/45/2 80/44/2 105/63/2
f 78/47/3 86/48/3 112/49/3
f 71/89/4 85/29/4 84/27/4
f 78/47/8 81/42/8 77/50/8
f 76/51/7 79/46/7 75/52/7
f 88/34/4 97/66/4 93/67/4
f 83/53/2 75/52/2 111/54/2
f 77/61/4 81/62/4 107/39/4
f 91/18/3 99/19/3 106/20/3
f 98/22/2 88/21/2 105/63/2
f 104/24/3 96/25/3 110/26/3
f 102/29/5 92/89/5 89/28/5
f 99/19/8 96/25/8 95/30/8
f 97/23/7 94/31/7 93/32/7
f 93/32/2 101/36/2 109/37/2
f 102/90/6 85/57/6 103/55/6
f 104/91/1 83/60/1 101/58/1
f 108/39/5 99/40/5 95/38/5
f 80/44/2 98/22/2 105/63/2
f 76/38/4 107/39/4 80/40/4
f 77/61/4 107/39/4 76/38/4
f 98/62/5 108/39/5 94/61/5
f 104/64/5 94/61/5 95/38/5
f 106/20/3 99/19/3 81/42/3
f 70/33/5 73/34/5 75/35/5
f 96/35/4 109/69/4 110/68/4
f 110/68/4 87/71/4 90/70/4
f 111/68/5 78/67/5 112/69/5
f 69/70/5 112/69/5 72/71/5
f 87/74/2 102/75/2 89/76/2
f 83/53/2 111/54/2 84/73/2
f 69/72/2 84/73/2 111/54/2
f 85/78/3 112/49/3 86/48/3
f 72/81/3 85/78/3 74/82/3
f 103/77/3 90/79/3 92/80/3
f 108/83/6 80/84/6 107/85/6
f 73/92/1 70/93/1 105/86/1
f 30/94/6 25/95/6 27/96/6
f 43/96/6 48/97/6 45/95/6
f 69/97/6 74/96/6 71/94/6
f 92/95/6 87/94/6 89/97/6
f 4/1/1 8/98/1 18/2/1
f 13/1/1 17/98/1 20/2/1
f 17/4/2 21/7/2 24/5/2
f 2/5/3 4/6/3 14/4/3
f 7/8/4 5/99/4 1/9/4
f 2/9/5 6/99/5 8/8/5
f 12/5/3 13/6/3 16/4/3
f 6/11/6 2/100/6 11/12/6
f 19/5/2 23/6/2 5/4/2
f 8/5/2 6/6/2 22/4/2
f 15/1/1 19/98/1 7/2/1
f 23/11/6 10/100/6 1/12/6
f 21/11/6 12/100/6 9/12/6
f 1/7/3 10/5/3 15/6/3
f 9/14/4 16/17/4 20/15/4
f 21/15/5 17/16/5 13/14/5
f 11/14/4 14/17/4 18/15/4
f 23/15/5 19/16/5 15/14/5
f 29/18/2 38/101/2 37/19/2
f 26/21/3 61/63/3 36/22/3
f 42/24/2 33/30/2 34/25/2
f 41/27/4 30/89/4 27/28/4
f 37/19/7 38/101/7 34/25/7
f 35/23/8 36/22/8 32/31/8
f 56/66/4 52/67/4 47/34/4
f 52/67/4 49/35/4 47/34/4
f 49/35/4 53/102/4 44/33/4
f 31/32/3 32/31/3 39/36/3
f 47/41/2 62/20/2 55/42/2
f 54/44/3 61/63/3 44/45/3
f 52/47/2 51/50/2 60/48/2
f 58/27/5 45/89/5 48/28/5
f 52/47/7 56/43/7 55/42/7
f 50/51/8 54/44/8 53/46/8
f 57/53/3 50/51/3 49/52/3
f 41/55/6 40/90/6 58/56/6
f 39/58/1 42/91/1 60/59/1
f 42/64/4 39/65/4 32/61/4
f 32/61/4 63/39/4 33/38/4
f 64/39/5 50/38/5 51/61/5
f 50/38/5 57/64/5 51/61/5
f 31/67/5 34/35/5 29/33/5
f 34/35/5 38/102/5 29/33/5
f 29/33/5 26/34/5 31/67/5
f 65/68/4 49/35/4 52/67/4
f 43/70/4 65/68/4 66/69/4
f 34/35/5 31/67/5 67/69/5
f 68/68/5 67/69/5 25/71/5
f 43/72/3 45/103/3 58/73/3
f 65/54/3 58/73/3 57/53/3
f 58/73/3 40/75/3 39/36/3
f 40/75/3 67/37/3 39/36/3
f 25/74/3 67/37/3 40/75/3
f 66/49/2 60/48/2 59/78/2
f 60/48/2 42/24/2 41/77/2
f 42/24/2 68/26/2 41/77/2
f 41/77/2 68/26/2 28/79/2
f 46/81/2 66/49/2 59/78/2
f 55/104/6 37/105/6 63/83/6
f 63/83/6 36/106/6 54/84/6
f 64/85/6 55/104/6 63/83/6
f 44/88/1 61/107/1 62/86/1
f 61/107/1 26/92/1 62/86/1
f 26/92/1 29/93/1 62/86/1
f 81/42/3 82/43/3 73/41/3
f 70/45/2 79/46/2 80/44/2
f 78/47/3 77/50/3 86/48/3
f 71/89/4 74/28/4 85/29/4
f 78/47/8 82/43/8 81/42/8
f 76/51/7 80/44/7 79/46/7
f 93/67/4 96/35/4 91/33/4
f 96/35/4 100/102/4 91/33/4
f 91/33/4 88/34/4 93/67/4
f 83/53/2 76/51/2 75/52/2
f 91/18/3 100/101/3 99/19/3
f 98/22/2 97/23/2 88/21/2
f 104/24/3 95/30/3 96/25/3
f 102/29/5 103/27/5 92/89/5
f 99/19/8 100/101/8 96/25/8
f 97/23/7 98/22/7 94/31/7
f 93/32/2 94/31/2 101/36/2
f 102/90/6 84/56/6 85/57/6
f 104/91/1 86/59/1 83/60/1
f 76/38/4 83/64/4 86/65/4
f 86/65/4 77/61/4 76/38/4
f 101/65/5 94/61/5 104/64/5
f 94/61/5 108/39/5 95/38/5
f 82/66/5 78/67/5 73/34/5
f 78/67/5 75/35/5 73/34/5
f 75/35/5 79/102/5 70/33/5
f 96/35/4 93/67/4 109/69/4
f 110/68/4 109/69/4 87/71/4
f 111/68/5 75/35/5 78/67/5
f 69/70/5 111/68/5 112/69/5
f 87/74/2 109/37/2 102/75/2
f 84/73/2 102/75/2 83/53/2
f 102/75/2 109/37/2 101/36/2
f 83/53/2 102/75/2 101/36/2
f 69/72/2 71/103/2 84/73/2
f 86/48/3 104/24/3 85/78/3
f 104/24/3 110/26/3 103/77/3
f 85/78/3 104/24/3 103/77/3
f 72/81/3 112/49/3 85/78/3
f 103/77/3 110/26/3 90/79/3
f 107/85/6 81/104/6 99/105/6
f 108/83/6 98/106/6 80/84/6
f 107/85/6 99/105/6 108/83/6
f 105/86/1 88/87/1 106/107/1
f 88/87/1 91/88/1 106/107/1
f 106/107/1 73/92/1 105/86/1
f 30/94/6 28/97/6 25/95/6
f 43/96/6 46/94/6 48/97/6
f 69/97/6 72/95/6 74/96/6
f 92/95/6 90/96/6 87/94/6
