# Blender 4.4.3
# www.blender.org
mtllib vending-machine.mtl
o vending-machine-col
v -0.493350 0.000000 0.311348
v -0.394815 0.000000 0.311348
v -0.493350 0.025477 0.311348
v -0.376235 0.025477 0.311348
v -0.493350 0.025477 0.256795
v -0.493350 0.000000 0.256795
v -0.394815 0.000000 0.256795
v -0.376235 0.025477 0.256795
v 0.493350 0.000000 0.311348
v 0.394814 0.000000 0.311348
v 0.493350 0.025477 0.311348
v 0.376235 0.025477 0.311348
v 0.493350 0.025477 0.256795
v 0.493350 0.000000 0.256795
v 0.394814 0.000000 0.256795
v 0.376235 0.025477 0.256795
v -0.493350 0.000000 -0.347836
v -0.394815 0.000000 -0.347836
v -0.493350 0.025477 -0.347836
v -0.376235 0.025477 -0.347836
v -0.493350 0.025477 -0.293283
v -0.493350 0.000000 -0.293283
v -0.394815 0.000000 -0.293283
v -0.376235 0.025477 -0.293283
v 0.493350 0.000000 -0.347836
v 0.394814 0.000000 -0.347836
v 0.493350 0.025477 -0.347836
v 0.376235 0.025477 -0.347836
v 0.493350 0.025477 -0.293283
v 0.493350 0.000000 -0.293283
v 0.394814 0.000000 -0.293283
v 0.376235 0.025477 -0.293283
v -0.437955 0.583729 0.306475
v 0.277888 0.583729 0.306475
v -0.437955 1.702990 0.306475
v 0.277888 1.702990 0.306475
v -0.530000 1.820000 -0.385000
v -0.530000 0.025477 -0.385000
v 0.530000 0.025477 -0.385000
v 0.530000 1.820000 -0.385000
v -0.530000 1.820000 0.348512
v -0.530000 0.025477 0.348512
v 0.530000 1.820000 0.348512
v 0.339265 0.025477 0.348512
v 0.339265 1.784680 0.348512
v 0.530000 1.784680 0.348512
v -0.474421 1.739865 0.348512
v -0.474421 0.546855 0.348512
v 0.314355 0.546855 0.348512
v 0.314355 1.739865 0.348512
v 0.339265 0.025477 0.385000
v 0.530000 0.025477 0.385000
v 0.339265 1.739865 0.385000
v 0.530000 1.739865 0.385000
vn -0.0000 -0.0000 1.0000
vn -0.0000 -0.0000 -1.0000
vn -0.0000 -1.0000 -0.0000
vn 0.8080 -0.5892 -0.0000
vn -1.0000 -0.0000 -0.0000
vn -0.8080 -0.5892 -0.0000
vn 1.0000 -0.0000 -0.0000
vn -0.0000 0.6314 0.7755
vn -0.0000 1.0000 -0.0000
vn 0.7554 -0.0000 0.6553
vn -0.0000 0.7518 0.6594
vn -0.0000 -0.7518 0.6594
vn -0.7554 -0.0000 0.6553
vt 0.656250 0.117188
vt 0.625000 0.125000
vt 0.625000 0.117188
vt 0.625000 0.109375
vt 0.656250 0.093750
vt 0.625000 0.093750
vt 0.679688 0.125000
vt 0.660156 0.113281
vt 0.660156 0.125000
vt 0.609375 0.117188
vt 0.656250 0.109375
vt 0.679688 0.113281
vt 0.609375 0.125000
vt 0.972656 0.039062
vt 0.753906 0.382812
vt 0.753906 0.039062
vt 0.332031 0.691406
vt 0.007812 0.140625
vt 0.332031 0.140625
vt 0.367188 0.578125
vt 0.621094 0.417969
vt 0.613281 0.578125
vt 0.656250 0.925781
vt 0.714844 0.945312
vt 0.656250 0.945312
vt 0.988281 0.968750
vt 0.765625 0.960938
vt 0.988281 0.417969
vt 0.765625 0.417969
vt 0.765625 0.968750
vt 0.367188 0.945312
vt 0.621094 0.960938
vt 0.351562 0.968750
vt 0.613281 0.945312
vt 0.332031 0.937500
vt 0.007812 0.710938
vt 0.007812 0.937500
vt 0.734375 0.394531
vt 0.984375 0.019531
vt 0.984375 0.398438
vt 0.972656 0.382812
vt 0.988281 0.027344
vt 0.714844 0.398438
vt 0.656250 0.398438
vt 0.644531 0.398438
vt 0.644531 0.941406
vt 0.679688 0.968750
vt 0.679688 0.960938
vt 0.621094 0.367188
vt 0.679688 0.378906
vt 0.621094 0.378906
vt 0.351562 0.140625
vt 0.679688 0.140625
vt 0.753906 0.945312
vt 0.753906 0.417969
vt 0.007812 0.691406
vt 0.351562 0.417969
vt 0.714844 0.925781
vt 0.332031 0.710938
vt 0.734375 0.027344
vt 0.742188 0.019531
vt 0.742188 0.398438
vt 0.988281 0.394531
vt 0.351562 0.367188
s 0
usemtl vending-machine_512
f 2/1/1 3/2/1 1/3/1
f 5/2/2 7/1/2 6/3/2
f 6/4/3 2/5/3 1/6/3
f 7/7/4 4/8/4 2/9/4
f 5/10/5 1/2/5 3/3/5
f 11/2/1 10/1/1 9/3/1
f 15/1/2 13/2/2 14/3/2
f 10/6/3 14/11/3 9/5/3
f 12/9/6 15/12/6 10/8/6
f 9/13/7 13/3/7 11/10/7
f 19/2/2 18/1/2 17/3/2
f 23/1/1 21/2/1 22/3/1
f 18/11/3 22/6/3 17/4/3
f 20/12/4 23/9/4 18/7/4
f 17/13/5 21/3/5 19/10/5
f 26/1/2 27/2/2 25/3/2
f 29/2/1 31/1/1 30/3/1
f 30/5/3 26/4/3 25/11/3
f 31/8/6 28/7/6 26/12/6
f 29/10/7 25/2/7 27/3/7
f 34/14/1 35/15/1 33/16/1
f 37/17/2 39/18/2 38/19/2
f 48/20/1 44/21/1 49/22/1
f 53/23/8 46/24/8 45/25/8
f 40/26/7 46/27/7 39/28/7
f 37/26/5 42/29/5 41/30/5
f 47/31/1 45/32/1 41/33/1
f 49/22/1 45/32/1 50/34/1
f 41/33/1 48/20/1 47/31/1
f 43/35/9 37/36/9 41/37/9
f 47/38/10 33/16/10 35/15/10
f 33/16/11 49/39/11 34/14/11
f 50/40/12 35/15/12 36/41/12
f 49/42/13 36/41/13 34/14/13
f 52/43/1 53/23/1 51/44/1
f 44/45/5 53/23/5 45/46/5
f 43/47/1 45/32/1 46/48/1
f 44/49/3 52/50/3 51/51/3
f 44/49/3 38/52/3 39/53/3
f 39/28/7 54/54/7 52/55/7
f 41/33/1 45/32/1 43/47/1
f 2/1/1 4/9/1 3/2/1
f 5/2/2 8/9/2 7/1/2
f 6/4/3 7/11/3 2/5/3
f 7/7/4 8/12/4 4/8/4
f 5/10/5 6/13/5 1/2/5
f 11/2/1 12/9/1 10/1/1
f 15/1/2 16/9/2 13/2/2
f 10/6/3 15/4/3 14/11/3
f 12/9/6 16/7/6 15/12/6
f 9/13/7 14/2/7 13/3/7
f 19/2/2 20/9/2 18/1/2
f 23/1/1 24/9/1 21/2/1
f 18/11/3 23/5/3 22/6/3
f 20/12/4 24/8/4 23/9/4
f 17/13/5 22/2/5 21/3/5
f 26/1/2 28/9/2 27/2/2
f 29/2/1 32/9/1 31/1/1
f 30/5/3 31/6/3 26/4/3
f 31/8/6 32/9/6 28/7/6
f 29/10/7 30/13/7 25/2/7
f 34/14/1 36/41/1 35/15/1
f 37/17/2 40/56/2 39/18/2
f 48/20/1 42/57/1 44/21/1
f 53/23/8 54/58/8 46/24/8
f 40/26/7 43/30/7 46/27/7
f 37/26/5 38/28/5 42/29/5
f 47/31/1 50/34/1 45/32/1
f 49/22/1 44/21/1 45/32/1
f 41/33/1 42/57/1 48/20/1
f 43/35/9 40/59/9 37/36/9
f 47/38/10 48/60/10 33/16/10
f 33/16/11 48/61/11 49/39/11
f 50/40/12 47/62/12 35/15/12
f 49/42/13 50/63/13 36/41/13
f 52/43/1 54/58/1 53/23/1
f 44/45/5 51/44/5 53/23/5
f 44/49/3 39/53/3 52/50/3
f 44/49/3 42/64/3 38/52/3
f 39/28/7 46/27/7 54/54/7
