# Blender 4.4.3
# www.blender.org
mtllib wall-shelf_clean.mtl
o wall-shelf_clean-col
v -0.495000 0.081299 0.250000
v -0.495000 0.116394 0.250000
v -0.495000 0.081299 0.000000
v -0.495000 0.116394 0.000000
v 0.495000 0.081299 0.250000
v 0.495000 0.116394 0.250000
v 0.495000 0.081299 0.000000
v 0.495000 0.116394 0.000000
v 0.354784 0.000000 0.000000
v 0.354784 0.081299 0.000000
v 0.354784 0.081299 0.209694
v 0.354784 0.062689 0.177824
v 0.354784 0.062689 0.021532
v 0.354784 0.013944 0.021532
v 0.379784 0.000000 0.000000
v 0.379784 0.081299 0.000000
v 0.379784 0.081299 0.209694
v 0.379784 0.062689 0.177824
v 0.379784 0.062689 0.021532
v 0.379784 0.013944 0.021532
v -0.379784 0.000000 0.000000
v -0.379784 0.081299 0.000000
v -0.379784 0.081299 0.209694
v -0.379784 0.062689 0.177824
v -0.379784 0.062689 0.021532
v -0.379784 0.013944 0.021532
v -0.354784 -0.000000 0.000000
v -0.354784 0.081299 0.000000
v -0.354784 0.081299 0.209694
v -0.354784 0.062689 0.177824
v -0.354784 0.062689 0.021532
v -0.354784 0.013944 0.021532
v -0.012500 0.000000 0.000000
v -0.012500 0.081299 0.000000
v -0.012500 0.081299 0.209694
v -0.012500 0.062689 0.177824
v -0.012500 0.062689 0.021532
v -0.012500 0.013944 0.021532
v 0.012500 0.000000 0.000000
v 0.012500 0.081299 0.000000
v 0.012500 0.081299 0.209694
v 0.012500 0.062689 0.177824
v 0.012500 0.062689 0.021532
v 0.012500 0.013944 0.021532
vn -1.0000 -0.0000 -0.0000
vn 1.0000 -0.0000 -0.0000
vn -0.0000 -0.0000 1.0000
vn -0.0000 -1.0000 -0.0000
vn -0.0000 1.0000 -0.0000
vn -0.0000 -0.8636 0.5043
vn -0.0000 -0.8394 0.5436
vt 0.390625 0.332031
vt 0.140625 0.296875
vt 0.390625 0.296875
vt 0.867188 0.332031
vt 0.617188 0.296875
vt 0.867188 0.296875
vt 0.003906 0.660156
vt 0.996094 0.695312
vt 0.003906 0.695312
vt 0.996094 0.371094
vt 0.003906 0.621094
vt 0.003906 0.371094
vt 0.003906 0.988281
vt 0.996094 0.738281
vt 0.996094 0.988281
vt 0.843750 0.128906
vt 0.867188 0.191406
vt 0.843750 0.179688
vt 0.687500 0.128906
vt 0.867188 0.110205
vt 0.656250 0.113281
vt 0.140625 0.113281
vt 0.179688 0.136719
vt 0.140625 0.136719
vt 0.382812 0.113281
vt 0.335938 0.136719
vt 0.335938 0.113281
vt 0.410156 0.113281
vt 0.382812 0.136719
vt 0.179688 0.113281
vt 0.410156 0.136719
vt 0.140625 0.332031
vt 0.617188 0.332031
vt 0.996094 0.660156
vt 0.996094 0.621094
vt 0.003906 0.738281
s 0
usemtl wall-shelf_clean_128
f 2/1/1 3/2/1 1/3/1
f 8/4/2 5/5/2 7/6/2
f 6/7/3 1/8/3 5/9/3
f 7/10/4 1/11/4 3/12/4
f 4/13/5 6/14/5 8/15/5
f 13/16/1 9/17/1 14/18/1
f 12/19/1 10/20/1 13/16/1
f 15/17/2 19/16/2 20/18/2
f 18/19/2 16/20/2 17/21/2
f 11/22/6 18/23/6 17/24/6
f 14/25/3 19/26/3 13/27/3
f 9/28/7 20/29/7 14/25/7
f 13/27/4 18/23/4 12/30/4
f 25/16/1 21/17/1 26/18/1
f 24/19/1 22/20/1 25/16/1
f 27/17/2 31/16/2 32/18/2
f 30/19/2 28/20/2 29/21/2
f 24/30/6 29/24/6 23/22/6
f 26/25/3 31/26/3 25/27/3
f 27/31/7 26/25/7 21/28/7
f 25/27/4 30/23/4 24/30/4
f 37/16/1 33/17/1 38/18/1
f 36/19/1 34/20/1 37/16/1
f 39/17/2 43/16/2 44/18/2
f 42/19/2 40/20/2 41/21/2
f 36/30/6 41/24/6 35/22/6
f 38/25/3 43/26/3 37/27/3
f 39/31/7 38/25/7 33/28/7
f 36/30/4 43/26/4 42/23/4
f 2/1/1 4/32/1 3/2/1
f 8/4/2 6/33/2 5/5/2
f 6/7/3 2/34/3 1/8/3
f 7/10/4 5/35/4 1/11/4
f 4/13/5 2/36/5 6/14/5
f 13/16/1 10/20/1 9/17/1
f 12/19/1 11/21/1 10/20/1
f 15/17/2 16/20/2 19/16/2
f 18/19/2 19/16/2 16/20/2
f 11/22/6 12/30/6 18/23/6
f 14/25/3 20/29/3 19/26/3
f 9/28/7 15/31/7 20/29/7
f 13/27/4 19/26/4 18/23/4
f 25/16/1 22/20/1 21/17/1
f 24/19/1 23/21/1 22/20/1
f 27/17/2 28/20/2 31/16/2
f 30/19/2 31/16/2 28/20/2
f 24/30/6 30/23/6 29/24/6
f 26/25/3 32/29/3 31/26/3
f 27/31/7 32/29/7 26/25/7
f 25/27/4 31/26/4 30/23/4
f 37/16/1 34/20/1 33/17/1
f 36/19/1 35/21/1 34/20/1
f 39/17/2 40/20/2 43/16/2
f 42/19/2 43/16/2 40/20/2
f 36/30/6 42/23/6 41/24/6
f 38/25/3 44/29/3 43/26/3
f 39/31/7 44/29/7 38/25/7
f 36/30/4 37/27/4 43/26/4
