# Blender 4.4.3
# www.blender.org
mtllib washing-machine-door_dirty.mtl
o washing-machine-door_dirty-col
v 0.219508 0.520467 0.284353
v 0.177586 0.649545 0.284353
v 0.067832 0.729320 0.284353
v -0.067832 0.729320 0.284353
v -0.177586 0.649545 0.284353
v -0.219508 0.520467 0.284353
v -0.177586 0.391388 0.284353
v -0.067832 0.311613 0.284353
v 0.067832 0.311613 0.284353
v 0.177586 0.391388 0.284353
v 0.228952 0.686881 0.284353
v 0.283000 0.520467 0.284353
v 0.087452 0.789730 0.284353
v -0.087452 0.789730 0.284353
v -0.228952 0.686881 0.284353
v -0.283000 0.520467 0.284353
v -0.228952 0.354052 0.284353
v -0.087452 0.251203 0.284353
v 0.087452 0.251203 0.284353
v 0.228952 0.354052 0.284353
v 0.219508 0.520467 0.340000
v 0.177586 0.649545 0.340000
v 0.067832 0.729320 0.340000
v -0.067832 0.729320 0.340000
v -0.177586 0.649545 0.340000
v -0.219508 0.520467 0.340000
v -0.177586 0.391388 0.340000
v -0.067832 0.311613 0.340000
v 0.067832 0.311613 0.340000
v 0.177586 0.391388 0.340000
v 0.228952 0.686881 0.340000
v 0.283000 0.520467 0.340000
v 0.087452 0.789730 0.340000
v -0.087452 0.789730 0.340000
v -0.228952 0.686881 0.340000
v -0.283000 0.520467 0.340000
v -0.228952 0.354052 0.340000
v -0.087452 0.251203 0.340000
v 0.087452 0.251203 0.340000
v 0.228952 0.354052 0.340000
v -0.000000 0.520467 0.335751
v -0.000000 0.520467 0.320638
v 0.177586 0.649545 0.301248
v 0.219508 0.520467 0.301248
v 0.219508 0.520467 0.323105
v 0.177586 0.649545 0.323105
v 0.177586 0.391388 0.301248
v 0.177586 0.391388 0.323105
v 0.067832 0.311613 0.301248
v 0.067832 0.311613 0.323105
v -0.067832 0.311613 0.301248
v -0.067832 0.311613 0.323105
v -0.177586 0.391388 0.301248
v -0.177586 0.391388 0.323105
v -0.219508 0.520467 0.301248
v -0.219508 0.520467 0.323105
v -0.177586 0.649545 0.301248
v -0.177586 0.649545 0.323105
v -0.067832 0.729320 0.301248
v -0.067832 0.729320 0.323105
v 0.067832 0.729320 0.301248
v 0.067832 0.729320 0.323105
v 0.142944 0.749396 0.284353
v 0.142944 0.749396 0.340000
v 0.254802 0.607290 0.284353
v 0.254802 0.607290 0.340000
v 0.201860 0.773015 0.284353
v 0.201860 0.773015 0.304861
v 0.288845 0.673952 0.284353
v 0.288845 0.673952 0.304861
vn -0.0000 -0.0000 -1.0000
vn -0.0000 -0.0000 1.0000
vn -0.0000 1.0000 -0.0000
vn 0.9511 -0.3089 -0.0000
vn -0.5879 -0.8089 -0.0000
vn -0.5879 0.8089 -0.0000
vn -0.0000 -1.0000 -0.0000
vn -0.9511 0.3089 -0.0000
vn 0.5879 0.8089 -0.0000
vn 0.5879 -0.8089 -0.0000
vn -0.9511 -0.3089 -0.0000
vn 0.9511 0.3089 -0.0000
vn -0.0880 -0.0286 -0.9957
vn 0.0575 0.0187 0.9982
vn -0.0880 0.0286 -0.9957
vn 0.0575 -0.0187 0.9982
vn -0.0544 0.0748 -0.9957
vn 0.0355 -0.0489 0.9982
vn -0.0000 0.0924 -0.9957
vn -0.0000 -0.0604 0.9982
vn 0.0544 0.0748 -0.9957
vn -0.0355 -0.0489 0.9982
vn 0.0880 0.0286 -0.9957
vn -0.0575 -0.0187 0.9982
vn 0.0880 -0.0286 -0.9957
vn -0.0575 0.0187 0.9982
vn 0.0544 -0.0748 -0.9957
vn -0.0355 0.0489 0.9982
vn -0.0000 -0.0924 -0.9957
vn -0.0000 0.0604 0.9982
vn -0.0544 -0.0748 -0.9957
vn 0.0355 0.0489 0.9982
vn -0.3721 0.9282 -0.0000
vn 0.8906 -0.4548 -0.0000
vn 0.7514 0.6598 -0.0000
vn 0.5213 0.4578 0.7202
vn 0.5258 0.1708 0.8333
vn 0.3217 0.4426 0.8370
vt 0.716797 0.613281
vt 0.705078 0.578125
vt 0.730469 0.578125
vt 0.761719 0.669922
vt 0.726562 0.644531
vt 0.748047 0.628906
vt 0.855469 0.687500
vt 0.792969 0.662109
vt 0.847656 0.662109
vt 0.912109 0.644531
vt 0.892578 0.628906
vt 0.933594 0.578125
vt 0.908203 0.578125
vt 0.892578 0.525391
vt 0.847656 0.492188
vt 0.912109 0.509766
vt 0.785156 0.468750
vt 0.792969 0.492188
vt 0.726562 0.509766
vt 0.748047 0.525391
vt 0.910156 0.816406
vt 0.935547 0.816406
vt 0.923828 0.851562
vt 0.892578 0.867188
vt 0.912109 0.882812
vt 0.878906 0.908203
vt 0.849609 0.900391
vt 0.787109 0.925781
vt 0.794922 0.902344
vt 0.728516 0.884766
vt 0.750000 0.869141
vt 0.705078 0.818359
vt 0.732422 0.818359
vt 0.748047 0.765625
vt 0.726562 0.750000
vt 0.792969 0.732422
vt 0.783203 0.707031
vt 0.855469 0.707031
vt 0.847656 0.732422
vt 0.912109 0.748047
vt 0.892578 0.763672
vt 0.111328 0.964844
vt 0.041016 0.986328
vt 0.041016 0.964844
vt 0.607422 0.964844
vt 0.537109 0.986328
vt 0.537109 0.964844
vt 0.394531 0.964844
vt 0.324219 0.986328
vt 0.324219 0.964844
vt 0.181641 0.986328
vt 0.111328 0.986328
vt 0.738281 0.679688
vt 0.703125 0.640625
vt 0.466797 0.964844
vt 0.394531 0.986328
vt 0.181641 0.964844
vt 0.253906 0.986328
vt 0.013672 0.986328
vt 0.013672 0.964844
vt 0.466797 0.986328
vt 0.253906 0.964844
vt 0.013672 0.400391
vt 0.068359 0.392578
vt 0.068359 0.400391
vt 0.562500 0.410156
vt 0.507812 0.416016
vt 0.507812 0.410156
vt 0.068359 0.410156
vt 0.013672 0.416016
vt 0.013672 0.410156
vt 0.123047 0.410156
vt 0.068359 0.416016
vt 0.177734 0.416016
vt 0.123047 0.416016
vt 0.232422 0.410156
vt 0.177734 0.410156
vt 0.287109 0.410156
vt 0.232422 0.416016
vt 0.343750 0.410156
vt 0.287109 0.416016
vt 0.398438 0.410156
vt 0.343750 0.416016
vt 0.453125 0.410156
vt 0.398438 0.416016
vt 0.123047 0.392578
vt 0.123047 0.400391
vt 0.232422 0.400391
vt 0.177734 0.392578
vt 0.232422 0.392578
vt 0.287109 0.392578
vt 0.287109 0.400391
vt 0.343750 0.392578
vt 0.343750 0.400391
vt 0.398438 0.392578
vt 0.398438 0.400391
vt 0.453125 0.392578
vt 0.453125 0.400391
vt 0.507812 0.392578
vt 0.507812 0.400391
vt 0.562500 0.392578
vt 0.562500 0.400391
vt 0.177734 0.400391
vt 0.453125 0.416016
vt 0.636719 0.115234
vt 0.564453 0.167969
vt 0.546875 0.115234
vt 0.824219 0.115234
vt 0.896484 0.062500
vt 0.914062 0.115234
vt 0.564453 0.062500
vt 0.851562 0.031250
vt 0.609375 0.031250
vt 0.796875 0.031250
vt 0.664062 0.031250
vt 0.753906 0.062500
vt 0.708984 0.062500
vt 0.736328 0.115234
vt 0.726562 0.115234
vt 0.753906 0.167969
vt 0.708984 0.167969
vt 0.796875 0.201172
vt 0.664062 0.201172
vt 0.851562 0.201172
vt 0.609375 0.201172
vt 0.896484 0.167969
vt 0.644531 0.986328
vt 0.607422 0.986328
vt 0.728516 0.972656
vt 0.753906 0.964844
vt 0.753906 0.986328
vt 0.644531 0.964844
vt 0.675781 0.972656
vt 0.675781 0.964844
vt 0.728516 0.964844
vt 0.941406 0.880859
vt 0.906250 0.919922
vt 0.785156 0.687500
vt 0.855469 0.468750
vt 0.857422 0.925781
vt 0.013672 0.392578
vt 0.562500 0.416016
s 0
usemtl washing-machine_dirty_512
f 65/1/1 12/2/1 1/3/1
f 63/4/1 11/5/1 2/6/1
f 14/7/1 3/8/1 4/9/1
f 15/10/1 4/9/1 5/11/1
f 16/12/1 5/11/1 6/13/1
f 7/14/1 16/12/1 6/13/1
f 8/15/1 17/16/1 7/14/1
f 19/17/1 8/15/1 9/18/1
f 20/19/1 9/18/1 10/20/1
f 12/2/1 10/20/1 1/3/1
f 21/21/2 32/22/2 66/23/2
f 22/24/2 31/25/2 64/26/2
f 23/27/2 34/28/2 24/29/2
f 24/29/2 35/30/2 25/31/2
f 25/31/2 36/32/2 26/33/2
f 27/34/2 36/32/2 37/35/2
f 28/36/2 37/35/2 38/37/2
f 28/36/2 39/38/2 29/39/2
f 29/39/2 40/40/2 30/41/2
f 30/41/2 32/22/2 21/21/2
f 14/42/3 33/43/3 13/44/3
f 12/45/4 40/46/4 20/47/4
f 18/48/5 37/49/5 17/50/5
f 14/42/6 35/51/6 34/52/6
f 67/53/1 69/54/1 11/5/1
f 19/55/7 38/56/7 18/48/7
f 15/57/8 36/58/8 35/51/8
f 13/44/9 64/59/9 63/60/9
f 20/47/10 39/61/10 19/55/10
f 17/50/11 36/58/11 16/62/11
f 59/63/7 3/64/7 61/65/7
f 24/66/7 62/67/7 23/68/7
f 25/69/10 60/70/10 24/71/10
f 26/72/4 58/73/4 25/69/4
f 26/72/12 54/74/12 56/75/12
f 28/76/9 54/74/9 27/77/9
f 29/78/3 52/79/3 28/76/3
f 30/80/6 50/81/6 29/78/6
f 21/82/8 48/83/8 30/80/8
f 22/84/11 45/85/11 21/82/11
f 61/65/5 2/86/5 43/87/5
f 47/88/8 1/89/8 10/90/8
f 47/88/6 9/91/6 49/92/6
f 49/92/3 8/93/3 51/94/3
f 51/94/9 7/95/9 53/96/9
f 53/96/12 6/97/12 55/98/12
f 55/98/4 5/99/4 57/100/4
f 57/100/10 4/101/10 59/102/10
f 43/87/11 1/89/11 44/103/11
f 23/68/5 46/104/5 22/84/5
f 42/105/13 43/106/13 44/107/13
f 41/108/14 45/109/14 46/110/14
f 42/105/15 44/107/15 47/111/15
f 41/108/16 48/112/16 45/109/16
f 42/105/17 47/111/17 49/113/17
f 41/108/18 50/114/18 48/112/18
f 42/105/19 49/113/19 51/115/19
f 41/108/20 52/116/20 50/114/20
f 42/105/21 51/115/21 53/117/21
f 41/108/22 54/118/22 52/116/22
f 42/105/23 53/117/23 55/119/23
f 41/108/24 56/120/24 54/118/24
f 42/105/25 55/119/25 57/121/25
f 41/108/26 58/122/26 56/120/26
f 42/105/27 57/121/27 59/123/27
f 41/108/28 60/124/28 58/122/28
f 42/105/29 59/123/29 61/125/29
f 41/108/30 62/126/30 60/124/30
f 42/105/31 61/125/31 43/106/31
f 41/108/32 46/110/32 62/126/32
f 65/1/1 11/5/1 69/54/1
f 12/45/12 66/127/12 32/128/12
f 68/129/33 63/130/33 64/131/33
f 65/132/34 70/133/34 66/127/34
f 68/129/35 69/134/35 67/135/35
f 11/5/1 63/4/1 67/53/1
f 70/136/36 68/137/36 31/25/36
f 70/136/37 31/25/37 66/23/37
f 64/26/38 31/25/38 68/137/38
f 1/3/1 2/6/1 65/1/1
f 2/6/1 11/5/1 65/1/1
f 2/6/1 3/8/1 63/4/1
f 3/8/1 13/138/1 63/4/1
f 14/7/1 13/138/1 3/8/1
f 15/10/1 14/7/1 4/9/1
f 16/12/1 15/10/1 5/11/1
f 7/14/1 17/16/1 16/12/1
f 8/15/1 18/139/1 17/16/1
f 19/17/1 18/139/1 8/15/1
f 20/19/1 19/17/1 9/18/1
f 12/2/1 20/19/1 10/20/1
f 31/25/2 22/24/2 66/23/2
f 22/24/2 21/21/2 66/23/2
f 33/140/2 23/27/2 64/26/2
f 23/27/2 22/24/2 64/26/2
f 23/27/2 33/140/2 34/28/2
f 24/29/2 34/28/2 35/30/2
f 25/31/2 35/30/2 36/32/2
f 27/34/2 26/33/2 36/32/2
f 28/36/2 27/34/2 37/35/2
f 28/36/2 38/37/2 39/38/2
f 29/39/2 39/38/2 40/40/2
f 30/41/2 40/40/2 32/22/2
f 14/42/3 34/52/3 33/43/3
f 12/45/4 32/128/4 40/46/4
f 18/48/5 38/56/5 37/49/5
f 14/42/6 15/57/6 35/51/6
f 19/55/7 39/61/7 38/56/7
f 15/57/8 16/62/8 36/58/8
f 13/44/9 33/43/9 64/59/9
f 20/47/10 40/46/10 39/61/10
f 17/50/11 37/49/11 36/58/11
f 59/63/7 4/141/7 3/64/7
f 24/66/7 60/142/7 62/67/7
f 25/69/10 58/73/10 60/70/10
f 26/72/4 56/75/4 58/73/4
f 26/72/12 27/77/12 54/74/12
f 28/76/9 52/79/9 54/74/9
f 29/78/3 50/81/3 52/79/3
f 30/80/6 48/83/6 50/81/6
f 21/82/8 45/85/8 48/83/8
f 22/84/11 46/104/11 45/85/11
f 61/65/5 3/64/5 2/86/5
f 47/88/8 44/103/8 1/89/8
f 47/88/6 10/90/6 9/91/6
f 49/92/3 9/91/3 8/93/3
f 51/94/9 8/93/9 7/95/9
f 53/96/12 7/95/12 6/97/12
f 55/98/4 6/97/4 5/99/4
f 57/100/10 5/99/10 4/101/10
f 43/87/11 2/86/11 1/89/11
f 23/68/5 62/67/5 46/104/5
f 12/45/12 65/132/12 66/127/12
f 68/129/33 67/135/33 63/130/33
f 65/132/34 69/134/34 70/133/34
f 68/129/35 70/133/35 69/134/35
