# Blender 4.4.3
# www.blender.org
mtllib washing-machine_dirty.mtl
o washing-machine_dirty-col
v -0.292312 0.453562 0.304861
v -0.370000 0.990000 0.284352
v -0.247661 0.453562 0.304861
v 0.370000 0.990000 0.284352
v -0.292312 0.587371 0.304861
v -0.370000 0.000000 0.284352
v -0.247661 0.587371 0.304861
v 0.370000 0.000000 0.284352
v 0.219508 0.520467 0.225067
v 0.177586 0.649545 0.225067
v 0.067832 0.729320 0.225067
v -0.067832 0.729320 0.225067
v -0.177586 0.649545 0.225067
v -0.177586 0.391388 0.225067
v -0.067832 0.311613 0.225067
v 0.067832 0.311613 0.225067
v 0.177586 0.391388 0.225067
v -0.370000 0.520467 0.284352
v 0.370000 0.520467 0.284352
v 0.228952 0.686881 0.284352
v 0.283000 0.520467 0.284352
v 0.087452 0.789730 0.284352
v -0.087452 0.789730 0.284352
v -0.228952 0.686881 0.284352
v -0.228952 0.354052 0.284352
v -0.087452 0.251203 0.284352
v 0.087452 0.251203 0.284352
v 0.228952 0.354052 0.284352
v -0.370000 0.990000 -0.340000
v 0.370000 0.990000 -0.340000
v -0.370000 0.000001 -0.340000
v 0.370000 0.000001 -0.340000
v 0.219508 0.520467 -0.301596
v 0.177586 0.649546 -0.301596
v 0.067832 0.729321 -0.301596
v -0.067832 0.729321 -0.301596
v -0.177586 0.649546 -0.301596
v -0.219508 0.520467 -0.301596
v -0.177586 0.391388 -0.301597
v -0.067832 0.311613 -0.301597
v 0.067832 0.311613 -0.301597
v 0.177586 0.391388 -0.301597
v -0.292312 0.520467 0.284352
v -0.292312 0.453562 0.284352
v -0.292312 0.587371 0.284352
v -0.261271 0.587371 0.284352
v -0.247661 0.587371 0.271644
v -0.261271 0.453562 0.284352
v -0.247661 0.453562 0.271644
v -0.219508 0.520467 0.225067
v -0.247661 0.520467 0.304861
vn -0.0000 -0.0000 1.0000
vn -1.0000 -0.0000 -0.0000
vn -0.0000 1.0000 -0.0000
vn -0.0000 -1.0000 -0.0000
vn 0.9217 -0.3879 -0.0000
vn -0.6663 -0.2164 0.7136
vn -0.4118 -0.5666 0.7137
vn -0.0000 -0.7004 0.7137
vn 0.4118 -0.5666 0.7137
vn 0.6663 -0.2164 0.7136
vn 0.6663 0.2164 0.7136
vn 0.4118 0.5666 0.7137
vn -0.0000 0.7004 0.7137
vn -0.4118 0.5666 0.7137
vn -0.6663 0.2164 0.7136
vn 1.0000 -0.0000 -0.0000
vn -0.0000 -0.0000 -1.0000
vn -0.9511 0.3089 -0.0000
vn 0.5879 0.8089 -0.0000
vn 0.5879 -0.8089 -0.0000
vn -0.9511 -0.3089 -0.0000
vn 0.9511 -0.3089 -0.0000
vn -0.5879 -0.8089 -0.0000
vn -0.5879 0.8089 -0.0000
vn 0.9511 0.3089 -0.0000
vn 0.9217 0.3879 -0.0000
vn 0.9430 -0.0000 0.3327
vt 0.091797 0.876953
vt 0.105469 0.855469
vt 0.105469 0.876953
vt 0.083984 0.876953
vt 0.083984 0.855469
vt 0.105469 0.886719
vt 0.101562 0.882812
vt 0.091797 0.832031
vt 0.091797 0.826172
vt 0.101562 0.826172
vt 0.128906 0.806641
vt 0.105469 0.832031
vt 0.105469 0.822266
vt 0.271484 0.652344
vt 0.318359 0.685547
vt 0.222656 0.751953
vt 0.464844 0.751953
vt 0.375000 0.685547
vt 0.419922 0.652344
vt 0.464844 0.597656
vt 0.437500 0.597656
vt 0.419922 0.542969
vt 0.464844 0.425781
vt 0.373047 0.507812
vt 0.314453 0.507812
vt 0.222656 0.425781
vt 0.269531 0.542969
vt 0.257812 0.576172
vt 0.248047 0.576172
vt 0.222656 0.599609
vt 0.250000 0.597656
vt 0.250000 0.621094
vt 0.396484 0.636719
vt 0.365234 0.660156
vt 0.326172 0.660156
vt 0.292969 0.634766
vt 0.265625 0.619141
vt 0.265625 0.576172
vt 0.324219 0.535156
vt 0.365234 0.535156
vt 0.396484 0.560547
vt 0.410156 0.599609
vt 0.013672 0.142578
vt 0.216797 0.142578
vt 0.216797 0.382812
vt 0.013672 0.751953
vt 0.464844 0.953125
vt 0.222656 0.953125
vt 0.669922 0.425781
vt 0.669922 0.750000
vt 0.013672 0.425781
vt 0.537109 0.142578
vt 0.537109 0.382812
vt 0.013672 0.382812
vt 0.943359 0.382812
vt 0.986328 0.210938
vt 0.986328 0.382812
vt 0.679688 0.382812
vt 0.634766 0.210938
vt 0.679688 0.210938
vt 0.810547 0.382812
vt 0.767578 0.210938
vt 0.810547 0.210938
vt 0.898438 0.210938
vt 0.943359 0.210938
vt 0.591797 0.382812
vt 0.634766 0.382812
vt 0.722656 0.382812
vt 0.767578 0.382812
vt 0.898438 0.382812
vt 0.855469 0.210938
vt 0.546875 0.382812
vt 0.591797 0.210938
vt 0.722656 0.210938
vt 0.855469 0.382812
vt 0.519531 0.894531
vt 0.505859 0.853516
vt 0.554688 0.787109
vt 0.128906 0.902344
vt 0.091797 0.882812
vt 0.083984 0.832031
vt 0.132812 0.855469
vt 0.259766 0.621094
vt 0.291016 0.558594
vt 0.279297 0.599609
vt 0.546875 0.210938
vt 0.519531 0.812500
vt 0.597656 0.787109
vt 0.554688 0.919922
vt 0.630859 0.812500
vt 0.644531 0.853516
vt 0.630859 0.894531
vt 0.597656 0.919922
s 0
usemtl washing-machine_dirty_512
f 5/1/1 51/2/1 7/3/1
f 5/1/2 45/4/2 43/5/2
f 7/3/3 47/6/3 46/7/3
f 1/8/4 44/9/4 48/10/4
f 50/11/5 3/12/5 49/13/5
f 24/14/1 23/15/1 2/16/1
f 4/17/1 23/15/1 22/18/1
f 22/18/1 20/19/1 4/17/1
f 19/20/1 20/19/1 21/21/1
f 19/20/1 28/22/1 8/23/1
f 28/22/1 27/24/1 8/23/1
f 8/23/1 26/25/1 6/26/1
f 26/25/1 25/27/1 6/26/1
f 25/27/1 48/28/1 44/29/1
f 18/30/1 43/31/1 45/32/1
f 10/33/6 21/21/6 20/19/6
f 11/34/7 20/19/7 22/18/7
f 11/34/8 23/15/8 12/35/8
f 12/35/9 24/14/9 13/36/9
f 47/37/10 13/36/10 24/14/10
f 49/38/11 48/28/11 25/27/11
f 15/39/12 25/27/12 26/25/12
f 15/39/13 27/24/13 16/40/13
f 16/40/14 28/22/14 17/41/14
f 17/41/15 21/21/15 9/42/15
f 6/43/4 31/44/4 32/45/4
f 18/30/2 2/16/2 29/46/2
f 4/17/3 30/47/3 29/48/3
f 19/20/16 32/49/16 30/50/16
f 18/30/2 29/46/2 31/51/2
f 6/26/2 18/30/2 31/51/2
f 29/52/17 30/53/17 32/45/17
f 19/20/16 8/23/16 32/49/16
f 4/17/16 19/20/16 30/50/16
f 8/54/4 6/43/4 32/45/4
f 31/44/17 29/52/17 32/45/17
f 2/16/3 4/17/3 29/48/3
f 12/55/4 35/56/4 11/57/4
f 17/58/18 33/59/18 42/60/18
f 14/61/19 40/62/19 39/63/19
f 12/55/20 37/64/20 36/65/20
f 10/66/21 33/59/21 9/67/21
f 16/68/3 40/62/3 15/69/3
f 13/70/22 38/71/22 37/64/22
f 11/72/23 34/73/23 10/66/23
f 17/58/24 41/74/24 16/68/24
f 14/61/25 38/71/25 50/75/25
f 39/76/1 40/77/1 42/78/1
f 47/6/26 7/3/26 50/79/26
f 5/1/3 7/3/3 46/7/3
f 49/13/4 3/12/4 48/10/4
f 3/12/4 1/8/4 48/10/4
f 45/80/3 5/1/3 46/7/3
f 1/8/2 5/1/2 43/5/2
f 44/81/2 1/8/2 43/5/2
f 1/8/1 3/12/1 51/2/1
f 5/1/1 1/8/1 51/2/1
f 51/2/27 50/82/27 7/3/27
f 46/83/10 47/37/10 24/14/10
f 49/38/11 14/84/11 50/85/11
f 4/17/1 2/16/1 23/15/1
f 19/20/1 4/17/1 20/19/1
f 19/20/1 21/21/1 28/22/1
f 8/23/1 27/24/1 26/25/1
f 44/29/1 43/31/1 18/30/1
f 18/30/1 6/26/1 44/29/1
f 6/26/1 25/27/1 44/29/1
f 45/32/1 46/83/1 24/14/1
f 24/14/1 2/16/1 45/32/1
f 2/16/1 18/30/1 45/32/1
f 10/33/6 9/42/6 21/21/6
f 11/34/7 10/33/7 20/19/7
f 11/34/8 22/18/8 23/15/8
f 12/35/9 23/15/9 24/14/9
f 47/37/10 50/85/10 13/36/10
f 15/39/12 14/84/12 25/27/12
f 15/39/13 26/25/13 27/24/13
f 16/40/14 27/24/14 28/22/14
f 17/41/15 28/22/15 21/21/15
f 12/55/4 36/65/4 35/56/4
f 17/58/18 9/67/18 33/59/18
f 14/61/19 15/69/19 40/62/19
f 12/55/20 13/70/20 37/64/20
f 10/66/21 34/73/21 33/59/21
f 16/68/3 41/74/3 40/62/3
f 13/70/22 50/75/22 38/71/22
f 11/72/23 35/86/23 34/73/23
f 17/58/24 42/60/24 41/74/24
f 14/61/25 39/63/25 38/71/25
f 40/77/1 41/87/1 42/78/1
f 42/78/1 33/88/1 38/89/1
f 33/88/1 34/90/1 38/89/1
f 34/90/1 35/91/1 36/92/1
f 36/92/1 37/93/1 34/90/1
f 37/93/1 38/89/1 34/90/1
f 38/89/1 39/76/1 42/78/1
f 51/2/27 3/12/27 50/82/27
f 49/38/11 25/27/11 14/84/11
