# Blender 4.4.3
# www.blender.org
mtllib water-puddle.mtl
o water-puddle
v 0.081803 0.000000 0.457682
v 0.474382 0.000000 0.288733
v 0.570955 0.000000 -0.063891
v 0.443741 0.000000 -0.377714
v -0.585589 0.000000 0.279612
v -0.598814 0.000000 -0.127704
v -0.352019 0.000000 -0.380297
v 0.052702 0.000000 -0.442071
v 0.008571 0.008602 -0.037848
vn -0.0048 0.9998 0.0181
vn 0.0070 0.9998 0.0163
vn 0.0155 0.9999 0.0042
vn 0.0150 0.9999 -0.0061
vn -0.0142 0.9999 0.0005
vn -0.0124 0.9999 -0.0121
vn -0.0033 0.9998 -0.0216
vn 0.0034 0.9998 -0.0209
vt 0.518546 0.524428
vt 0.017371 0.263914
vt 0.575227 0.108243
vt 0.905992 0.246170
vt 0.990322 0.540914
vt 0.886642 0.805253
vt 0.010154 0.605560
vt 0.219479 0.815003
vt 0.559395 0.862955
s 0
usemtl water-puddle_128
f 9/1/1 5/2/1 1/3/1
f 9/1/2 1/3/2 2/4/2
f 9/1/3 2/4/3 3/5/3
f 9/1/4 3/5/4 4/6/4
f 9/1/5 6/7/5 5/2/5
f 9/1/6 7/8/6 6/7/6
f 9/1/7 8/9/7 7/8/7
f 9/1/8 4/6/8 8/9/8
